G75*
G70*
%OFA0B0*%
%FSLAX24Y24*%
%IPPOS*%
%LPD*%
%AMOC8*
5,1,8,0,0,1.08239X$1,22.5*
%
%ADD10C,0.0000*%
%ADD11R,0.0111X0.0022*%
%ADD12R,1.4941X0.0022*%
%ADD13R,1.5096X0.0022*%
%ADD14R,1.5207X0.0022*%
%ADD15R,1.5318X0.0022*%
%ADD16R,1.5407X0.0022*%
%ADD17R,1.5473X0.0022*%
%ADD18R,1.5540X0.0022*%
%ADD19R,1.5629X0.0022*%
%ADD20R,1.5673X0.0022*%
%ADD21R,1.5718X0.0022*%
%ADD22R,1.5762X0.0022*%
%ADD23R,1.5806X0.0022*%
%ADD24R,1.5851X0.0022*%
%ADD25R,1.5873X0.0022*%
%ADD26R,1.5895X0.0022*%
%ADD27R,1.5940X0.0022*%
%ADD28R,1.5984X0.0022*%
%ADD29R,1.6006X0.0022*%
%ADD30R,1.6028X0.0022*%
%ADD31R,1.6051X0.0022*%
%ADD32R,1.6073X0.0022*%
%ADD33R,1.6095X0.0022*%
%ADD34R,1.6117X0.0022*%
%ADD35R,1.6139X0.0022*%
%ADD36R,1.6162X0.0022*%
%ADD37R,1.6184X0.0022*%
%ADD38R,1.6206X0.0022*%
%ADD39R,1.6206X0.0022*%
%ADD40R,1.6228X0.0022*%
%ADD41R,0.0821X0.0022*%
%ADD42R,0.0910X0.0022*%
%ADD43R,0.0844X0.0022*%
%ADD44R,0.0844X0.0022*%
%ADD45R,0.0821X0.0022*%
%ADD46R,0.0910X0.0022*%
%ADD47R,0.0844X0.0022*%
%ADD48R,0.0799X0.0022*%
%ADD49R,0.0821X0.0022*%
%ADD50R,0.0888X0.0022*%
%ADD51R,0.0799X0.0022*%
%ADD52R,0.0888X0.0022*%
%ADD53R,0.0866X0.0022*%
%ADD54R,0.0866X0.0022*%
%ADD55R,0.0866X0.0022*%
%ADD56R,0.0932X0.0022*%
%ADD57R,0.0866X0.0022*%
%ADD58R,0.0932X0.0022*%
%ADD59R,0.0977X0.0022*%
%ADD60R,0.0888X0.0022*%
%ADD61R,0.1021X0.0022*%
%ADD62R,0.1066X0.0022*%
%ADD63R,0.0888X0.0022*%
%ADD64R,0.1066X0.0022*%
%ADD65R,0.1110X0.0022*%
%ADD66R,0.1154X0.0022*%
%ADD67R,0.1199X0.0022*%
%ADD68R,0.1243X0.0022*%
%ADD69R,0.1243X0.0022*%
%ADD70R,0.1288X0.0022*%
%ADD71R,0.1332X0.0022*%
%ADD72R,0.0910X0.0022*%
%ADD73R,0.1376X0.0022*%
%ADD74R,0.1421X0.0022*%
%ADD75R,0.1465X0.0022*%
%ADD76R,0.1510X0.0022*%
%ADD77R,0.1554X0.0022*%
%ADD78R,0.0955X0.0022*%
%ADD79R,0.1598X0.0022*%
%ADD80R,0.1643X0.0022*%
%ADD81R,0.1687X0.0022*%
%ADD82R,0.1732X0.0022*%
%ADD83R,0.0999X0.0022*%
%ADD84R,0.1776X0.0022*%
%ADD85R,0.0977X0.0022*%
%ADD86R,0.1820X0.0022*%
%ADD87R,0.0955X0.0022*%
%ADD88R,0.0977X0.0022*%
%ADD89R,0.1865X0.0022*%
%ADD90R,0.1043X0.0022*%
%ADD91R,0.0977X0.0022*%
%ADD92R,0.0955X0.0022*%
%ADD93R,0.1931X0.0022*%
%ADD94R,0.1088X0.0022*%
%ADD95R,0.1998X0.0022*%
%ADD96R,0.0999X0.0022*%
%ADD97R,0.2042X0.0022*%
%ADD98R,0.1132X0.0022*%
%ADD99R,0.2131X0.0022*%
%ADD100R,0.1177X0.0022*%
%ADD101R,0.2176X0.0022*%
%ADD102R,0.1221X0.0022*%
%ADD103R,0.1043X0.0022*%
%ADD104R,0.2264X0.0022*%
%ADD105R,0.1199X0.0022*%
%ADD106R,0.2353X0.0022*%
%ADD107R,0.1043X0.0022*%
%ADD108R,0.1043X0.0022*%
%ADD109R,0.1265X0.0022*%
%ADD110R,0.2442X0.0022*%
%ADD111R,0.1332X0.0022*%
%ADD112R,0.1310X0.0022*%
%ADD113R,0.2531X0.0022*%
%ADD114R,0.1354X0.0022*%
%ADD115R,0.1376X0.0022*%
%ADD116R,0.2642X0.0022*%
%ADD117R,0.2775X0.0022*%
%ADD118R,0.1088X0.0022*%
%ADD119R,0.1510X0.0022*%
%ADD120R,0.2908X0.0022*%
%ADD121R,0.1532X0.0022*%
%ADD122R,0.1399X0.0022*%
%ADD123R,0.1621X0.0022*%
%ADD124R,0.1465X0.0022*%
%ADD125R,0.1709X0.0022*%
%ADD126R,0.1132X0.0022*%
%ADD127R,0.1177X0.0022*%
%ADD128R,0.1665X0.0022*%
%ADD129R,0.1887X0.0022*%
%ADD130R,0.1177X0.0022*%
%ADD131R,0.2198X0.0022*%
%ADD132R,0.1887X0.0022*%
%ADD133R,0.2176X0.0022*%
%ADD134R,0.2131X0.0022*%
%ADD135R,0.1221X0.0022*%
%ADD136R,0.4351X0.0022*%
%ADD137R,0.4618X0.0022*%
%ADD138R,0.1221X0.0022*%
%ADD139R,0.4351X0.0022*%
%ADD140R,0.0355X0.0022*%
%ADD141R,0.4218X0.0022*%
%ADD142R,0.1399X0.0022*%
%ADD143R,0.4329X0.0022*%
%ADD144R,0.1443X0.0022*%
%ADD145R,0.4196X0.0022*%
%ADD146R,0.1554X0.0022*%
%ADD147R,0.4307X0.0022*%
%ADD148R,0.0377X0.0022*%
%ADD149R,0.4174X0.0022*%
%ADD150R,0.1598X0.0022*%
%ADD151R,0.4307X0.0022*%
%ADD152R,0.0377X0.0022*%
%ADD153R,0.4129X0.0022*%
%ADD154R,0.1754X0.0022*%
%ADD155R,0.4307X0.0022*%
%ADD156R,0.1798X0.0022*%
%ADD157R,0.1865X0.0022*%
%ADD158R,0.4329X0.0022*%
%ADD159R,0.4107X0.0022*%
%ADD160R,0.2020X0.0022*%
%ADD161R,0.4063X0.0022*%
%ADD162R,0.2264X0.0022*%
%ADD163R,0.3241X0.0022*%
%ADD164R,0.6371X0.0022*%
%ADD165R,0.3730X0.0022*%
%ADD166R,0.3175X0.0022*%
%ADD167R,0.6305X0.0022*%
%ADD168R,0.3685X0.0022*%
%ADD169R,0.3086X0.0022*%
%ADD170R,0.3108X0.0022*%
%ADD171R,0.3619X0.0022*%
%ADD172R,0.3041X0.0022*%
%ADD173R,0.0355X0.0022*%
%ADD174R,0.3041X0.0022*%
%ADD175R,0.3064X0.0022*%
%ADD176R,0.3574X0.0022*%
%ADD177R,0.2953X0.0022*%
%ADD178R,0.3019X0.0022*%
%ADD179R,0.3530X0.0022*%
%ADD180R,0.2886X0.0022*%
%ADD181R,0.2886X0.0022*%
%ADD182R,0.2997X0.0022*%
%ADD183R,0.3463X0.0022*%
%ADD184R,0.2797X0.0022*%
%ADD185R,0.2975X0.0022*%
%ADD186R,0.3441X0.0022*%
%ADD187R,0.2708X0.0022*%
%ADD188R,0.2708X0.0022*%
%ADD189R,0.2930X0.0022*%
%ADD190R,0.3397X0.0022*%
%ADD191R,0.2620X0.0022*%
%ADD192R,0.3330X0.0022*%
%ADD193R,0.2531X0.0022*%
%ADD194R,0.2864X0.0022*%
%ADD195R,0.3263X0.0022*%
%ADD196R,0.2442X0.0022*%
%ADD197R,0.0155X0.0022*%
%ADD198R,0.2420X0.0022*%
%ADD199R,0.2819X0.0022*%
%ADD200R,0.3241X0.0022*%
%ADD201R,0.2331X0.0022*%
%ADD202R,0.0222X0.0022*%
%ADD203R,0.0355X0.0022*%
%ADD204R,0.3197X0.0022*%
%ADD205R,0.2198X0.0022*%
%ADD206R,0.0289X0.0022*%
%ADD207R,0.0355X0.0022*%
%ADD208R,0.2731X0.0022*%
%ADD209R,0.3152X0.0022*%
%ADD210R,0.2087X0.0022*%
%ADD211R,0.0311X0.0022*%
%ADD212R,0.2686X0.0022*%
%ADD213R,0.3130X0.0022*%
%ADD214R,0.1954X0.0022*%
%ADD215R,0.0333X0.0022*%
%ADD216R,0.3041X0.0022*%
%ADD217R,0.2553X0.0022*%
%ADD218R,0.2509X0.0022*%
%ADD219R,0.2464X0.0022*%
%ADD220R,0.2398X0.0022*%
%ADD221R,0.2953X0.0022*%
%ADD222R,0.0333X0.0022*%
%ADD223R,0.0333X0.0022*%
%ADD224R,0.2353X0.0022*%
%ADD225R,0.0289X0.0022*%
%ADD226R,0.0244X0.0022*%
%ADD227R,0.2220X0.0022*%
%ADD228R,0.0178X0.0022*%
%ADD229R,0.2131X0.0022*%
%ADD230R,0.0022X0.0022*%
%ADD231R,0.2065X0.0022*%
%ADD232R,0.1754X0.0022*%
%ADD233R,0.3064X0.0022*%
%ADD234R,0.1643X0.0022*%
%ADD235R,0.2153X0.0022*%
%ADD236R,0.1443X0.0022*%
%ADD237R,0.0844X0.0022*%
%ADD238R,0.1487X0.0022*%
%ADD239R,0.0266X0.0022*%
%ADD240R,0.1576X0.0022*%
%ADD241R,0.1598X0.0022*%
%ADD242R,0.1643X0.0022*%
%ADD243R,0.1709X0.0022*%
%ADD244R,0.1732X0.0022*%
%ADD245R,0.0289X0.0022*%
%ADD246R,0.0377X0.0022*%
%ADD247R,0.1843X0.0022*%
%ADD248R,0.1843X0.0022*%
%ADD249R,0.1021X0.0022*%
%ADD250R,0.1021X0.0022*%
%ADD251R,0.0821X0.0022*%
%ADD252R,0.0333X0.0022*%
%ADD253R,0.1021X0.0022*%
%ADD254R,0.0311X0.0022*%
%ADD255R,0.0222X0.0022*%
%ADD256R,0.0488X0.0022*%
%ADD257R,0.0755X0.0022*%
%ADD258R,0.1887X0.0022*%
%ADD259R,0.1998X0.0022*%
%ADD260R,0.2065X0.0022*%
%ADD261R,0.2375X0.0022*%
%ADD262R,0.2398X0.0022*%
%ADD263R,0.0799X0.0022*%
%ADD264R,0.2597X0.0022*%
%ADD265R,0.2664X0.0022*%
%ADD266R,0.2930X0.0022*%
%ADD267R,0.3041X0.0022*%
%ADD268R,0.3064X0.0022*%
%ADD269R,0.3152X0.0022*%
%ADD270R,0.3197X0.0022*%
%ADD271R,0.1199X0.0022*%
%ADD272R,0.1354X0.0022*%
%ADD273R,0.1332X0.0022*%
%ADD274R,0.1066X0.0022*%
%ADD275R,0.1265X0.0022*%
%ADD276R,0.1221X0.0022*%
%ADD277R,0.1487X0.0022*%
%ADD278R,0.1976X0.0022*%
%ADD279R,0.2087X0.0022*%
%ADD280R,0.2287X0.0022*%
%ADD281R,0.2464X0.0022*%
%ADD282R,0.2753X0.0022*%
%ADD283R,0.2842X0.0022*%
%ADD284R,0.3064X0.0022*%
%ADD285R,0.0955X0.0022*%
%ADD286R,0.3152X0.0022*%
%ADD287R,0.3219X0.0022*%
%ADD288R,0.3286X0.0022*%
%ADD289R,0.3374X0.0022*%
%ADD290R,0.3552X0.0022*%
%ADD291R,0.3619X0.0022*%
%ADD292R,0.4507X0.0022*%
%ADD293R,0.4529X0.0022*%
%ADD294R,0.4551X0.0022*%
%ADD295R,0.4573X0.0022*%
%ADD296R,0.4595X0.0022*%
%ADD297R,0.2509X0.0022*%
%ADD298R,0.1132X0.0022*%
%ADD299R,0.1154X0.0022*%
%ADD300R,0.2420X0.0022*%
%ADD301R,0.1154X0.0022*%
%ADD302R,0.2331X0.0022*%
%ADD303R,0.2242X0.0022*%
%ADD304R,0.1154X0.0022*%
%ADD305R,0.1798X0.0022*%
%ADD306R,0.0932X0.0022*%
%ADD307R,0.1243X0.0022*%
%ADD308R,0.1687X0.0022*%
%ADD309R,0.1643X0.0022*%
%ADD310R,0.1598X0.0022*%
%ADD311R,0.2420X0.0022*%
%ADD312R,0.2375X0.0022*%
%ADD313R,0.2309X0.0022*%
%ADD314R,0.1998X0.0022*%
%ADD315R,0.1954X0.0022*%
%ADD316R,0.1443X0.0022*%
%ADD317R,0.1621X0.0022*%
%ADD318R,0.1421X0.0022*%
%ADD319R,0.1399X0.0022*%
%ADD320R,0.0622X0.0022*%
%ADD321R,0.1132X0.0022*%
%ADD322R,0.1310X0.0022*%
%ADD323R,0.0932X0.0022*%
%ADD324R,0.1776X0.0022*%
%ADD325R,0.0999X0.0022*%
%ADD326R,0.1909X0.0022*%
%ADD327R,0.1976X0.0022*%
%ADD328R,0.1909X0.0022*%
%ADD329R,0.1376X0.0022*%
%ADD330R,0.1820X0.0022*%
%ADD331R,0.1510X0.0022*%
%ADD332R,0.1554X0.0022*%
%ADD333R,0.0555X0.0022*%
%ADD334R,0.1931X0.0022*%
%ADD335R,0.0555X0.0022*%
%ADD336R,0.1532X0.0022*%
%ADD337R,0.1843X0.0022*%
%ADD338R,0.1820X0.0022*%
%ADD339R,0.1776X0.0022*%
%ADD340R,0.1310X0.0022*%
%ADD341R,0.1621X0.0022*%
%ADD342R,0.1576X0.0022*%
%ADD343R,0.1532X0.0022*%
%ADD344R,0.0577X0.0022*%
%ADD345R,0.1265X0.0022*%
%ADD346R,0.0755X0.0022*%
%ADD347R,0.0577X0.0022*%
%ADD348R,0.0688X0.0022*%
%ADD349R,0.0511X0.0022*%
%ADD350R,0.0577X0.0022*%
%ADD351R,0.0444X0.0022*%
%ADD352R,0.0599X0.0022*%
%ADD353R,0.0311X0.0022*%
%ADD354R,0.0599X0.0022*%
%ADD355R,0.0133X0.0022*%
%ADD356R,0.0599X0.0022*%
%ADD357R,0.1110X0.0022*%
%ADD358R,0.0622X0.0022*%
%ADD359R,0.0622X0.0022*%
%ADD360R,0.0644X0.0022*%
%ADD361R,0.0644X0.0022*%
%ADD362R,0.0666X0.0022*%
%ADD363R,0.0666X0.0022*%
%ADD364R,0.0688X0.0022*%
%ADD365R,0.0688X0.0022*%
%ADD366R,0.0710X0.0022*%
%ADD367R,0.0733X0.0022*%
%ADD368R,0.0222X0.0022*%
%ADD369R,0.0311X0.0022*%
%ADD370R,0.0777X0.0022*%
%ADD371R,0.0777X0.0022*%
%ADD372R,0.0266X0.0022*%
%ADD373R,0.0155X0.0022*%
%ADD374R,0.0466X0.0022*%
%ADD375R,0.1576X0.0022*%
%ADD376R,0.3929X0.0022*%
%ADD377R,0.3508X0.0022*%
%ADD378R,0.3419X0.0022*%
%ADD379R,0.0400X0.0022*%
%ADD380R,0.3352X0.0022*%
%ADD381R,0.3263X0.0022*%
%ADD382R,0.3197X0.0022*%
%ADD383R,0.3108X0.0022*%
%ADD384R,0.0400X0.0022*%
%ADD385R,0.2109X0.0022*%
%ADD386R,0.2198X0.0022*%
%ADD387R,0.2242X0.0022*%
%ADD388R,0.0400X0.0022*%
%ADD389R,0.0733X0.0022*%
%ADD390R,0.0733X0.0022*%
%ADD391R,0.0733X0.0022*%
%ADD392R,0.0799X0.0022*%
%ADD393R,0.0710X0.0022*%
%ADD394R,0.0710X0.0022*%
%ADD395R,0.0377X0.0022*%
%ADD396R,0.0466X0.0022*%
%ADD397R,0.0266X0.0022*%
%ADD398R,0.2176X0.0022*%
%ADD399R,0.1931X0.0022*%
%ADD400R,0.2353X0.0022*%
%ADD401R,0.3019X0.0022*%
%ADD402R,0.3530X0.0022*%
%ADD403R,0.3841X0.0022*%
%ADD404R,0.4018X0.0022*%
%ADD405R,0.4151X0.0022*%
%ADD406R,0.4440X0.0022*%
%ADD407R,0.4729X0.0022*%
%ADD408R,0.4884X0.0022*%
%ADD409R,0.5039X0.0022*%
%ADD410R,0.5173X0.0022*%
%ADD411R,0.5306X0.0022*%
%ADD412R,0.6283X0.0022*%
%ADD413R,0.0755X0.0022*%
%ADD414R,0.5039X0.0022*%
%ADD415R,0.0466X0.0022*%
%ADD416R,0.4840X0.0022*%
%ADD417R,0.4640X0.0022*%
%ADD418R,0.4484X0.0022*%
%ADD419R,0.4129X0.0022*%
%ADD420R,0.3974X0.0022*%
%ADD421R,0.3796X0.0022*%
%ADD422R,0.3641X0.0022*%
%ADD423R,0.3175X0.0022*%
%ADD424R,0.2287X0.0022*%
%ADD425R,0.2153X0.0022*%
%ADD426R,0.2042X0.0022*%
%ADD427R,0.1288X0.0022*%
%ADD428R,0.0400X0.0022*%
%ADD429R,0.1976X0.0022*%
%ADD430R,0.2087X0.0022*%
%ADD431R,0.2198X0.0022*%
%ADD432R,0.2309X0.0022*%
%ADD433R,0.0466X0.0022*%
%ADD434R,0.0111X0.0022*%
%ADD435R,0.0200X0.0022*%
%ADD436R,0.4484X0.0022*%
%ADD437R,0.4418X0.0022*%
%ADD438R,0.4285X0.0022*%
%ADD439R,0.4240X0.0022*%
%ADD440R,0.4174X0.0022*%
%ADD441R,0.4085X0.0022*%
%ADD442R,0.3929X0.0022*%
%ADD443R,0.3774X0.0022*%
%ADD444R,0.3596X0.0022*%
%ADD445R,0.0067X0.0022*%
%ADD446R,0.3485X0.0022*%
%ADD447R,0.3397X0.0022*%
%ADD448R,0.2664X0.0022*%
%ADD449R,0.1243X0.0022*%
%ADD450R,0.0178X0.0022*%
%ADD451R,0.1354X0.0022*%
%ADD452R,0.1931X0.0022*%
%ADD453R,0.2664X0.0022*%
%ADD454R,0.2864X0.0022*%
%ADD455R,0.3286X0.0022*%
%ADD456R,0.3641X0.0022*%
%ADD457R,0.3752X0.0022*%
%ADD458R,0.3863X0.0022*%
%ADD459R,0.2287X0.0022*%
%ADD460R,0.5883X0.0022*%
%ADD461R,0.5861X0.0022*%
%ADD462R,0.5794X0.0022*%
%ADD463R,0.5750X0.0022*%
%ADD464R,0.5728X0.0022*%
%ADD465R,0.5683X0.0022*%
%ADD466R,0.5661X0.0022*%
%ADD467R,0.5617X0.0022*%
%ADD468R,0.4618X0.0022*%
%ADD469R,0.4329X0.0022*%
%ADD470R,0.2220X0.0022*%
%ADD471R,0.3974X0.0022*%
%ADD472R,0.3619X0.0022*%
%ADD473R,0.3352X0.0022*%
%ADD474R,0.2153X0.0022*%
%ADD475R,0.2442X0.0022*%
%ADD476R,0.2087X0.0022*%
%ADD477R,0.2042X0.0022*%
%ADD478R,0.1709X0.0022*%
%ADD479R,0.0999X0.0022*%
%ADD480R,0.1066X0.0022*%
%ADD481R,0.1732X0.0022*%
%ADD482R,0.3552X0.0022*%
%ADD483R,0.3441X0.0022*%
%ADD484R,0.3397X0.0022*%
%ADD485R,0.3308X0.0022*%
%ADD486R,0.2797X0.0022*%
%ADD487R,0.2731X0.0022*%
%ADD488R,0.2642X0.0022*%
%ADD489R,0.2575X0.0022*%
%ADD490C,0.0060*%
%ADD491C,0.0650*%
%ADD492C,0.0001*%
D10*
X001382Y000617D02*
X001342Y000762D01*
X001315Y000858D01*
X001302Y000906D01*
X001299Y001092D01*
X001296Y001216D01*
X001295Y001278D01*
X001329Y001461D01*
X001352Y001583D01*
X001363Y001644D01*
X001427Y001821D01*
X001469Y001939D01*
X001491Y001998D01*
X001580Y002165D01*
X001640Y002277D01*
X001670Y002333D01*
X001784Y002488D01*
X001859Y002592D01*
X001897Y002643D01*
X002035Y002782D01*
X002126Y002875D01*
X002172Y002921D01*
X002331Y003039D01*
X002438Y003118D01*
X002491Y003157D01*
X002670Y003250D01*
X002789Y003311D01*
X002849Y003342D01*
X002774Y003482D01*
X002724Y003576D01*
X002698Y003623D01*
X002626Y003764D01*
X002578Y003858D01*
X002554Y003905D01*
X002487Y004049D01*
X002442Y004145D01*
X002420Y004192D01*
X002363Y004361D01*
X002325Y004474D01*
X002306Y004530D01*
X002278Y004705D01*
X002259Y004821D01*
X002249Y004879D01*
X002246Y005056D01*
X002245Y005174D01*
X002244Y005232D01*
X002264Y005408D01*
X002277Y005525D01*
X002283Y005584D01*
X002320Y005757D01*
X002345Y005873D01*
X002357Y005931D01*
X002323Y005931D01*
X002045Y005940D01*
X001760Y005946D01*
X001717Y005950D01*
X001591Y005968D01*
X001507Y005981D01*
X001464Y005987D01*
X001300Y006042D01*
X001190Y006079D01*
X001078Y006158D01*
X001028Y006248D01*
X000988Y006338D01*
X000988Y006448D01*
X001048Y006573D01*
X001158Y006668D01*
X001313Y006738D01*
X001548Y006788D01*
X002108Y006838D01*
X002258Y007468D01*
X002168Y007268D02*
X004958Y007008D01*
X005148Y006938D01*
X005268Y006848D01*
X005328Y006728D01*
X005328Y006518D01*
X005218Y006388D01*
X005008Y006278D01*
X004098Y006078D01*
X004148Y005908D01*
X001978Y005888D01*
X001448Y005928D01*
X001068Y006098D01*
X000948Y006308D01*
X000958Y006548D01*
X001268Y006788D01*
X002068Y006858D01*
X002168Y007268D01*
X002258Y007468D02*
X002221Y007533D01*
X002188Y007600D01*
X002158Y007669D01*
X002132Y007739D01*
X002110Y007810D01*
X002092Y007883D01*
X002077Y007956D01*
X002066Y008030D01*
X002060Y008104D01*
X002057Y008179D01*
X002058Y008254D01*
X002064Y008328D01*
X002073Y008403D01*
X002086Y008476D01*
X002103Y008549D01*
X002124Y008621D01*
X002148Y008691D01*
X002176Y008761D01*
X002208Y008828D01*
X002244Y008894D01*
X002283Y008958D01*
X002325Y009020D01*
X002371Y009079D01*
X002419Y009136D01*
X002471Y009190D01*
X002525Y009241D01*
X002582Y009290D01*
X002641Y009335D01*
X002703Y009377D01*
X002767Y009416D01*
X002833Y009451D01*
X002901Y009483D01*
X002970Y009511D01*
X003041Y009536D01*
X003112Y009556D01*
X003185Y009573D01*
X003259Y009586D01*
X003333Y009595D01*
X003408Y009600D01*
X003483Y009601D01*
X003557Y009598D01*
X003632Y009591D01*
X003706Y009580D01*
X003779Y009566D01*
X003851Y009547D01*
X003923Y009525D01*
X003993Y009498D01*
X004061Y009468D01*
X004128Y009435D01*
X004193Y009398D01*
X004256Y009358D01*
X004317Y009314D01*
X004375Y009267D01*
X004431Y009217D01*
X004484Y009165D01*
X004534Y009109D01*
X004581Y009051D01*
X004625Y008991D01*
X004666Y008928D01*
X004703Y008863D01*
X004737Y008797D01*
X004767Y008728D01*
X004794Y008658D01*
X004817Y008587D01*
X004836Y008515D01*
X004851Y008442D01*
X004862Y008368D01*
X004869Y008293D01*
X004873Y008219D01*
X004872Y008144D01*
X004868Y008069D01*
X004859Y007995D01*
X004847Y007921D01*
X004830Y007848D01*
X004810Y007776D01*
X004786Y007706D01*
X004758Y007636D01*
X004727Y007568D01*
X004692Y007502D01*
X004654Y007438D01*
X004612Y007376D01*
X004567Y007316D01*
X004519Y007259D01*
X004468Y007204D01*
X004414Y007153D01*
X004357Y007104D01*
X004298Y007058D01*
X004308Y006968D01*
X004823Y006978D01*
X005008Y006958D01*
X005083Y006918D01*
X005173Y006878D01*
X005258Y006798D01*
X005298Y006688D01*
X005298Y006568D01*
X005258Y006468D01*
X005188Y006398D01*
X005068Y006328D01*
X004918Y006278D01*
X004538Y006198D01*
X004078Y006108D01*
X004058Y006078D01*
X004418Y004938D01*
X005068Y004128D01*
X005128Y004128D01*
X005908Y006958D01*
X006678Y008198D01*
X007288Y009178D01*
X007048Y009408D01*
X005758Y012538D01*
X001118Y011878D01*
X001098Y011878D01*
X000868Y011898D01*
X000588Y012068D01*
X000398Y012308D01*
X000288Y012588D01*
X000258Y012888D01*
X000288Y013218D01*
X000368Y013538D01*
X000428Y013698D01*
X000498Y013848D01*
X000678Y014138D01*
X000918Y014388D01*
X001218Y014568D01*
X001618Y014728D01*
X002028Y014838D01*
X002448Y014908D01*
X002868Y014928D01*
X002918Y014928D01*
X003308Y014908D01*
X003728Y014848D01*
X004128Y014748D01*
X004518Y014618D01*
X004888Y014468D01*
X005258Y014278D01*
X005608Y014068D01*
X005948Y013838D01*
X008108Y011468D02*
X008110Y011517D01*
X008116Y011566D01*
X008126Y011614D01*
X008139Y011661D01*
X008157Y011707D01*
X008178Y011751D01*
X008202Y011794D01*
X008230Y011834D01*
X008261Y011873D01*
X008295Y011908D01*
X008332Y011941D01*
X008371Y011970D01*
X008413Y011996D01*
X008456Y012019D01*
X008502Y012038D01*
X008548Y012054D01*
X008596Y012066D01*
X008644Y012074D01*
X008693Y012078D01*
X008743Y012078D01*
X008792Y012074D01*
X008840Y012066D01*
X008888Y012054D01*
X008934Y012038D01*
X008980Y012019D01*
X009023Y011996D01*
X009065Y011970D01*
X009104Y011941D01*
X009141Y011908D01*
X009175Y011873D01*
X009206Y011834D01*
X009234Y011794D01*
X009258Y011751D01*
X009279Y011707D01*
X009297Y011661D01*
X009310Y011614D01*
X009320Y011566D01*
X009326Y011517D01*
X009328Y011468D01*
X009326Y011419D01*
X009320Y011370D01*
X009310Y011322D01*
X009297Y011275D01*
X009279Y011229D01*
X009258Y011185D01*
X009234Y011142D01*
X009206Y011102D01*
X009175Y011063D01*
X009141Y011028D01*
X009104Y010995D01*
X009065Y010966D01*
X009023Y010940D01*
X008980Y010917D01*
X008934Y010898D01*
X008888Y010882D01*
X008840Y010870D01*
X008792Y010862D01*
X008743Y010858D01*
X008693Y010858D01*
X008644Y010862D01*
X008596Y010870D01*
X008548Y010882D01*
X008502Y010898D01*
X008456Y010917D01*
X008413Y010940D01*
X008371Y010966D01*
X008332Y010995D01*
X008295Y011028D01*
X008261Y011063D01*
X008230Y011102D01*
X008202Y011142D01*
X008178Y011185D01*
X008157Y011229D01*
X008139Y011275D01*
X008126Y011322D01*
X008116Y011370D01*
X008110Y011419D01*
X008108Y011468D01*
X005948Y013838D02*
X006084Y014082D01*
X006232Y014319D01*
X006391Y014549D01*
X006561Y014770D01*
X006741Y014983D01*
X006932Y015187D01*
X007133Y015382D01*
X007342Y015566D01*
X007561Y015740D01*
X007787Y015903D01*
X008022Y016055D01*
X008263Y016196D01*
X008511Y016324D01*
X008765Y016440D01*
X009024Y016544D01*
X009288Y016635D01*
X009557Y016713D01*
X009828Y016778D01*
X010103Y016830D01*
X010379Y016868D01*
X010657Y016892D01*
X010937Y016903D01*
X011216Y016901D01*
X011495Y016885D01*
X011772Y016855D01*
X012048Y016812D01*
X012322Y016755D01*
X012592Y016685D01*
X012859Y016603D01*
X013121Y016507D01*
X013378Y016398D01*
X013373Y016398D02*
X013768Y017138D01*
X014103Y017623D01*
X014388Y017953D01*
X014608Y018163D01*
X015078Y018513D01*
X015408Y018708D01*
X015798Y018878D01*
X016188Y019003D01*
X016583Y019088D01*
X017018Y019133D01*
X017168Y019133D01*
X017458Y019093D01*
X017748Y018988D01*
X018118Y018773D01*
X018368Y018573D01*
X018613Y018308D01*
X018803Y018038D01*
X018948Y017703D01*
X018958Y017323D01*
X018873Y017098D01*
X018763Y016963D01*
X018588Y016858D01*
X018448Y016768D01*
X014358Y015308D01*
X015578Y012378D01*
X015368Y007968D01*
X014328Y007268D01*
X014528Y003798D01*
X014508Y003678D01*
X014508Y003658D01*
X014809Y003625D01*
X014870Y003619D01*
X015052Y003590D01*
X015174Y003570D01*
X015234Y003561D01*
X015414Y003523D01*
X015534Y003497D01*
X015594Y003484D01*
X015789Y003421D01*
X015919Y003379D01*
X015984Y003358D01*
X016164Y003264D01*
X016283Y003202D01*
X016343Y003171D01*
X016502Y003051D01*
X016608Y002971D01*
X016661Y002932D01*
X016798Y002791D01*
X016889Y002698D01*
X016934Y002651D01*
X017048Y002495D01*
X017123Y002391D01*
X017161Y002339D01*
X017250Y002170D01*
X017310Y002058D01*
X017340Y002002D01*
X017403Y001824D01*
X017446Y001706D01*
X017467Y001647D01*
X017501Y001463D01*
X017524Y001340D01*
X017535Y001279D01*
X017533Y001093D01*
X017531Y000968D01*
X017530Y000906D01*
X017463Y000721D01*
X017419Y000597D01*
X017397Y000535D01*
X017250Y000392D01*
X017152Y000297D01*
X017103Y000250D01*
X016899Y000189D01*
X016762Y000148D01*
X016718Y000138D01*
X002158Y000138D01*
X001993Y000173D01*
X001885Y000191D01*
X001831Y000200D01*
X001694Y000283D01*
X001603Y000338D01*
X001558Y000366D01*
X001470Y000492D01*
X001411Y000575D01*
X001382Y000617D01*
X002894Y008177D02*
X002896Y008226D01*
X002902Y008275D01*
X002912Y008323D01*
X002925Y008370D01*
X002943Y008416D01*
X002964Y008460D01*
X002988Y008503D01*
X003016Y008543D01*
X003047Y008582D01*
X003081Y008617D01*
X003118Y008650D01*
X003157Y008679D01*
X003199Y008705D01*
X003242Y008728D01*
X003288Y008747D01*
X003334Y008763D01*
X003382Y008775D01*
X003430Y008783D01*
X003479Y008787D01*
X003529Y008787D01*
X003578Y008783D01*
X003626Y008775D01*
X003674Y008763D01*
X003720Y008747D01*
X003766Y008728D01*
X003809Y008705D01*
X003851Y008679D01*
X003890Y008650D01*
X003927Y008617D01*
X003961Y008582D01*
X003992Y008543D01*
X004020Y008503D01*
X004044Y008460D01*
X004065Y008416D01*
X004083Y008370D01*
X004096Y008323D01*
X004106Y008275D01*
X004112Y008226D01*
X004114Y008177D01*
X004112Y008128D01*
X004106Y008079D01*
X004096Y008031D01*
X004083Y007984D01*
X004065Y007938D01*
X004044Y007894D01*
X004020Y007851D01*
X003992Y007811D01*
X003961Y007772D01*
X003927Y007737D01*
X003890Y007704D01*
X003851Y007675D01*
X003809Y007649D01*
X003766Y007626D01*
X003720Y007607D01*
X003674Y007591D01*
X003626Y007579D01*
X003578Y007571D01*
X003529Y007567D01*
X003479Y007567D01*
X003430Y007571D01*
X003382Y007579D01*
X003334Y007591D01*
X003288Y007607D01*
X003242Y007626D01*
X003199Y007649D01*
X003157Y007675D01*
X003118Y007704D01*
X003081Y007737D01*
X003047Y007772D01*
X003016Y007811D01*
X002988Y007851D01*
X002964Y007894D01*
X002943Y007938D01*
X002925Y007984D01*
X002912Y008031D01*
X002902Y008079D01*
X002896Y008128D01*
X002894Y008177D01*
X012188Y012828D02*
X012190Y012877D01*
X012196Y012926D01*
X012206Y012974D01*
X012219Y013021D01*
X012237Y013067D01*
X012258Y013111D01*
X012282Y013154D01*
X012310Y013194D01*
X012341Y013233D01*
X012375Y013268D01*
X012412Y013301D01*
X012451Y013330D01*
X012493Y013356D01*
X012536Y013379D01*
X012582Y013398D01*
X012628Y013414D01*
X012676Y013426D01*
X012724Y013434D01*
X012773Y013438D01*
X012823Y013438D01*
X012872Y013434D01*
X012920Y013426D01*
X012968Y013414D01*
X013014Y013398D01*
X013060Y013379D01*
X013103Y013356D01*
X013145Y013330D01*
X013184Y013301D01*
X013221Y013268D01*
X013255Y013233D01*
X013286Y013194D01*
X013314Y013154D01*
X013338Y013111D01*
X013359Y013067D01*
X013377Y013021D01*
X013390Y012974D01*
X013400Y012926D01*
X013406Y012877D01*
X013408Y012828D01*
X013406Y012779D01*
X013400Y012730D01*
X013390Y012682D01*
X013377Y012635D01*
X013359Y012589D01*
X013338Y012545D01*
X013314Y012502D01*
X013286Y012462D01*
X013255Y012423D01*
X013221Y012388D01*
X013184Y012355D01*
X013145Y012326D01*
X013103Y012300D01*
X013060Y012277D01*
X013014Y012258D01*
X012968Y012242D01*
X012920Y012230D01*
X012872Y012222D01*
X012823Y012218D01*
X012773Y012218D01*
X012724Y012222D01*
X012676Y012230D01*
X012628Y012242D01*
X012582Y012258D01*
X012536Y012277D01*
X012493Y012300D01*
X012451Y012326D01*
X012412Y012355D01*
X012375Y012388D01*
X012341Y012423D01*
X012310Y012462D01*
X012282Y012502D01*
X012258Y012545D01*
X012237Y012589D01*
X012219Y012635D01*
X012206Y012682D01*
X012196Y012730D01*
X012190Y012779D01*
X012188Y012828D01*
X014508Y003680D02*
X014503Y003656D01*
D11*
X016785Y000121D03*
D12*
X009459Y000144D03*
D13*
X009448Y000166D03*
D14*
X009437Y000188D03*
D15*
X009426Y000210D03*
D16*
X009426Y000232D03*
D17*
X009437Y000255D03*
D18*
X009426Y000277D03*
D19*
X009426Y000299D03*
D20*
X009426Y000321D03*
D21*
X009426Y000343D03*
D22*
X009426Y000366D03*
D23*
X009426Y000388D03*
D24*
X009426Y000410D03*
D25*
X009437Y000432D03*
D26*
X009426Y000454D03*
D27*
X009426Y000477D03*
D28*
X009426Y000499D03*
D29*
X009437Y000521D03*
D30*
X009426Y000543D03*
D31*
X009437Y000565D03*
D32*
X009426Y000588D03*
D33*
X009437Y000610D03*
D34*
X009426Y000632D03*
D35*
X009437Y000654D03*
D36*
X009426Y000676D03*
X009426Y000699D03*
D37*
X009437Y000721D03*
X009437Y000743D03*
D38*
X009426Y000765D03*
D39*
X009426Y000787D03*
D40*
X009437Y000810D03*
X009437Y000832D03*
D41*
X009748Y000854D03*
X009748Y000876D03*
X005597Y004362D03*
X005619Y004450D03*
X005641Y004539D03*
X005663Y004606D03*
X005686Y004695D03*
X005774Y005005D03*
X005796Y005094D03*
X005819Y005161D03*
X005841Y005250D03*
X005863Y005316D03*
X005974Y005716D03*
X005996Y005805D03*
X006019Y005893D03*
X006152Y006360D03*
X006174Y006448D03*
X006218Y006604D03*
X007639Y006448D03*
X007639Y006426D03*
X007639Y006360D03*
X007639Y006337D03*
X011569Y010111D03*
X012812Y011732D03*
X013611Y012442D03*
X012812Y013885D03*
X015121Y010822D03*
X015121Y010800D03*
X015121Y010777D03*
X015121Y010733D03*
X015121Y010711D03*
X015121Y010689D03*
X015121Y010666D03*
X015098Y010333D03*
X015098Y010311D03*
X015098Y010289D03*
X015098Y010267D03*
X015098Y010245D03*
X015098Y010222D03*
X015098Y010178D03*
X015098Y010156D03*
X015098Y010134D03*
X015098Y010111D03*
X015098Y010089D03*
X015076Y009889D03*
X015076Y009867D03*
X015076Y009823D03*
X015076Y009801D03*
X015076Y009778D03*
X015076Y009756D03*
X015076Y009734D03*
X015076Y009712D03*
X015076Y009690D03*
X015076Y009667D03*
X015076Y009623D03*
X015054Y009423D03*
X015054Y009401D03*
X015054Y009379D03*
X015054Y009357D03*
X015054Y009334D03*
X015054Y009312D03*
X015054Y009268D03*
X015054Y009246D03*
X015054Y009223D03*
X015054Y009201D03*
X015054Y009179D03*
X015054Y009157D03*
X015032Y008957D03*
X015032Y008935D03*
X015032Y008890D03*
X015032Y008868D03*
X015032Y008846D03*
X015032Y008824D03*
X015032Y008802D03*
X015032Y008779D03*
X015032Y008757D03*
X015032Y008713D03*
X015032Y008691D03*
X015032Y008668D03*
X013744Y010711D03*
X013988Y006737D03*
X013988Y006715D03*
X013988Y006670D03*
X013988Y006648D03*
X013988Y006626D03*
X013988Y006604D03*
X013988Y006582D03*
X013988Y006559D03*
X013988Y006537D03*
X013988Y006493D03*
X014011Y006360D03*
X014011Y006337D03*
X014011Y006293D03*
X014011Y006271D03*
X014011Y006249D03*
X014011Y006226D03*
X014011Y006204D03*
X014011Y006182D03*
X014011Y006160D03*
X014011Y006115D03*
X014099Y004828D03*
X014099Y004806D03*
X014099Y004783D03*
X014099Y004761D03*
X014099Y004739D03*
X014099Y004717D03*
X014099Y004695D03*
X014099Y004672D03*
X014099Y004628D03*
X014099Y004606D03*
X014099Y004584D03*
X014121Y004450D03*
X014121Y004428D03*
X014121Y004406D03*
X014121Y004384D03*
X014121Y004362D03*
X014121Y004339D03*
X014121Y004317D03*
X014121Y004273D03*
X014121Y004251D03*
X014121Y004228D03*
X014121Y004206D03*
X014144Y004073D03*
X014144Y004051D03*
X014144Y004029D03*
X014144Y004006D03*
X014144Y003984D03*
X014144Y003962D03*
X014144Y003940D03*
X014144Y003895D03*
X014144Y003873D03*
X014144Y003851D03*
X014144Y003829D03*
X014144Y003807D03*
X014144Y003784D03*
X014144Y003762D03*
X014121Y003696D03*
X014121Y003673D03*
X013922Y001564D03*
X013922Y001542D03*
X013922Y001498D03*
X013944Y001453D03*
X013944Y001431D03*
X013944Y001409D03*
X013944Y001387D03*
X013944Y001365D03*
X013944Y001342D03*
X013966Y001231D03*
X013966Y001209D03*
X013966Y001187D03*
X013966Y001165D03*
X013966Y001120D03*
X013966Y001098D03*
X013966Y001076D03*
X013966Y001054D03*
X013966Y001032D03*
X013966Y001009D03*
X013966Y000987D03*
X013966Y000943D03*
X013966Y000921D03*
X013966Y000898D03*
X013966Y000876D03*
X013966Y000854D03*
X017141Y001342D03*
X002711Y005671D03*
X002711Y005694D03*
X002689Y005560D03*
X002689Y005538D03*
X002666Y005383D03*
X002666Y005361D03*
X002666Y004961D03*
X002666Y004939D03*
X002666Y004917D03*
X002666Y004894D03*
X002666Y004872D03*
X002666Y004828D03*
X002666Y004806D03*
X002689Y004761D03*
X002689Y004739D03*
X002689Y004717D03*
X001756Y001498D03*
X001734Y001431D03*
X001734Y001409D03*
X001734Y001387D03*
X001712Y001342D03*
X001712Y001298D03*
X001712Y001276D03*
X001712Y001254D03*
X001712Y001231D03*
X001712Y000943D03*
X001712Y000921D03*
X001712Y000898D03*
X001712Y000876D03*
X001734Y000854D03*
X000691Y012664D03*
X000691Y012687D03*
X000691Y012709D03*
X000691Y012731D03*
X000668Y012753D03*
X000668Y012775D03*
X000668Y012820D03*
X000668Y012842D03*
X000668Y012864D03*
X000668Y012886D03*
X000668Y012909D03*
X000668Y012931D03*
X000668Y012953D03*
X000668Y012997D03*
X000668Y013020D03*
X000668Y013042D03*
X000668Y013064D03*
X000691Y013131D03*
X000691Y013153D03*
X000691Y013197D03*
X000691Y013219D03*
X018584Y017460D03*
X018584Y017482D03*
X018584Y017504D03*
X018584Y017526D03*
X018584Y017548D03*
X018584Y017571D03*
X018561Y017637D03*
D42*
X018473Y017837D03*
X018473Y017859D03*
X018450Y017881D03*
X014099Y016949D03*
X014077Y016905D03*
X014055Y016882D03*
X014033Y016838D03*
X014010Y016794D03*
X013988Y016771D03*
X013988Y016749D03*
X013922Y016638D03*
X009459Y011932D03*
X007350Y009734D03*
X007373Y009712D03*
X007239Y008380D03*
X007128Y008202D03*
X006951Y007914D03*
X006662Y007447D03*
X006596Y007336D03*
X006485Y007159D03*
X006418Y007048D03*
X006351Y006937D03*
X006351Y006915D03*
X006329Y006892D03*
X007706Y006604D03*
X007706Y006582D03*
X007728Y006626D03*
X007706Y006182D03*
X007728Y006160D03*
X004087Y004806D03*
X004065Y004828D03*
X002888Y004162D03*
X002910Y004117D03*
X002933Y004051D03*
X002955Y004006D03*
X002977Y003984D03*
X002977Y003962D03*
X002999Y003940D03*
X003021Y003895D03*
X003021Y003873D03*
X003066Y003807D03*
X003066Y003784D03*
X003088Y003762D03*
X003110Y003718D03*
X003110Y003696D03*
X003132Y003673D03*
X003132Y003651D03*
X003155Y003629D03*
X003155Y003607D03*
X003177Y003585D03*
X002022Y002119D03*
X001978Y002053D03*
X001978Y002031D03*
X001956Y002008D03*
X001911Y001920D03*
X005597Y001032D03*
X005597Y001009D03*
X005597Y000987D03*
X005597Y000943D03*
X005597Y000921D03*
X005597Y000898D03*
X005597Y000876D03*
X005597Y000854D03*
X005752Y001986D03*
X005774Y002031D03*
X005774Y002053D03*
X013167Y009068D03*
X006440Y013885D03*
X006418Y013863D03*
X006462Y013930D03*
X006462Y013952D03*
X006485Y013974D03*
X006507Y013996D03*
X006507Y014019D03*
X006529Y014041D03*
X001268Y011932D03*
X000912Y013752D03*
X000912Y013774D03*
X013722Y002119D03*
X013722Y002097D03*
X016941Y001942D03*
X016941Y001920D03*
X016963Y001897D03*
D43*
X017085Y001564D03*
X017107Y001498D03*
X017107Y001476D03*
X017130Y001431D03*
X017130Y001409D03*
X017130Y001387D03*
X017130Y001365D03*
X017130Y000876D03*
X017130Y000854D03*
X014110Y003651D03*
X014133Y003718D03*
X013933Y001476D03*
X007650Y006293D03*
X007650Y006471D03*
X007650Y006493D03*
X006229Y006626D03*
X006229Y006648D03*
X006229Y006670D03*
X006207Y006582D03*
X006207Y006559D03*
X006207Y006537D03*
X006185Y006493D03*
X006185Y006471D03*
X006163Y006426D03*
X006163Y006404D03*
X006163Y006382D03*
X006030Y005938D03*
X006030Y005916D03*
X006007Y005871D03*
X006007Y005849D03*
X006007Y005827D03*
X005985Y005782D03*
X005985Y005738D03*
X005852Y005294D03*
X005852Y005272D03*
X005830Y005227D03*
X005830Y005183D03*
X005808Y005139D03*
X005808Y005116D03*
X005785Y005072D03*
X005785Y005050D03*
X005674Y004672D03*
X005674Y004628D03*
X005652Y004584D03*
X005652Y004561D03*
X005630Y004517D03*
X005630Y004495D03*
X005608Y004428D03*
X005608Y004406D03*
X005608Y004384D03*
X004009Y004939D03*
X004009Y004961D03*
X003987Y004983D03*
X003987Y005005D03*
X003965Y005050D03*
X003965Y005072D03*
X003965Y005094D03*
X003943Y005116D03*
X003943Y005139D03*
X003943Y005161D03*
X003810Y005538D03*
X003810Y005560D03*
X003787Y005605D03*
X003787Y005627D03*
X003787Y005649D03*
X003765Y005671D03*
X003765Y005694D03*
X003765Y005716D03*
X002700Y004695D03*
X002700Y004672D03*
X002700Y004628D03*
X002677Y004783D03*
X001789Y001631D03*
X001789Y001609D03*
X001767Y001587D03*
X001767Y001564D03*
X001767Y001542D03*
X001745Y001476D03*
X001745Y001453D03*
X001723Y001365D03*
X006918Y010733D03*
X006762Y011110D03*
X006540Y011643D03*
X006385Y012021D03*
X006229Y012398D03*
X009493Y011887D03*
X009493Y011110D03*
X013578Y013197D03*
X018573Y017593D03*
X018550Y017659D03*
X018550Y017682D03*
D44*
X015176Y012354D03*
X015176Y012331D03*
X012046Y013197D03*
X011624Y010134D03*
X008738Y012576D03*
X007961Y011887D03*
X007961Y011110D03*
X007029Y010467D03*
X006873Y010844D03*
X006651Y011377D03*
X006607Y011488D03*
X006496Y011754D03*
X006274Y012287D03*
X007251Y009934D03*
X006274Y006759D03*
X006252Y006715D03*
X006141Y006337D03*
X006118Y006271D03*
X006118Y006249D03*
X006118Y006226D03*
X006096Y006182D03*
X006096Y006160D03*
X006074Y006093D03*
X006074Y006071D03*
X006052Y006027D03*
X006052Y006004D03*
X006052Y005982D03*
X005963Y005694D03*
X005963Y005671D03*
X005941Y005627D03*
X005941Y005605D03*
X005919Y005538D03*
X005919Y005516D03*
X005896Y005472D03*
X005896Y005449D03*
X005896Y005427D03*
X005874Y005383D03*
X005874Y005361D03*
X005874Y005338D03*
X005763Y004983D03*
X005763Y004961D03*
X005741Y004917D03*
X005741Y004894D03*
X005741Y004872D03*
X005719Y004828D03*
X005719Y004806D03*
X005719Y004783D03*
X005697Y004739D03*
X005697Y004717D03*
X005586Y004339D03*
X005586Y004317D03*
X005563Y004273D03*
X005563Y004251D03*
X005563Y004228D03*
X005541Y004184D03*
X005541Y004162D03*
X004032Y004894D03*
X003921Y005183D03*
X003921Y005227D03*
X003898Y005272D03*
X003898Y005294D03*
X003876Y005338D03*
X003876Y005361D03*
X003876Y005383D03*
X003854Y005427D03*
X003854Y005449D03*
X003832Y005472D03*
X003832Y005494D03*
X003832Y005516D03*
X003743Y005782D03*
X003721Y005827D03*
X003721Y005849D03*
X003721Y005871D03*
X003699Y005893D03*
X003699Y005916D03*
X003699Y005938D03*
X002722Y004606D03*
X002722Y004584D03*
X002744Y004517D03*
X001834Y001742D03*
X001812Y001675D03*
X009759Y001298D03*
X009759Y001276D03*
X009759Y001254D03*
X009759Y001231D03*
X009759Y001209D03*
X009759Y001187D03*
X009759Y001165D03*
X009759Y001120D03*
X009759Y001098D03*
X009759Y001076D03*
X009759Y001054D03*
X009759Y001032D03*
X009759Y001009D03*
X009759Y000987D03*
X009759Y000943D03*
X009759Y000921D03*
X009759Y000898D03*
X013822Y001897D03*
X013844Y001831D03*
X013844Y001809D03*
X013866Y001786D03*
X013866Y001764D03*
X013866Y001742D03*
X013888Y001675D03*
X013911Y001587D03*
X017152Y001298D03*
X017152Y001276D03*
X017152Y001254D03*
X017152Y001231D03*
X017152Y001209D03*
X017152Y001187D03*
X017152Y001165D03*
X017152Y000987D03*
X017152Y000943D03*
X017152Y000921D03*
X017152Y000898D03*
X000724Y012598D03*
X000702Y012642D03*
X000724Y013330D03*
X000746Y013397D03*
X000746Y013419D03*
X000768Y013464D03*
X000768Y013486D03*
D45*
X000691Y013175D03*
X000668Y012975D03*
X000668Y012798D03*
X006196Y006515D03*
X006041Y005960D03*
X002666Y005405D03*
X002666Y004850D03*
X001756Y001520D03*
X001712Y001320D03*
X001712Y000965D03*
X009526Y011133D03*
X009526Y011865D03*
X013611Y013175D03*
X015121Y010755D03*
X015098Y010200D03*
X015076Y009845D03*
X015076Y009645D03*
X015054Y009290D03*
X015032Y008913D03*
X015032Y008735D03*
X013988Y006693D03*
X013988Y006515D03*
X014011Y006315D03*
X014011Y006138D03*
X014099Y004850D03*
X014099Y004650D03*
X014121Y004473D03*
X014121Y004295D03*
X014144Y004095D03*
X014144Y003918D03*
X013922Y001520D03*
X013966Y001143D03*
X013966Y000965D03*
X017141Y001320D03*
D46*
X011790Y010200D03*
X006773Y007625D03*
X002999Y003918D03*
X003088Y003740D03*
X002000Y002075D03*
X005597Y000965D03*
X005796Y002075D03*
X000890Y013730D03*
X006440Y013908D03*
X006551Y014085D03*
X013944Y016683D03*
D47*
X012046Y012420D03*
X007939Y011133D03*
X006252Y006693D03*
X006141Y006315D03*
X006096Y006138D03*
X005941Y005583D03*
X003921Y005205D03*
X003854Y005405D03*
X003743Y005760D03*
X001812Y001698D03*
X009759Y001320D03*
X009759Y001143D03*
X009759Y000965D03*
X013822Y001875D03*
X013888Y001698D03*
X017152Y001143D03*
X017152Y000965D03*
X000702Y012620D03*
X000724Y013353D03*
D48*
X000679Y013108D03*
X000679Y013086D03*
X007628Y006404D03*
X007628Y006382D03*
X011513Y010089D03*
X013245Y009112D03*
X015043Y009112D03*
X015043Y009135D03*
X015043Y009068D03*
X015043Y009046D03*
X015043Y009024D03*
X015043Y009001D03*
X015043Y008979D03*
X015021Y008646D03*
X015021Y008624D03*
X015021Y008602D03*
X015021Y008580D03*
X015021Y008557D03*
X015021Y008513D03*
X015065Y009445D03*
X015065Y009490D03*
X015065Y009512D03*
X015065Y009534D03*
X015065Y009556D03*
X015065Y009579D03*
X015065Y009601D03*
X015087Y009912D03*
X015087Y009934D03*
X015087Y009956D03*
X015087Y009978D03*
X015087Y010000D03*
X015087Y010045D03*
X015087Y010067D03*
X015132Y010844D03*
X015132Y010866D03*
X015132Y010888D03*
X015132Y010911D03*
X015132Y010933D03*
X015132Y010977D03*
X015132Y010999D03*
X015198Y012265D03*
X013622Y012465D03*
X013622Y013153D03*
X009537Y011843D03*
X009537Y011155D03*
X007917Y011177D03*
X007894Y011199D03*
X007917Y011843D03*
X013977Y006826D03*
X013977Y006804D03*
X013977Y006781D03*
X013977Y006759D03*
X013999Y006471D03*
X013999Y006448D03*
X013999Y006426D03*
X013999Y006404D03*
X013999Y006382D03*
X014022Y006093D03*
X014022Y006071D03*
X014022Y006049D03*
X014022Y006027D03*
X014022Y006004D03*
X014088Y004961D03*
X014088Y004939D03*
X014088Y004917D03*
X014088Y004894D03*
X014088Y004872D03*
X014110Y004561D03*
X014110Y004539D03*
X014110Y004517D03*
X014110Y004495D03*
X014133Y004184D03*
X014133Y004162D03*
X014133Y004140D03*
X014133Y004117D03*
X013955Y001298D03*
X013955Y001276D03*
X013955Y001254D03*
X002700Y005605D03*
X002700Y005627D03*
X002700Y005649D03*
X002722Y005716D03*
X002722Y005738D03*
X002677Y005516D03*
X002677Y005494D03*
X002677Y005472D03*
X002677Y005449D03*
X002677Y005427D03*
X002655Y005338D03*
X002655Y005316D03*
X002655Y005294D03*
X002655Y005272D03*
X002655Y005250D03*
X002655Y005227D03*
X002655Y005183D03*
X002655Y005161D03*
X002655Y005139D03*
X002655Y005116D03*
X002655Y005094D03*
X002655Y005072D03*
X002655Y005050D03*
X002655Y005005D03*
X002655Y004983D03*
X001701Y001209D03*
X001701Y001187D03*
X001701Y001165D03*
X001701Y001120D03*
X001701Y001098D03*
X001701Y001076D03*
X001701Y001054D03*
X001701Y001032D03*
X001701Y001009D03*
X001701Y000987D03*
D49*
X005530Y004140D03*
X005552Y004206D03*
X005708Y004761D03*
X005752Y004939D03*
X005907Y005494D03*
X005930Y005560D03*
X005952Y005649D03*
X006063Y006049D03*
X006085Y006115D03*
X006107Y006204D03*
X006129Y006293D03*
X002755Y005893D03*
X002755Y005871D03*
X002755Y005849D03*
X002733Y005782D03*
X007928Y011155D03*
X008727Y010422D03*
X012012Y012442D03*
X015165Y011754D03*
X015165Y011732D03*
X015165Y011710D03*
X015165Y011665D03*
X015165Y011643D03*
X015165Y011621D03*
X015165Y011599D03*
X015165Y011577D03*
X015165Y011554D03*
X015165Y011532D03*
X015165Y011488D03*
X015143Y011288D03*
X015143Y011266D03*
X015143Y011244D03*
X015143Y011221D03*
X015143Y011199D03*
X015143Y011177D03*
X015143Y011155D03*
X015143Y011110D03*
X015143Y011088D03*
X015143Y011066D03*
X015143Y011044D03*
X015143Y011022D03*
X015187Y011954D03*
X015187Y011976D03*
X015187Y011998D03*
X015187Y012021D03*
X015187Y012043D03*
X015187Y012087D03*
X015187Y012109D03*
X015187Y012132D03*
X015187Y012154D03*
X015187Y012176D03*
X015187Y012198D03*
X015187Y012220D03*
X015187Y012287D03*
X015187Y012309D03*
X015009Y008491D03*
X015009Y008469D03*
X015009Y008446D03*
X015009Y008424D03*
X015009Y008402D03*
X015009Y008380D03*
X015009Y008335D03*
X015009Y008313D03*
X014033Y005982D03*
X014033Y005938D03*
X014033Y005916D03*
X014033Y005893D03*
X014033Y005871D03*
X014033Y005849D03*
X014033Y005827D03*
X014033Y005805D03*
X014033Y005782D03*
X014033Y005738D03*
X014055Y005605D03*
X014055Y005560D03*
X014055Y005538D03*
X014055Y005516D03*
X014055Y005494D03*
X014055Y005472D03*
X014055Y005449D03*
X014055Y005427D03*
X014055Y005383D03*
X014055Y005361D03*
X014077Y005227D03*
X014077Y005183D03*
X014077Y005161D03*
X014077Y005139D03*
X014077Y005116D03*
X014077Y005094D03*
X014077Y005072D03*
X014077Y005050D03*
X014077Y005005D03*
X014077Y004983D03*
X013877Y001720D03*
X013899Y001653D03*
X013899Y001631D03*
X013899Y001609D03*
X017163Y001120D03*
X017163Y001098D03*
X017163Y001076D03*
X017163Y001054D03*
X017163Y001032D03*
X017163Y001009D03*
X000713Y013242D03*
X000713Y013264D03*
X000713Y013286D03*
X000713Y013308D03*
X000735Y013375D03*
D50*
X000857Y013663D03*
X000857Y013686D03*
X000879Y013708D03*
X007339Y009756D03*
X008005Y011066D03*
X008005Y011932D03*
X009448Y011066D03*
X012090Y012376D03*
X012090Y013242D03*
X013533Y013242D03*
X013533Y012376D03*
X014910Y013020D03*
X014799Y013286D03*
X014421Y014196D03*
X014199Y014729D03*
X014044Y015106D03*
X013822Y016438D03*
X013844Y016461D03*
X013844Y016483D03*
X013866Y016527D03*
X013888Y016549D03*
X013888Y016572D03*
X013911Y016594D03*
X013911Y016616D03*
X013933Y016660D03*
X017019Y019102D03*
X018484Y017815D03*
X018506Y017770D03*
X018550Y017437D03*
X014976Y008269D03*
X012001Y003340D03*
X013755Y002053D03*
X013755Y002031D03*
X016974Y001853D03*
X016996Y001831D03*
X016996Y001809D03*
X017019Y001786D03*
X017019Y001764D03*
X017019Y001742D03*
X009759Y001431D03*
X009759Y001409D03*
X009759Y001387D03*
X009759Y001365D03*
X009759Y001342D03*
X005763Y002008D03*
X005741Y001964D03*
X005741Y001942D03*
X005719Y001920D03*
X005719Y001897D03*
X005697Y001853D03*
X005697Y001831D03*
X005697Y001809D03*
X005674Y001764D03*
X005674Y001742D03*
X005608Y001431D03*
X005586Y001231D03*
X005586Y001209D03*
X005586Y001187D03*
X005586Y001165D03*
X005586Y001120D03*
X005586Y001098D03*
X005586Y001076D03*
X005586Y001054D03*
X002944Y004029D03*
X002922Y004073D03*
X002899Y004140D03*
X002833Y004273D03*
X002811Y004317D03*
X002811Y004339D03*
X002788Y004384D03*
X001900Y001897D03*
X001878Y001853D03*
X006296Y006804D03*
X006296Y006826D03*
X006318Y006848D03*
X007695Y006559D03*
X007695Y006226D03*
X007695Y006204D03*
D51*
X002700Y005583D03*
X002655Y005205D03*
X002655Y005028D03*
X001701Y001143D03*
X013955Y001320D03*
X015021Y008535D03*
X015043Y009090D03*
X015065Y009468D03*
X015087Y010023D03*
X015132Y010955D03*
X015198Y012243D03*
D52*
X014310Y014463D03*
X013866Y016505D03*
X018506Y017793D03*
X006318Y006870D03*
X004054Y004850D03*
X002922Y004095D03*
X002833Y004295D03*
X005719Y001875D03*
X005586Y001143D03*
X013733Y002075D03*
X016974Y001875D03*
X017041Y001698D03*
D53*
X017030Y001720D03*
X017052Y001675D03*
X017052Y001653D03*
X017074Y001631D03*
X017074Y001609D03*
X017074Y001587D03*
X013833Y001853D03*
X013811Y001920D03*
X013811Y001942D03*
X014987Y008291D03*
X011679Y010156D03*
X009482Y011088D03*
X009482Y011910D03*
X007972Y011910D03*
X007972Y011088D03*
X006973Y010622D03*
X006973Y010600D03*
X006995Y010555D03*
X006995Y010533D03*
X007017Y010511D03*
X007017Y010489D03*
X007040Y010444D03*
X007040Y010422D03*
X007062Y010378D03*
X007084Y010356D03*
X007084Y010333D03*
X007084Y010311D03*
X007151Y010178D03*
X007151Y010156D03*
X007173Y010134D03*
X007173Y010111D03*
X007195Y010089D03*
X007195Y010067D03*
X007195Y010045D03*
X007217Y010000D03*
X007239Y009978D03*
X007239Y009956D03*
X007262Y009912D03*
X007262Y009889D03*
X006884Y010800D03*
X006884Y010822D03*
X006862Y010866D03*
X006862Y010888D03*
X006840Y010911D03*
X006840Y010933D03*
X006818Y010977D03*
X006818Y010999D03*
X006795Y011022D03*
X006795Y011044D03*
X006707Y011221D03*
X006707Y011244D03*
X006707Y011266D03*
X006684Y011288D03*
X006662Y011332D03*
X006662Y011355D03*
X006640Y011399D03*
X006640Y011421D03*
X006618Y011443D03*
X006618Y011466D03*
X006596Y011532D03*
X006529Y011665D03*
X006507Y011710D03*
X006507Y011732D03*
X006485Y011776D03*
X006485Y011799D03*
X006462Y011821D03*
X006462Y011843D03*
X006440Y011887D03*
X006440Y011910D03*
X006418Y011932D03*
X006418Y011954D03*
X006329Y012132D03*
X006329Y012154D03*
X006329Y012176D03*
X006307Y012198D03*
X006307Y012220D03*
X006285Y012265D03*
X006263Y012309D03*
X006263Y012331D03*
X006240Y012354D03*
X006240Y012376D03*
X000779Y013508D03*
X000757Y013441D03*
X006285Y006781D03*
X006263Y006737D03*
X004043Y004872D03*
X004020Y004917D03*
X003909Y005250D03*
X003887Y005316D03*
X003754Y005738D03*
X003732Y005805D03*
X002733Y004561D03*
X002733Y004539D03*
X002755Y004495D03*
X002755Y004450D03*
X002777Y004428D03*
X002777Y004406D03*
X002799Y004362D03*
X001867Y001831D03*
X001867Y001809D03*
X001845Y001786D03*
X001845Y001764D03*
X001823Y001720D03*
X001800Y001653D03*
X005597Y001409D03*
X005597Y001387D03*
X005597Y001365D03*
X005597Y001342D03*
X005597Y001298D03*
X005597Y001276D03*
X005597Y001254D03*
X005685Y001786D03*
X012057Y012398D03*
X012057Y013219D03*
X014010Y015173D03*
X014033Y015151D03*
X014033Y015129D03*
X014055Y015084D03*
X014055Y015062D03*
X014077Y015040D03*
X014099Y014995D03*
X014099Y014973D03*
X014099Y014951D03*
X014188Y014773D03*
X014188Y014751D03*
X014210Y014707D03*
X014210Y014685D03*
X014232Y014662D03*
X014255Y014618D03*
X014255Y014596D03*
X014255Y014574D03*
X014277Y014551D03*
X014277Y014529D03*
X014299Y014507D03*
X014299Y014485D03*
X014366Y014352D03*
X014366Y014329D03*
X014366Y014307D03*
X014388Y014263D03*
X014410Y014241D03*
X014410Y014218D03*
X014432Y014174D03*
X014432Y014152D03*
X014454Y014130D03*
X014454Y014107D03*
X014477Y014063D03*
X014477Y014041D03*
X014565Y013863D03*
X014565Y013841D03*
X014588Y013819D03*
X014588Y013797D03*
X014588Y013774D03*
X014610Y013752D03*
X014632Y013708D03*
X014632Y013686D03*
X014632Y013663D03*
X014654Y013641D03*
X014654Y013619D03*
X014743Y013441D03*
X014743Y013419D03*
X014743Y013397D03*
X014765Y013375D03*
X014787Y013330D03*
X014787Y013308D03*
X014810Y013264D03*
X014810Y013242D03*
X014832Y013219D03*
X014832Y013197D03*
X014854Y013153D03*
X014854Y013131D03*
X014921Y012997D03*
X014943Y012953D03*
X014943Y012931D03*
X014965Y012909D03*
X014965Y012886D03*
X014965Y012864D03*
X014987Y012842D03*
X014987Y012820D03*
X015009Y012775D03*
X015009Y012753D03*
X015032Y012731D03*
X015032Y012709D03*
X015120Y012531D03*
X015120Y012509D03*
X015120Y012487D03*
X015143Y012465D03*
X015143Y012442D03*
X015165Y012398D03*
X015165Y012376D03*
X018539Y017704D03*
X018539Y017726D03*
X018517Y017748D03*
D54*
X014477Y014085D03*
X014388Y014285D03*
X014232Y014640D03*
X014077Y015018D03*
X014010Y015195D03*
X014610Y013730D03*
X014765Y013353D03*
X014854Y013175D03*
X014921Y012975D03*
X015009Y012798D03*
X015165Y012420D03*
X007217Y010023D03*
X007062Y010400D03*
X006973Y010578D03*
X006818Y010955D03*
X006684Y011310D03*
X006596Y011510D03*
X006529Y011688D03*
X006440Y011865D03*
X006285Y012243D03*
X002755Y004473D03*
X001889Y001875D03*
X005597Y001320D03*
D55*
X005619Y001453D03*
X005619Y001476D03*
X005619Y001498D03*
X005619Y001542D03*
X005641Y001587D03*
X005641Y001609D03*
X005641Y001631D03*
X005641Y001653D03*
X005663Y001720D03*
X007506Y003340D03*
X007661Y006271D03*
X007306Y009801D03*
X007306Y009823D03*
X007284Y009867D03*
X007129Y010222D03*
X007129Y010245D03*
X007106Y010267D03*
X007106Y010289D03*
X006951Y010644D03*
X006951Y010666D03*
X006929Y010689D03*
X006929Y010711D03*
X006906Y010777D03*
X006773Y011066D03*
X006773Y011088D03*
X006751Y011155D03*
X006729Y011177D03*
X006729Y011199D03*
X006574Y011554D03*
X006574Y011577D03*
X006551Y011599D03*
X006551Y011621D03*
X006396Y011976D03*
X006396Y011998D03*
X006374Y012043D03*
X006351Y012087D03*
X006351Y012109D03*
X006218Y012442D03*
X006196Y012465D03*
X006196Y012487D03*
X006174Y012509D03*
X000824Y013597D03*
X000801Y013575D03*
X000801Y013552D03*
X013566Y013219D03*
X013566Y012398D03*
X014721Y013464D03*
X014721Y013486D03*
X014699Y013508D03*
X014676Y013575D03*
X014676Y013597D03*
X014543Y013885D03*
X014521Y013952D03*
X014521Y013974D03*
X014499Y013996D03*
X014499Y014019D03*
X014344Y014374D03*
X014344Y014396D03*
X014321Y014418D03*
X014321Y014440D03*
X014166Y014796D03*
X014166Y014818D03*
X014144Y014862D03*
X014144Y014884D03*
X014121Y014907D03*
X014121Y014929D03*
X013988Y015217D03*
X013988Y015240D03*
X013988Y015262D03*
X013966Y015284D03*
X013966Y015306D03*
X014876Y013108D03*
X014876Y013086D03*
X014899Y013064D03*
X014899Y013042D03*
X015054Y012687D03*
X015054Y012664D03*
X015076Y012642D03*
X015076Y012598D03*
X015098Y012576D03*
X015098Y012553D03*
X013766Y002008D03*
X013789Y001964D03*
X017096Y001542D03*
X017119Y001453D03*
D56*
X016908Y001986D03*
X016908Y002008D03*
X016885Y002031D03*
X016885Y002053D03*
X013711Y002142D03*
X010803Y006027D03*
X010847Y006093D03*
X010869Y006115D03*
X010891Y006160D03*
X010914Y006182D03*
X010914Y006204D03*
X010936Y006226D03*
X013134Y009046D03*
X011846Y010222D03*
X013511Y012354D03*
X013511Y013264D03*
X014022Y016816D03*
X014088Y016927D03*
X014110Y016971D03*
X014133Y016993D03*
X014155Y017038D03*
X014199Y017104D03*
X018417Y017926D03*
X018439Y017904D03*
X009426Y011954D03*
X009426Y011044D03*
X008028Y011044D03*
X008028Y011954D03*
X006540Y014063D03*
X006585Y014130D03*
X006585Y014152D03*
X006607Y014174D03*
X006629Y014196D03*
X006629Y014218D03*
X006651Y014241D03*
X006696Y014307D03*
X006718Y014352D03*
X007384Y009690D03*
X007384Y008624D03*
X007384Y008602D03*
X007362Y008580D03*
X007339Y008557D03*
X007317Y008513D03*
X007295Y008469D03*
X007273Y008446D03*
X007273Y008424D03*
X007251Y008402D03*
X007206Y008335D03*
X007206Y008313D03*
X007184Y008291D03*
X007162Y008269D03*
X007162Y008247D03*
X007140Y008224D03*
X007095Y008158D03*
X007095Y008136D03*
X007073Y008113D03*
X007051Y008091D03*
X007051Y008069D03*
X007029Y008047D03*
X007029Y008025D03*
X007006Y008002D03*
X006984Y007958D03*
X006962Y007936D03*
X006940Y007891D03*
X006918Y007869D03*
X006918Y007847D03*
X006895Y007825D03*
X006873Y007780D03*
X006851Y007758D03*
X006851Y007736D03*
X006829Y007714D03*
X006807Y007692D03*
X006807Y007669D03*
X006784Y007647D03*
X006762Y007603D03*
X006740Y007581D03*
X006740Y007558D03*
X006718Y007536D03*
X006696Y007514D03*
X006696Y007492D03*
X006673Y007470D03*
X006629Y007403D03*
X006629Y007381D03*
X006607Y007359D03*
X006585Y007314D03*
X006518Y007225D03*
X006518Y007203D03*
X006496Y007181D03*
X006474Y007137D03*
X006451Y007114D03*
X006451Y007092D03*
X006407Y007026D03*
X006385Y007003D03*
X006385Y006981D03*
X006363Y006959D03*
X007739Y006648D03*
X004098Y004783D03*
X004098Y004761D03*
X004120Y004739D03*
X003188Y003562D03*
X002056Y002164D03*
X002034Y002142D03*
X002011Y002097D03*
X005808Y002097D03*
X005830Y002142D03*
X009759Y001498D03*
X009759Y001476D03*
X009759Y001453D03*
X014954Y008247D03*
X000946Y013819D03*
X000924Y013797D03*
D57*
X006218Y012420D03*
X006374Y012065D03*
X006751Y011133D03*
X006906Y010755D03*
X007284Y009845D03*
X007661Y006515D03*
X005619Y001520D03*
X015076Y012620D03*
X014699Y013530D03*
X014543Y013908D03*
X014144Y014840D03*
X017096Y001520D03*
D58*
X016863Y002075D03*
X010869Y006138D03*
X007739Y006138D03*
X006540Y007248D03*
X006651Y007425D03*
X006429Y007070D03*
X006873Y007803D03*
X006984Y007980D03*
X007228Y008358D03*
X007339Y008535D03*
X006673Y014285D03*
X014044Y016860D03*
X014177Y017060D03*
X018528Y017415D03*
X009759Y001520D03*
D59*
X009759Y001542D03*
X009759Y001564D03*
X009759Y001587D03*
X005919Y002275D03*
X002167Y002319D03*
X007783Y006715D03*
X007806Y006737D03*
X010669Y005849D03*
X010692Y005871D03*
X010714Y005893D03*
X010736Y005938D03*
X011846Y008002D03*
X014932Y008202D03*
X013467Y012331D03*
X013467Y013286D03*
X012157Y013286D03*
X012157Y012331D03*
X009382Y011022D03*
X008072Y011022D03*
X008072Y011976D03*
X008738Y012553D03*
X006829Y014507D03*
X006851Y014529D03*
X006873Y014574D03*
X006895Y014596D03*
X006962Y014685D03*
X013999Y015351D03*
X014244Y017171D03*
X014266Y017193D03*
X014377Y017349D03*
X018351Y018015D03*
X018373Y017992D03*
X018506Y017393D03*
X016774Y002208D03*
X016797Y002186D03*
X013711Y002164D03*
D60*
X013777Y001986D03*
X007672Y006249D03*
X007672Y006537D03*
X007317Y009778D03*
X011735Y010178D03*
X014688Y013552D03*
X014532Y013930D03*
X013955Y016705D03*
X002855Y004251D03*
X002855Y004228D03*
X002877Y004184D03*
X001945Y001986D03*
X001923Y001942D03*
X005630Y001564D03*
X005652Y001675D03*
X000835Y013619D03*
X000835Y013641D03*
D61*
X007051Y014796D03*
X012001Y010267D03*
X014443Y017437D03*
X014466Y017460D03*
X018284Y018103D03*
X018306Y018081D03*
X018484Y017371D03*
X004431Y004317D03*
X004409Y004339D03*
X004254Y004539D03*
X004231Y004561D03*
X004209Y004584D03*
X005941Y002319D03*
X009759Y001653D03*
X009759Y001631D03*
X009759Y001609D03*
X013689Y002230D03*
X016663Y002341D03*
D62*
X016575Y002452D03*
X016552Y002475D03*
X014865Y008136D03*
X012068Y010289D03*
X007872Y005982D03*
X007917Y005938D03*
X005941Y002341D03*
X002322Y002497D03*
X007539Y009490D03*
X007517Y009512D03*
X006030Y013242D03*
X007273Y015040D03*
X007295Y015062D03*
X007317Y015084D03*
X014643Y017659D03*
X018195Y018192D03*
X018439Y017349D03*
X009759Y001720D03*
X009759Y001675D03*
D63*
X005652Y001698D03*
D64*
X009759Y001698D03*
X007894Y005960D03*
X007917Y006870D03*
X007251Y015018D03*
X018217Y018170D03*
X016597Y002430D03*
D65*
X016530Y002497D03*
X016508Y002519D03*
X013666Y002297D03*
X010447Y005627D03*
X011846Y008025D03*
X012135Y010311D03*
X012223Y012309D03*
X013400Y012309D03*
X013400Y013308D03*
X009315Y011998D03*
X008139Y011998D03*
X007584Y009445D03*
X008050Y007003D03*
X008028Y006981D03*
X008005Y006959D03*
X007939Y005916D03*
X007961Y005893D03*
X005941Y002364D03*
X002411Y002563D03*
X009759Y001764D03*
X009759Y001742D03*
X001123Y013974D03*
X007339Y015106D03*
X007362Y015129D03*
X007384Y015151D03*
X014732Y017748D03*
X018151Y018237D03*
X018417Y017326D03*
D66*
X014865Y017859D03*
X014843Y017837D03*
X007539Y015284D03*
X007517Y015262D03*
X002899Y014907D03*
X001345Y011954D03*
X007606Y009401D03*
X007628Y009379D03*
X007650Y009357D03*
X007806Y009223D03*
X007828Y009201D03*
X007850Y009179D03*
X008716Y008402D03*
X008738Y008380D03*
X008827Y008313D03*
X008849Y008291D03*
X008916Y008224D03*
X008938Y008202D03*
X009027Y008136D03*
X009093Y008069D03*
X009115Y008047D03*
X009138Y008025D03*
X009160Y008002D03*
X009826Y007403D03*
X009915Y007336D03*
X009937Y007314D03*
X009959Y007292D03*
X010026Y007225D03*
X010048Y007203D03*
X010225Y007048D03*
X010248Y007026D03*
X010270Y007003D03*
X008161Y007114D03*
X008005Y005849D03*
X005963Y002386D03*
X002455Y002608D03*
X009759Y001809D03*
X009759Y001786D03*
X013000Y008957D03*
D67*
X014799Y008047D03*
X009759Y001853D03*
X009759Y001831D03*
X008094Y005782D03*
X008294Y007225D03*
X014954Y017926D03*
X014976Y017948D03*
D68*
X009759Y001875D03*
D69*
X009759Y001897D03*
X009493Y004917D03*
X010336Y005560D03*
X008516Y007403D03*
X008494Y007381D03*
X008472Y007359D03*
X009204Y007936D03*
X011846Y008047D03*
X014776Y008025D03*
X016308Y002674D03*
X013622Y002386D03*
X002589Y002697D03*
X001234Y014041D03*
X017973Y018370D03*
D70*
X017929Y018392D03*
X015154Y018081D03*
X015132Y018059D03*
X007828Y015506D03*
X005963Y013375D03*
X009204Y007914D03*
X005297Y002919D03*
X002633Y002719D03*
X009759Y001920D03*
X013600Y002408D03*
X016264Y002697D03*
X014754Y008002D03*
D71*
X012823Y008846D03*
X011846Y008069D03*
X008694Y008513D03*
X009759Y001964D03*
X009759Y001942D03*
X007894Y015550D03*
X015220Y018126D03*
D72*
X013966Y016727D03*
X013966Y015328D03*
X007306Y008491D03*
X002866Y004206D03*
X003044Y003851D03*
X003044Y003829D03*
X001934Y001964D03*
X005819Y002119D03*
X016919Y001964D03*
D73*
X014377Y003585D03*
X014577Y007869D03*
X014621Y007891D03*
X012801Y008824D03*
X008294Y005649D03*
X005142Y003673D03*
X005142Y003651D03*
X009759Y001986D03*
X005941Y013419D03*
X007961Y015595D03*
X011247Y016927D03*
X018262Y017215D03*
D74*
X018217Y017193D03*
X014155Y015484D03*
X008738Y010555D03*
X005808Y013153D03*
X008028Y015639D03*
X008072Y015661D03*
X014377Y007736D03*
X013555Y002475D03*
X009759Y002008D03*
X007517Y003296D03*
X005142Y003696D03*
D75*
X005119Y003762D03*
X006007Y002497D03*
X002788Y002785D03*
X007894Y009001D03*
X014266Y007669D03*
X014310Y007692D03*
X013533Y002497D03*
X009759Y002053D03*
X009759Y002031D03*
X018195Y017171D03*
X015420Y018237D03*
X015376Y018214D03*
D76*
X008227Y015750D03*
X009759Y002075D03*
D77*
X009759Y002097D03*
X008805Y002586D03*
X005097Y003829D03*
X008738Y010600D03*
X012623Y008713D03*
X013955Y007492D03*
X013999Y007514D03*
X008272Y015772D03*
X016952Y019014D03*
D78*
X014277Y017215D03*
X014232Y017149D03*
X014210Y017127D03*
X014188Y017082D03*
X012812Y013863D03*
X012812Y011754D03*
X015032Y010356D03*
X014943Y008224D03*
X010836Y006071D03*
X010791Y006004D03*
X010769Y005982D03*
X010725Y005916D03*
X009504Y004872D03*
X007772Y006093D03*
X007750Y006115D03*
X007750Y006670D03*
X007395Y009667D03*
X008727Y010444D03*
X006662Y014263D03*
X006707Y014329D03*
X006729Y014374D03*
X006773Y014418D03*
X006773Y014440D03*
X006818Y014485D03*
X006862Y014551D03*
X000979Y013863D03*
X000957Y013841D03*
X004131Y004717D03*
X005885Y002230D03*
X005863Y002208D03*
X005863Y002186D03*
X005841Y002164D03*
X002089Y002208D03*
X002067Y002186D03*
X016808Y002164D03*
X016830Y002142D03*
X016830Y002119D03*
X016852Y002097D03*
D79*
X013467Y002541D03*
X011247Y006337D03*
X012579Y008691D03*
X013866Y007447D03*
X008694Y008624D03*
X005896Y013508D03*
X001479Y014152D03*
X006052Y002541D03*
X009759Y002119D03*
D80*
X009759Y002142D03*
X007517Y003274D03*
X002922Y002830D03*
X012512Y008646D03*
X013733Y007381D03*
X004920Y013996D03*
D81*
X005874Y013552D03*
X008738Y012354D03*
X013245Y016039D03*
X013644Y007336D03*
X015953Y002830D03*
X013444Y002563D03*
X009759Y002164D03*
X006074Y002563D03*
X005053Y003962D03*
X002899Y014862D03*
D82*
X008738Y010666D03*
X012401Y008580D03*
X011291Y006360D03*
X009759Y002186D03*
X014199Y015550D03*
D83*
X014388Y017371D03*
X014410Y017393D03*
X018317Y018059D03*
X018339Y018037D03*
X013100Y009024D03*
X009393Y011976D03*
X007439Y009623D03*
X007817Y006759D03*
X007794Y006071D03*
X007817Y006049D03*
X004575Y004140D03*
X004487Y004251D03*
X004464Y004273D03*
X004398Y004362D03*
X004287Y004495D03*
X004265Y004517D03*
X004198Y004606D03*
X002222Y002386D03*
X002200Y002364D03*
X002178Y002341D03*
X005930Y002297D03*
X013700Y002208D03*
X013700Y002186D03*
X016697Y002319D03*
X006973Y014707D03*
X006995Y014729D03*
X007017Y014751D03*
X007040Y014773D03*
D84*
X005852Y013597D03*
X005586Y013086D03*
X001545Y012021D03*
X005031Y004051D03*
X009759Y002208D03*
X013400Y002586D03*
X013777Y010666D03*
D85*
X011935Y010245D03*
X006918Y014618D03*
X006940Y014662D03*
X014310Y017260D03*
X014332Y017282D03*
X004143Y004695D03*
X004165Y004672D03*
X002145Y002297D03*
X002100Y002230D03*
X016730Y002275D03*
X016752Y002230D03*
D86*
X010581Y002586D03*
X009759Y002230D03*
X006118Y002586D03*
X005031Y004073D03*
X005830Y013619D03*
X008560Y015883D03*
X001634Y014196D03*
X015753Y018370D03*
X016930Y018969D03*
D87*
X002111Y002253D03*
D88*
X005896Y002253D03*
X010758Y005960D03*
X007428Y009645D03*
X014288Y017238D03*
D89*
X012534Y010400D03*
X009759Y002253D03*
D90*
X013677Y002253D03*
D91*
X016752Y002253D03*
X004165Y004650D03*
D92*
X002134Y002275D03*
X010814Y006049D03*
X012124Y013264D03*
X014144Y017016D03*
X018406Y017948D03*
X006751Y014396D03*
D93*
X008816Y016017D03*
X012812Y013552D03*
X017807Y016949D03*
X016919Y018947D03*
X012146Y008424D03*
X013389Y007203D03*
X010636Y002608D03*
X009748Y002275D03*
X006152Y002608D03*
D94*
X013677Y002275D03*
D95*
X009759Y002297D03*
X004831Y003585D03*
X011868Y008247D03*
X013356Y007181D03*
X008738Y010800D03*
D96*
X007461Y009601D03*
X010658Y005827D03*
X010636Y005805D03*
X010614Y005782D03*
X004509Y004228D03*
X004376Y004384D03*
X004354Y004406D03*
X004176Y004628D03*
X001001Y013885D03*
X014344Y017304D03*
X014366Y017326D03*
X016719Y002297D03*
D97*
X015687Y002896D03*
X011868Y008269D03*
X011913Y008291D03*
X009160Y007603D03*
X008738Y010822D03*
X008738Y012176D03*
X012823Y012132D03*
X009759Y002319D03*
X002899Y014818D03*
D98*
X005996Y013286D03*
X007417Y015173D03*
X007461Y015217D03*
X007484Y015240D03*
X008150Y010999D03*
X009304Y010999D03*
X007684Y009334D03*
X007706Y009312D03*
X007595Y009423D03*
X008794Y008335D03*
X008993Y008158D03*
X009859Y007381D03*
X009881Y007359D03*
X010081Y007181D03*
X010103Y007159D03*
X010126Y007137D03*
X010303Y006981D03*
X010325Y006959D03*
X010414Y005605D03*
X009504Y004894D03*
X007994Y005871D03*
X008083Y007026D03*
X008105Y007048D03*
X013655Y002319D03*
X016475Y002541D03*
X014832Y008091D03*
X012234Y013308D03*
X014765Y017770D03*
X014810Y017815D03*
X002422Y002586D03*
D99*
X009759Y002341D03*
X013289Y007137D03*
X005741Y013752D03*
X014266Y015639D03*
X017218Y016705D03*
D100*
X018384Y017304D03*
X018073Y018303D03*
X014921Y017904D03*
X014899Y017881D03*
X012812Y013819D03*
X012812Y011799D03*
X014921Y010378D03*
X009193Y007958D03*
X008216Y007159D03*
X008194Y007137D03*
X008039Y005827D03*
X007506Y003318D03*
X013633Y002341D03*
X008727Y010489D03*
X008727Y012509D03*
X005996Y013308D03*
X005952Y013197D03*
X001157Y013996D03*
D101*
X004342Y014196D03*
X008738Y012087D03*
X008738Y010911D03*
X011402Y006448D03*
X009493Y005094D03*
X009759Y002364D03*
X013045Y016172D03*
X016863Y016572D03*
X016930Y016594D03*
D102*
X018362Y017282D03*
X015032Y017992D03*
X007617Y015351D03*
X012234Y010333D03*
X008682Y008469D03*
X008372Y007292D03*
X008349Y007270D03*
X011080Y006271D03*
X013633Y002364D03*
X002555Y002674D03*
D103*
X002244Y002408D03*
X010547Y005716D03*
X010569Y005738D03*
X014210Y003629D03*
X016630Y002386D03*
X016652Y002364D03*
X007195Y014951D03*
X014588Y017593D03*
D104*
X015798Y016194D03*
X015864Y016216D03*
X015931Y016239D03*
X009160Y007514D03*
X009759Y002386D03*
D105*
X008072Y005805D03*
X008250Y007181D03*
X008272Y007203D03*
X007850Y009157D03*
X002522Y002652D03*
X005963Y002408D03*
X016397Y002608D03*
X018040Y018325D03*
D106*
X009759Y002408D03*
D107*
X007861Y006804D03*
X007883Y006826D03*
X007906Y006848D03*
X007506Y009534D03*
X006019Y013219D03*
X007129Y014884D03*
X007151Y014907D03*
X007173Y014929D03*
X013056Y009001D03*
X014011Y015373D03*
X014521Y017526D03*
X014543Y017548D03*
X014566Y017571D03*
X018251Y018148D03*
X016608Y002408D03*
X002311Y002475D03*
X002289Y002452D03*
X001046Y013930D03*
D108*
X010592Y005760D03*
X002267Y002430D03*
D109*
X005974Y002430D03*
X008549Y007425D03*
X005974Y013353D03*
D110*
X009759Y002430D03*
D111*
X013578Y002430D03*
X007872Y009090D03*
D112*
X008194Y005716D03*
X005974Y002452D03*
X016230Y002719D03*
X001268Y014063D03*
X015187Y018103D03*
D113*
X002922Y014751D03*
X009382Y005250D03*
X011957Y003118D03*
X009759Y002452D03*
D114*
X013566Y002452D03*
X014721Y007958D03*
X013766Y010689D03*
X007883Y009068D03*
X002689Y002741D03*
X017873Y018414D03*
D115*
X015265Y018148D03*
X014554Y007847D03*
X005985Y002475D03*
X001412Y011976D03*
D116*
X009748Y002475D03*
X011524Y006559D03*
X014921Y003229D03*
D117*
X012989Y007003D03*
X014144Y010644D03*
X014343Y015772D03*
X011147Y016771D03*
X009371Y005338D03*
X009748Y002497D03*
D118*
X010481Y005649D03*
X010503Y005671D03*
X007994Y006937D03*
X007972Y006915D03*
X008727Y010467D03*
X008727Y012531D03*
X006019Y013264D03*
X001090Y013952D03*
X011258Y016949D03*
X012812Y013841D03*
X012812Y011776D03*
X013034Y008979D03*
X014854Y008113D03*
X014676Y017682D03*
X014699Y017704D03*
X014721Y017726D03*
X018184Y018214D03*
X002378Y002541D03*
X002356Y002519D03*
D119*
X005097Y003807D03*
X006030Y002519D03*
X009182Y007825D03*
X007894Y008979D03*
X005142Y013885D03*
X008183Y015728D03*
X001412Y014130D03*
X014110Y007581D03*
X014155Y007603D03*
X014443Y003562D03*
X018151Y017149D03*
D120*
X011569Y006626D03*
X009748Y002519D03*
D121*
X013500Y002519D03*
X016075Y002785D03*
X014033Y007536D03*
X014077Y007558D03*
X011857Y008113D03*
X005907Y013486D03*
X005730Y013131D03*
D122*
X007994Y015617D03*
X012301Y010356D03*
X014521Y007825D03*
X016186Y002741D03*
X009193Y007869D03*
X007883Y009046D03*
X008927Y002541D03*
D123*
X010481Y002541D03*
X011990Y003274D03*
X008505Y005560D03*
X011857Y008136D03*
X012545Y008668D03*
X012812Y011932D03*
X012812Y013686D03*
X014188Y015528D03*
X013256Y016017D03*
X011235Y016905D03*
X015564Y018303D03*
X018073Y017104D03*
X008727Y012376D03*
X008727Y010622D03*
X004975Y013974D03*
D124*
X005919Y013464D03*
X008139Y015706D03*
X008871Y002563D03*
D125*
X010525Y002563D03*
X013544Y007292D03*
X012434Y008602D03*
X011857Y008158D03*
X007928Y008868D03*
X005863Y013575D03*
X004820Y014041D03*
D126*
X016452Y002563D03*
X018117Y018259D03*
D127*
X014077Y015417D03*
X007595Y015328D03*
X012967Y008935D03*
X014810Y008069D03*
X012012Y003318D03*
X016430Y002586D03*
X008682Y008446D03*
D128*
X009171Y007758D03*
X007928Y008890D03*
X008727Y010644D03*
X005663Y013108D03*
X004886Y014019D03*
X012479Y008624D03*
X013677Y007359D03*
X012812Y011954D03*
X012812Y013663D03*
X015609Y018325D03*
X018051Y017082D03*
X005064Y003940D03*
X004997Y003629D03*
X008727Y002608D03*
D129*
X013344Y002608D03*
X015786Y002874D03*
X009171Y007669D03*
X008727Y010733D03*
X008727Y012265D03*
X005819Y013641D03*
X004598Y014130D03*
X008771Y015994D03*
X012812Y013575D03*
X012812Y012043D03*
X017851Y016971D03*
X015831Y018392D03*
D130*
X002489Y002630D03*
D131*
X006285Y002630D03*
D132*
X008594Y002630D03*
X002911Y014840D03*
D133*
X010758Y002630D03*
D134*
X013222Y002630D03*
X016885Y018903D03*
D135*
X018006Y018348D03*
X016364Y002630D03*
D136*
X007339Y002652D03*
X007317Y002674D03*
X007295Y002697D03*
X007273Y002719D03*
X003010Y014329D03*
D137*
X003055Y014241D03*
X012001Y002719D03*
X012001Y002697D03*
X012001Y002674D03*
X012001Y002652D03*
D138*
X014299Y003607D03*
X016341Y002652D03*
X008438Y007336D03*
X005974Y013330D03*
X007639Y015373D03*
X001201Y014019D03*
D139*
X007051Y002896D03*
X007251Y002741D03*
D140*
X009471Y003274D03*
X009471Y003296D03*
X009471Y003318D03*
X009959Y003096D03*
X009959Y003074D03*
X009959Y003052D03*
X009937Y003007D03*
X009937Y002963D03*
X009937Y002941D03*
X009915Y002896D03*
X009915Y002874D03*
X009915Y002852D03*
X009892Y002785D03*
X009892Y002763D03*
X009892Y002741D03*
X010003Y003252D03*
X010003Y003274D03*
X010003Y003296D03*
X010026Y003385D03*
X010026Y003407D03*
X010048Y003451D03*
X010048Y003474D03*
X010048Y003496D03*
X010048Y003518D03*
X010070Y003562D03*
X010070Y003585D03*
X010070Y003607D03*
X010092Y003673D03*
X010092Y003696D03*
X010092Y003718D03*
X010114Y003762D03*
X010114Y003784D03*
X010114Y003807D03*
X010137Y003873D03*
X010137Y003895D03*
X010159Y003962D03*
X010159Y003984D03*
X010159Y004006D03*
X010159Y004029D03*
X010181Y004073D03*
X010181Y004117D03*
X010203Y004184D03*
X010203Y004206D03*
X010203Y004228D03*
X010225Y004273D03*
X010225Y004317D03*
X010248Y004384D03*
X010248Y004406D03*
X010248Y004428D03*
X010270Y004495D03*
X010270Y004517D03*
X010270Y004539D03*
X010292Y004584D03*
X010292Y004606D03*
X010292Y004628D03*
X010314Y004695D03*
X010314Y004717D03*
X010314Y004739D03*
X010336Y004783D03*
X010336Y004806D03*
X010336Y004828D03*
X009826Y004539D03*
X009826Y004517D03*
X009826Y004495D03*
X009670Y003962D03*
X009670Y003940D03*
X009670Y003895D03*
X013467Y010067D03*
X013467Y010089D03*
X013467Y010111D03*
X013467Y010134D03*
X014133Y010134D03*
X014133Y010156D03*
X014133Y010111D03*
X014133Y010089D03*
X014133Y010067D03*
X014133Y010045D03*
X010470Y014374D03*
X010470Y014418D03*
X010225Y014884D03*
X010225Y014907D03*
X010225Y014929D03*
X010225Y014951D03*
X010225Y014973D03*
X010225Y014995D03*
X009915Y015506D03*
X009915Y015528D03*
X009915Y015550D03*
D141*
X011047Y016527D03*
X012223Y002763D03*
X012201Y002741D03*
D142*
X002733Y002763D03*
D143*
X007217Y002785D03*
X007239Y002763D03*
D144*
X005131Y003718D03*
X008349Y005627D03*
X009193Y007847D03*
X007883Y009024D03*
X008727Y012442D03*
X008105Y015684D03*
X012812Y013752D03*
X012723Y008779D03*
X011857Y008091D03*
X014344Y007714D03*
X011990Y003296D03*
X016142Y002763D03*
X002911Y014884D03*
X001356Y014107D03*
X016963Y019036D03*
D145*
X012234Y002785D03*
D146*
X008449Y005583D03*
X009182Y007803D03*
X002855Y002808D03*
D147*
X007184Y002808D03*
D148*
X009904Y002808D03*
X010059Y003540D03*
X010103Y003740D03*
X010303Y004650D03*
X010348Y004850D03*
X011702Y010578D03*
X011524Y010955D03*
X011458Y011133D03*
X011369Y011310D03*
X011191Y011688D03*
X011124Y011865D03*
X010947Y012243D03*
X010858Y012420D03*
X010769Y012620D03*
X010614Y012975D03*
X010525Y013175D03*
X010436Y013353D03*
X010192Y013908D03*
X010103Y014085D03*
X010014Y014285D03*
X009859Y014640D03*
X009681Y015018D03*
X009504Y015395D03*
X009349Y015750D03*
D149*
X012246Y002808D03*
D150*
X016020Y002808D03*
D151*
X007162Y002830D03*
X002522Y012354D03*
D152*
X009371Y015684D03*
X009371Y015706D03*
X009393Y015661D03*
X009393Y015639D03*
X009415Y015617D03*
X009415Y015595D03*
X009437Y015550D03*
X009459Y015506D03*
X009482Y015462D03*
X009504Y015417D03*
X009526Y015373D03*
X009526Y015351D03*
X009548Y015306D03*
X009571Y015262D03*
X009593Y015217D03*
X009637Y015129D03*
X009637Y015106D03*
X009659Y015062D03*
X009704Y014973D03*
X009726Y014929D03*
X009726Y014907D03*
X009748Y014884D03*
X009748Y014862D03*
X009770Y014818D03*
X009793Y014773D03*
X009815Y014729D03*
X009837Y014685D03*
X009837Y014662D03*
X009859Y014618D03*
X009881Y014574D03*
X009904Y014529D03*
X009926Y014485D03*
X009948Y014440D03*
X009948Y014418D03*
X009970Y014396D03*
X009970Y014374D03*
X009992Y014352D03*
X009992Y014329D03*
X010037Y014241D03*
X010059Y014196D03*
X010059Y014174D03*
X010081Y014152D03*
X010081Y014130D03*
X010103Y014107D03*
X010126Y014041D03*
X010148Y013996D03*
X010192Y013885D03*
X010214Y013863D03*
X010214Y013841D03*
X010236Y013797D03*
X010259Y013752D03*
X010281Y013708D03*
X010281Y013686D03*
X010303Y013663D03*
X010303Y013641D03*
X010325Y013619D03*
X010325Y013597D03*
X010348Y013552D03*
X010370Y013508D03*
X010392Y013464D03*
X010392Y013441D03*
X010414Y013419D03*
X010414Y013397D03*
X010436Y013375D03*
X010459Y013308D03*
X010481Y013264D03*
X010503Y013219D03*
X010503Y013197D03*
X010525Y013153D03*
X010547Y013131D03*
X010547Y013108D03*
X010569Y013064D03*
X010592Y013020D03*
X010614Y012953D03*
X010636Y012931D03*
X010636Y012909D03*
X010658Y012886D03*
X010658Y012864D03*
X010681Y012820D03*
X010703Y012775D03*
X010747Y012687D03*
X010747Y012664D03*
X010769Y012642D03*
X010791Y012576D03*
X010814Y012531D03*
X010836Y012487D03*
X010836Y012465D03*
X010858Y012442D03*
X010880Y012398D03*
X010880Y012376D03*
X010903Y012331D03*
X010925Y012287D03*
X010969Y012198D03*
X010969Y012176D03*
X010991Y012154D03*
X010991Y012132D03*
X011014Y012087D03*
X011036Y012043D03*
X011058Y011998D03*
X011080Y011954D03*
X011080Y011932D03*
X011102Y011910D03*
X011102Y011887D03*
X011124Y011843D03*
X011147Y011799D03*
X011169Y011754D03*
X011191Y011710D03*
X011213Y011665D03*
X011213Y011643D03*
X011236Y011621D03*
X011236Y011599D03*
X011258Y011554D03*
X011302Y011466D03*
X011302Y011443D03*
X011324Y011421D03*
X011324Y011399D03*
X011346Y011377D03*
X011346Y011355D03*
X011391Y011266D03*
X011413Y011221D03*
X011413Y011199D03*
X011435Y011177D03*
X011435Y011155D03*
X011458Y011110D03*
X011480Y011066D03*
X011502Y011022D03*
X011524Y010977D03*
X011546Y010933D03*
X011546Y010911D03*
X011569Y010888D03*
X011569Y010866D03*
X011591Y010822D03*
X011613Y010777D03*
X011635Y010733D03*
X011635Y010711D03*
X011657Y010689D03*
X011657Y010666D03*
X011679Y010644D03*
X011679Y010622D03*
X011724Y010533D03*
X011746Y010489D03*
X011746Y010467D03*
X013478Y009268D03*
X010348Y004872D03*
X010325Y004761D03*
X010303Y004672D03*
X010281Y004561D03*
X010259Y004450D03*
X010236Y004362D03*
X010236Y004339D03*
X010214Y004251D03*
X010192Y004162D03*
X010192Y004140D03*
X010148Y003940D03*
X010126Y003851D03*
X010126Y003829D03*
X010081Y003651D03*
X010081Y003629D03*
X010037Y003429D03*
X010014Y003340D03*
X010014Y003318D03*
X009992Y003229D03*
X009970Y003141D03*
X009970Y003118D03*
X009948Y003030D03*
X009926Y002919D03*
X009904Y002830D03*
X010481Y014396D03*
X009326Y015795D03*
D153*
X012290Y002852D03*
X012268Y002830D03*
D154*
X009659Y004939D03*
X012368Y008557D03*
X013500Y007270D03*
X008727Y012331D03*
X007928Y008846D03*
X004775Y014063D03*
X002999Y002852D03*
X017962Y017038D03*
D155*
X007140Y002852D03*
D156*
X007528Y003252D03*
X011990Y003252D03*
X015875Y002852D03*
X009171Y007714D03*
X008727Y010689D03*
X008727Y012309D03*
X008571Y015906D03*
X012812Y013619D03*
X012812Y011998D03*
D157*
X011868Y008202D03*
X013422Y007225D03*
X011313Y006382D03*
X014599Y003496D03*
X004897Y003607D03*
X003077Y002874D03*
X008560Y015861D03*
X011224Y016882D03*
D158*
X004376Y012709D03*
X007106Y002874D03*
D159*
X012301Y002874D03*
D160*
X011946Y008313D03*
X011990Y008335D03*
X012812Y012109D03*
X012812Y013486D03*
X012812Y013508D03*
X014255Y015617D03*
X016896Y018925D03*
X017673Y016882D03*
X008949Y016061D03*
X005774Y013708D03*
X008727Y012198D03*
X007972Y008691D03*
X003177Y002896D03*
D161*
X012323Y002896D03*
D162*
X014776Y003385D03*
X009448Y005139D03*
X003321Y002919D03*
X009226Y016150D03*
X015731Y016172D03*
D163*
X012756Y006959D03*
X007584Y002919D03*
D164*
X013500Y002919D03*
D165*
X004076Y002941D03*
D166*
X007572Y002941D03*
X014388Y015861D03*
D167*
X003454Y012531D03*
X013511Y002941D03*
D168*
X004076Y002963D03*
X002278Y012265D03*
X002944Y014529D03*
D169*
X011124Y016727D03*
X016785Y018636D03*
X004220Y003252D03*
X007572Y002963D03*
D170*
X009337Y005494D03*
X011935Y002963D03*
X015087Y002963D03*
D171*
X004087Y002985D03*
D172*
X007572Y002985D03*
D173*
X009670Y003918D03*
X010137Y003918D03*
X010181Y004095D03*
X010225Y004295D03*
X010270Y004473D03*
X010026Y003363D03*
X009937Y002985D03*
X009915Y015573D03*
D174*
X011946Y002985D03*
D175*
X015087Y002985D03*
D176*
X004087Y003007D03*
D177*
X004309Y003318D03*
X004309Y003385D03*
X007573Y003007D03*
X011946Y003007D03*
X016808Y018681D03*
D178*
X016797Y018658D03*
X014022Y010600D03*
X015065Y003007D03*
X004942Y012886D03*
X004298Y003474D03*
X004298Y003451D03*
D179*
X004087Y003030D03*
D180*
X007561Y003030D03*
X014088Y010622D03*
D181*
X009360Y005383D03*
X011957Y003030D03*
X015021Y003096D03*
X001945Y012154D03*
D182*
X004309Y003429D03*
X011591Y006648D03*
X015054Y003030D03*
D183*
X011668Y006781D03*
X004742Y012820D03*
X004098Y003052D03*
D184*
X007561Y003052D03*
X011957Y003052D03*
X014976Y003163D03*
X002922Y014707D03*
D185*
X009360Y005427D03*
X004298Y003407D03*
X004276Y003296D03*
X015043Y003052D03*
X014377Y015817D03*
D186*
X004109Y003074D03*
D187*
X007561Y003074D03*
X009382Y005316D03*
X001878Y012132D03*
D188*
X005075Y012931D03*
X011957Y003074D03*
D189*
X015043Y003074D03*
X012912Y006981D03*
X004320Y003340D03*
X002922Y014685D03*
X011136Y016749D03*
D190*
X004109Y003096D03*
D191*
X007561Y003096D03*
X011957Y003096D03*
X014910Y003252D03*
X013067Y007026D03*
X011158Y016794D03*
D192*
X004809Y012842D03*
X004120Y003118D03*
D193*
X007561Y003118D03*
D194*
X015009Y003118D03*
X005019Y012909D03*
X016808Y018703D03*
D195*
X016763Y018570D03*
X004131Y003141D03*
D196*
X007561Y003141D03*
X014310Y015706D03*
D197*
X010214Y014796D03*
X009926Y015684D03*
X013478Y010245D03*
X013478Y009956D03*
X009815Y004672D03*
X009659Y004073D03*
X009659Y003784D03*
X009459Y003141D03*
D198*
X011968Y003141D03*
X012945Y016216D03*
D199*
X009371Y005361D03*
X014987Y003141D03*
D200*
X004143Y003163D03*
D201*
X007550Y003163D03*
X009437Y005161D03*
X011968Y003163D03*
D202*
X009670Y003807D03*
X009471Y003163D03*
X011846Y007936D03*
X013555Y009312D03*
X013467Y010222D03*
X010225Y014818D03*
X010225Y015062D03*
X009915Y015661D03*
D203*
X010359Y004917D03*
X010359Y004894D03*
X009981Y003207D03*
X009981Y003163D03*
D204*
X004165Y003185D03*
D205*
X007550Y003185D03*
X011968Y003185D03*
X008727Y012065D03*
X009149Y016128D03*
X012812Y012243D03*
D206*
X013478Y010200D03*
X009459Y003185D03*
D207*
X009981Y003185D03*
D208*
X014965Y003185D03*
D209*
X004187Y003207D03*
D210*
X007539Y003207D03*
X011979Y003207D03*
X013089Y016150D03*
X009004Y016083D03*
D211*
X009915Y015617D03*
X009915Y015462D03*
X010225Y014862D03*
X013467Y010178D03*
X014133Y010178D03*
X009670Y004006D03*
X009670Y003851D03*
X009471Y003207D03*
D212*
X014943Y003207D03*
D213*
X004198Y003229D03*
X016785Y018614D03*
D214*
X008538Y015817D03*
X001612Y012043D03*
X009582Y005005D03*
X007539Y003229D03*
X011979Y003229D03*
X014643Y003474D03*
D215*
X009659Y003873D03*
X009659Y003984D03*
X009459Y003340D03*
X009459Y003252D03*
X009459Y003229D03*
X013478Y010045D03*
X013478Y010156D03*
X010481Y014329D03*
X010481Y014352D03*
X010481Y014440D03*
X009926Y015484D03*
X009926Y015595D03*
X017096Y019147D03*
D216*
X004287Y003518D03*
X004287Y003496D03*
X004242Y003274D03*
D217*
X011502Y006537D03*
X014899Y003274D03*
X005153Y012953D03*
X001823Y012109D03*
X009482Y016216D03*
X014321Y015728D03*
D218*
X014876Y003296D03*
D219*
X014854Y003318D03*
X009393Y005227D03*
X009393Y016194D03*
D220*
X016863Y018836D03*
X014821Y003340D03*
D221*
X004309Y003363D03*
D222*
X007506Y003363D03*
X009459Y003363D03*
X010481Y014463D03*
D223*
X009815Y004473D03*
X012012Y003363D03*
D224*
X014799Y003363D03*
D225*
X009815Y004428D03*
X009815Y004628D03*
X009459Y003385D03*
X013478Y010000D03*
D226*
X013478Y009978D03*
X010481Y014507D03*
X009926Y015417D03*
X009815Y004406D03*
X009659Y004051D03*
X009459Y003407D03*
D227*
X009471Y005116D03*
X009160Y007536D03*
X014754Y003407D03*
X002899Y014796D03*
X016242Y016350D03*
X016308Y016372D03*
X016375Y016394D03*
X016441Y016416D03*
X016619Y016483D03*
D228*
X010225Y015084D03*
X014133Y009956D03*
X009826Y004384D03*
X009471Y003429D03*
D229*
X009515Y005072D03*
X014710Y003429D03*
X017285Y016727D03*
D230*
X008727Y012642D03*
X009815Y004362D03*
X009459Y003451D03*
D231*
X013322Y007159D03*
X014676Y003451D03*
X008727Y010844D03*
X008727Y012154D03*
X012812Y012154D03*
X012812Y013464D03*
X017518Y016816D03*
X017562Y016838D03*
X015942Y018414D03*
X004442Y014174D03*
D232*
X008594Y015928D03*
X012812Y013641D03*
X012812Y011976D03*
X013211Y016061D03*
X005042Y004029D03*
X014543Y003518D03*
D233*
X004276Y003540D03*
D234*
X014488Y003540D03*
D235*
X009149Y007558D03*
X008727Y010888D03*
X008727Y012109D03*
X012812Y012198D03*
X012812Y012220D03*
X012812Y013397D03*
X012812Y013419D03*
X017052Y016638D03*
X017096Y016660D03*
X004753Y003562D03*
D236*
X005131Y003740D03*
X012812Y011865D03*
D237*
X013578Y012420D03*
X013200Y009090D03*
X014133Y003740D03*
X007650Y006315D03*
X005985Y005760D03*
X005830Y005205D03*
X005785Y005028D03*
X005674Y004650D03*
X005630Y004473D03*
X003987Y005028D03*
X003810Y005583D03*
X002700Y004650D03*
X007140Y010200D03*
X000790Y013530D03*
X018573Y017615D03*
D238*
X012812Y011887D03*
X012679Y008757D03*
X014233Y007647D03*
X008394Y005605D03*
X005108Y003784D03*
X005197Y013863D03*
D239*
X009915Y015639D03*
X010225Y015040D03*
X014133Y010000D03*
X009670Y003829D03*
D240*
X013922Y007470D03*
X012812Y011910D03*
X012812Y013708D03*
X005064Y013930D03*
X005086Y003873D03*
X005086Y003851D03*
D241*
X005075Y003895D03*
D242*
X005075Y003918D03*
D243*
X005064Y003984D03*
X001556Y014174D03*
D244*
X009182Y007736D03*
X005053Y004006D03*
D245*
X009659Y004029D03*
X010481Y014307D03*
X010481Y014485D03*
X009926Y015439D03*
D246*
X009615Y015173D03*
X009615Y015151D03*
X010170Y013952D03*
X010170Y013930D03*
X010725Y012731D03*
X010725Y012709D03*
X010170Y004051D03*
D247*
X005019Y004095D03*
D248*
X005019Y004117D03*
X009171Y007692D03*
X009637Y004961D03*
X012257Y008491D03*
X012301Y008513D03*
X012812Y012021D03*
X012812Y013597D03*
X013189Y016083D03*
X008705Y015972D03*
X008727Y012287D03*
X008727Y010711D03*
X004664Y014107D03*
X017896Y016993D03*
D249*
X018262Y018126D03*
X014510Y017504D03*
X014488Y017482D03*
X007117Y014862D03*
X007073Y014818D03*
X007473Y009579D03*
X007495Y009556D03*
X007850Y006781D03*
X007828Y006027D03*
X007850Y006004D03*
X010980Y006249D03*
X014887Y008158D03*
X004564Y004162D03*
X004542Y004184D03*
X004520Y004206D03*
X004342Y004428D03*
X004320Y004450D03*
D250*
X004453Y004295D03*
D251*
X005574Y004295D03*
X005730Y004850D03*
X005885Y005405D03*
X002733Y005760D03*
X007928Y011865D03*
X011835Y007980D03*
X014033Y005960D03*
X014033Y005760D03*
X014055Y005583D03*
X014055Y005405D03*
X014077Y005205D03*
X014077Y005028D03*
X015009Y008358D03*
X015143Y011133D03*
X015165Y011510D03*
X015165Y011688D03*
X015187Y012065D03*
X012012Y013175D03*
D252*
X009815Y004584D03*
X009815Y004561D03*
X009815Y004450D03*
D253*
X004298Y004473D03*
X007095Y014840D03*
D254*
X009826Y004606D03*
D255*
X009826Y004650D03*
D256*
X009515Y004828D03*
D257*
X009515Y004850D03*
X011358Y010023D03*
D258*
X012212Y008469D03*
X009615Y004983D03*
X007950Y008757D03*
D259*
X009559Y005028D03*
X012024Y008358D03*
X013134Y016128D03*
D260*
X009526Y005050D03*
D261*
X009415Y005183D03*
X011457Y006493D03*
X005685Y013841D03*
X002910Y014773D03*
D262*
X009404Y005205D03*
D263*
X014044Y005627D03*
X014044Y005649D03*
X014044Y005671D03*
X014044Y005694D03*
X014044Y005716D03*
X014066Y005338D03*
X014066Y005316D03*
X014066Y005294D03*
X014066Y005272D03*
X014066Y005250D03*
X015154Y011332D03*
X015154Y011355D03*
X015154Y011377D03*
X015154Y011399D03*
X015154Y011421D03*
X015154Y011443D03*
X015154Y011466D03*
X015176Y011776D03*
X015176Y011799D03*
X015176Y011821D03*
X015176Y011843D03*
X015176Y011887D03*
X015176Y011910D03*
X015176Y011932D03*
X012001Y012465D03*
X012001Y013153D03*
X002766Y005916D03*
X002744Y005827D03*
X002744Y005805D03*
D264*
X008239Y008646D03*
X008261Y008668D03*
X009393Y005272D03*
X012878Y016239D03*
D265*
X009382Y005294D03*
D266*
X009360Y005405D03*
D267*
X009349Y005449D03*
D268*
X009337Y005472D03*
D269*
X009337Y005516D03*
D270*
X009337Y005538D03*
D271*
X010381Y005583D03*
X014998Y017970D03*
D272*
X012812Y013774D03*
X012812Y011843D03*
X014654Y007914D03*
X011147Y006293D03*
X009193Y007891D03*
X008261Y005671D03*
X008727Y010533D03*
X008727Y012465D03*
X005952Y013397D03*
D273*
X008227Y005694D03*
X014688Y007936D03*
X014133Y015462D03*
D274*
X014621Y017637D03*
X007228Y014995D03*
X007206Y014973D03*
X007939Y006892D03*
X010536Y005694D03*
D275*
X008150Y005738D03*
X008682Y008491D03*
X008727Y010511D03*
X008727Y012487D03*
X007728Y015439D03*
X007772Y015462D03*
X007794Y015484D03*
X012812Y013797D03*
X014099Y015439D03*
X015098Y018037D03*
X016985Y019058D03*
X018317Y017260D03*
X012812Y011821D03*
X012900Y008890D03*
D276*
X012923Y008913D03*
X008327Y007248D03*
X008127Y005760D03*
D277*
X011213Y006315D03*
X014188Y007625D03*
X008727Y010578D03*
X008727Y012420D03*
X012812Y013730D03*
D278*
X005796Y013686D03*
X011346Y006404D03*
D279*
X011380Y006426D03*
X009160Y007581D03*
X017463Y016794D03*
D280*
X015542Y016105D03*
X011435Y006471D03*
D281*
X011480Y006515D03*
D282*
X011535Y006582D03*
D283*
X011557Y006604D03*
D284*
X011602Y006670D03*
X002922Y014662D03*
X014377Y015839D03*
D285*
X018384Y017970D03*
X007772Y006693D03*
X006795Y014463D03*
D286*
X002922Y014640D03*
X011624Y006693D03*
D287*
X011635Y006715D03*
X011124Y016705D03*
D288*
X011646Y006737D03*
D289*
X011668Y006759D03*
D290*
X011691Y006804D03*
D291*
X011702Y006826D03*
X016741Y018436D03*
D292*
X011014Y016461D03*
X012124Y006848D03*
D293*
X012112Y006870D03*
D294*
X012101Y006892D03*
X003044Y014263D03*
D295*
X012090Y006915D03*
D296*
X012079Y006937D03*
X002644Y012398D03*
D297*
X013122Y007048D03*
X016852Y018814D03*
D298*
X014787Y017793D03*
X008127Y007070D03*
D299*
X008960Y008180D03*
X010203Y007070D03*
D300*
X013167Y007070D03*
X005219Y012975D03*
D301*
X007561Y015306D03*
X007761Y009268D03*
X007783Y009246D03*
X008694Y008424D03*
X008871Y008269D03*
X008893Y008247D03*
X009049Y008113D03*
X009071Y008091D03*
X009981Y007270D03*
X010159Y007114D03*
X010181Y007092D03*
X008139Y007092D03*
X018106Y018281D03*
D302*
X014299Y015684D03*
X013211Y007092D03*
D303*
X013256Y007114D03*
X008727Y010977D03*
X008727Y012021D03*
X008727Y012043D03*
X005708Y013797D03*
X011191Y016838D03*
X014277Y015661D03*
X015986Y016261D03*
X016053Y016283D03*
X016186Y016327D03*
X016874Y018880D03*
X012812Y013330D03*
X012812Y012287D03*
X012812Y012265D03*
D304*
X009804Y007425D03*
X010003Y007248D03*
D305*
X013456Y007248D03*
X008638Y015950D03*
X004709Y014085D03*
D306*
X006562Y014107D03*
X012112Y012354D03*
X006562Y007292D03*
X006562Y007270D03*
D307*
X008405Y007314D03*
X007850Y009135D03*
X007695Y015417D03*
X015065Y018015D03*
D308*
X016930Y018991D03*
X013600Y007314D03*
D309*
X013777Y007403D03*
D310*
X013822Y007425D03*
D311*
X009149Y007447D03*
D312*
X009149Y007470D03*
D313*
X009160Y007492D03*
X015287Y016017D03*
D314*
X009160Y007625D03*
D315*
X009160Y007647D03*
X012112Y008402D03*
X004520Y014152D03*
D316*
X005930Y013441D03*
X014410Y007758D03*
D317*
X009171Y007780D03*
D318*
X008694Y008557D03*
X012756Y008802D03*
X014443Y007780D03*
X015331Y018192D03*
D319*
X015298Y018170D03*
X014477Y007803D03*
D320*
X013333Y009179D03*
X011846Y007958D03*
X010558Y009579D03*
X010492Y009534D03*
X010780Y009712D03*
D321*
X009193Y007980D03*
X008771Y008358D03*
X007728Y009290D03*
X007439Y015195D03*
D322*
X014743Y007980D03*
X018295Y017238D03*
D323*
X007117Y008180D03*
D324*
X011868Y008180D03*
D325*
X014899Y008180D03*
X006929Y014640D03*
X001024Y013908D03*
D326*
X005808Y013663D03*
X008538Y015839D03*
X011868Y008224D03*
D327*
X012057Y008380D03*
X008727Y010777D03*
X008727Y012220D03*
X007972Y008713D03*
X012812Y012087D03*
X008882Y016039D03*
X017718Y016905D03*
X017762Y016927D03*
D328*
X013156Y016105D03*
X012179Y008446D03*
X005519Y013064D03*
D329*
X001323Y014085D03*
X008694Y008535D03*
D330*
X012334Y008535D03*
X014221Y015573D03*
D331*
X008694Y008580D03*
D332*
X008694Y008602D03*
X001479Y011998D03*
D333*
X009304Y008691D03*
X009348Y008713D03*
X009393Y008757D03*
X009437Y008779D03*
X009459Y008802D03*
X009482Y008824D03*
X009526Y008846D03*
X009548Y008868D03*
X009570Y008890D03*
X009637Y008935D03*
X009659Y008957D03*
X009704Y008979D03*
X009726Y009001D03*
X009748Y009024D03*
X009792Y009046D03*
X009815Y009068D03*
X009881Y009112D03*
X009903Y009135D03*
X009970Y009179D03*
D334*
X008727Y010755D03*
X008727Y012243D03*
X007950Y008735D03*
D335*
X009371Y008735D03*
X009615Y008913D03*
D336*
X012656Y008735D03*
X005108Y013908D03*
D337*
X007950Y008779D03*
D338*
X007939Y008802D03*
X017929Y017016D03*
D339*
X007939Y008824D03*
D340*
X012856Y008868D03*
X007861Y015528D03*
D341*
X005885Y013530D03*
X007905Y008913D03*
D342*
X007905Y008935D03*
X008727Y012398D03*
X008305Y015795D03*
X005019Y013952D03*
X012390Y010378D03*
X018117Y017127D03*
X015520Y018281D03*
D343*
X015476Y018259D03*
X014166Y015506D03*
X007906Y008957D03*
D344*
X009848Y009090D03*
D345*
X007861Y009112D03*
D346*
X007872Y011244D03*
X007850Y011288D03*
X007850Y011710D03*
X007872Y011754D03*
X009582Y011754D03*
X009582Y011776D03*
X009604Y011732D03*
X009604Y011710D03*
X009604Y011288D03*
X009604Y011266D03*
X009582Y011244D03*
X011313Y010000D03*
X013267Y009135D03*
X013666Y012531D03*
X013666Y012553D03*
X013666Y013064D03*
X011957Y013064D03*
X011935Y013020D03*
X011935Y012598D03*
X011957Y012553D03*
D347*
X010225Y009357D03*
X010159Y009312D03*
X010092Y009268D03*
X010026Y009223D03*
X010003Y009201D03*
X009937Y009157D03*
X013378Y009201D03*
D348*
X013300Y009157D03*
X011102Y009889D03*
D349*
X013411Y009223D03*
D350*
X010070Y009246D03*
D351*
X013444Y009246D03*
D352*
X010392Y009468D03*
X010125Y009290D03*
D353*
X013511Y009290D03*
D354*
X010525Y009556D03*
X010414Y009490D03*
X010347Y009445D03*
X010325Y009423D03*
X010192Y009334D03*
D355*
X013600Y009334D03*
D356*
X010459Y009512D03*
X010281Y009401D03*
X010259Y009379D03*
D357*
X007561Y009468D03*
X014044Y015395D03*
X016996Y019080D03*
D358*
X010625Y009623D03*
X010603Y009601D03*
D359*
X010669Y009645D03*
D360*
X010703Y009667D03*
X010747Y009690D03*
D361*
X010814Y009734D03*
X010858Y009756D03*
D362*
X010891Y009778D03*
X010936Y009801D03*
D363*
X010980Y009823D03*
X001190Y011910D03*
D364*
X008727Y010400D03*
X011014Y009845D03*
X012812Y013908D03*
D365*
X012812Y011710D03*
X011058Y009867D03*
X008727Y012598D03*
X017052Y019125D03*
D366*
X013711Y012931D03*
X013711Y012909D03*
X013733Y012842D03*
X013733Y012820D03*
X013733Y012775D03*
X013711Y012731D03*
X013711Y012709D03*
X013711Y012687D03*
X013711Y012664D03*
X011913Y012687D03*
X011913Y012709D03*
X011913Y012731D03*
X011890Y012820D03*
X011913Y012886D03*
X011913Y012909D03*
X011913Y012931D03*
X009648Y011532D03*
X009648Y011488D03*
X009648Y011466D03*
X011136Y009912D03*
X011180Y009934D03*
X011224Y009956D03*
X007828Y011377D03*
X007828Y011399D03*
X007828Y011421D03*
X007828Y011443D03*
X007806Y011488D03*
X007828Y011554D03*
X007828Y011577D03*
X007828Y011599D03*
X007828Y011621D03*
D367*
X009615Y011665D03*
X009615Y011332D03*
X011280Y009978D03*
D368*
X014133Y009978D03*
X014133Y010222D03*
D369*
X014133Y010023D03*
X013467Y010023D03*
X010225Y015018D03*
D370*
X011990Y013131D03*
X011968Y013108D03*
X011968Y013086D03*
X011968Y012531D03*
X011968Y012509D03*
X011990Y012487D03*
X013633Y012487D03*
X013655Y012509D03*
X013655Y013086D03*
X013655Y013108D03*
X013633Y013131D03*
X011413Y010045D03*
X009571Y011199D03*
X009571Y011221D03*
X009548Y011177D03*
X009571Y011799D03*
X009548Y011821D03*
X007906Y011821D03*
X007883Y011799D03*
X007883Y011776D03*
X007883Y011221D03*
X002888Y014929D03*
D371*
X011457Y010067D03*
D372*
X014133Y010200D03*
X010470Y014285D03*
X010225Y014840D03*
D373*
X014144Y010245D03*
D374*
X008727Y010378D03*
D375*
X014721Y010400D03*
D376*
X013544Y010422D03*
X013544Y010444D03*
D377*
X013755Y010467D03*
X014421Y015928D03*
X016752Y018481D03*
X011091Y016660D03*
D378*
X013800Y010489D03*
D379*
X011735Y010511D03*
X011713Y010555D03*
X011691Y010600D03*
X011602Y010800D03*
X011580Y010844D03*
X011513Y010999D03*
X011491Y011044D03*
X011402Y011244D03*
X011380Y011288D03*
X011358Y011332D03*
X011247Y011577D03*
X011180Y011732D03*
X011158Y011776D03*
X011136Y011821D03*
X011069Y011976D03*
X011047Y012021D03*
X011002Y012109D03*
X010958Y012220D03*
X010936Y012265D03*
X010891Y012354D03*
X010825Y012509D03*
X010803Y012553D03*
X010780Y012598D03*
X010669Y012842D03*
X010603Y012997D03*
X010581Y013042D03*
X010558Y013086D03*
X010492Y013242D03*
X010470Y013286D03*
X010447Y013330D03*
X010381Y013486D03*
X010336Y013575D03*
X010248Y013774D03*
X010225Y013819D03*
X010137Y014019D03*
X010114Y014063D03*
X010048Y014218D03*
X010026Y014263D03*
X010003Y014307D03*
X009915Y014507D03*
X009892Y014551D03*
X009870Y014596D03*
X009826Y014707D03*
X009781Y014796D03*
X009715Y014951D03*
X009693Y014995D03*
X009670Y015040D03*
X009648Y015084D03*
X009582Y015240D03*
X009559Y015284D03*
X009537Y015328D03*
X009493Y015439D03*
X009471Y015484D03*
X009448Y015528D03*
X009360Y015728D03*
X009337Y015772D03*
D380*
X013833Y010511D03*
X002134Y012220D03*
D381*
X002933Y014618D03*
X013877Y010533D03*
D382*
X013933Y010555D03*
X016774Y018592D03*
X002078Y012198D03*
D383*
X013977Y010578D03*
D384*
X011624Y010755D03*
X011025Y012065D03*
X010692Y012798D03*
X010270Y013730D03*
X009937Y014463D03*
X009759Y014840D03*
D385*
X008727Y012132D03*
X008727Y010866D03*
X012812Y012176D03*
X012812Y013441D03*
X017340Y016749D03*
X017407Y016771D03*
D386*
X016808Y016549D03*
X016741Y016527D03*
X016564Y016461D03*
X016497Y016438D03*
X012812Y013375D03*
X008727Y010933D03*
D387*
X008727Y010955D03*
X012812Y013353D03*
X016119Y016305D03*
D388*
X011269Y011532D03*
X011291Y011488D03*
X011469Y011088D03*
X010914Y012309D03*
X010714Y012753D03*
X010159Y013974D03*
X009804Y014751D03*
D389*
X011901Y012864D03*
X011901Y012842D03*
X011901Y012775D03*
X011901Y012753D03*
X011924Y012664D03*
X011924Y012642D03*
X011946Y012576D03*
X011924Y012953D03*
X011924Y012997D03*
X011946Y013042D03*
X013678Y013042D03*
X013700Y012997D03*
X013700Y012953D03*
X013722Y012886D03*
X013722Y012864D03*
X013722Y012753D03*
X013700Y012642D03*
X013678Y012576D03*
X009637Y011599D03*
X009637Y011577D03*
X009637Y011554D03*
X009637Y011443D03*
X009637Y011421D03*
X009637Y011399D03*
X007861Y011266D03*
X007839Y011332D03*
X007839Y011355D03*
X007817Y011466D03*
X007817Y011532D03*
X007839Y011643D03*
X007839Y011665D03*
X007861Y011732D03*
X011258Y016971D03*
D390*
X011924Y012975D03*
X011924Y012620D03*
X013700Y012620D03*
X013700Y012975D03*
X007839Y011688D03*
X007839Y011310D03*
D391*
X009615Y011310D03*
X009615Y011688D03*
D392*
X015154Y011310D03*
X015176Y011865D03*
D393*
X009626Y011643D03*
X009626Y011621D03*
X009626Y011377D03*
X009626Y011355D03*
D394*
X009648Y011510D03*
X007806Y011510D03*
X011890Y012798D03*
X013733Y012798D03*
D395*
X011280Y011510D03*
D396*
X012812Y011688D03*
D397*
X001079Y011887D03*
D398*
X001678Y012065D03*
D399*
X012812Y012065D03*
D400*
X009315Y016172D03*
X001745Y012087D03*
D401*
X002011Y012176D03*
D402*
X002200Y012243D03*
D403*
X002333Y012287D03*
X002955Y014485D03*
D404*
X002977Y014440D03*
X002400Y012309D03*
D405*
X002466Y012331D03*
D406*
X002589Y012376D03*
X011025Y016483D03*
D407*
X002711Y012420D03*
D408*
X002788Y012442D03*
D409*
X002844Y012465D03*
D410*
X002911Y012487D03*
D411*
X002977Y012509D03*
X003932Y012598D03*
D412*
X003443Y012576D03*
X003443Y012553D03*
D413*
X013689Y012598D03*
X013689Y013020D03*
D414*
X004043Y012620D03*
D415*
X008727Y012620D03*
D416*
X004143Y012642D03*
D417*
X004220Y012664D03*
X003066Y014218D03*
D418*
X004298Y012687D03*
D419*
X004453Y012731D03*
D420*
X004531Y012753D03*
D421*
X004598Y012775D03*
D422*
X004675Y012798D03*
D423*
X004886Y012864D03*
D424*
X005308Y012997D03*
X013011Y016194D03*
X015409Y016061D03*
X015476Y016083D03*
X015676Y016150D03*
D425*
X016985Y016616D03*
X009082Y016105D03*
X005375Y013020D03*
D426*
X005452Y013042D03*
D427*
X005874Y013175D03*
D428*
X009604Y015195D03*
X009426Y015573D03*
X010359Y013530D03*
D429*
X012812Y013530D03*
D430*
X005763Y013730D03*
D431*
X005730Y013774D03*
D432*
X005697Y013819D03*
X015354Y016039D03*
X016863Y018858D03*
D433*
X012812Y013930D03*
D434*
X010481Y014241D03*
D435*
X010481Y014263D03*
X010481Y014529D03*
D436*
X003033Y014285D03*
D437*
X003021Y014307D03*
D438*
X002999Y014352D03*
D439*
X002999Y014374D03*
D440*
X002988Y014396D03*
D441*
X002988Y014418D03*
X011047Y016549D03*
D442*
X002955Y014463D03*
D443*
X002944Y014507D03*
D444*
X002944Y014551D03*
D445*
X010481Y014551D03*
D446*
X002933Y014574D03*
D447*
X002933Y014596D03*
X014410Y015906D03*
D448*
X009582Y016239D03*
X002922Y014729D03*
D449*
X007672Y015395D03*
D450*
X009915Y015395D03*
D451*
X007928Y015573D03*
D452*
X014232Y015595D03*
D453*
X014332Y015750D03*
D454*
X014366Y015795D03*
D455*
X014399Y015883D03*
D456*
X014421Y015950D03*
D457*
X014432Y015972D03*
X011080Y016616D03*
D458*
X011069Y016594D03*
X014443Y015994D03*
D459*
X015609Y016128D03*
D460*
X011236Y016261D03*
D461*
X011269Y016283D03*
D462*
X011302Y016305D03*
D463*
X011324Y016327D03*
D464*
X011358Y016350D03*
D465*
X011380Y016372D03*
D466*
X011413Y016394D03*
D467*
X011457Y016416D03*
D468*
X011002Y016438D03*
D469*
X011036Y016505D03*
D470*
X016686Y016505D03*
D471*
X011058Y016572D03*
D472*
X011080Y016638D03*
D473*
X011102Y016683D03*
D474*
X017163Y016683D03*
D475*
X011180Y016816D03*
D476*
X011202Y016860D03*
D477*
X017618Y016860D03*
D478*
X018006Y017060D03*
D479*
X014432Y017415D03*
D480*
X014599Y017615D03*
D481*
X015687Y018348D03*
D482*
X016752Y018459D03*
D483*
X016763Y018503D03*
D484*
X016763Y018525D03*
D485*
X016763Y018547D03*
D486*
X016819Y018725D03*
D487*
X016830Y018747D03*
D488*
X016830Y018769D03*
D489*
X016841Y018792D03*
D490*
X014192Y018853D02*
X014192Y018322D01*
X013838Y018853D01*
X013838Y018322D01*
X013648Y018411D02*
X013648Y018765D01*
X013559Y018853D01*
X013382Y018853D01*
X013294Y018765D01*
X013294Y018411D01*
X013382Y018322D01*
X013559Y018322D01*
X013648Y018411D01*
X013108Y018322D02*
X012931Y018322D01*
X013020Y018322D02*
X013020Y018853D01*
X013108Y018853D02*
X012931Y018853D01*
X012742Y018853D02*
X012388Y018853D01*
X012565Y018853D02*
X012565Y018322D01*
X012198Y018411D02*
X012109Y018322D01*
X011932Y018322D01*
X011844Y018411D01*
X011844Y018765D01*
X011932Y018853D01*
X012109Y018853D01*
X012198Y018765D01*
X011654Y018853D02*
X011654Y018411D01*
X011566Y018322D01*
X011389Y018322D01*
X011300Y018411D01*
X011300Y018853D01*
X011111Y018765D02*
X011022Y018853D01*
X010757Y018853D01*
X010757Y018322D01*
X011022Y018322D01*
X011111Y018411D01*
X011111Y018765D01*
X010567Y018765D02*
X010567Y018411D01*
X010478Y018322D01*
X010301Y018322D01*
X010213Y018411D01*
X010213Y018765D01*
X010301Y018853D01*
X010478Y018853D01*
X010567Y018765D01*
X010023Y018765D02*
X010023Y018588D01*
X009935Y018499D01*
X009669Y018499D01*
X009669Y018322D02*
X009669Y018853D01*
X009935Y018853D01*
X010023Y018765D01*
X009846Y018499D02*
X010023Y018322D01*
X009842Y017869D02*
X009842Y017338D01*
X009488Y017869D01*
X009488Y017338D01*
X009298Y017426D02*
X009298Y017781D01*
X009210Y017869D01*
X009033Y017869D01*
X008944Y017781D01*
X008944Y017426D01*
X009033Y017338D01*
X009210Y017338D01*
X009298Y017426D01*
X009125Y018322D02*
X009125Y018853D01*
X009391Y018853D01*
X009479Y018765D01*
X009479Y018588D01*
X009391Y018499D01*
X009125Y018499D01*
X008392Y018765D02*
X008392Y018853D01*
X008392Y018765D02*
X008215Y018588D01*
X008215Y018322D01*
X008215Y018588D02*
X008038Y018765D01*
X008038Y018853D01*
X007848Y018853D02*
X007848Y018322D01*
X007494Y018853D01*
X007494Y018322D01*
X007304Y018322D02*
X007304Y018676D01*
X007127Y018853D01*
X006950Y018676D01*
X006950Y018322D01*
X006950Y018588D02*
X007304Y018588D01*
X007313Y017869D02*
X007313Y017338D01*
X007667Y017338D01*
X007857Y017426D02*
X007945Y017338D01*
X008122Y017338D01*
X008211Y017426D01*
X008211Y017515D01*
X008122Y017604D01*
X007945Y017604D01*
X007857Y017692D01*
X007857Y017781D01*
X007945Y017869D01*
X008122Y017869D01*
X008211Y017781D01*
X007667Y017869D02*
X007313Y017869D01*
X007123Y017781D02*
X007035Y017869D01*
X006769Y017869D01*
X006769Y017338D01*
X007035Y017338D01*
X007123Y017426D01*
X007123Y017781D01*
X007313Y017604D02*
X007490Y017604D01*
X006579Y017426D02*
X006579Y017781D01*
X006491Y017869D01*
X006314Y017869D01*
X006225Y017781D01*
X006225Y017426D01*
X006314Y017338D01*
X006491Y017338D01*
X006579Y017426D01*
X006036Y017426D02*
X005947Y017338D01*
X005770Y017338D01*
X005682Y017426D01*
X005682Y017781D01*
X005770Y017869D01*
X005947Y017869D01*
X006036Y017781D01*
X006040Y018322D02*
X006040Y018853D01*
X005863Y018853D02*
X006217Y018853D01*
X005673Y018853D02*
X005673Y018411D01*
X005585Y018322D01*
X005408Y018322D01*
X005319Y018411D01*
X005319Y018853D01*
X005129Y018765D02*
X005129Y018588D01*
X005041Y018499D01*
X004775Y018499D01*
X004775Y018322D02*
X004775Y018853D01*
X005041Y018853D01*
X005129Y018765D01*
X004860Y017869D02*
X004683Y017869D01*
X004594Y017781D01*
X004594Y017692D01*
X004683Y017604D01*
X004860Y017604D01*
X004948Y017515D01*
X004948Y017426D01*
X004860Y017338D01*
X004683Y017338D01*
X004594Y017426D01*
X004404Y017426D02*
X004404Y017604D01*
X004227Y017604D01*
X004050Y017781D02*
X004050Y017426D01*
X004139Y017338D01*
X004316Y017338D01*
X004404Y017426D01*
X004404Y017781D02*
X004316Y017869D01*
X004139Y017869D01*
X004050Y017781D01*
X003861Y017869D02*
X003861Y017338D01*
X003507Y017869D01*
X003507Y017338D01*
X003321Y017338D02*
X003144Y017338D01*
X003233Y017338D02*
X003233Y017869D01*
X003321Y017869D02*
X003144Y017869D01*
X002954Y017869D02*
X002600Y017515D01*
X002689Y017604D02*
X002954Y017338D01*
X002600Y017338D02*
X002600Y017869D01*
X002411Y017781D02*
X002411Y017604D01*
X002322Y017515D01*
X002057Y017515D01*
X002234Y017515D02*
X002411Y017338D01*
X002057Y017338D02*
X002057Y017869D01*
X002322Y017869D01*
X002411Y017781D01*
X001867Y017692D02*
X001867Y017338D01*
X001867Y017604D02*
X001513Y017604D01*
X001513Y017692D02*
X001690Y017869D01*
X001867Y017692D01*
X001513Y017692D02*
X001513Y017338D01*
X001323Y017338D02*
X001323Y017869D01*
X001146Y017692D01*
X000969Y017869D01*
X000969Y017338D01*
X001058Y016885D02*
X000969Y016796D01*
X000969Y016708D01*
X001058Y016619D01*
X001235Y016619D01*
X001323Y016531D01*
X001323Y016442D01*
X001235Y016354D01*
X001058Y016354D01*
X000969Y016442D01*
X001058Y016885D02*
X001235Y016885D01*
X001323Y016796D01*
X001513Y016885D02*
X001690Y016885D01*
X001601Y016885D02*
X001601Y016354D01*
X001513Y016354D02*
X001690Y016354D01*
X001875Y016354D02*
X002141Y016354D01*
X002229Y016442D01*
X002229Y016796D01*
X002141Y016885D01*
X001875Y016885D01*
X001875Y016354D01*
X002419Y016354D02*
X002419Y016885D01*
X002773Y016885D01*
X002596Y016619D02*
X002419Y016619D01*
X002419Y016354D02*
X002773Y016354D01*
X002963Y016354D02*
X002963Y016442D01*
X003051Y016442D01*
X003051Y016354D01*
X002963Y016354D01*
X003779Y016885D02*
X004132Y016885D01*
X003955Y016885D02*
X003955Y016354D01*
X004322Y016442D02*
X004411Y016354D01*
X004588Y016354D01*
X004676Y016442D01*
X004676Y016796D01*
X004588Y016885D01*
X004411Y016885D01*
X004322Y016796D01*
X004322Y016442D01*
X004499Y016531D02*
X004676Y016354D01*
X004866Y016354D02*
X004866Y016442D01*
X004954Y016442D01*
X004954Y016354D01*
X004866Y016354D01*
X005138Y017338D02*
X005492Y017869D01*
X004948Y017781D02*
X004860Y017869D01*
X003865Y018322D02*
X003865Y018853D01*
X003688Y018853D02*
X004042Y018853D01*
X003498Y018765D02*
X003498Y018411D01*
X003410Y018322D01*
X003233Y018322D01*
X003144Y018411D01*
X003144Y018765D01*
X003233Y018853D01*
X003410Y018853D01*
X003498Y018765D01*
X002954Y018853D02*
X002954Y018322D01*
X002600Y018853D01*
X002600Y018322D01*
X001867Y018411D02*
X001867Y018765D01*
X001778Y018853D01*
X001601Y018853D01*
X001513Y018765D01*
X001513Y018411D01*
X001601Y018322D01*
X001778Y018322D01*
X001867Y018411D01*
X001323Y018411D02*
X001323Y018765D01*
X001235Y018853D01*
X000969Y018853D01*
X000969Y018322D01*
X001235Y018322D01*
X001323Y018411D01*
X010575Y017869D02*
X010929Y017869D01*
X010752Y017869D02*
X010752Y017338D01*
X011119Y017338D02*
X011119Y017869D01*
X011119Y017604D02*
X011473Y017604D01*
X011473Y017869D02*
X011473Y017338D01*
X011663Y017338D02*
X011840Y017338D01*
X011751Y017338D02*
X011751Y017869D01*
X011663Y017869D02*
X011840Y017869D01*
X012025Y017781D02*
X012025Y017692D01*
X012114Y017604D01*
X012291Y017604D01*
X012379Y017515D01*
X012379Y017426D01*
X012291Y017338D01*
X012114Y017338D01*
X012025Y017426D01*
X012025Y017781D02*
X012114Y017869D01*
X012291Y017869D01*
X012379Y017781D01*
D491*
X002207Y008169D02*
X002209Y008241D01*
X002215Y008312D01*
X002225Y008383D01*
X002238Y008453D01*
X002256Y008523D01*
X002277Y008591D01*
X002303Y008658D01*
X002331Y008724D01*
X002364Y008788D01*
X002400Y008850D01*
X002439Y008910D01*
X002481Y008967D01*
X002527Y009023D01*
X002575Y009075D01*
X002627Y009125D01*
X002681Y009172D01*
X002737Y009216D01*
X002796Y009257D01*
X002857Y009295D01*
X002920Y009329D01*
X002985Y009360D01*
X003051Y009386D01*
X003119Y009410D01*
X003188Y009429D01*
X003258Y009445D01*
X003328Y009457D01*
X003400Y009465D01*
X003471Y009469D01*
X003543Y009469D01*
X003614Y009465D01*
X003686Y009457D01*
X003756Y009445D01*
X003826Y009429D01*
X003895Y009410D01*
X003963Y009386D01*
X004029Y009360D01*
X004094Y009329D01*
X004157Y009295D01*
X004218Y009257D01*
X004277Y009216D01*
X004333Y009172D01*
X004387Y009125D01*
X004439Y009075D01*
X004487Y009023D01*
X004533Y008967D01*
X004575Y008910D01*
X004614Y008850D01*
X004650Y008788D01*
X004683Y008724D01*
X004711Y008658D01*
X004737Y008591D01*
X004758Y008523D01*
X004776Y008453D01*
X004789Y008383D01*
X004799Y008312D01*
X004805Y008241D01*
X004807Y008169D01*
X004805Y008097D01*
X004799Y008026D01*
X004789Y007955D01*
X004776Y007885D01*
X004758Y007815D01*
X004737Y007747D01*
X004711Y007680D01*
X004683Y007614D01*
X004650Y007550D01*
X004614Y007488D01*
X004575Y007428D01*
X004533Y007371D01*
X004487Y007315D01*
X004439Y007263D01*
X004387Y007213D01*
X004333Y007166D01*
X004277Y007122D01*
X004218Y007081D01*
X004157Y007043D01*
X004094Y007009D01*
X004029Y006978D01*
X003963Y006952D01*
X003895Y006928D01*
X003826Y006909D01*
X003756Y006893D01*
X003686Y006881D01*
X003614Y006873D01*
X003543Y006869D01*
X003471Y006869D01*
X003400Y006873D01*
X003328Y006881D01*
X003258Y006893D01*
X003188Y006909D01*
X003119Y006928D01*
X003051Y006952D01*
X002985Y006978D01*
X002920Y007009D01*
X002857Y007043D01*
X002796Y007081D01*
X002737Y007122D01*
X002681Y007166D01*
X002627Y007213D01*
X002575Y007263D01*
X002527Y007315D01*
X002481Y007371D01*
X002439Y007428D01*
X002400Y007488D01*
X002364Y007550D01*
X002331Y007614D01*
X002303Y007680D01*
X002277Y007747D01*
X002256Y007815D01*
X002238Y007885D01*
X002225Y007955D01*
X002215Y008026D01*
X002209Y008097D01*
X002207Y008169D01*
D492*
X002168Y007268D02*
X002171Y007268D01*
X002168Y007267D02*
X002182Y007267D01*
X002192Y007266D02*
X002168Y007266D01*
X002167Y007265D02*
X002202Y007265D01*
X002212Y007264D02*
X002167Y007264D01*
X002167Y007263D02*
X002222Y007263D01*
X002232Y007262D02*
X002167Y007262D01*
X002166Y007261D02*
X002242Y007261D01*
X002253Y007260D02*
X002166Y007260D01*
X002263Y007260D01*
X002273Y007259D02*
X002166Y007259D01*
X002166Y007258D02*
X002283Y007258D01*
X002293Y007257D02*
X002165Y007257D01*
X002165Y007256D02*
X002303Y007256D01*
X002313Y007255D02*
X002165Y007255D01*
X002165Y007254D02*
X002324Y007254D01*
X002334Y007253D02*
X002164Y007253D01*
X002164Y007252D02*
X002344Y007252D01*
X002354Y007251D02*
X002164Y007251D01*
X002164Y007250D02*
X002364Y007250D01*
X002374Y007249D02*
X002163Y007249D01*
X002163Y007248D02*
X002384Y007248D01*
X002395Y007247D02*
X002163Y007247D01*
X002163Y007246D02*
X002405Y007246D01*
X002415Y007245D02*
X002163Y007245D01*
X002162Y007244D02*
X002425Y007244D01*
X002435Y007243D02*
X002162Y007243D01*
X002445Y007243D01*
X002455Y007242D02*
X002162Y007242D01*
X002161Y007241D02*
X002466Y007241D01*
X002476Y007240D02*
X002161Y007240D01*
X002161Y007239D02*
X002486Y007239D01*
X002496Y007238D02*
X002161Y007238D01*
X002160Y007237D02*
X002506Y007237D01*
X002516Y007236D02*
X002160Y007236D01*
X002160Y007235D02*
X002526Y007235D01*
X002537Y007234D02*
X002160Y007234D01*
X002160Y007233D02*
X002547Y007233D01*
X002557Y007232D02*
X002159Y007232D01*
X002159Y007231D02*
X002567Y007231D01*
X002577Y007230D02*
X002159Y007230D01*
X002159Y007229D02*
X002587Y007229D01*
X002597Y007228D02*
X002158Y007228D01*
X002158Y007227D02*
X002607Y007227D01*
X002618Y007226D02*
X002158Y007226D01*
X002628Y007226D01*
X002638Y007225D02*
X002157Y007225D01*
X002157Y007224D02*
X002648Y007224D01*
X002658Y007223D02*
X002157Y007223D01*
X002157Y007222D02*
X002668Y007222D01*
X002678Y007221D02*
X002157Y007221D01*
X002156Y007220D02*
X002689Y007220D01*
X002699Y007219D02*
X002156Y007219D01*
X002156Y007218D02*
X002709Y007218D01*
X002719Y007217D02*
X002156Y007217D01*
X002155Y007216D02*
X002729Y007216D01*
X002739Y007215D02*
X002155Y007215D01*
X002155Y007214D02*
X002749Y007214D01*
X002760Y007213D02*
X002155Y007213D01*
X002154Y007212D02*
X002770Y007212D01*
X002780Y007211D02*
X002154Y007211D01*
X002154Y007210D02*
X002790Y007210D01*
X002800Y007209D02*
X002154Y007209D01*
X002810Y007209D01*
X002820Y007208D02*
X002153Y007208D01*
X002153Y007207D02*
X002831Y007207D01*
X002841Y007206D02*
X002153Y007206D01*
X002153Y007205D02*
X002851Y007205D01*
X002861Y007204D02*
X002152Y007204D01*
X002152Y007203D02*
X002871Y007203D01*
X002881Y007202D02*
X002152Y007202D01*
X002152Y007201D02*
X002891Y007201D01*
X002902Y007200D02*
X002151Y007200D01*
X002151Y007199D02*
X002912Y007199D01*
X002922Y007198D02*
X002151Y007198D01*
X002151Y007197D02*
X002932Y007197D01*
X002942Y007196D02*
X002151Y007196D01*
X002150Y007195D02*
X002952Y007195D01*
X002962Y007194D02*
X002150Y007194D01*
X002150Y007193D02*
X002973Y007193D01*
X002983Y007192D02*
X002150Y007192D01*
X002149Y007191D02*
X002993Y007191D01*
X003003Y007191D02*
X002149Y007191D01*
X002149Y007190D02*
X003013Y007190D01*
X003023Y007189D02*
X002149Y007189D01*
X002148Y007188D02*
X003033Y007188D01*
X003044Y007187D02*
X002148Y007187D01*
X002148Y007186D02*
X003054Y007186D01*
X003064Y007185D02*
X002148Y007185D01*
X002148Y007184D02*
X003074Y007184D01*
X003084Y007183D02*
X002147Y007183D01*
X002147Y007182D02*
X003094Y007182D01*
X003104Y007181D02*
X002147Y007181D01*
X002147Y007180D02*
X003114Y007180D01*
X003125Y007179D02*
X002146Y007179D01*
X002146Y007178D02*
X003135Y007178D01*
X003145Y007177D02*
X002146Y007177D01*
X002146Y007176D02*
X003155Y007176D01*
X003165Y007175D02*
X002145Y007175D01*
X002145Y007174D02*
X003175Y007174D01*
X003185Y007174D02*
X002145Y007174D01*
X002145Y007173D02*
X003196Y007173D01*
X003206Y007172D02*
X002145Y007172D01*
X002144Y007171D02*
X003216Y007171D01*
X003226Y007170D02*
X002144Y007170D01*
X002144Y007169D02*
X003236Y007169D01*
X003246Y007168D02*
X002144Y007168D01*
X002143Y007167D02*
X003256Y007167D01*
X003267Y007166D02*
X002143Y007166D01*
X002143Y007165D02*
X003277Y007165D01*
X003287Y007164D02*
X002143Y007164D01*
X002142Y007163D02*
X003297Y007163D01*
X003307Y007162D02*
X002142Y007162D01*
X002142Y007161D02*
X003317Y007161D01*
X003327Y007160D02*
X002142Y007160D01*
X002142Y007159D02*
X003338Y007159D01*
X003348Y007158D02*
X002141Y007158D01*
X002141Y007157D02*
X003358Y007157D01*
X003368Y007157D02*
X002141Y007157D01*
X002141Y007156D02*
X003378Y007156D01*
X003388Y007155D02*
X002140Y007155D01*
X002140Y007154D02*
X003398Y007154D01*
X003409Y007153D02*
X002140Y007153D01*
X002140Y007152D02*
X003419Y007152D01*
X003429Y007151D02*
X002139Y007151D01*
X002139Y007150D02*
X003439Y007150D01*
X003449Y007149D02*
X002139Y007149D01*
X002139Y007148D02*
X003459Y007148D01*
X003469Y007147D02*
X002139Y007147D01*
X002138Y007146D02*
X003479Y007146D01*
X003490Y007145D02*
X002138Y007145D01*
X002138Y007144D02*
X003500Y007144D01*
X003510Y007143D02*
X002138Y007143D01*
X002137Y007142D02*
X003520Y007142D01*
X003530Y007141D02*
X002137Y007141D01*
X002137Y007140D02*
X003540Y007140D01*
X003550Y007140D02*
X002137Y007140D01*
X002136Y007139D02*
X003561Y007139D01*
X003571Y007138D02*
X002136Y007138D01*
X002136Y007137D02*
X003581Y007137D01*
X003591Y007136D02*
X002136Y007136D01*
X002136Y007135D02*
X003601Y007135D01*
X003611Y007134D02*
X002135Y007134D01*
X002135Y007133D02*
X003621Y007133D01*
X003632Y007132D02*
X002135Y007132D01*
X002135Y007131D02*
X003642Y007131D01*
X003652Y007130D02*
X002134Y007130D01*
X002134Y007129D02*
X003662Y007129D01*
X003672Y007128D02*
X002134Y007128D01*
X002134Y007127D02*
X003682Y007127D01*
X003692Y007126D02*
X002133Y007126D01*
X002133Y007125D02*
X003703Y007125D01*
X003713Y007124D02*
X002133Y007124D01*
X002133Y007123D02*
X003723Y007123D01*
X003733Y007123D02*
X002133Y007123D01*
X002132Y007122D02*
X003743Y007122D01*
X003753Y007121D02*
X002132Y007121D01*
X002132Y007120D02*
X003763Y007120D01*
X003774Y007119D02*
X002132Y007119D01*
X002131Y007118D02*
X003784Y007118D01*
X003794Y007117D02*
X002131Y007117D01*
X002131Y007116D02*
X003804Y007116D01*
X003814Y007115D02*
X002131Y007115D01*
X002130Y007114D02*
X003824Y007114D01*
X003834Y007113D02*
X002130Y007113D01*
X002130Y007112D02*
X003844Y007112D01*
X003855Y007111D02*
X002130Y007111D01*
X002130Y007110D02*
X003865Y007110D01*
X003875Y007109D02*
X002129Y007109D01*
X002129Y007108D02*
X003885Y007108D01*
X003895Y007107D02*
X002129Y007107D01*
X002129Y007106D02*
X003905Y007106D01*
X003915Y007106D02*
X002128Y007106D01*
X002128Y007105D02*
X003926Y007105D01*
X003936Y007104D02*
X002128Y007104D01*
X002128Y007103D02*
X003946Y007103D01*
X003956Y007102D02*
X002127Y007102D01*
X002127Y007101D02*
X003966Y007101D01*
X003976Y007100D02*
X002127Y007100D01*
X002127Y007099D02*
X003986Y007099D01*
X003997Y007098D02*
X002127Y007098D01*
X002126Y007097D02*
X004007Y007097D01*
X004017Y007096D02*
X002126Y007096D01*
X002126Y007095D02*
X004027Y007095D01*
X004037Y007094D02*
X002126Y007094D01*
X002125Y007093D02*
X004047Y007093D01*
X004057Y007092D02*
X002125Y007092D01*
X002125Y007091D02*
X004068Y007091D01*
X004078Y007090D02*
X002125Y007090D01*
X002124Y007089D02*
X004088Y007089D01*
X004098Y007089D02*
X002124Y007089D01*
X002124Y007088D02*
X004108Y007088D01*
X004118Y007087D02*
X002124Y007087D01*
X002124Y007086D02*
X004128Y007086D01*
X004139Y007085D02*
X002123Y007085D01*
X002123Y007084D02*
X004149Y007084D01*
X004159Y007083D02*
X002123Y007083D01*
X002123Y007082D02*
X004169Y007082D01*
X004179Y007081D02*
X002122Y007081D01*
X002122Y007080D02*
X004189Y007080D01*
X004199Y007079D02*
X002122Y007079D01*
X002122Y007078D02*
X004210Y007078D01*
X004220Y007077D02*
X002121Y007077D01*
X002121Y007076D02*
X004230Y007076D01*
X004240Y007075D02*
X002121Y007075D01*
X002121Y007074D02*
X004250Y007074D01*
X004260Y007073D02*
X002121Y007073D01*
X002120Y007072D02*
X004270Y007072D01*
X004280Y007071D02*
X002120Y007071D01*
X004291Y007071D01*
X004301Y007070D02*
X002120Y007070D01*
X002119Y007069D02*
X004311Y007069D01*
X004321Y007068D02*
X002119Y007068D01*
X002119Y007067D02*
X004331Y007067D01*
X004341Y007066D02*
X002119Y007066D01*
X002119Y007065D02*
X004351Y007065D01*
X004362Y007064D02*
X002118Y007064D01*
X002118Y007063D02*
X004372Y007063D01*
X004382Y007062D02*
X002118Y007062D01*
X002118Y007061D02*
X004392Y007061D01*
X004402Y007060D02*
X002117Y007060D01*
X002117Y007059D02*
X004412Y007059D01*
X004422Y007058D02*
X002117Y007058D01*
X002117Y007057D02*
X004433Y007057D01*
X004443Y007056D02*
X002116Y007056D01*
X002116Y007055D02*
X004453Y007055D01*
X004463Y007054D02*
X002116Y007054D01*
X004473Y007054D01*
X004483Y007053D02*
X002116Y007053D01*
X002115Y007052D02*
X004493Y007052D01*
X004504Y007051D02*
X002115Y007051D01*
X002115Y007050D02*
X004514Y007050D01*
X004524Y007049D02*
X002115Y007049D01*
X002114Y007048D02*
X004534Y007048D01*
X004544Y007047D02*
X002114Y007047D01*
X002114Y007046D02*
X004554Y007046D01*
X004564Y007045D02*
X002114Y007045D01*
X002113Y007044D02*
X004575Y007044D01*
X004585Y007043D02*
X002113Y007043D01*
X002113Y007042D02*
X004595Y007042D01*
X004605Y007041D02*
X002113Y007041D01*
X002113Y007040D02*
X004615Y007040D01*
X004625Y007039D02*
X002112Y007039D01*
X002112Y007038D02*
X004635Y007038D01*
X004646Y007037D02*
X002112Y007037D01*
X004656Y007037D01*
X004666Y007036D02*
X002111Y007036D01*
X002111Y007035D02*
X004676Y007035D01*
X004686Y007034D02*
X002111Y007034D01*
X002111Y007033D02*
X004696Y007033D01*
X004706Y007032D02*
X002110Y007032D01*
X002110Y007031D02*
X004716Y007031D01*
X004727Y007030D02*
X002110Y007030D01*
X002110Y007029D02*
X004737Y007029D01*
X004747Y007028D02*
X002110Y007028D01*
X002109Y007027D02*
X004757Y007027D01*
X004767Y007026D02*
X002109Y007026D01*
X002109Y007025D02*
X004777Y007025D01*
X004787Y007024D02*
X002109Y007024D01*
X002108Y007023D02*
X004798Y007023D01*
X004808Y007022D02*
X002108Y007022D01*
X002108Y007021D02*
X004818Y007021D01*
X004828Y007020D02*
X002108Y007020D01*
X002107Y007020D02*
X004838Y007020D01*
X004848Y007019D02*
X002107Y007019D01*
X002107Y007018D02*
X004858Y007018D01*
X004869Y007017D02*
X002107Y007017D01*
X002107Y007016D02*
X004879Y007016D01*
X004889Y007015D02*
X002106Y007015D01*
X002106Y007014D02*
X004899Y007014D01*
X004909Y007013D02*
X002106Y007013D01*
X002106Y007012D02*
X004919Y007012D01*
X004929Y007011D02*
X002105Y007011D01*
X002105Y007010D02*
X004940Y007010D01*
X004950Y007009D02*
X002105Y007009D01*
X002105Y007008D02*
X004959Y007008D01*
X004961Y007007D02*
X002104Y007007D01*
X002104Y007006D02*
X004964Y007006D01*
X004966Y007005D02*
X002104Y007005D01*
X002104Y007004D02*
X004969Y007004D01*
X004971Y007003D02*
X002104Y007003D01*
X002103Y007003D02*
X004974Y007003D01*
X004976Y007002D02*
X002103Y007002D01*
X002103Y007001D02*
X004979Y007001D01*
X004982Y007000D02*
X002103Y007000D01*
X002102Y006999D02*
X004984Y006999D01*
X004987Y006998D02*
X002102Y006998D01*
X002102Y006997D02*
X004989Y006997D01*
X004992Y006996D02*
X002102Y006996D01*
X002101Y006995D02*
X004994Y006995D01*
X004997Y006994D02*
X002101Y006994D01*
X002101Y006993D02*
X005000Y006993D01*
X005002Y006992D02*
X002101Y006992D01*
X002101Y006991D02*
X005005Y006991D01*
X005007Y006990D02*
X002100Y006990D01*
X002100Y006989D02*
X005010Y006989D01*
X005012Y006988D02*
X002100Y006988D01*
X002100Y006987D02*
X005015Y006987D01*
X005018Y006986D02*
X002099Y006986D01*
X005020Y006986D01*
X005023Y006985D02*
X002099Y006985D01*
X002099Y006984D02*
X005025Y006984D01*
X005028Y006983D02*
X002098Y006983D01*
X002098Y006982D02*
X005030Y006982D01*
X005033Y006981D02*
X002098Y006981D01*
X002098Y006980D02*
X005036Y006980D01*
X005038Y006979D02*
X002098Y006979D01*
X002097Y006978D02*
X005041Y006978D01*
X005043Y006977D02*
X002097Y006977D01*
X002097Y006976D02*
X005046Y006976D01*
X005048Y006975D02*
X002097Y006975D01*
X002096Y006974D02*
X005051Y006974D01*
X005053Y006973D02*
X002096Y006973D01*
X002096Y006972D02*
X005056Y006972D01*
X005059Y006971D02*
X002096Y006971D01*
X002095Y006970D02*
X005061Y006970D01*
X005064Y006969D02*
X002095Y006969D01*
X005066Y006969D01*
X005069Y006968D02*
X002095Y006968D01*
X002095Y006967D02*
X005071Y006967D01*
X005074Y006966D02*
X002094Y006966D01*
X002094Y006965D02*
X005077Y006965D01*
X005079Y006964D02*
X002094Y006964D01*
X002094Y006963D02*
X005082Y006963D01*
X005084Y006962D02*
X002093Y006962D01*
X002093Y006961D02*
X005087Y006961D01*
X005089Y006960D02*
X002093Y006960D01*
X002093Y006959D02*
X005092Y006959D01*
X005094Y006958D02*
X002092Y006958D01*
X002092Y006957D02*
X005097Y006957D01*
X005100Y006956D02*
X002092Y006956D01*
X002092Y006955D02*
X005102Y006955D01*
X005105Y006954D02*
X002092Y006954D01*
X002091Y006953D02*
X005107Y006953D01*
X005110Y006952D02*
X002091Y006952D01*
X002091Y006951D02*
X005112Y006951D01*
X005115Y006951D02*
X002091Y006951D01*
X002090Y006950D02*
X005118Y006950D01*
X005120Y006949D02*
X002090Y006949D01*
X002090Y006948D02*
X005123Y006948D01*
X005125Y006947D02*
X002090Y006947D01*
X002089Y006946D02*
X005128Y006946D01*
X005130Y006945D02*
X002089Y006945D01*
X002089Y006944D02*
X005133Y006944D01*
X005136Y006943D02*
X002089Y006943D01*
X002089Y006942D02*
X005138Y006942D01*
X005141Y006941D02*
X002088Y006941D01*
X002088Y006940D02*
X005143Y006940D01*
X005146Y006939D02*
X002088Y006939D01*
X002088Y006938D02*
X005148Y006938D01*
X005149Y006937D02*
X002087Y006937D01*
X002087Y006936D02*
X005151Y006936D01*
X005152Y006935D02*
X002087Y006935D01*
X002087Y006934D02*
X005153Y006934D01*
X005155Y006934D02*
X002086Y006934D01*
X002086Y006933D02*
X005156Y006933D01*
X005157Y006932D02*
X002086Y006932D01*
X002086Y006931D02*
X005158Y006931D01*
X005160Y006930D02*
X002086Y006930D01*
X002085Y006929D02*
X005161Y006929D01*
X005162Y006928D02*
X002085Y006928D01*
X002085Y006927D02*
X005163Y006927D01*
X005165Y006926D02*
X002085Y006926D01*
X002084Y006925D02*
X005166Y006925D01*
X005167Y006924D02*
X002084Y006924D01*
X002084Y006923D02*
X005168Y006923D01*
X005170Y006922D02*
X002084Y006922D01*
X002083Y006921D02*
X005171Y006921D01*
X005172Y006920D02*
X002083Y006920D01*
X002083Y006919D02*
X005173Y006919D01*
X005175Y006918D02*
X002083Y006918D01*
X002083Y006917D02*
X005176Y006917D01*
X005177Y006917D02*
X002082Y006917D01*
X002082Y006916D02*
X005178Y006916D01*
X005180Y006915D02*
X002082Y006915D01*
X002082Y006914D02*
X005181Y006914D01*
X005182Y006913D02*
X002081Y006913D01*
X002081Y006912D02*
X005184Y006912D01*
X005185Y006911D02*
X002081Y006911D01*
X002081Y006910D02*
X005186Y006910D01*
X005187Y006909D02*
X002080Y006909D01*
X002080Y006908D02*
X005189Y006908D01*
X005190Y006907D02*
X002080Y006907D01*
X002080Y006906D02*
X005191Y006906D01*
X005192Y006905D02*
X002080Y006905D01*
X002079Y006904D02*
X005194Y006904D01*
X005195Y006903D02*
X002079Y006903D01*
X002079Y006902D02*
X005196Y006902D01*
X005197Y006901D02*
X002079Y006901D01*
X002078Y006900D02*
X005199Y006900D01*
X005200Y006900D02*
X002078Y006900D01*
X002078Y006899D02*
X005201Y006899D01*
X005202Y006898D02*
X002078Y006898D01*
X002077Y006897D02*
X005204Y006897D01*
X005205Y006896D02*
X002077Y006896D01*
X002077Y006895D02*
X005206Y006895D01*
X005207Y006894D02*
X002077Y006894D01*
X002077Y006893D02*
X005209Y006893D01*
X005210Y006892D02*
X002076Y006892D01*
X002076Y006891D02*
X005211Y006891D01*
X005212Y006890D02*
X002076Y006890D01*
X002076Y006889D02*
X005214Y006889D01*
X005215Y006888D02*
X002075Y006888D01*
X002075Y006887D02*
X005216Y006887D01*
X005218Y006886D02*
X002075Y006886D01*
X002075Y006885D02*
X005219Y006885D01*
X005220Y006884D02*
X002074Y006884D01*
X002074Y006883D02*
X005221Y006883D01*
X005223Y006883D02*
X002074Y006883D01*
X002074Y006882D02*
X005224Y006882D01*
X005225Y006881D02*
X002074Y006881D01*
X002073Y006880D02*
X005226Y006880D01*
X005228Y006879D02*
X002073Y006879D01*
X002073Y006878D02*
X005229Y006878D01*
X005230Y006877D02*
X002073Y006877D01*
X002072Y006876D02*
X005231Y006876D01*
X005233Y006875D02*
X002072Y006875D01*
X002072Y006874D02*
X005234Y006874D01*
X005235Y006873D02*
X002072Y006873D01*
X002071Y006872D02*
X005236Y006872D01*
X005238Y006871D02*
X002071Y006871D01*
X002071Y006870D02*
X005239Y006870D01*
X005240Y006869D02*
X002071Y006869D01*
X002071Y006868D02*
X005241Y006868D01*
X005243Y006867D02*
X002070Y006867D01*
X002070Y006866D02*
X005244Y006866D01*
X005245Y006866D02*
X002070Y006866D01*
X002070Y006865D02*
X005246Y006865D01*
X005248Y006864D02*
X002069Y006864D01*
X002069Y006863D02*
X005249Y006863D01*
X005250Y006862D02*
X002069Y006862D01*
X002069Y006861D02*
X005252Y006861D01*
X005253Y006860D02*
X002069Y006860D01*
X002068Y006859D02*
X005254Y006859D01*
X005255Y006858D02*
X002064Y006858D01*
X002053Y006857D02*
X005257Y006857D01*
X005258Y006856D02*
X002042Y006856D01*
X002031Y006855D02*
X005259Y006855D01*
X005260Y006854D02*
X002020Y006854D01*
X002010Y006853D02*
X005262Y006853D01*
X005263Y006852D02*
X001999Y006852D01*
X001988Y006851D02*
X005264Y006851D01*
X005265Y006850D02*
X001977Y006850D01*
X001966Y006849D02*
X005267Y006849D01*
X005268Y006849D02*
X001956Y006849D01*
X001945Y006848D02*
X005269Y006848D01*
X005269Y006847D02*
X001934Y006847D01*
X001923Y006846D02*
X005269Y006846D01*
X005270Y006845D02*
X001912Y006845D01*
X001902Y006844D02*
X005270Y006844D01*
X005271Y006843D02*
X001891Y006843D01*
X001880Y006842D02*
X005271Y006842D01*
X005272Y006841D02*
X001869Y006841D01*
X001858Y006840D02*
X005272Y006840D01*
X005273Y006839D02*
X001848Y006839D01*
X001837Y006838D02*
X005273Y006838D01*
X005274Y006837D02*
X001826Y006837D01*
X001815Y006836D02*
X005274Y006836D01*
X005275Y006835D02*
X001804Y006835D01*
X001794Y006834D02*
X005275Y006834D01*
X005276Y006833D02*
X001783Y006833D01*
X001772Y006832D02*
X005276Y006832D01*
X005277Y006831D02*
X001761Y006831D01*
X001750Y006831D02*
X005277Y006831D01*
X005277Y006830D02*
X001740Y006830D01*
X001729Y006829D02*
X005278Y006829D01*
X005278Y006828D02*
X001718Y006828D01*
X001707Y006827D02*
X005279Y006827D01*
X005279Y006826D02*
X001696Y006826D01*
X001686Y006825D02*
X005280Y006825D01*
X005280Y006824D02*
X001675Y006824D01*
X001664Y006823D02*
X005281Y006823D01*
X005281Y006822D02*
X001653Y006822D01*
X001642Y006821D02*
X005282Y006821D01*
X005282Y006820D02*
X001632Y006820D01*
X001621Y006819D02*
X005283Y006819D01*
X005283Y006818D02*
X001610Y006818D01*
X001599Y006817D02*
X005284Y006817D01*
X005284Y006816D02*
X001589Y006816D01*
X001578Y006815D02*
X005285Y006815D01*
X005285Y006814D02*
X001567Y006814D01*
X001556Y006814D02*
X005286Y006814D01*
X005286Y006813D02*
X001545Y006813D01*
X001534Y006812D02*
X005286Y006812D01*
X005287Y006811D02*
X001524Y006811D01*
X001513Y006810D02*
X005287Y006810D01*
X005288Y006809D02*
X001502Y006809D01*
X001491Y006808D02*
X005288Y006808D01*
X005289Y006807D02*
X001481Y006807D01*
X001470Y006806D02*
X005289Y006806D01*
X005290Y006805D02*
X001459Y006805D01*
X001448Y006804D02*
X005290Y006804D01*
X005291Y006803D02*
X001437Y006803D01*
X001426Y006802D02*
X005291Y006802D01*
X005292Y006801D02*
X001416Y006801D01*
X001405Y006800D02*
X005292Y006800D01*
X005293Y006799D02*
X001394Y006799D01*
X001383Y006798D02*
X005293Y006798D01*
X005294Y006797D02*
X001373Y006797D01*
X001362Y006797D02*
X005294Y006797D01*
X005294Y006796D02*
X001351Y006796D01*
X001340Y006795D02*
X005295Y006795D01*
X005295Y006794D02*
X001329Y006794D01*
X001319Y006793D02*
X005296Y006793D01*
X005296Y006792D02*
X001308Y006792D01*
X001297Y006791D02*
X005297Y006791D01*
X005297Y006790D02*
X001286Y006790D01*
X001275Y006789D02*
X005298Y006789D01*
X005298Y006788D02*
X001268Y006788D01*
X001266Y006787D02*
X005299Y006787D01*
X005299Y006786D02*
X001265Y006786D01*
X001264Y006785D02*
X005300Y006785D01*
X005300Y006784D02*
X001263Y006784D01*
X001262Y006783D02*
X005301Y006783D01*
X005301Y006782D02*
X001260Y006782D01*
X001259Y006781D02*
X005302Y006781D01*
X005302Y006780D02*
X001258Y006780D01*
X001257Y006780D02*
X005303Y006780D01*
X005303Y006779D02*
X001256Y006779D01*
X001254Y006778D02*
X005303Y006778D01*
X005304Y006777D02*
X001253Y006777D01*
X001252Y006776D02*
X005304Y006776D01*
X005305Y006775D02*
X001251Y006775D01*
X001249Y006774D02*
X005305Y006774D01*
X005306Y006773D02*
X001248Y006773D01*
X001247Y006772D02*
X005306Y006772D01*
X005307Y006771D02*
X001246Y006771D01*
X001245Y006770D02*
X005307Y006770D01*
X005308Y006769D02*
X001243Y006769D01*
X001242Y006768D02*
X005308Y006768D01*
X005309Y006767D02*
X001241Y006767D01*
X001240Y006766D02*
X005309Y006766D01*
X005310Y006765D02*
X001238Y006765D01*
X001237Y006764D02*
X005310Y006764D01*
X005311Y006763D02*
X001236Y006763D01*
X001235Y006763D02*
X005311Y006763D01*
X005311Y006762D02*
X001234Y006762D01*
X001232Y006761D02*
X005312Y006761D01*
X005312Y006760D02*
X001231Y006760D01*
X001230Y006759D02*
X005313Y006759D01*
X005313Y006758D02*
X001229Y006758D01*
X001227Y006757D02*
X005314Y006757D01*
X005314Y006756D02*
X001226Y006756D01*
X001225Y006755D02*
X005315Y006755D01*
X005315Y006754D02*
X001224Y006754D01*
X001223Y006753D02*
X005316Y006753D01*
X005316Y006752D02*
X001221Y006752D01*
X001220Y006751D02*
X005317Y006751D01*
X005317Y006750D02*
X001219Y006750D01*
X001218Y006749D02*
X005318Y006749D01*
X005318Y006748D02*
X001216Y006748D01*
X001215Y006747D02*
X005319Y006747D01*
X005319Y006746D02*
X001214Y006746D01*
X001213Y006746D02*
X005320Y006746D01*
X005320Y006745D02*
X001212Y006745D01*
X001210Y006744D02*
X005320Y006744D01*
X005321Y006743D02*
X001209Y006743D01*
X001208Y006742D02*
X005321Y006742D01*
X005322Y006741D02*
X001207Y006741D01*
X001205Y006740D02*
X005322Y006740D01*
X005323Y006739D02*
X001204Y006739D01*
X001203Y006738D02*
X005323Y006738D01*
X005324Y006737D02*
X001202Y006737D01*
X001201Y006736D02*
X005324Y006736D01*
X005325Y006735D02*
X001199Y006735D01*
X001198Y006734D02*
X005325Y006734D01*
X005326Y006733D02*
X001197Y006733D01*
X001196Y006732D02*
X005326Y006732D01*
X005327Y006731D02*
X001194Y006731D01*
X001193Y006730D02*
X005327Y006730D01*
X005328Y006729D02*
X001192Y006729D01*
X001191Y006729D02*
X005328Y006729D01*
X005328Y006728D02*
X001190Y006728D01*
X001188Y006727D02*
X005328Y006727D01*
X005328Y006726D02*
X001187Y006726D01*
X001186Y006725D02*
X005328Y006725D01*
X005328Y006724D02*
X001185Y006724D01*
X001184Y006723D02*
X005328Y006723D01*
X005328Y006722D02*
X001182Y006722D01*
X001181Y006721D02*
X005328Y006721D01*
X005328Y006720D02*
X001180Y006720D01*
X001179Y006719D02*
X005328Y006719D01*
X005328Y006718D02*
X001177Y006718D01*
X001176Y006717D02*
X005328Y006717D01*
X005328Y006716D02*
X001175Y006716D01*
X001174Y006715D02*
X005328Y006715D01*
X005328Y006714D02*
X001173Y006714D01*
X001171Y006713D02*
X005328Y006713D01*
X005328Y006712D02*
X001170Y006712D01*
X001169Y006711D02*
X005328Y006711D01*
X001168Y006711D01*
X001166Y006710D02*
X005328Y006710D01*
X005328Y006709D02*
X001165Y006709D01*
X001164Y006708D02*
X005328Y006708D01*
X005328Y006707D02*
X001163Y006707D01*
X001162Y006706D02*
X005328Y006706D01*
X005328Y006705D02*
X001160Y006705D01*
X001159Y006704D02*
X005328Y006704D01*
X005328Y006703D02*
X001158Y006703D01*
X001157Y006702D02*
X005328Y006702D01*
X005328Y006701D02*
X001155Y006701D01*
X001154Y006700D02*
X005328Y006700D01*
X005328Y006699D02*
X001153Y006699D01*
X001152Y006698D02*
X005328Y006698D01*
X005328Y006697D02*
X001151Y006697D01*
X001149Y006696D02*
X005328Y006696D01*
X005328Y006695D02*
X001148Y006695D01*
X001147Y006694D02*
X005328Y006694D01*
X001146Y006694D01*
X001144Y006693D02*
X005328Y006693D01*
X005328Y006692D02*
X001143Y006692D01*
X001142Y006691D02*
X005328Y006691D01*
X005328Y006690D02*
X001141Y006690D01*
X001140Y006689D02*
X005328Y006689D01*
X005328Y006688D02*
X001138Y006688D01*
X001137Y006687D02*
X005328Y006687D01*
X005328Y006686D02*
X001136Y006686D01*
X001135Y006685D02*
X005328Y006685D01*
X005328Y006684D02*
X001133Y006684D01*
X001132Y006683D02*
X005328Y006683D01*
X005328Y006682D02*
X001131Y006682D01*
X001130Y006681D02*
X005328Y006681D01*
X005328Y006680D02*
X001129Y006680D01*
X001127Y006679D02*
X005328Y006679D01*
X005328Y006678D02*
X001126Y006678D01*
X001125Y006677D02*
X005328Y006677D01*
X001124Y006677D01*
X001122Y006676D02*
X005328Y006676D01*
X005328Y006675D02*
X001121Y006675D01*
X001120Y006674D02*
X005328Y006674D01*
X005328Y006673D02*
X001119Y006673D01*
X001118Y006672D02*
X005328Y006672D01*
X005328Y006671D02*
X001116Y006671D01*
X001115Y006670D02*
X005328Y006670D01*
X005328Y006669D02*
X001114Y006669D01*
X001113Y006668D02*
X005328Y006668D01*
X005328Y006667D02*
X001111Y006667D01*
X001110Y006666D02*
X005328Y006666D01*
X005328Y006665D02*
X001109Y006665D01*
X001108Y006664D02*
X005328Y006664D01*
X005328Y006663D02*
X001107Y006663D01*
X001105Y006662D02*
X005328Y006662D01*
X005328Y006661D02*
X001104Y006661D01*
X001103Y006660D02*
X005328Y006660D01*
X001102Y006660D01*
X001101Y006659D02*
X005328Y006659D01*
X005328Y006658D02*
X001099Y006658D01*
X001098Y006657D02*
X005328Y006657D01*
X005328Y006656D02*
X001097Y006656D01*
X001096Y006655D02*
X005328Y006655D01*
X005328Y006654D02*
X001094Y006654D01*
X001093Y006653D02*
X005328Y006653D01*
X005328Y006652D02*
X001092Y006652D01*
X001091Y006651D02*
X005328Y006651D01*
X005328Y006650D02*
X001090Y006650D01*
X001088Y006649D02*
X005328Y006649D01*
X005328Y006648D02*
X001087Y006648D01*
X001086Y006647D02*
X005328Y006647D01*
X005328Y006646D02*
X001085Y006646D01*
X001083Y006645D02*
X005328Y006645D01*
X005328Y006644D02*
X001082Y006644D01*
X001081Y006643D02*
X005328Y006643D01*
X001080Y006643D01*
X001079Y006642D02*
X005328Y006642D01*
X005328Y006641D02*
X001077Y006641D01*
X001076Y006640D02*
X005328Y006640D01*
X005328Y006639D02*
X001075Y006639D01*
X001074Y006638D02*
X005328Y006638D01*
X005328Y006637D02*
X001072Y006637D01*
X001071Y006636D02*
X005328Y006636D01*
X005328Y006635D02*
X001070Y006635D01*
X001069Y006634D02*
X005328Y006634D01*
X005328Y006633D02*
X001068Y006633D01*
X001066Y006632D02*
X005328Y006632D01*
X005328Y006631D02*
X001065Y006631D01*
X001064Y006630D02*
X005328Y006630D01*
X005328Y006629D02*
X001063Y006629D01*
X001061Y006628D02*
X005328Y006628D01*
X005328Y006627D02*
X001060Y006627D01*
X001059Y006626D02*
X005328Y006626D01*
X001058Y006626D01*
X001057Y006625D02*
X005328Y006625D01*
X005328Y006624D02*
X001055Y006624D01*
X001054Y006623D02*
X005328Y006623D01*
X005328Y006622D02*
X001053Y006622D01*
X001052Y006621D02*
X005328Y006621D01*
X005328Y006620D02*
X001050Y006620D01*
X001049Y006619D02*
X005328Y006619D01*
X005328Y006618D02*
X001048Y006618D01*
X001047Y006617D02*
X005328Y006617D01*
X005328Y006616D02*
X001046Y006616D01*
X001044Y006615D02*
X005328Y006615D01*
X005328Y006614D02*
X001043Y006614D01*
X001042Y006613D02*
X005328Y006613D01*
X005328Y006612D02*
X001041Y006612D01*
X001039Y006611D02*
X005328Y006611D01*
X005328Y006610D02*
X001038Y006610D01*
X001037Y006609D02*
X005328Y006609D01*
X001036Y006609D01*
X001035Y006608D02*
X005328Y006608D01*
X005328Y006607D02*
X001033Y006607D01*
X001032Y006606D02*
X005328Y006606D01*
X005328Y006605D02*
X001031Y006605D01*
X001030Y006604D02*
X005328Y006604D01*
X005328Y006603D02*
X001029Y006603D01*
X001027Y006602D02*
X005328Y006602D01*
X005328Y006601D02*
X001026Y006601D01*
X001025Y006600D02*
X005328Y006600D01*
X005328Y006599D02*
X001024Y006599D01*
X001022Y006598D02*
X005328Y006598D01*
X005328Y006597D02*
X001021Y006597D01*
X001020Y006596D02*
X005328Y006596D01*
X005328Y006595D02*
X001019Y006595D01*
X001018Y006594D02*
X005328Y006594D01*
X005328Y006593D02*
X001016Y006593D01*
X001015Y006592D02*
X005328Y006592D01*
X005328Y006591D02*
X001014Y006591D01*
X001013Y006591D02*
X005328Y006591D01*
X005328Y006590D02*
X001011Y006590D01*
X001010Y006589D02*
X005328Y006589D01*
X005328Y006588D02*
X001009Y006588D01*
X001008Y006587D02*
X005328Y006587D01*
X005328Y006586D02*
X001007Y006586D01*
X001005Y006585D02*
X005328Y006585D01*
X005328Y006584D02*
X001004Y006584D01*
X001003Y006583D02*
X005328Y006583D01*
X005328Y006582D02*
X001002Y006582D01*
X001000Y006581D02*
X005328Y006581D01*
X005328Y006580D02*
X000999Y006580D01*
X000998Y006579D02*
X005328Y006579D01*
X005328Y006578D02*
X000997Y006578D01*
X000996Y006577D02*
X005328Y006577D01*
X005328Y006576D02*
X000994Y006576D01*
X000993Y006575D02*
X005328Y006575D01*
X005328Y006574D02*
X000992Y006574D01*
X000991Y006574D02*
X005328Y006574D01*
X005328Y006573D02*
X000989Y006573D01*
X000988Y006572D02*
X005328Y006572D01*
X005328Y006571D02*
X000987Y006571D01*
X000986Y006570D02*
X005328Y006570D01*
X005328Y006569D02*
X000985Y006569D01*
X000983Y006568D02*
X005328Y006568D01*
X005328Y006567D02*
X000982Y006567D01*
X000981Y006566D02*
X005328Y006566D01*
X005328Y006565D02*
X000980Y006565D01*
X000978Y006564D02*
X005328Y006564D01*
X005328Y006563D02*
X000977Y006563D01*
X000976Y006562D02*
X005328Y006562D01*
X005328Y006561D02*
X000975Y006561D01*
X000974Y006560D02*
X005328Y006560D01*
X005328Y006559D02*
X000972Y006559D01*
X000971Y006558D02*
X005328Y006558D01*
X005328Y006557D02*
X000970Y006557D01*
X000969Y006557D02*
X005328Y006557D01*
X005328Y006556D02*
X000967Y006556D01*
X000966Y006555D02*
X005328Y006555D01*
X005328Y006554D02*
X000965Y006554D01*
X000964Y006553D02*
X005328Y006553D01*
X005328Y006552D02*
X000963Y006552D01*
X000961Y006551D02*
X005328Y006551D01*
X005328Y006550D02*
X000960Y006550D01*
X000959Y006549D02*
X005328Y006549D01*
X005328Y006548D02*
X000958Y006548D01*
X000958Y006547D02*
X005328Y006547D01*
X005328Y006546D02*
X000958Y006546D01*
X000958Y006545D02*
X005328Y006545D01*
X005328Y006544D02*
X000958Y006544D01*
X000958Y006543D02*
X005328Y006543D01*
X005328Y006542D02*
X000958Y006542D01*
X000958Y006541D02*
X005328Y006541D01*
X005328Y006540D02*
X000958Y006540D01*
X005328Y006540D01*
X005328Y006539D02*
X000958Y006539D01*
X000958Y006538D02*
X005328Y006538D01*
X005328Y006537D02*
X000958Y006537D01*
X000958Y006536D02*
X005328Y006536D01*
X005328Y006535D02*
X000958Y006535D01*
X000958Y006534D02*
X005328Y006534D01*
X005328Y006533D02*
X000957Y006533D01*
X000957Y006532D02*
X005328Y006532D01*
X005328Y006531D02*
X000957Y006531D01*
X000957Y006530D02*
X005328Y006530D01*
X005328Y006529D02*
X000957Y006529D01*
X000957Y006528D02*
X005328Y006528D01*
X005328Y006527D02*
X000957Y006527D01*
X000957Y006526D02*
X005328Y006526D01*
X005328Y006525D02*
X000957Y006525D01*
X000957Y006524D02*
X005328Y006524D01*
X005328Y006523D02*
X000957Y006523D01*
X005328Y006523D01*
X005328Y006522D02*
X000957Y006522D01*
X000957Y006521D02*
X005328Y006521D01*
X005328Y006520D02*
X000957Y006520D01*
X000957Y006519D02*
X005328Y006519D01*
X005328Y006518D02*
X000957Y006518D01*
X000957Y006517D02*
X005327Y006517D01*
X005326Y006516D02*
X000957Y006516D01*
X000957Y006515D02*
X005325Y006515D01*
X005324Y006514D02*
X000957Y006514D01*
X000957Y006513D02*
X005324Y006513D01*
X005323Y006512D02*
X000957Y006512D01*
X000957Y006511D02*
X005322Y006511D01*
X005321Y006510D02*
X000957Y006510D01*
X000956Y006509D02*
X005320Y006509D01*
X005320Y006508D02*
X000956Y006508D01*
X000956Y006507D02*
X005319Y006507D01*
X005318Y006506D02*
X000956Y006506D01*
X005317Y006506D01*
X005316Y006505D02*
X000956Y006505D01*
X000956Y006504D02*
X005316Y006504D01*
X005315Y006503D02*
X000956Y006503D01*
X000956Y006502D02*
X005314Y006502D01*
X005313Y006501D02*
X000956Y006501D01*
X000956Y006500D02*
X005312Y006500D01*
X005312Y006499D02*
X000956Y006499D01*
X000956Y006498D02*
X005311Y006498D01*
X005310Y006497D02*
X000956Y006497D01*
X000956Y006496D02*
X005309Y006496D01*
X005308Y006495D02*
X000956Y006495D01*
X000956Y006494D02*
X005308Y006494D01*
X005307Y006493D02*
X000956Y006493D01*
X000956Y006492D02*
X005306Y006492D01*
X005305Y006491D02*
X000956Y006491D01*
X000956Y006490D02*
X005304Y006490D01*
X005304Y006489D02*
X000956Y006489D01*
X005303Y006489D01*
X005302Y006488D02*
X000956Y006488D01*
X000956Y006487D02*
X005301Y006487D01*
X005300Y006486D02*
X000956Y006486D01*
X000955Y006485D02*
X005300Y006485D01*
X005299Y006484D02*
X000955Y006484D01*
X000955Y006483D02*
X005298Y006483D01*
X005297Y006482D02*
X000955Y006482D01*
X000955Y006481D02*
X005296Y006481D01*
X005296Y006480D02*
X000955Y006480D01*
X000955Y006479D02*
X005295Y006479D01*
X005294Y006478D02*
X000955Y006478D01*
X000955Y006477D02*
X005293Y006477D01*
X005292Y006476D02*
X000955Y006476D01*
X000955Y006475D02*
X005292Y006475D01*
X005291Y006474D02*
X000955Y006474D01*
X000955Y006473D02*
X005290Y006473D01*
X005289Y006472D02*
X000955Y006472D01*
X000955Y006471D02*
X005288Y006471D01*
X000955Y006471D01*
X000955Y006470D02*
X005287Y006470D01*
X005286Y006469D02*
X000955Y006469D01*
X000955Y006468D02*
X005285Y006468D01*
X005284Y006467D02*
X000955Y006467D01*
X000955Y006466D02*
X005284Y006466D01*
X005283Y006465D02*
X000955Y006465D01*
X000955Y006464D02*
X005282Y006464D01*
X005281Y006463D02*
X000955Y006463D01*
X000955Y006462D02*
X005280Y006462D01*
X005280Y006461D02*
X000954Y006461D01*
X000954Y006460D02*
X005279Y006460D01*
X005278Y006459D02*
X000954Y006459D01*
X000954Y006458D02*
X005277Y006458D01*
X005276Y006457D02*
X000954Y006457D01*
X000954Y006456D02*
X005276Y006456D01*
X005275Y006455D02*
X000954Y006455D01*
X000954Y006454D02*
X005274Y006454D01*
X005273Y006454D02*
X000954Y006454D01*
X000954Y006453D02*
X005272Y006453D01*
X005272Y006452D02*
X000954Y006452D01*
X000954Y006451D02*
X005271Y006451D01*
X005270Y006450D02*
X000954Y006450D01*
X000954Y006449D02*
X005269Y006449D01*
X005268Y006448D02*
X000954Y006448D01*
X000954Y006447D02*
X005268Y006447D01*
X005267Y006446D02*
X000954Y006446D01*
X000954Y006445D02*
X005266Y006445D01*
X005265Y006444D02*
X000954Y006444D01*
X000954Y006443D02*
X005264Y006443D01*
X005264Y006442D02*
X000954Y006442D01*
X000954Y006441D02*
X005263Y006441D01*
X005262Y006440D02*
X000954Y006440D01*
X000954Y006439D02*
X005261Y006439D01*
X005260Y006438D02*
X000954Y006438D01*
X000954Y006437D02*
X005260Y006437D01*
X005259Y006437D02*
X000953Y006437D01*
X000953Y006436D02*
X005258Y006436D01*
X005257Y006435D02*
X000953Y006435D01*
X000953Y006434D02*
X005256Y006434D01*
X005256Y006433D02*
X000953Y006433D01*
X000953Y006432D02*
X005255Y006432D01*
X005254Y006431D02*
X000953Y006431D01*
X000953Y006430D02*
X005253Y006430D01*
X005252Y006429D02*
X000953Y006429D01*
X000953Y006428D02*
X005252Y006428D01*
X005251Y006427D02*
X000953Y006427D01*
X000953Y006426D02*
X005250Y006426D01*
X005249Y006425D02*
X000953Y006425D01*
X000953Y006424D02*
X005248Y006424D01*
X005248Y006423D02*
X000953Y006423D01*
X000953Y006422D02*
X005247Y006422D01*
X005246Y006421D02*
X000953Y006421D01*
X000953Y006420D02*
X005245Y006420D01*
X005244Y006420D02*
X000953Y006420D01*
X000953Y006419D02*
X005244Y006419D01*
X005243Y006418D02*
X000953Y006418D01*
X000953Y006417D02*
X005242Y006417D01*
X005241Y006416D02*
X000953Y006416D01*
X000953Y006415D02*
X005240Y006415D01*
X005240Y006414D02*
X000953Y006414D01*
X000952Y006413D02*
X005239Y006413D01*
X005238Y006412D02*
X000952Y006412D01*
X000952Y006411D02*
X005237Y006411D01*
X005236Y006410D02*
X000952Y006410D01*
X000952Y006409D02*
X005236Y006409D01*
X005235Y006408D02*
X000952Y006408D01*
X000952Y006407D02*
X005234Y006407D01*
X005233Y006406D02*
X000952Y006406D01*
X000952Y006405D02*
X005232Y006405D01*
X005232Y006404D02*
X000952Y006404D01*
X000952Y006403D02*
X005231Y006403D01*
X005230Y006403D02*
X000952Y006403D01*
X000952Y006402D02*
X005229Y006402D01*
X005229Y006401D02*
X000952Y006401D01*
X000952Y006400D02*
X005228Y006400D01*
X005227Y006399D02*
X000952Y006399D01*
X000952Y006398D02*
X005226Y006398D01*
X005225Y006397D02*
X000952Y006397D01*
X000952Y006396D02*
X005224Y006396D01*
X005224Y006395D02*
X000952Y006395D01*
X000952Y006394D02*
X005223Y006394D01*
X005222Y006393D02*
X000952Y006393D01*
X000952Y006392D02*
X005221Y006392D01*
X005220Y006391D02*
X000952Y006391D01*
X000952Y006390D02*
X005220Y006390D01*
X005219Y006389D02*
X000951Y006389D01*
X000951Y006388D02*
X005218Y006388D01*
X005216Y006387D02*
X000951Y006387D01*
X000951Y006386D02*
X005214Y006386D01*
X005213Y006386D02*
X000951Y006386D01*
X000951Y006385D02*
X005211Y006385D01*
X005209Y006384D02*
X000951Y006384D01*
X000951Y006383D02*
X005207Y006383D01*
X005205Y006382D02*
X000951Y006382D01*
X000951Y006381D02*
X005204Y006381D01*
X005202Y006380D02*
X000951Y006380D01*
X000951Y006379D02*
X005200Y006379D01*
X005198Y006378D02*
X000951Y006378D01*
X000951Y006377D02*
X005196Y006377D01*
X005195Y006376D02*
X000951Y006376D01*
X000951Y006375D02*
X005193Y006375D01*
X005191Y006374D02*
X000951Y006374D01*
X000951Y006373D02*
X005189Y006373D01*
X005187Y006372D02*
X000951Y006372D01*
X000951Y006371D02*
X005186Y006371D01*
X005184Y006370D02*
X000951Y006370D01*
X000951Y006369D02*
X005182Y006369D01*
X005180Y006369D02*
X000951Y006369D01*
X000951Y006368D02*
X005178Y006368D01*
X005177Y006367D02*
X000951Y006367D01*
X000951Y006366D02*
X005175Y006366D01*
X005173Y006365D02*
X000950Y006365D01*
X000950Y006364D02*
X005171Y006364D01*
X005169Y006363D02*
X000950Y006363D01*
X000950Y006362D02*
X005168Y006362D01*
X005166Y006361D02*
X000950Y006361D01*
X000950Y006360D02*
X005164Y006360D01*
X005162Y006359D02*
X000950Y006359D01*
X000950Y006358D02*
X005160Y006358D01*
X005159Y006357D02*
X000950Y006357D01*
X000950Y006356D02*
X005157Y006356D01*
X005155Y006355D02*
X000950Y006355D01*
X000950Y006354D02*
X005153Y006354D01*
X005151Y006353D02*
X000950Y006353D01*
X000950Y006352D02*
X005150Y006352D01*
X005148Y006351D02*
X000950Y006351D01*
X005146Y006351D01*
X005144Y006350D02*
X000950Y006350D01*
X000950Y006349D02*
X005142Y006349D01*
X005141Y006348D02*
X000950Y006348D01*
X000950Y006347D02*
X005139Y006347D01*
X005137Y006346D02*
X000950Y006346D01*
X000950Y006345D02*
X005135Y006345D01*
X005133Y006344D02*
X000950Y006344D01*
X000950Y006343D02*
X005131Y006343D01*
X005130Y006342D02*
X000950Y006342D01*
X000949Y006341D02*
X005128Y006341D01*
X005126Y006340D02*
X000949Y006340D01*
X000949Y006339D02*
X005124Y006339D01*
X005122Y006338D02*
X000949Y006338D01*
X000949Y006337D02*
X005121Y006337D01*
X005119Y006336D02*
X000949Y006336D01*
X000949Y006335D02*
X005117Y006335D01*
X005115Y006334D02*
X000949Y006334D01*
X005113Y006334D01*
X005112Y006333D02*
X000949Y006333D01*
X000949Y006332D02*
X005110Y006332D01*
X005108Y006331D02*
X000949Y006331D01*
X000949Y006330D02*
X005106Y006330D01*
X005104Y006329D02*
X000949Y006329D01*
X000949Y006328D02*
X005103Y006328D01*
X005101Y006327D02*
X000949Y006327D01*
X000949Y006326D02*
X005099Y006326D01*
X005097Y006325D02*
X000949Y006325D01*
X000949Y006324D02*
X005095Y006324D01*
X005094Y006323D02*
X000949Y006323D01*
X000949Y006322D02*
X005092Y006322D01*
X005090Y006321D02*
X000949Y006321D01*
X000949Y006320D02*
X005088Y006320D01*
X005086Y006319D02*
X000949Y006319D01*
X000949Y006318D02*
X005085Y006318D01*
X005083Y006317D02*
X000949Y006317D01*
X000948Y006317D02*
X005081Y006317D01*
X005079Y006316D02*
X000948Y006316D01*
X000948Y006315D02*
X005077Y006315D01*
X005076Y006314D02*
X000948Y006314D01*
X000948Y006313D02*
X005074Y006313D01*
X005072Y006312D02*
X000948Y006312D01*
X000948Y006311D02*
X005070Y006311D01*
X005068Y006310D02*
X000948Y006310D01*
X000948Y006309D02*
X005067Y006309D01*
X005065Y006308D02*
X000948Y006308D01*
X000949Y006307D02*
X005063Y006307D01*
X005061Y006306D02*
X000949Y006306D01*
X000950Y006305D02*
X005059Y006305D01*
X005058Y006304D02*
X000950Y006304D01*
X000951Y006303D02*
X005056Y006303D01*
X005054Y006302D02*
X000951Y006302D01*
X000952Y006301D02*
X005052Y006301D01*
X005050Y006300D02*
X000953Y006300D01*
X005049Y006300D01*
X005047Y006299D02*
X000954Y006299D01*
X000954Y006298D02*
X005045Y006298D01*
X005043Y006297D02*
X000955Y006297D01*
X000955Y006296D02*
X005041Y006296D01*
X005040Y006295D02*
X000956Y006295D01*
X000956Y006294D02*
X005038Y006294D01*
X005036Y006293D02*
X000957Y006293D01*
X000957Y006292D02*
X005034Y006292D01*
X005032Y006291D02*
X000958Y006291D01*
X000959Y006290D02*
X005030Y006290D01*
X005029Y006289D02*
X000959Y006289D01*
X000960Y006288D02*
X005027Y006288D01*
X005025Y006287D02*
X000960Y006287D01*
X000961Y006286D02*
X005023Y006286D01*
X005021Y006285D02*
X000961Y006285D01*
X000962Y006284D02*
X005020Y006284D01*
X005018Y006283D02*
X000962Y006283D01*
X000963Y006283D02*
X005016Y006283D01*
X005014Y006282D02*
X000963Y006282D01*
X000964Y006281D02*
X005012Y006281D01*
X005011Y006280D02*
X000964Y006280D01*
X000965Y006279D02*
X005009Y006279D01*
X005006Y006278D02*
X000966Y006278D01*
X000966Y006277D02*
X005001Y006277D01*
X004997Y006276D02*
X000967Y006276D01*
X000967Y006275D02*
X004993Y006275D01*
X004988Y006274D02*
X000968Y006274D01*
X000968Y006273D02*
X004984Y006273D01*
X004980Y006272D02*
X000969Y006272D01*
X000969Y006271D02*
X004975Y006271D01*
X004971Y006270D02*
X000970Y006270D01*
X000970Y006269D02*
X004967Y006269D01*
X004963Y006268D02*
X000971Y006268D01*
X000971Y006267D02*
X004958Y006267D01*
X004954Y006266D02*
X000972Y006266D01*
X000973Y006266D02*
X004950Y006266D01*
X004945Y006265D02*
X000973Y006265D01*
X000974Y006264D02*
X004941Y006264D01*
X004937Y006263D02*
X000974Y006263D01*
X000975Y006262D02*
X004932Y006262D01*
X004928Y006261D02*
X000975Y006261D01*
X000976Y006260D02*
X004924Y006260D01*
X004920Y006259D02*
X000976Y006259D01*
X000977Y006258D02*
X004915Y006258D01*
X004911Y006257D02*
X000977Y006257D01*
X000978Y006256D02*
X004907Y006256D01*
X004902Y006255D02*
X000979Y006255D01*
X000979Y006254D02*
X004898Y006254D01*
X004894Y006253D02*
X000980Y006253D01*
X000980Y006252D02*
X004889Y006252D01*
X004885Y006251D02*
X000981Y006251D01*
X000981Y006250D02*
X004881Y006250D01*
X004877Y006249D02*
X000982Y006249D01*
X004872Y006249D01*
X004868Y006248D02*
X000983Y006248D01*
X000983Y006247D02*
X004864Y006247D01*
X004859Y006246D02*
X000984Y006246D01*
X000984Y006245D02*
X004855Y006245D01*
X004851Y006244D02*
X000985Y006244D01*
X000986Y006243D02*
X004846Y006243D01*
X004842Y006242D02*
X000986Y006242D01*
X000987Y006241D02*
X004838Y006241D01*
X004834Y006240D02*
X000987Y006240D01*
X000988Y006239D02*
X004829Y006239D01*
X004825Y006238D02*
X000988Y006238D01*
X000989Y006237D02*
X004821Y006237D01*
X004816Y006236D02*
X000989Y006236D01*
X000990Y006235D02*
X004812Y006235D01*
X004808Y006234D02*
X000990Y006234D01*
X000991Y006233D02*
X004804Y006233D01*
X004799Y006232D02*
X000991Y006232D01*
X000992Y006231D02*
X004795Y006231D01*
X004791Y006231D02*
X000993Y006231D01*
X000993Y006230D02*
X004786Y006230D01*
X004782Y006229D02*
X000994Y006229D01*
X000994Y006228D02*
X004778Y006228D01*
X004773Y006227D02*
X000995Y006227D01*
X000995Y006226D02*
X004769Y006226D01*
X004765Y006225D02*
X000996Y006225D01*
X000996Y006224D02*
X004761Y006224D01*
X004756Y006223D02*
X000997Y006223D01*
X000997Y006222D02*
X004752Y006222D01*
X004748Y006221D02*
X000998Y006221D01*
X000999Y006220D02*
X004743Y006220D01*
X004739Y006219D02*
X000999Y006219D01*
X001000Y006218D02*
X004735Y006218D01*
X004730Y006217D02*
X001000Y006217D01*
X001001Y006216D02*
X004726Y006216D01*
X004722Y006215D02*
X001001Y006215D01*
X001002Y006214D02*
X004718Y006214D01*
X004713Y006214D02*
X001002Y006214D01*
X001003Y006213D02*
X004709Y006213D01*
X004705Y006212D02*
X001003Y006212D01*
X001004Y006211D02*
X004700Y006211D01*
X004696Y006210D02*
X001004Y006210D01*
X001005Y006209D02*
X004692Y006209D01*
X004687Y006208D02*
X001006Y006208D01*
X001006Y006207D02*
X004683Y006207D01*
X004679Y006206D02*
X001007Y006206D01*
X001007Y006205D02*
X004675Y006205D01*
X004670Y006204D02*
X001008Y006204D01*
X001008Y006203D02*
X004666Y006203D01*
X004662Y006202D02*
X001009Y006202D01*
X001009Y006201D02*
X004657Y006201D01*
X004653Y006200D02*
X001010Y006200D01*
X001010Y006199D02*
X004649Y006199D01*
X004644Y006198D02*
X001011Y006198D01*
X001011Y006197D02*
X004640Y006197D01*
X004636Y006197D02*
X001012Y006197D01*
X001013Y006196D02*
X004632Y006196D01*
X004627Y006195D02*
X001013Y006195D01*
X001014Y006194D02*
X004623Y006194D01*
X004619Y006193D02*
X001014Y006193D01*
X001015Y006192D02*
X004614Y006192D01*
X004610Y006191D02*
X001015Y006191D01*
X001016Y006190D02*
X004606Y006190D01*
X004601Y006189D02*
X001016Y006189D01*
X001017Y006188D02*
X004597Y006188D01*
X004593Y006187D02*
X001017Y006187D01*
X001018Y006186D02*
X004589Y006186D01*
X004584Y006185D02*
X001018Y006185D01*
X001019Y006184D02*
X004580Y006184D01*
X004576Y006183D02*
X001020Y006183D01*
X001020Y006182D02*
X004571Y006182D01*
X004567Y006181D02*
X001021Y006181D01*
X001021Y006180D02*
X004563Y006180D01*
X004558Y006180D02*
X001022Y006180D01*
X001022Y006179D02*
X004554Y006179D01*
X004550Y006178D02*
X001023Y006178D01*
X001023Y006177D02*
X004546Y006177D01*
X004541Y006176D02*
X001024Y006176D01*
X001024Y006175D02*
X004537Y006175D01*
X004533Y006174D02*
X001025Y006174D01*
X001025Y006173D02*
X004528Y006173D01*
X004524Y006172D02*
X001026Y006172D01*
X001027Y006171D02*
X004520Y006171D01*
X004515Y006170D02*
X001027Y006170D01*
X001028Y006169D02*
X004511Y006169D01*
X004507Y006168D02*
X001028Y006168D01*
X001029Y006167D02*
X004503Y006167D01*
X004498Y006166D02*
X001029Y006166D01*
X001030Y006165D02*
X004494Y006165D01*
X004490Y006164D02*
X001030Y006164D01*
X001031Y006163D02*
X004485Y006163D01*
X004481Y006163D02*
X001031Y006163D01*
X001032Y006162D02*
X004477Y006162D01*
X004472Y006161D02*
X001033Y006161D01*
X001033Y006160D02*
X004468Y006160D01*
X004464Y006159D02*
X001034Y006159D01*
X001034Y006158D02*
X004460Y006158D01*
X004455Y006157D02*
X001035Y006157D01*
X001035Y006156D02*
X004451Y006156D01*
X004447Y006155D02*
X001036Y006155D01*
X001036Y006154D02*
X004442Y006154D01*
X004438Y006153D02*
X001037Y006153D01*
X001037Y006152D02*
X004434Y006152D01*
X004429Y006151D02*
X001038Y006151D01*
X001038Y006150D02*
X004425Y006150D01*
X004421Y006149D02*
X001039Y006149D01*
X001040Y006148D02*
X004417Y006148D01*
X004412Y006147D02*
X001040Y006147D01*
X001041Y006146D02*
X004408Y006146D01*
X004404Y006146D02*
X001041Y006146D01*
X001042Y006145D02*
X004399Y006145D01*
X004395Y006144D02*
X001042Y006144D01*
X001043Y006143D02*
X004391Y006143D01*
X004386Y006142D02*
X001043Y006142D01*
X001044Y006141D02*
X004382Y006141D01*
X004378Y006140D02*
X001044Y006140D01*
X001045Y006139D02*
X004374Y006139D01*
X004369Y006138D02*
X001045Y006138D01*
X001046Y006137D02*
X004365Y006137D01*
X004361Y006136D02*
X001047Y006136D01*
X001047Y006135D02*
X004356Y006135D01*
X004352Y006134D02*
X001048Y006134D01*
X001048Y006133D02*
X004348Y006133D01*
X004344Y006132D02*
X001049Y006132D01*
X001049Y006131D02*
X004339Y006131D01*
X004335Y006130D02*
X001050Y006130D01*
X001050Y006129D02*
X004331Y006129D01*
X004326Y006129D02*
X001051Y006129D01*
X001051Y006128D02*
X004322Y006128D01*
X004318Y006127D02*
X001052Y006127D01*
X001052Y006126D02*
X004313Y006126D01*
X004309Y006125D02*
X001053Y006125D01*
X001054Y006124D02*
X004305Y006124D01*
X004301Y006123D02*
X001054Y006123D01*
X001055Y006122D02*
X004296Y006122D01*
X004292Y006121D02*
X001055Y006121D01*
X001056Y006120D02*
X004288Y006120D01*
X004283Y006119D02*
X001056Y006119D01*
X001057Y006118D02*
X004279Y006118D01*
X004275Y006117D02*
X001057Y006117D01*
X001058Y006116D02*
X004270Y006116D01*
X004266Y006115D02*
X001058Y006115D01*
X001059Y006114D02*
X004262Y006114D01*
X004258Y006113D02*
X001059Y006113D01*
X001060Y006112D02*
X004253Y006112D01*
X004249Y006111D02*
X001061Y006111D01*
X004245Y006111D01*
X004240Y006110D02*
X001062Y006110D01*
X001062Y006109D02*
X004236Y006109D01*
X004232Y006108D02*
X001063Y006108D01*
X001063Y006107D02*
X004227Y006107D01*
X004223Y006106D02*
X001064Y006106D01*
X001064Y006105D02*
X004219Y006105D01*
X004215Y006104D02*
X001065Y006104D01*
X001065Y006103D02*
X004210Y006103D01*
X004206Y006102D02*
X001066Y006102D01*
X001067Y006101D02*
X004202Y006101D01*
X004197Y006100D02*
X001067Y006100D01*
X001068Y006099D02*
X004193Y006099D01*
X004189Y006098D02*
X001068Y006098D01*
X001070Y006097D02*
X004184Y006097D01*
X004180Y006096D02*
X001072Y006096D01*
X001075Y006095D02*
X004176Y006095D01*
X004172Y006094D02*
X001077Y006094D01*
X001079Y006094D02*
X004167Y006094D01*
X004163Y006093D02*
X001081Y006093D01*
X001083Y006092D02*
X004159Y006092D01*
X004154Y006091D02*
X001085Y006091D01*
X001087Y006090D02*
X004150Y006090D01*
X004146Y006089D02*
X001089Y006089D01*
X001091Y006088D02*
X004141Y006088D01*
X004137Y006087D02*
X001094Y006087D01*
X001096Y006086D02*
X004133Y006086D01*
X004129Y006085D02*
X001098Y006085D01*
X001100Y006084D02*
X004124Y006084D01*
X004120Y006083D02*
X001102Y006083D01*
X001104Y006082D02*
X004116Y006082D01*
X004111Y006081D02*
X001106Y006081D01*
X001108Y006080D02*
X004107Y006080D01*
X004103Y006079D02*
X001111Y006079D01*
X001113Y006078D02*
X004098Y006078D01*
X004098Y006077D02*
X001115Y006077D01*
X001117Y006077D02*
X004099Y006077D01*
X004099Y006076D02*
X001119Y006076D01*
X001121Y006075D02*
X004099Y006075D01*
X004099Y006074D02*
X001123Y006074D01*
X001125Y006073D02*
X004100Y006073D01*
X004100Y006072D02*
X001127Y006072D01*
X001130Y006071D02*
X004100Y006071D01*
X004101Y006070D02*
X001132Y006070D01*
X001134Y006069D02*
X004101Y006069D01*
X004101Y006068D02*
X001136Y006068D01*
X001138Y006067D02*
X004101Y006067D01*
X004102Y006066D02*
X001140Y006066D01*
X001142Y006065D02*
X004102Y006065D01*
X004102Y006064D02*
X001144Y006064D01*
X001146Y006063D02*
X004103Y006063D01*
X004103Y006062D02*
X001149Y006062D01*
X001151Y006061D02*
X004103Y006061D01*
X004103Y006060D02*
X001153Y006060D01*
X001155Y006060D02*
X004104Y006060D01*
X004104Y006059D02*
X001157Y006059D01*
X001159Y006058D02*
X004104Y006058D01*
X004104Y006057D02*
X001161Y006057D01*
X001163Y006056D02*
X004105Y006056D01*
X004105Y006055D02*
X001165Y006055D01*
X001168Y006054D02*
X004105Y006054D01*
X004106Y006053D02*
X001170Y006053D01*
X001172Y006052D02*
X004106Y006052D01*
X004106Y006051D02*
X001174Y006051D01*
X001176Y006050D02*
X004106Y006050D01*
X004107Y006049D02*
X001178Y006049D01*
X001180Y006048D02*
X004107Y006048D01*
X004107Y006047D02*
X001182Y006047D01*
X001184Y006046D02*
X004108Y006046D01*
X004108Y006045D02*
X001187Y006045D01*
X001189Y006044D02*
X004108Y006044D01*
X004108Y006043D02*
X001191Y006043D01*
X001193Y006043D02*
X004109Y006043D01*
X004109Y006042D02*
X001195Y006042D01*
X001197Y006041D02*
X004109Y006041D01*
X004109Y006040D02*
X001199Y006040D01*
X001201Y006039D02*
X004110Y006039D01*
X004110Y006038D02*
X001203Y006038D01*
X001206Y006037D02*
X004110Y006037D01*
X004111Y006036D02*
X001208Y006036D01*
X001210Y006035D02*
X004111Y006035D01*
X004111Y006034D02*
X001212Y006034D01*
X001214Y006033D02*
X004111Y006033D01*
X004112Y006032D02*
X001216Y006032D01*
X001218Y006031D02*
X004112Y006031D01*
X004112Y006030D02*
X001220Y006030D01*
X001222Y006029D02*
X004113Y006029D01*
X004113Y006028D02*
X001225Y006028D01*
X001227Y006027D02*
X004113Y006027D01*
X004113Y006026D02*
X001229Y006026D01*
X001231Y006026D02*
X004114Y006026D01*
X004114Y006025D02*
X001233Y006025D01*
X001235Y006024D02*
X004114Y006024D01*
X004114Y006023D02*
X001237Y006023D01*
X001239Y006022D02*
X004115Y006022D01*
X004115Y006021D02*
X001241Y006021D01*
X001244Y006020D02*
X004115Y006020D01*
X004116Y006019D02*
X001246Y006019D01*
X001248Y006018D02*
X004116Y006018D01*
X004116Y006017D02*
X001250Y006017D01*
X001252Y006016D02*
X004116Y006016D01*
X004117Y006015D02*
X001254Y006015D01*
X001256Y006014D02*
X004117Y006014D01*
X004117Y006013D02*
X001258Y006013D01*
X001260Y006012D02*
X004118Y006012D01*
X004118Y006011D02*
X001263Y006011D01*
X001265Y006010D02*
X004118Y006010D01*
X004118Y006009D02*
X001267Y006009D01*
X001269Y006009D02*
X004119Y006009D01*
X004119Y006008D02*
X001271Y006008D01*
X001273Y006007D02*
X004119Y006007D01*
X004119Y006006D02*
X001275Y006006D01*
X001277Y006005D02*
X004120Y006005D01*
X004120Y006004D02*
X001279Y006004D01*
X001282Y006003D02*
X004120Y006003D01*
X004121Y006002D02*
X001284Y006002D01*
X001286Y006001D02*
X004121Y006001D01*
X004121Y006000D02*
X001288Y006000D01*
X001290Y005999D02*
X004121Y005999D01*
X004122Y005998D02*
X001292Y005998D01*
X001294Y005997D02*
X004122Y005997D01*
X004122Y005996D02*
X001296Y005996D01*
X001299Y005995D02*
X004123Y005995D01*
X004123Y005994D02*
X001301Y005994D01*
X001303Y005993D02*
X004123Y005993D01*
X004123Y005992D02*
X001305Y005992D01*
X001307Y005991D02*
X004124Y005991D01*
X001309Y005991D01*
X001311Y005990D02*
X004124Y005990D01*
X004124Y005989D02*
X001313Y005989D01*
X001315Y005988D02*
X004125Y005988D01*
X004125Y005987D02*
X001317Y005987D01*
X001320Y005986D02*
X004125Y005986D01*
X004126Y005985D02*
X001322Y005985D01*
X001324Y005984D02*
X004126Y005984D01*
X004126Y005983D02*
X001326Y005983D01*
X001328Y005982D02*
X004126Y005982D01*
X004127Y005981D02*
X001330Y005981D01*
X001332Y005980D02*
X004127Y005980D01*
X004127Y005979D02*
X001334Y005979D01*
X001336Y005978D02*
X004128Y005978D01*
X004128Y005977D02*
X001339Y005977D01*
X001341Y005976D02*
X004128Y005976D01*
X004128Y005975D02*
X001343Y005975D01*
X001345Y005974D02*
X004129Y005974D01*
X001347Y005974D01*
X001349Y005973D02*
X004129Y005973D01*
X004130Y005972D02*
X001351Y005972D01*
X001353Y005971D02*
X004130Y005971D01*
X004130Y005970D02*
X001356Y005970D01*
X001358Y005969D02*
X004130Y005969D01*
X004131Y005968D02*
X001360Y005968D01*
X001362Y005967D02*
X004131Y005967D01*
X004131Y005966D02*
X001364Y005966D01*
X001366Y005965D02*
X004131Y005965D01*
X004132Y005964D02*
X001368Y005964D01*
X001370Y005963D02*
X004132Y005963D01*
X004132Y005962D02*
X001372Y005962D01*
X001375Y005961D02*
X004133Y005961D01*
X004133Y005960D02*
X001377Y005960D01*
X001379Y005959D02*
X004133Y005959D01*
X004133Y005958D02*
X001381Y005958D01*
X001383Y005957D02*
X004134Y005957D01*
X001385Y005957D01*
X001387Y005956D02*
X004134Y005956D01*
X004135Y005955D02*
X001389Y005955D01*
X001391Y005954D02*
X004135Y005954D01*
X004135Y005953D02*
X001394Y005953D01*
X001396Y005952D02*
X004135Y005952D01*
X004136Y005951D02*
X001398Y005951D01*
X001400Y005950D02*
X004136Y005950D01*
X004136Y005949D02*
X001402Y005949D01*
X001404Y005948D02*
X004136Y005948D01*
X004137Y005947D02*
X001406Y005947D01*
X001408Y005946D02*
X004137Y005946D01*
X004137Y005945D02*
X001410Y005945D01*
X001413Y005944D02*
X004138Y005944D01*
X004138Y005943D02*
X001415Y005943D01*
X001417Y005942D02*
X004138Y005942D01*
X004138Y005941D02*
X001419Y005941D01*
X001421Y005940D02*
X004139Y005940D01*
X001423Y005940D01*
X001425Y005939D02*
X004139Y005939D01*
X004140Y005938D02*
X001427Y005938D01*
X001429Y005937D02*
X004140Y005937D01*
X004140Y005936D02*
X001432Y005936D01*
X001434Y005935D02*
X004140Y005935D01*
X004141Y005934D02*
X001436Y005934D01*
X001438Y005933D02*
X004141Y005933D01*
X004141Y005932D02*
X001440Y005932D01*
X001442Y005931D02*
X004141Y005931D01*
X004142Y005930D02*
X001444Y005930D01*
X001446Y005929D02*
X004142Y005929D01*
X004142Y005928D02*
X001450Y005928D01*
X001463Y005927D02*
X004143Y005927D01*
X004143Y005926D02*
X001475Y005926D01*
X001488Y005925D02*
X004143Y005925D01*
X004143Y005924D02*
X001500Y005924D01*
X001513Y005923D02*
X004144Y005923D01*
X001525Y005923D01*
X001538Y005922D02*
X004144Y005922D01*
X004145Y005921D02*
X001550Y005921D01*
X001563Y005920D02*
X004145Y005920D01*
X004145Y005919D02*
X001575Y005919D01*
X001588Y005918D02*
X004145Y005918D01*
X004146Y005917D02*
X001600Y005917D01*
X001613Y005916D02*
X004146Y005916D01*
X004146Y005915D02*
X001625Y005915D01*
X001638Y005914D02*
X004146Y005914D01*
X004147Y005913D02*
X001651Y005913D01*
X001663Y005912D02*
X004147Y005912D01*
X004147Y005911D02*
X001676Y005911D01*
X001688Y005910D02*
X004148Y005910D01*
X004148Y005909D02*
X001701Y005909D01*
X001713Y005908D02*
X004148Y005908D01*
X004046Y005907D02*
X001726Y005907D01*
X001738Y005906D02*
X003943Y005906D01*
X003841Y005906D02*
X001751Y005906D01*
X001763Y005905D02*
X003738Y005905D01*
X003636Y005904D02*
X001776Y005904D01*
X001788Y005903D02*
X003533Y005903D01*
X003430Y005902D02*
X001801Y005902D01*
X001813Y005901D02*
X003328Y005901D01*
X003225Y005900D02*
X001826Y005900D01*
X001838Y005899D02*
X003123Y005899D01*
X003020Y005898D02*
X001851Y005898D01*
X001863Y005897D02*
X002918Y005897D01*
X002815Y005896D02*
X001876Y005896D01*
X001888Y005895D02*
X002713Y005895D01*
X002610Y005894D02*
X001901Y005894D01*
X001913Y005893D02*
X002508Y005893D01*
X002405Y005892D02*
X001926Y005892D01*
X001938Y005891D02*
X002303Y005891D01*
X002200Y005890D02*
X001951Y005890D01*
X001964Y005889D02*
X002098Y005889D01*
X001995Y005889D02*
X001976Y005889D01*
M02*
