<?xml version="1.0" encoding="UTF-8" standalone="no"?>
<!-- Created with Inkscape (http://www.inkscape.org/) -->

<svg
   xmlns:dc="http://purl.org/dc/elements/1.1/"
   xmlns:cc="http://creativecommons.org/ns#"
   xmlns:rdf="http://www.w3.org/1999/02/22-rdf-syntax-ns#"
   xmlns:svg="http://www.w3.org/2000/svg"
   xmlns="http://www.w3.org/2000/svg"
   xmlns:sodipodi="http://sodipodi.sourceforge.net/DTD/sodipodi-0.dtd"
   xmlns:inkscape="http://www.inkscape.org/namespaces/inkscape"
   id="svg2996"
   version="1.1"
   inkscape:version="0.48.1 "
   width="1023"
   height="704"
   sodipodi:docname="SkullAndCrossBones1.svg">
  <metadata
     id="metadata3002">
    <rdf:RDF>
      <cc:Work
         rdf:about="">
        <dc:format>image/svg+xml</dc:format>
        <dc:type
           rdf:resource="http://purl.org/dc/dcmitype/StillImage" />
        <dc:title></dc:title>
      </cc:Work>
    </rdf:RDF>
  </metadata>
  <defs
     id="defs3000" />
  <sodipodi:namedview
     pagecolor="#ffffff"
     bordercolor="#666666"
     borderopacity="1"
     objecttolerance="10"
     gridtolerance="10"
     guidetolerance="10"
     inkscape:pageopacity="0"
     inkscape:pageshadow="2"
     inkscape:window-width="1366"
     inkscape:window-height="716"
     id="namedview2998"
     showgrid="false"
     inkscape:zoom="0.75068163"
     inkscape:cx="511.45141"
     inkscape:cy="352.01432"
     inkscape:window-x="-8"
     inkscape:window-y="-8"
     inkscape:window-maximized="1"
     inkscape:current-layer="svg2996" />
  <path
     style="fill:#000000"
     d="m 441.40504,699.12838 c -17.7727,-11.6526 -34.91779,-42.60133 -46.88596,-84.63418 l -4.55409,-15.9942 -8.39434,-8 c -15.21199,-14.49738 -15.95019,-29.07232 -2.59312,-51.19805 8.36636,-13.85871 3.31263,-18.30022 -15.84799,-13.92811 -27.55303,6.28712 -53.785,2.89935 -69.82411,-9.01753 l -3.19457,-2.37353 -12.60079,6.97282 c -6.93044,3.83505 -13.81788,7.79264 -15.30543,8.79464 -1.48755,1.00201 -3.84715,2.39332 -5.24356,3.09181 -21.08403,10.54631 -32.99689,38.13428 -24.89748,57.65795 9.98878,24.07801 -21.27307,62.5 -50.85281,62.5 -20.80212,0 -35.43884,-14.61211 -41.7061,-41.63599 C 135.53807,594.26028 125.13762,585.47692 103.5,580.95745 87.54299,577.6245 82.891325,576.0657 76.365103,571.86443 c -34.356749,-22.11727 -14.589129,-83.768 31.735417,-98.97556 9.63721,-3.16374 19.43929,-3.97596 45.39948,-3.76192 38.28938,0.3157 36.64843,0.88915 90.5,-31.62608 7.425,-4.48316 18.4356,-11.06219 24.468,-14.62005 12.80206,-7.55054 12.44755,-6.86168 12.80431,-24.88082 0.22514,-11.3711 0.19313,-11.55044 -2.85581,-16 -16.19383,-23.63298 -15.90471,-50.49736 0.79833,-74.17712 0.93632,-1.3274 0.73745,-3.20411 -0.95369,-9 -3.57042,-12.23658 -4.55196,-18.68382 -5.17554,-33.99552 -0.32865,-8.06995 -0.81985,-14.84961 -1.09157,-15.06592 -0.27172,-0.2163 -4.09403,-1.87555 -8.49403,-3.68721 -4.4,-1.81167 -8.9,-3.68492 -10,-4.16279 -5.99914,-2.60618 -52.77039,-21.35873 -57.08817,-22.88902 -2.79849,-0.99184 -5.94849,-2.27744 -7,-2.8569 -2.41682,-1.33185 -23.12237,-9.69454 -30.41183,-12.28292 -3.025,-1.07414 -6.4,-2.36804 -7.5,-2.87535 -13.85987,-6.39196 -34.25771,-7.5862 -55.5,-3.24939 -45.423166,9.27356 -78.965705,1.52371 -91.9988943,-21.25593 -1.9931408,-3.48364 -2.97744,-6.54796 -2.9306437,-9.12366 L 1.1409239,163.5 2.5553195,167.35747 C 13.316017,196.70499 45.691093,205.0263 104.5,193.56013 c 20.18307,-3.93516 38.51353,-0.43298 70,13.37405 2.2,0.96472 11.65,4.7918 21,8.50464 9.35,3.71284 17.9,7.14254 19,7.62157 3.6726,1.59935 30.835,12.58848 44.5,18.00343 16.95689,6.71941 15.68428,5.51995 15.91272,14.998 0.31876,13.2253 2.8319,31.45237 5.71104,41.42044 l 2.7027,9.35721 -4.24374,7.02363 c -13.99667,23.16528 -13.32504,43.83668 2.19494,67.55514 3.77306,5.7662 4.39947,16.02871 1.79564,29.41815 l -1.4267,7.33638 -7.0733,4.44161 c -3.89032,2.44289 -9.9983,6.15663 -13.5733,8.25276 -3.575,2.09613 -12.11468,7.14603 -18.97706,11.222 -6.86238,4.07597 -13.24185,7.86086 -14.1766,8.41086 -0.93475,0.55 -3.87007,2.29167 -6.52294,3.87039 -2.65287,1.57871 -7.2984,4.2213 -10.3234,5.87242 -3.025,1.65111 -6.4,3.54745 -7.5,4.21408 -9.71051,5.8848 -21.19939,7.5417 -52.40996,7.55846 -44.85237,0.0241 -60.736859,6.20633 -77.041789,29.98465 -24.601,35.87691 -13.395125,67.2758 26.931719,75.46276 26.37763,5.35505 35.8003,13.19128 41.52928,34.53724 6.02854,22.46207 17.3605,35.80713 31.94346,37.61814 2.22601,0.27644 4.56312,0.66841 5.19357,0.87105 21.92094,7.04579 56.25672,-33.2295 49.85599,-58.48023 -5.95096,-23.4764 -0.1704,-42.9198 16.3714,-55.06656 16.98318,-12.47087 43.79418,-26.69952 46.75782,-24.81446 1.18642,0.75463 4.78454,3.12104 7.99583,5.25869 13.93712,9.2775 42.27845,11.28111 65.36608,4.6211 15.11175,-4.35923 24.54798,3.97559 17.5395,15.49227 -15.20548,24.98639 -15.10749,38.38448 0.37411,51.15235 6.95601,5.73672 9.90536,10.16728 10.65242,16.00226 0.48428,3.78251 10.16987,34.16961 11.42536,35.84539 0.41206,0.55 1.69897,3.57744 2.85981,6.72765 9.45547,25.65975 26.81066,47.91819 41.99127,53.85482 l 4.66413,1.82398 -4.09496,0.0468 c -3.12017,0.0356 -5.50065,-0.87486 -10,-3.82485 z m 17.94009,-7.50802 c 1.13172,-19.81506 6.15273,-39.46895 11.14077,-43.60866 1.146,-0.9511 2.62139,-0.61637 7.22703,1.63964 7.07817,3.46713 24.47817,3.9788 34.21857,1.00624 7.2552,-2.21413 19.7432,-2.17821 25.29826,0.0728 10.62731,4.30631 34.14532,1.76512 40.98984,-4.42908 2.83777,-2.56815 6.26571,10.92178 10.85019,42.69873 2.00778,13.91672 1.92743,13.85377 11.52049,9.02572 9.42861,-4.7453 16.93493,-11.36619 24.19053,-21.33706 14.21222,-19.53092 21.78336,-36.99234 29.67781,-68.44638 l 2.32354,-9.25772 7.90082,-7.74228 c 12.18993,-11.94532 15.79565,-22.66214 10.8384,-32.21359 -2.47034,-4.75975 -10.57276,-28.71264 -11.19131,-33.08445 -0.95736,-6.76645 4.48692,-7.9013 22.16993,-4.62127 20.65863,3.83198 43.25589,0.64937 59.17366,-8.33407 6.89924,-3.89369 6.18725,-4.08056 15.637,4.10404 4.50414,3.90112 10.66434,8.32336 13.68934,9.82721 25.66991,12.76153 37.98255,36.66435 30.95129,60.08645 -5.37958,17.92013 -1.91254,29.31236 13.54086,44.4934 29.95886,29.43084 61.86466,20.64639 71.88113,-19.79064 5.14728,-20.77985 16.05007,-30.70783 38.62672,-35.17312 15.2294,-3.01213 17.42447,-3.64821 23.19145,-6.72047 50.85685,-27.09304 0.2696,-108.25438 -61.01962,-97.89877 -27.39064,4.628 -51.37515,-1.27542 -77.01964,-18.9572 -9.63603,-6.64402 -24.3708,-16.99229 -28.04701,-19.69752 -1.31715,-0.96925 -3.40955,-2.43728 -4.64978,-3.26228 -17.78058,-11.82769 -17.69448,-11.70904 -18.94008,-26.09978 -0.89457,-10.33512 0.7851,-18.57623 5.99223,-29.40022 10.21131,-21.22611 7.81715,-43.47059 -7.05775,-65.5746 l -3.52873,-5.24366 2.47048,-10.09087 c 3.51588,-14.36092 4.61421,-22.00021 5.31264,-36.95146 0.69297,-14.83455 0.13211,-13.83444 10.18416,-18.16002 3.63641,-1.56481 11.56165,-5.17234 17.61165,-8.01673 6.05,-2.84439 12.575,-5.87619 14.5,-6.73735 1.925,-0.86115 9.90987,-4.52664 17.74415,-8.14552 C 834.57843,211.9609 841.19216,209 841.44132,209 c 0.24916,0 7.1143,-3.1882 15.25585,-7.0849 17.85794,-8.54712 22.80234,-10.41053 31.38474,-11.82802 11.4037,-1.88346 18.69218,-1.48473 36.53865,1.99889 2.81631,0.54974 6.41631,1.2189 8,1.48701 1.58369,0.26812 5.32459,0.92388 8.3131,1.45725 11.77277,2.10114 33.02012,0.56106 48.73669,-3.53258 14.55455,-3.79099 26.69305,-14.79342 30.85895,-27.9709 l 1.273,-4.02675 0.099,4.28984 c 0.583,25.29451 -47.86154,41.66058 -93.64742,31.63701 C 900.68693,189.39187 886.62723,190.89108 862,202.4916 832.52061,216.3777 826.87808,219 826.47804,219 c -0.36561,0 -3.4211,1.39831 -21.97804,10.05802 -3.3,1.53996 -12.3,5.70236 -20,9.24977 -12.99311,5.98597 -14.01628,6.65634 -14.22633,9.32103 -2.04175,25.90156 -4.49926,43.29043 -7.36201,52.09219 -0.9346,2.87351 -0.70586,3.71777 2.12024,7.82535 14.71499,21.38752 17.33683,49.04726 6.58342,69.45364 -5.81005,11.02556 -7.13051,20.30448 -4.69611,33 l 1.2464,6.5 12.89553,9 c 7.09254,4.95 19.76778,13.89849 28.1672,19.88553 29.99094,21.37734 57.81172,29.61529 81.27166,24.06518 42.38011,-10.02621 85.71591,25.6389 84.3356,69.40772 -0.67867,21.52015 -12.75412,34.39043 -36.3356,38.72729 -29.76874,5.47475 -39.09286,13.14423 -45.09245,37.09046 -8.22066,32.81121 -38.56701,46.88656 -63.79029,29.58744 -22.78958,-15.63 -32.09173,-34.40764 -27.1675,-54.84125 6.75566,-28.0333 -3.52163,-48.76825 -30.0078,-60.5422 -2.23192,-0.99216 -7.73129,-4.98335 -12.22083,-8.86931 l -8.1628,-7.06538 -6.99085,3.52054 c -17.06982,8.59622 -43.87765,11.46596 -64.90325,6.94778 -16.32806,-3.50872 -16.29453,-4.8665 -0.95029,38.48605 3.54847,10.02561 -0.74485,20.80406 -12.67816,31.8287 l -7.32955,6.77145 -2.63179,10.75274 C 643.96007,662.79151 615.95515,703 592.67315,703 l -4.39334,0 -0.60436,-5.25 c -0.50035,-4.34651 -3.20213,-20.19085 -5.2435,-30.75 -0.26583,-1.375 -1.02321,-5.7625 -1.68308,-9.75 -1.33106,-8.04346 -1.30878,-8.02533 -6.56331,-5.34467 -9.32713,4.75835 -25.24275,5.183 -38.66422,1.03162 -7.67044,-2.37253 -12.40723,-2.23329 -23.02134,0.67674 -11.89033,3.25993 -33.69626,1.78802 -39.02468,-2.63418 -4.2317,-3.51199 -9.65559,16.19221 -11.08509,40.27049 -0.56181,9.46304 -0.98929,11.75 -2.19631,11.75 -1.28191,0 -1.4047,-1.64626 -0.84879,-11.37964 z M 292.5,155.00922 c -11.53918,-4.51179 -21.39459,-7.80071 -33.5,-12.49405 -1.925,-0.75125 -6.875,-2.56056 -11,-4.0207 -4.125,-1.46014 -8.4,-3.01546 -9.5,-3.45627 -1.1,-0.44081 -5.375,-2.01394 -9.5,-3.49584 -4.125,-1.48191 -9.075,-3.30159 -11,-4.04373 -1.925,-0.74215 -6.875,-2.5515 -11,-4.02078 -4.125,-1.46928 -8.91801,-3.30286 -10.65113,-4.07462 C 194.61575,118.63144 192.69714,118 192.0853,118 c -0.61184,0 -1.89383,-0.4179 -2.84887,-0.92868 -0.95504,-0.51077 -6.10156,-2.56203 -11.43673,-4.55837 C 154.6655,103.85652 145.5837,92.376428 142.50868,67.902424 137.19114,25.580214 89.961424,-4.7750602 45.480339,5.5407925 9.6829935,13.842751 0.57192062,40.773528 21.473808,76.5 c 11.148613,19.055725 9.596828,33.7185 -5.238664,49.5 -3.89159,4.13974 -12.200929,16.99236 -12.8257756,19.8385 -1.5167546,6.90873 -2.2490088,7.81105 -2.330421,2.87166 -0.0964571,-5.85217 2.1767726,-10.61374 9.7973966,-20.52192 3.093011,-4.02147 6.846074,-8.90507 8.34014,-10.85245 9.6838,-12.62198 9.103128,-22.67273 -2.52011,-43.620139 C 5.6664855,53.837576 4.4469811,42.174733 11.706533,25.994847 26.771964,-7.5825599 98.08784,-6.7757673 126.17649,27.289839 128.5393,30.155428 130.74243,32.725 131.07233,33 c 4.16562,3.472351 12.09217,23.371613 14.34003,36 4.55409,25.584768 11.2622,32.73407 41.08764,43.78996 30.48137,11.29904 77.25096,28.55042 87,32.09071 6.05,2.19702 13.47211,4.92391 16.49358,6.05976 l 5.49357,2.06519 1.74853,-2.25281 C 298.19737,149.51377 300.79602,145.575 303.01045,142 316.01564,121.00431 330.06168,105.13674 346,93.43545 422.12535,37.5472 528.72022,22.922588 629.36563,54.558228 c 51.87564,16.305953 76.71818,34.974654 105.82134,79.522782 l 7.0557,10.80013 5.62866,-2.00646 c 3.09577,-1.10355 7.20367,-2.63272 9.12867,-3.39816 1.925,-0.76543 14.975,-5.50661 29,-10.53595 22.28687,-7.99203 46.04096,-16.56231 59.74612,-21.55591 C 863.80909,100.80325 873.38351,88.831673 876.44472,69 882.38901,30.490653 911.16287,0.65380436 941.9315,1.0939659 l 6.5685,0.093966 -6.84954,1.3613322 C 905.25076,9.7836352 883.28718,34.727984 878.06222,74.76736 875.54457,94.060363 864.82125,103.64221 833,115.0328 c -7.975,2.85469 -17.425,6.28537 -21,7.62373 -3.575,1.33837 -9.2,3.34532 -12.5,4.45991 -3.3,1.11458 -6.9,2.41453 -8,2.88877 -1.1,0.47424 -5.825,2.20066 -10.5,3.8365 -4.675,1.63584 -12.325,4.38152 -17,6.10152 -25.54806,9.39951 -23.4605,9.00779 -25.61681,4.80677 C 720.54139,109.98984 685.35583,77.678241 652.58614,65.960892 649.78876,64.960642 644.35,62.937115 640.5,61.464164 604.3699,47.641345 565.90075,41.206011 521.5,41.557179 494.99399,41.766816 489.84259,42.18549 465.29221,46.125396 428.4803,52.033062 379.41599,71.655158 355,90.234126 c -1.375,1.046284 -5.2,3.928713 -8.5,6.405396 -11.45577,8.597668 -25.22917,23.289458 -34,36.267048 -9.42041,13.93873 -12.57609,18.7497 -13.17999,20.09343 -1.32217,2.94196 -3.28637,3.52062 -6.82001,2.00919 z M 1020.6225,146 c -1.5077,-6.08935 -9.7067,-19.6779 -14.1794,-23.5 -13.64942,-11.66402 -16.11512,-31.037387 -6.1091,-48 11.5015,-19.497573 14.0008,-30.274774 10.0817,-43.471907 C 1006.1615,16.70256 995.50813,7.3437391 978,2.5513301 l -5.5,-1.5054861 6.54967,0.261715 C 1007.6222,2.449275 1023.5119,36.643534 1008.6469,65 c -11.34469,21.641039 -11.99157,23.114004 -12.40669,28.250367 -0.5116,6.330134 2.20372,14.217643 7.02359,20.402153 16.6292,21.3376 18.9997,25.38713 18.535,31.66398 l -0.3098,4.1835 z"
     id="path3008"
     inkscape:connector-curvature="0"
     sodipodi:nodetypes="cscsssscssssssssssssssssscssssssssscsssssssscssscssssssssssssssssssssssssccccsssssssssscssssssssssssssssssscssssssssssssssccsssssssssscsssssssssscsssscsscssssssssssccssssssssssssssssssssssssscssssscsssssscssssssssssssssssssccssscsssscccc" />
</svg>
