<?xml version="1.0" encoding="UTF-8" standalone="no"?>
<!-- Created with Inkscape (http://www.inkscape.org/) -->

<svg
   xmlns:dc="http://purl.org/dc/elements/1.1/"
   xmlns:cc="http://creativecommons.org/ns#"
   xmlns:rdf="http://www.w3.org/1999/02/22-rdf-syntax-ns#"
   xmlns:svg="http://www.w3.org/2000/svg"
   xmlns="http://www.w3.org/2000/svg"
   xmlns:sodipodi="http://sodipodi.sourceforge.net/DTD/sodipodi-0.dtd"
   xmlns:inkscape="http://www.inkscape.org/namespaces/inkscape"
   id="svg2996"
   version="1.1"
   inkscape:version="0.48.1 "
   width="1023"
   height="704"
   sodipodi:docname="SkullAndCrossBones.jpg">
  <metadata
     id="metadata3002">
    <rdf:RDF>
      <cc:Work
         rdf:about="">
        <dc:format>image/svg+xml</dc:format>
        <dc:type
           rdf:resource="http://purl.org/dc/dcmitype/StillImage" />
        <dc:title></dc:title>
      </cc:Work>
    </rdf:RDF>
  </metadata>
  <defs
     id="defs3000" />
  <sodipodi:namedview
     pagecolor="#ffffff"
     bordercolor="#666666"
     borderopacity="1"
     objecttolerance="10"
     gridtolerance="10"
     guidetolerance="10"
     inkscape:pageopacity="0"
     inkscape:pageshadow="2"
     inkscape:window-width="1366"
     inkscape:window-height="716"
     id="namedview2998"
     showgrid="false"
     inkscape:zoom="0.75076128"
     inkscape:cx="511.48769"
     inkscape:cy="351.97708"
     inkscape:window-x="-8"
     inkscape:window-y="-8"
     inkscape:window-maximized="1"
     inkscape:current-layer="svg2996" />
  <path
     style="fill:#000000"
     d="m 441.40504,699.12838 c -17.7727,-11.6526 -34.91779,-42.60133 -46.88596,-84.63418 l -4.55409,-15.9942 -8.39434,-8 c -15.21199,-14.49738 -15.95019,-29.07232 -2.59312,-51.19805 8.36636,-13.85871 3.31263,-18.30022 -15.84799,-13.92811 -27.55303,6.28712 -53.785,2.89935 -69.82411,-9.01753 l -3.19457,-2.37353 -12.60079,6.97282 c -6.93044,3.83505 -13.81788,7.79264 -15.30543,8.79464 -1.48755,1.00201 -3.84715,2.39332 -5.24356,3.09181 -21.08403,10.54631 -32.99689,38.13428 -24.89748,57.65795 9.98878,24.07801 -21.27307,62.5 -50.85281,62.5 -20.80212,0 -35.43884,-14.61211 -41.7061,-41.63599 C 135.53807,594.26028 125.13762,585.47692 103.5,580.95745 87.54299,577.6245 82.891325,576.0657 76.365103,571.86443 c -34.356749,-22.11727 -14.589129,-83.768 31.735417,-98.97556 9.63721,-3.16374 19.43929,-3.97596 45.39948,-3.76192 38.28938,0.3157 36.64843,0.88915 90.5,-31.62608 7.425,-4.48316 18.4356,-11.06219 24.468,-14.62005 12.80206,-7.55054 12.44755,-6.86168 12.80431,-24.88082 0.22514,-11.3711 0.19313,-11.55044 -2.85581,-16 -16.19383,-23.63298 -15.90471,-50.49736 0.79833,-74.17712 0.93632,-1.3274 0.73745,-3.20411 -0.95369,-9 -3.57042,-12.23658 -4.55196,-18.68382 -5.17554,-33.99552 -0.32865,-8.06995 -0.81985,-14.84961 -1.09157,-15.06592 -0.27172,-0.2163 -4.09403,-1.87555 -8.49403,-3.68721 -4.4,-1.81167 -8.9,-3.68492 -10,-4.16279 -5.99914,-2.60618 -52.77039,-21.35873 -57.08817,-22.88902 -2.79849,-0.99184 -5.94849,-2.27744 -7,-2.8569 -2.41682,-1.33185 -23.12237,-9.69454 -30.41183,-12.28292 -3.025,-1.07414 -6.4,-2.36804 -7.5,-2.87535 -13.85987,-6.39196 -34.25771,-7.5862 -55.5,-3.24939 -45.423166,9.27356 -78.965705,1.52371 -91.9988943,-21.25593 -1.9931408,-3.48364 -2.97744,-6.54796 -2.9306437,-9.12366 L 1.1409239,163.5 2.5553195,167.35747 C 13.316017,196.70499 45.691093,205.0263 104.5,193.56013 c 20.18307,-3.93516 38.51353,-0.43298 70,13.37405 2.2,0.96472 11.65,4.7918 21,8.50464 9.35,3.71284 17.9,7.14254 19,7.62157 3.6726,1.59935 30.835,12.58848 44.5,18.00343 16.95689,6.71941 15.68428,5.51995 15.91272,14.998 0.31876,13.2253 2.8319,31.45237 5.71104,41.42044 l 2.7027,9.35721 -4.24374,7.02363 c -13.99667,23.16528 -13.32504,43.83668 2.19494,67.55514 3.77306,5.7662 4.39947,16.02871 1.79564,29.41815 l -1.4267,7.33638 -7.0733,4.44161 c -3.89032,2.44289 -9.9983,6.15663 -13.5733,8.25276 -3.575,2.09613 -12.11468,7.14603 -18.97706,11.222 -6.86238,4.07597 -13.24185,7.86086 -14.1766,8.41086 -0.93475,0.55 -3.87007,2.29167 -6.52294,3.87039 -2.65287,1.57871 -7.2984,4.2213 -10.3234,5.87242 -3.025,1.65111 -6.4,3.54745 -7.5,4.21408 -9.71051,5.8848 -21.19939,7.5417 -52.40996,7.55846 -44.85237,0.0241 -60.736859,6.20633 -77.041789,29.98465 -24.601,35.87691 -13.395125,67.2758 26.931719,75.46276 26.37763,5.35505 35.8003,13.19128 41.52928,34.53724 6.02854,22.46207 17.3605,35.80713 31.94346,37.61814 2.22601,0.27644 4.56312,0.66841 5.19357,0.87105 21.92094,7.04579 56.25672,-33.2295 49.85599,-58.48023 -5.95096,-23.4764 -0.1704,-42.9198 16.3714,-55.06656 16.98318,-12.47087 43.79418,-26.69952 46.75782,-24.81446 1.18642,0.75463 4.78454,3.12104 7.99583,5.25869 13.93712,9.2775 42.27845,11.28111 65.36608,4.6211 15.11175,-4.35923 24.54798,3.97559 17.5395,15.49227 -15.20548,24.98639 -15.10749,38.38448 0.37411,51.15235 6.95601,5.73672 9.90536,10.16728 10.65242,16.00226 0.48428,3.78251 10.16987,34.16961 11.42536,35.84539 0.41206,0.55 1.69897,3.57744 2.85981,6.72765 9.45547,25.65975 26.81066,47.91819 41.99127,53.85482 l 4.66413,1.82398 -4.09496,0.0468 c -3.12017,0.0356 -5.50065,-0.87486 -10,-3.82485 z m 17.94009,-7.50802 c 1.13172,-19.81506 6.15273,-39.46895 11.14077,-43.60866 1.146,-0.9511 2.62139,-0.61637 7.22703,1.63964 7.07817,3.46713 24.47817,3.9788 34.21857,1.00624 7.2552,-2.21413 19.7432,-2.17821 25.29826,0.0728 10.62731,4.30631 34.14532,1.76512 40.98984,-4.42908 2.83777,-2.56815 6.26571,10.92178 10.85019,42.69873 2.00778,13.91672 1.92743,13.85377 11.52049,9.02572 9.42861,-4.7453 16.93493,-11.36619 24.19053,-21.33706 14.21222,-19.53092 21.78336,-36.99234 29.67781,-68.44638 l 2.32354,-9.25772 7.90082,-7.74228 c 12.18993,-11.94532 15.79565,-22.66214 10.8384,-32.21359 -2.47034,-4.75975 -10.57276,-28.71264 -11.19131,-33.08445 -0.95736,-6.76645 4.48692,-7.9013 22.16993,-4.62127 20.65863,3.83198 43.25589,0.64937 59.17366,-8.33407 6.89924,-3.89369 6.18725,-4.08056 15.637,4.10404 4.50414,3.90112 10.66434,8.32336 13.68934,9.82721 25.66991,12.76153 37.98255,36.66435 30.95129,60.08645 -5.37958,17.92013 -1.91254,29.31236 13.54086,44.4934 29.95886,29.43084 61.86466,20.64639 71.88113,-19.79064 5.14728,-20.77985 16.05007,-30.70783 38.62672,-35.17312 15.2294,-3.01213 17.42447,-3.64821 23.19145,-6.72047 50.85685,-27.09304 0.2696,-108.25438 -61.01962,-97.89877 -27.39064,4.628 -51.37515,-1.27542 -77.01964,-18.9572 -9.63603,-6.64402 -24.3708,-16.99229 -28.04701,-19.69752 -1.31715,-0.96925 -3.40955,-2.43728 -4.64978,-3.26228 -17.78058,-11.82769 -17.69448,-11.70904 -18.94008,-26.09978 -0.89457,-10.33512 0.7851,-18.57623 5.99223,-29.40022 10.21131,-21.22611 7.81715,-43.47059 -7.05775,-65.5746 l -3.52873,-5.24366 2.47048,-10.09087 c 3.51588,-14.36092 4.61421,-22.00021 5.31264,-36.95146 0.69297,-14.83455 0.13211,-13.83444 10.18416,-18.16002 3.63641,-1.56481 11.56165,-5.17234 17.61165,-8.01673 6.05,-2.84439 12.575,-5.87619 14.5,-6.73735 1.925,-0.86115 9.90987,-4.52664 17.74415,-8.14552 C 834.57843,211.9609 841.19216,209 841.44132,209 c 0.24916,0 7.1143,-3.1882 15.25585,-7.0849 17.85794,-8.54712 22.80234,-10.41053 31.38474,-11.82802 11.4037,-1.88346 18.69218,-1.48473 36.53865,1.99889 2.81631,0.54974 6.41631,1.2189 8,1.48701 1.58369,0.26812 5.32459,0.92388 8.3131,1.45725 11.77277,2.10114 33.02012,0.56106 48.73669,-3.53258 14.55455,-3.79099 26.69305,-14.79342 30.85895,-27.9709 l 1.273,-4.02675 0.099,4.28984 c 0.583,25.29451 -47.86154,41.66058 -93.64742,31.63701 C 900.68693,189.39187 886.62723,190.89108 862,202.4916 832.52061,216.3777 826.87808,219 826.47804,219 c -0.36561,0 -3.4211,1.39831 -21.97804,10.05802 -3.3,1.53996 -12.3,5.70236 -20,9.24977 -12.99311,5.98597 -14.01628,6.65634 -14.22633,9.32103 -2.04175,25.90156 -4.49926,43.29043 -7.36201,52.09219 -0.9346,2.87351 -0.70586,3.71777 2.12024,7.82535 14.71499,21.38752 17.33683,49.04726 6.58342,69.45364 -5.81005,11.02556 -7.13051,20.30448 -4.69611,33 l 1.2464,6.5 12.89553,9 c 7.09254,4.95 19.76778,13.89849 28.1672,19.88553 29.99094,21.37734 57.81172,29.61529 81.27166,24.06518 42.38011,-10.02621 85.71591,25.6389 84.3356,69.40772 -0.67867,21.52015 -12.75412,34.39043 -36.3356,38.72729 -29.76874,5.47475 -39.09286,13.14423 -45.09245,37.09046 -8.22066,32.81121 -38.56701,46.88656 -63.79029,29.58744 -22.78958,-15.63 -32.09173,-34.40764 -27.1675,-54.84125 6.75566,-28.0333 -3.52163,-48.76825 -30.0078,-60.5422 -2.23192,-0.99216 -7.73129,-4.98335 -12.22083,-8.86931 l -8.1628,-7.06538 -6.99085,3.52054 c -17.06982,8.59622 -43.87765,11.46596 -64.90325,6.94778 -16.32806,-3.50872 -16.29453,-4.8665 -0.95029,38.48605 3.54847,10.02561 -0.74485,20.80406 -12.67816,31.8287 l -7.32955,6.77145 -2.63179,10.75274 C 643.96007,662.79151 615.95515,703 592.67315,703 l -4.39334,0 -0.60436,-5.25 c -0.50035,-4.34651 -3.20213,-20.19085 -5.2435,-30.75 -0.26583,-1.375 -1.02321,-5.7625 -1.68308,-9.75 -1.33106,-8.04346 -1.30878,-8.02533 -6.56331,-5.34467 -9.32713,4.75835 -25.24275,5.183 -38.66422,1.03162 -7.67044,-2.37253 -12.40723,-2.23329 -23.02134,0.67674 -11.89033,3.25993 -33.69626,1.78802 -39.02468,-2.63418 -4.2317,-3.51199 -9.65559,16.19221 -11.08509,40.27049 -0.56181,9.46304 -0.98929,11.75 -2.19631,11.75 -1.28191,0 -1.4047,-1.64626 -0.84879,-11.37964 z m -20.73368,-18.70762 c -29.86527,-33.21737 -34.40326,-89.23566 -7.9365,-97.97048 22.68677,-7.48731 31.74749,17.53236 22.47382,62.05774 -2.04428,9.81519 -4.53716,25.20875 -5.70848,35.25 -0.86382,7.40526 -2.64642,7.53907 -8.82884,0.66274 z m 6.03301,0.32099 c -0.26047,-0.42144 -0.054,-3.00894 0.45877,-5.75 0.51279,-2.74105 1.62574,-9.64966 2.47322,-15.35247 0.84749,-5.70281 2.86448,-16.61291 4.48222,-24.24466 7.56131,-35.67095 -6.60266,-63.51804 -24.37191,-47.91643 -19.7213,17.31553 -14.40836,57.95636 11.67148,89.27983 3.27165,3.92945 6.97972,6.72388 5.28622,3.98373 z m 159.54673,-1.93857 C 603.58549,668.10782 602.34892,661.225 601.44325,656 c -0.90567,-5.225 -2.52311,-13.775 -3.5943,-19 -5.82702,-28.42254 -5.95948,-38.52596 -0.6569,-50.1083 7.40097,-16.16586 24.28477,-17.54241 31.94458,-2.60447 12.07442,23.54717 5.57276,59.87576 -15.17237,84.77693 -7.79279,9.35397 -8.39342,9.49109 -9.77307,2.231 z m 10.45339,-7.68367 c 17.7975,-23.61536 22.92895,-53.42936 13.04334,-75.78248 -12.10934,-27.38137 -37.21759,-2.06227 -30.67387,30.93146 0.40791,2.05674 1.68543,8.23953 2.83892,13.73953 1.1535,5.5 3.0161,15.4 4.13913,22 3.11273,18.29348 2.96775,17.77821 4.61721,16.40928 0.78617,-0.65246 3.50204,-3.93647 6.03527,-7.29779 z M 174.59841,639.28148 c -10.44277,-2.67175 -18.00267,-13.27724 -22.12015,-31.03147 -5.1774,-22.32448 -21.35491,-36.0275 -48.14272,-40.77889 C 73.127405,561.9357 64.05217,543.80052 78.1713,515.18673 90.72742,489.74053 105.69323,483 149.63457,483 c 44.20133,0 45.72891,-0.50298 97.71227,-32.17322 7.06577,-4.30473 13.14077,-7.82821 13.5,-7.82996 0.35924,-0.002 3.35316,-1.80032 6.65316,-3.99682 5.43121,-3.61505 8.5,-4.8741 8.5,-3.48734 0,0.28196 -0.9,3.76042 -2,7.7299 -4.38159,15.81151 -2.49139,37.47918 4.47149,51.25744 4.57588,9.0548 4.75987,8.47619 -4.1511,13.05441 -4.22378,2.17008 -11.08628,6.06014 -15.25,8.64459 -4.16371,2.58446 -10.02385,6.18446 -13.02253,8 -24.12067,14.60384 -35.93858,45.31496 -26.84834,69.77059 7.59816,20.44146 -22.45843,50.97703 -44.60111,45.31189 z m 15.11664,-3.8933 c 7.95413,-2.67937 21.46675,-15.09853 25.7246,-23.64292 3.06891,-6.15849 3.14529,-8.78195 0.56035,-19.24526 -5.57156,-22.55252 -0.33239,-43.80348 14.57386,-59.11398 7.95542,-8.17117 25.07619,-19.60279 42.74336,-28.53996 3.19948,-1.6185 5.65682,-3.25847 5.46076,-3.64439 -9.66846,-19.03154 -12.8163,-42.06631 -7.91944,-57.95167 1.19766,-3.8852 1.12055,-3.90358 -3.62998,-0.86548 -2.05071,1.31149 -12.72856,7.66636 -23.72856,14.12195 -11,6.45558 -21.15636,12.53603 -22.56968,13.5121 -17.24871,11.91231 -32.03604,15.18206 -67.98141,15.03195 -29.32797,-0.12247 -35.98139,0.79476 -47.94891,6.61019 -30.263853,14.70624 -40.445002,58.60461 -16.005022,69.00935 3.784142,1.611 3.848642,1.62721 15.005022,3.77027 29.51901,5.67037 52,25.62327 52,46.15237 0,16.74494 18.09907,30.05576 33.71505,24.79548 z M 489.5,637.73355 c -13.56302,-7.57342 -12.4159,-34.88432 2.07383,-49.37405 3.47044,-3.47044 7.37573,-4.36786 9.17987,-2.1095 3.91893,4.90557 14.50027,27.83855 14.97902,32.46409 1.48892,14.38532 -14.18298,25.74788 -26.23272,19.01946 z m 14.43963,-3.02477 c 10.10504,-5.0274 12.33684,-16.35612 5.2255,-26.52485 -1.03233,-1.47616 -3.81537,-6.62143 -6.18452,-11.43393 -4.90289,-9.95929 -5.91091,-10.42463 -10.83106,-5 -17.65949,19.47016 -8.44944,53.02823 11.79008,42.95878 z m 44.12548,3.70231 c -12.01565,-3.76918 -16.82103,-17.14082 -10.42613,-29.01215 1.45144,-2.69442 4.71286,-8.94894 7.2476,-13.89894 6.33222,-12.36597 8.51941,-13.3675 14.74107,-6.75 14.59219,15.5206 15.03058,42.29218 0.80663,49.25871 -4.65556,2.28017 -6.22069,2.33109 -12.36917,0.40238 z m 12.07552,-3.15323 c 10.88723,-6.43125 9.94078,-31.21782 -1.66314,-43.55603 -5.46953,-5.81564 -5.3323,-5.88865 -11.51294,6.12555 -2.73681,5.31994 -5.87344,11.2406 -6.97028,13.15702 -7.93277,13.86019 7.10425,31.97762 20.14636,24.27346 z M 849.5,637.97454 c -21.26731,-3.17127 -39.105,-28.20587 -33.67871,-47.26693 7.83007,-27.50489 -4.58124,-55.67437 -30.71278,-69.70761 -17.88648,-9.60546 -25.28161,-18.09405 -20.34716,-23.35573 10.73941,-11.45162 13.25577,-25.67396 9.62395,-54.39427 -0.45122,-3.5683 -0.30969,-5.25 0.44186,-5.25 0.92466,0 17.26511,10.90432 20.75124,13.84774 0.59312,0.50079 2.84312,2.08829 5,3.52778 2.15688,1.43949 5.33165,3.63138 7.05505,4.87087 14.09487,10.13717 23.44617,14.71887 40.36655,19.77773 15.3739,4.5965 24.50276,5.41829 38.04869,3.4252 23.40962,-3.44438 31.16297,-2.71096 45.11173,4.26733 35.08979,17.5547 42.07556,76.28335 9.0739,76.28335 -26.93381,0 -53.01566,19.3378 -58.67064,43.5 -5.36002,22.90193 -15.8684,32.8895 -32.06368,30.47454 z m 13,-4.46127 c 7.00529,-2.8798 12.72149,-11.57856 15.57596,-23.70308 6.58334,-27.96314 22.7991,-42.05822 54.42404,-47.30654 20.97904,-3.48157 29.52781,-13.83927 26.3854,-31.96859 -5.54049,-31.96451 -35.98857,-52.3527 -67.32957,-45.08424 -17.97759,4.16928 -41.70476,0.34374 -65.14517,-10.50337 -8.22771,-3.8074 -14.45957,-7.86289 -40.25621,-26.19745 -4.44962,-3.1625 -8.21717,-5.75059 -8.37233,-5.75131 -0.15517,-7.2e-4 -0.13957,7.68304 0.0347,17.07502 0.43549,23.47577 -0.97905,28.65168 -10.7249,39.24301 l -2.59187,2.81673 6,5.46389 c 3.3,3.00513 7.05524,5.90522 8.34498,6.44463 31.88621,13.33588 48.59162,46.03386 39.57333,77.45803 -3.46386,12.06983 -0.93469,19.87839 9.73431,30.05362 14.21735,13.55936 23.00919,16.62066 34.34738,11.95965 z M 464.8417,588.98 c -4.96231,-5.54248 -6.62054,-8.2452 -7.87863,-12.84118 -7.13253,-26.05633 -31.44417,-24.61035 -43.90225,2.61118 -2.67685,5.84904 -3.829,6.26134 -8.40645,3.00828 -10.46434,-7.43672 -11.8644,-12.57587 -7.79453,-28.61099 1.7655,-6.95601 3.38192,-13.54729 3.59203,-14.64729 0.21011,-1.1 0.85149,-4.04912 1.4253,-6.55361 6.08563,-26.56204 -8.80784,-46.83061 -23.17815,-31.54322 C 357.51901,522.93483 306.15207,508.56393 291.473,476 c -6.58231,-14.60214 -3.79033,-52.81626 3.08685,-42.25 7.60471,11.68405 10.41811,-0.87256 3.19247,-14.24842 -3.43426,-6.35737 -4.70859,-15.81107 -3.25494,-24.14692 1.81954,-10.43399 0.78485,-17.37937 -4.58868,-30.80176 -9.15658,-22.87195 -5.80296,-43.06426 8.96141,-53.95707 29.24317,-21.57493 50.89932,-66.96547 41.55404,-87.09583 l -1.85695,-4 -0.30658,3 c -2.35235,23.01892 -7.91001,40.83388 -15.74722,50.47746 -6.51754,8.01975 -19.43824,17.28798 -23.44987,16.82097 -2.84397,-0.33108 -2.33829,2.00433 -5.04472,-23.29843 C 284.93035,181.5309 332.96852,105.86765 413.44506,78.395844 476.36324,56.917839 569.70089,56.625436 630.5,77.715867 c 43.63992,15.138127 79.99582,47.230443 99.44051,87.778753 4.47173,9.32496 11.2241,28.75532 12.47057,35.88482 0.27688,1.58369 0.95289,5.18369 1.50225,8 3.94947,20.24734 4.9183,42.04645 2.70318,60.82274 -0.88908,7.5362 -1.61651,13.9487 -1.61651,14.25 0,1.05884 -3.87194,0.53382 -5.17857,-0.70218 -0.72679,-0.6875 -3.12143,-2.59265 -5.32143,-4.23367 -18.02437,-13.44471 -29.35007,-35.61875 -29.57046,-57.89455 l -0.0705,-7.12178 -1.44173,3.93641 c -1.87874,5.1296 -2.14757,23.7596 -0.41983,29.09458 5.97199,18.44055 12.73527,28.3572 34.64186,50.79362 21.38927,21.90659 25.2519,38.52648 15.72843,67.67539 l -3.75725,11.5 -0.0993,20 c -0.0937,18.87592 -0.23009,20.25292 -2.42577,24.5 -9.25736,17.90644 -9.10506,18.53826 2.39621,9.94089 8.30614,-6.20895 8.87995,-6.01901 10.50432,3.47713 4.71203,27.54683 -5.24017,53.38673 -25.76076,66.88519 -11.61365,7.63948 -37.17379,9.61133 -48.1867,3.7174 C 684.98965,505.45928 683.42181,505 682.55443,505 c -0.86738,0 -4.25036,-1.82479 -7.51774,-4.05508 -20.192,-13.78294 -38.18206,16.04073 -25.41377,42.13059 6.65976,13.6081 6.52508,20.34454 -0.64427,32.22474 -4.94682,8.19728 -6.44134,8.2774 -11.47865,0.61533 C 629.65568,563.98387 617.36529,555.1922 610.16339,556.36091 603.56093,557.43234 589,572.11187 589,577.69667 c 0,13.45173 -16.37739,17.38572 -22.45421,5.3937 C 559.7215,569.62328 549.81316,567.15731 540,576.48371 c -10.62206,10.09517 -16.13111,11.181 -22.1173,4.35931 C 516.99319,579.82936 515.82544,579 515.28769,579 c -0.53774,0 -1.8339,-0.94607 -2.88034,-2.10238 -4.66303,-5.15259 -12.60316,-6.36886 -19.29399,-2.95545 C 489.43318,575.81966 479,586.24564 479,588.04579 479,589.23431 473.01178,596 471.95984,596 c -0.45814,0 -3.6613,-3.159 -7.11814,-7.02 z m 11.55759,-2.25511 c 11.43217,-17.87136 25.15468,-22.35466 37.75256,-12.3342 12.83092,10.20583 14.07552,10.16345 24.71136,-0.8414 9.33624,-9.66015 22.69991,-6.44842 29.58726,7.11079 3.02407,5.95353 4.55697,7.33992 8.11562,7.33992 3.67766,0 7.98203,-4.19718 9.0525,-8.82707 7.13632,-30.86541 38.42264,-32.22454 56.3216,-2.44672 0.97537,1.62268 1.27953,1.51822 3.57041,-1.22621 5.89554,-7.06275 8.2797,-20.15544 4.6154,-25.34563 -19.57682,-27.72898 2.22013,-69.43084 26.9454,-51.55185 37.02172,26.77064 86.50017,-8.3421 80.81675,-57.3522 -1.37845,-11.88686 -0.59315,-11.23249 -7.57285,-6.31027 -12.42572,8.76285 -15.45175,4.81008 -7.87722,-10.28965 4.98838,-9.94428 5.08621,-10.60786 4.00358,-27.15521 -0.75392,-11.52312 0.99544,-23.06865 5.36829,-35.42998 6.91572,-19.54961 1.88878,-45.72648 -10.83763,-56.43505 -28.24988,-23.7707 -44.0206,-53.0277 -41.84724,-77.63276 1.60519,-18.17277 7.12024,-24.13596 8.13688,-8.79807 1.77739,26.81527 12.62358,47.16609 32.24296,60.49781 l 3.25412,2.21122 0.56998,-3.70418 C 754.05162,208.52001 724.67283,137.34259 669.96943,100.47232 655.4593,90.692441 626.61734,77.919037 612.52133,75.029949 610.3096,74.576637 604.9,73.320173 600.5,72.237805 567.29308,64.069152 503.25524,62.491924 465.99184,68.924921 462.42133,69.541319 456.575,70.534881 453,71.132837 430.34235,74.922565 401.04131,84.700301 387.26918,93.06716 383.70871,95.230222 380.57344,97 380.30192,97 c -5.22747,0 -38.84478,28.18264 -47.11708,39.5 -2.01009,2.75 -4.48717,5.9 -5.50463,7 -1.01746,1.1 -2.54101,3.35 -3.38566,5 -0.84465,1.65 -2.11293,3.675 -2.81841,4.5 -17.44096,20.39597 -29.94669,87.06589 -23.58778,125.75 1.57701,9.59366 1.09398,9.35367 8.80069,4.37258 18.35743,-11.86498 28.85434,-36.18606 29.29362,-67.87258 0.0322,-2.32361 2.50463,-1.25568 4.64615,2.00683 13.6506,20.79613 -2.05849,61.98541 -34.7256,91.05062 -10.35826,9.21615 -11.95938,11.0612 -15.05419,17.34764 -5.37692,10.92209 -4.87452,23.20696 1.54035,37.66462 1.26417,2.84916 2.82639,6.53029 3.47161,8.18029 1.25423,3.20744 1.72917,14.38873 1.2318,29 -0.29283,8.60248 -0.12497,9.4344 3.80042,18.83503 6.77297,16.22008 2.94009,28.22555 -6.11908,19.16638 l -2.49859,-2.4986 -1.13777,5.66538 c -5.95091,29.63179 11.72051,56.45313 42.97221,65.22237 15.00606,4.21071 34.37352,0.29169 42.52196,-8.60433 13.21104,-14.4231 32.8503,1.48441 29.56426,23.9466 -1.73094,11.83212 -1.96303,12.97269 -5.34501,26.26717 -1.67897,6.6 -3.29198,13.05004 -3.58446,14.33343 -0.91308,4.00654 1.81776,9.98973 6.55072,14.35242 l 4.47818,4.12784 1.85672,-3.61912 c 14.88864,-29.02095 40.57198,-31.34315 49.00984,-4.4313 4.7762,15.23327 12.33005,21.13258 17.2371,13.46162 z M 488.5,520.64198 c -19.86332,-9.28999 -15.37977,-53.63349 8.40643,-83.14198 2.21672,-2.75 5.79599,-7.49121 7.95394,-10.53602 12.66731,-17.8733 28.9978,-18.1307 37.80252,-0.59583 2.93677,5.84869 11.20045,17.4471 16.12481,22.63185 10.12716,10.66267 16.17761,46.9893 9.82685,59 C 555.57711,532.65669 525,515.54335 525,483.5899 c 0,-4.2079 -2.07887,0.21573 -3.04899,6.48794 -2.17581,14.06756 -12.95246,29.42608 -22.29881,31.77952 -5.81147,1.46334 -5.30722,1.5183 -11.1522,-1.21538 z m 15.57055,-4.22321 c 6.22536,-4.25779 12.7042,-15.31439 14.89464,-25.41877 2.11391,-9.75132 2.44697,-10.48174 4.94184,-10.83749 2.65166,-0.37812 4.05484,1.21458 4.07766,4.62839 0.0809,12.10298 11.81186,30.56983 21.20754,33.38484 20.72047,6.208 26.49546,-46.20377 7.39153,-67.08294 -5.12768,-5.60417 -12.25667,-15.74324 -16.13017,-22.9408 -8.48891,-15.77372 -22.06731,-15.86052 -32.72643,-0.2092 -1.70699,2.50646 -4.76997,6.5822 -6.80663,9.0572 -15.12496,18.38027 -21.93425,33.81675 -21.90317,49.65391 0.0535,27.27483 10.51734,39.70653 25.05319,29.76486 z m -37.05977,-70.90578 c -1.88419,-2.27031 -0.61399,-5.27898 5.91598,-14.01299 3.28966,-4.4 6.56369,-9.125 7.27562,-10.5 0.71194,-1.375 1.62335,-2.74581 2.02537,-3.04625 C 482.98477,417.38801 488,404.132 488,402.69683 c 0,-3.90743 -8.73004,0.20062 -12.65049,5.95288 -11.25151,16.50869 -35.16862,31.38121 -50.40111,31.34124 -24.0741,-0.0632 -52.54698,-8.68493 -68.4484,-20.72658 -7.5294,-5.70177 -9.71978,-8.01036 -15.24967,-16.07262 -12.48595,-18.20382 -8.66019,-41.77146 10.02227,-61.73972 7.16999,-7.66346 7.66962,-8.45203 5.35511,-8.45203 -6.95861,0 -15.04668,4.71153 -31.59053,18.4024 -8.1369,6.7337 -9.63774,6.55294 -7.65982,-0.92253 4.86844,-18.4001 19.94756,-28.48071 42.601,-28.47937 10.62261,6.3e-4 25.11475,5.45792 40.81736,15.37054 2.2905,1.44593 4.40387,2.62896 4.69639,2.62896 0.29253,0 3.56397,1.95912 7.26988,4.3536 46.51755,30.05619 74.94106,38.71258 83.62019,25.46656 5.51161,-8.41178 6.20358,-33.14281 1.31213,-46.89534 -4.21692,-11.85606 -3.08056,-16.0382 3.32905,-12.25195 6.41176,3.78752 11.26643,19.20622 11.38811,36.16926 l 0.0885,12.34213 3.75,-4.22074 c 3.43159,-3.86236 3.75,-4.7211 3.75,-10.11357 0,-5.38123 0.22655,-5.99605 2.60955,-7.08182 3.708,-1.68947 5.39045,0.95192 5.39045,8.46284 0,4.81244 2.78243,13.76903 4.27746,13.76903 0.13024,0 0.0778,-5.0625 -0.11645,-11.25 -0.67971,-21.64633 5.67392,-38.75 14.39475,-38.75 2.89104,0 2.89003,-0.0146 0.93197,13.5 -6.92517,47.79777 9.59265,65.50429 42.51227,45.57164 8.92646,-5.40493 28.47692,-16.9785 48.14993,-28.50403 4.75747,-2.78719 11.91577,-6.86761 15.90735,-9.06761 3.99157,-2.2 10.18517,-5.65043 13.76355,-7.66762 20.87453,-11.7673 48.47808,-3.00868 58.23282,18.47731 C 733.19743,358.0447 723.1835,357.19143 705.5,340.55834 700.46423,335.8217 691.62142,331 687.97036,331 c -2.73387,0 -2.46845,1.14862 1.04278,4.51259 18.87463,18.08304 25.97936,47.14114 16.25624,66.48741 -15.606,31.05153 -79.35811,47.01343 -110.14617,27.57778 C 592.8773,428.16 590.7818,427 590.46653,427 c -3.06889,0 -18.58055,-15.44932 -21.83776,-21.75 -2.00157,-3.87179 -6.41933,-4.74468 -9.40593,-1.85848 -2.46284,2.38005 6.43406,17.96109 15.88357,27.81675 8.38692,8.74739 7.50694,15.44042 -1.70608,12.97631 -10.6684,-2.85336 -21.42817,-14.01205 -29.62576,-30.72416 C 537.73723,401.15232 525.03411,378 524.3183,378 c -4.07458,0 -9.08214,8.38731 -11.86203,19.86806 -1.82241,7.52639 -4.9321,12.51341 -8.51116,13.64936 -2.3788,0.755 -4.94511,5.41659 -4.94511,8.98258 0,9.91045 -27.00119,31.0232 -31.98922,25.01299 z m 8.77565,-3.90477 c 10.62135,-5.38224 21.18164,-18.17919 21.20799,-25.69981 0.006,-1.62676 1.9942,-3.84951 7.76523,-8.68 2.70227,-2.26186 3.62085,-4.18187 5.37196,-11.22841 3.39481,-13.66089 9.57239,-22.18088 14.86475,-20.50115 2.13296,0.67697 7.22569,9.44931 20.76655,35.77081 C 555.49809,430.19345 578,450.97846 578,441.04705 578,439.41943 575.7213,435 574.88208,435 573.48882,435 563.20221,421.43673 559.5335,414.76232 553.65071,404.05989 554.91822,399 563.48201,399 c 3.66398,0 8.51799,3.72236 8.51799,6.53214 0,5.01114 23.11661,22.29674 35.99186,26.91315 22.2153,7.96528 58.42467,1.0283 78.99533,-15.13389 0.83205,-0.65373 3.9003,-3.04645 6.81835,-5.31715 20.21345,-15.72929 17.91743,-45.78795 -5.54417,-72.58211 -10.93318,-12.48617 3.75641,-15.34738 16.95193,-3.30187 1.43983,1.31435 4.48536,4.09036 6.76783,6.16891 10.42114,9.4901 15.72444,10.73858 12.46352,2.9341 -2.18712,-5.2345 -10.16623,-14.27859 -15.4008,-17.45634 -1.94912,-1.18325 -3.76885,-2.45966 -4.04385,-2.83646 -5.06826,-6.94451 -26.41209,-4.70071 -41.19111,4.33025 -4.01989,2.45642 -10.45889,6.17755 -14.30889,8.26917 -11.3465,6.16432 -42.60417,24.59394 -61.40141,36.20247 -31.50685,19.45755 -54.12741,-11.43107 -42.5343,-58.08106 1.13556,-4.56944 -3.01761,-1.66608 -5.92872,4.1446 -3.99288,7.96993 -4.90742,14.09402 -4.44833,29.78765 0.37762,12.90899 0.24849,14.42644 -1.22763,14.42644 -3.88722,0 -7.21246,-6.54188 -8.00763,-15.75375 -0.85156,-9.86513 -2.80993,-11.86201 -3.10124,-3.16222 -0.20798,6.21126 -1.36783,8.80246 -6.11704,13.66597 -4.99674,5.117 -8.28028,5.73289 -7.41174,1.39021 3.34081,-16.70408 -2.34656,-43.55224 -9.96079,-47.02151 -2.45465,-1.11841 -3.36765,0.33581 -1.52645,2.4313 2.8149,3.20367 6.16829,19.33452 6.16209,29.64155 -0.0245,40.74567 -20.99933,44.36432 -73.63569,12.70393 C 425.88474,355.20296 421.98836,353 421.7025,353 c -0.28586,0 -6.74837,-3.76102 -14.36112,-8.35782 C 399.72862,340.04537 392.4875,335.96505 391.25,335.57479 390.0125,335.18453 389,334.44555 389,333.93261 389,333.41968 388.5623,333 388.02734,333 c -0.53497,0 -3.34747,-1.07342 -6.25,-2.38538 -2.90254,-1.31196 -7.40994,-3.33696 -10.01644,-4.5 -15.65106,-6.98361 -41.87445,2.86329 -49.27271,18.50193 -3.69952,7.82014 -3.17406,7.97305 4.69473,1.36613 C 341.31922,334.11334 349.94785,330 360.7101,330 c 5.86746,0 5.56149,0.72463 -4.53625,10.74312 -10.30454,10.22367 -15.25755,18.36604 -18.14618,29.83095 -3.64514,14.46752 -1.64524,21.94522 9.9592,37.23778 14.73286,19.41523 65.02275,34.98267 87.54779,27.10077 14.33154,-5.01485 29.90377,-16.07135 35.58467,-25.26562 5.6738,-9.18278 7.68933,-10.76954 13.26636,-10.44423 9.99095,0.58278 6.13003,14.09944 -10.05208,35.19128 -7.53797,9.82503 -7.18252,11.59003 1.45282,7.21417 z m -86.75557,-39.8735 c -14.39088,-7.61008 -9.68479,-29.33646 6.60978,-30.51511 9.22982,-0.66762 15.41934,3.73163 17.38679,12.35778 3.17959,13.94071 -11.2802,24.88191 -23.99657,18.15733 z m 15.92833,-3.35384 c 11.03033,-9.2814 5.76226,-24.36658 -8.51302,-24.37714 -5.27058,-0.004 -9.34415,2.86485 -12.32618,8.68052 -5.75206,11.21791 11.08765,23.90201 20.8392,15.69662 z m 226.54304,4.10118 c -15.80048,-8.54148 -10.74756,-31.64873 6.92071,-31.64873 15.94761,0 22.49021,20.9717 9.44133,30.26332 -4.13812,2.9466 -12.20979,3.63005 -16.36204,1.38541 z m 13.59165,-3.03061 c 7.8343,-4.05127 9.3681,-14.77916 3.06096,-21.40934 -6.26874,-6.58981 -17.03704,-5.59014 -21.5193,1.99772 -7.08522,11.99432 6.06295,25.82153 18.45834,19.41162 z M 252.99988,227.4572 C 242.82495,223.30866 229.325,217.87616 223,215.38497 c -6.325,-2.49118 -13.3,-5.3264 -15.5,-6.30049 -2.2,-0.97409 -6.7,-2.80178 -10,-4.06153 -7.91218,-3.02041 -8.98897,-3.46164 -15.77964,-6.46594 C 178.54157,197.15065 175.68457,196 175.37149,196 c -0.31308,0 -1.98724,-0.66832 -3.72036,-1.48516 C 167.49512,192.55606 150.18854,186.32 142,183.83067 c -10.83974,-3.29529 -30.14653,-3.05197 -46.5,0.58605 -64.747851,14.4039 -103.4841869,-13.16249 -71.986276,-51.22843 3.043849,-3.67856 5.952191,-7.20902 6.462982,-7.84546 C 42.637681,109.56734 42.52089,94.858464 29.533127,69.47745 11.289623,33.825538 23.423336,14.259518 63.5,14.704722 c 38.8829,0.431943 62.04642,19.922548 69.05518,58.105473 5.4863,29.888735 16.3288,40.598655 55.44482,54.766855 16.11674,5.83764 21.82032,7.93203 51,18.72749 9.625,3.56092 25.2625,9.28696 34.75,12.72455 10.01436,3.62848 17.25,6.78361 17.25,7.52192 0,0.69947 -1.50772,4.79914 -3.35048,9.11038 -7.52987,17.61648 -10.13741,27.856 -11.73671,46.08861 -1.40287,15.99324 0.90516,15.41835 -22.91293,5.7072 z M 273.0059,225.75 c 0.014,-14.87819 4.32755,-33.49677 11.61415,-50.13056 1.89869,-4.33431 3.32342,-7.96588 3.16606,-8.07017 -0.15736,-0.10429 -5.46111,-2.10838 -11.78611,-4.45354 -6.325,-2.34516 -12.4,-4.62761 -13.5,-5.07212 -1.1,-0.44452 -6.95,-2.62074 -13,-4.83606 -6.05,-2.21531 -17.075,-6.27751 -24.5,-9.02711 -7.425,-2.74959 -18.675,-6.87608 -25,-9.16997 -22.44288,-8.13936 -35.29356,-13.13534 -37.87967,-14.72655 C 148.85817,112.10385 141.57942,105.2519 136.82189,96.448893 133.83226,90.9171 130,78.097194 130,73.627912 130,64.063703 121.46225,45.705331 112.6168,36.249511 90.367076,12.464487 37.37067,10.191623 26.430163,32.553214 20.974243,43.704713 22.416806,50.684254 34.996574,74 c 11.949325,22.147262 9.310508,38.72418 -9.859767,61.93859 -29.9805371,36.30518 6.795336,58.93892 73.363193,45.15143 19.78156,-4.09714 41.68299,-2.36929 57.15113,4.5088 1.73312,0.77065 3.53312,1.40279 4,1.40477 0.46688,0.002 11.42387,4.29371 24.34887,9.53719 12.925,5.24348 32.95,13.3324 44.5,17.97537 11.55,4.64297 25.725,10.42637 31.5,12.85199 13.69488,5.75213 12.99886,5.83872 13.0059,-1.61814 z m 493.57187,3 c -0.25319,-1.2375 -0.9677,-5.4 -1.58781,-9.25 -2.40498,-14.9316 -7.87236,-35.80679 -11.52395,-44 -8.99964,-20.19285 -10.51256,-16.75265 10.74667,-24.43654 9.50803,-3.43655 18.18732,-6.61589 19.28732,-7.06519 1.1,-0.44931 2.9,-1.13504 4,-1.52387 7.51963,-2.65801 24.37301,-8.76994 31.5,-11.42358 4.675,-1.74067 11.65,-4.22353 15.5,-5.51747 32.92367,-11.06527 50.15458,-25.87635 53.55341,-46.032626 4.05502,-24.04768 6.83837,-31.865149 15.36195,-43.146362 8.19899,-10.851617 21.33556,-19.524988 32.97927,-21.774437 1.15795,-0.223705 4.13037,-0.884703 6.60537,-1.468885 11.48779,-2.711496 34.61101,-0.952015 42.7365,3.251886 19.1014,9.882536 20.4269,26.757707 4.35132,55.400109 -10.99219,19.585205 -9.58546,33.691445 5.28404,52.986745 13.85844,17.98337 15.62814,21.41454 15.62814,30.30124 0,23.62652 -39.57913,36.85907 -81.5,27.24803 -28.88114,-6.62146 -45.99309,-4.8895 -71,7.18619 -6.05,2.92151 -13.925,6.65708 -17.5,8.30126 -3.575,1.64418 -10.48218,4.83984 -15.34929,7.10146 -4.86712,2.26162 -9.00346,4.11204 -9.19188,4.11204 -0.18842,0 -5.58995,2.475 -12.0034,5.5 -6.41346,3.025 -11.8333,5.5 -12.0441,5.5 -0.2108,0 -5.59085,2.475 -11.95567,5.5 -13.19435,6.27086 -13.25685,6.28549 -13.87789,3.25 z M 784,220.74267 c 5.775,-2.73882 14.55,-6.76528 19.5,-8.9477 4.95,-2.18242 12.15,-5.46793 16,-7.30114 3.85,-1.83321 11.725,-5.43366 17.5,-8.00099 5.775,-2.56734 15.225,-7.05364 21,-9.96956 19.12798,-9.65812 41.29632,-12.95431 61.14304,-9.09131 28.70095,5.58641 33.49191,5.99462 49.35696,4.20534 37.4377,-4.22225 50.0896,-22.18403 31.8942,-45.27967 C 986.19175,118.33031 983.9108,114.5944 981.53291,105.46504 978.47477,93.724058 980.24975,83.563331 987.72831,70 999.70333,48.281751 1001.2067,41.383094 996.25185,30.886075 984.28201,5.5272769 926.8481,9.6343078 906.28831,37.319262 c -8.67096,11.675954 -11.6844,19.183185 -14.37384,35.808806 -3.35547,20.742915 -9.90101,30.911232 -27.21021,42.270312 -7.30854,4.79619 -9.43414,5.72986 -28.70426,12.60842 -7.975,2.84671 -19.225,6.89755 -25,9.00188 -5.775,2.10432 -18.825,6.82947 -29,10.50032 -10.175,3.67085 -19.4,7.04483 -20.5,7.49773 -1.1,0.4529 -4.30895,1.6063 -7.131,2.56312 l -5.13101,1.73966 2.39982,4.77793 c 6.07816,12.10135 14.54568,41.05228 15.91448,54.41256 1.05247,10.27275 -0.14114,10.11 16.44771,2.24267 z M 292.5,155.00919 c -1.1,-0.4705 -8.3,-3.16681 -16,-5.9918 -7.7,-2.82499 -15.575,-5.751 -17.5,-6.50225 -1.925,-0.75125 -6.875,-2.56056 -11,-4.0207 -4.125,-1.46014 -8.4,-3.01546 -9.5,-3.45627 -1.1,-0.44081 -5.375,-2.01394 -9.5,-3.49584 -4.125,-1.48191 -9.075,-3.30159 -11,-4.04373 -1.925,-0.74215 -6.875,-2.5515 -11,-4.02078 -4.125,-1.46928 -8.91801,-3.30286 -10.65113,-4.07462 C 194.61575,118.63144 192.69714,118 192.0853,118 c -0.61184,0 -1.89383,-0.4179 -2.84887,-0.92868 -0.95504,-0.51077 -6.10156,-2.56203 -11.43673,-4.55837 C 154.6655,103.85652 145.5837,92.376428 142.50868,67.902424 137.19114,25.580214 89.961424,-4.7750602 45.480339,5.5407925 9.6829935,13.842751 0.57192062,40.773528 21.473808,76.5 c 11.148613,19.055725 9.596828,33.7185 -5.238664,49.5 -3.89159,4.13974 -12.200929,16.99236 -12.8257756,19.8385 -1.5167546,6.90873 -2.2490088,7.81105 -2.330421,2.87166 -0.0964571,-5.85217 2.1767726,-10.61374 9.7973966,-20.52192 3.093011,-4.02147 6.846074,-8.90507 8.34014,-10.85245 9.6838,-12.62198 9.103128,-22.67273 -2.52011,-43.620139 C 5.6664855,53.837576 4.4469811,42.174733 11.706533,25.994847 26.771964,-7.5825599 98.08784,-6.7757673 126.17649,27.289839 128.5393,30.155428 130.74243,32.725 131.07233,33 c 4.16562,3.472351 12.09217,23.371613 14.34003,36 4.55409,25.584768 11.2622,32.73407 41.08764,43.78996 30.48137,11.29904 77.25096,28.55042 87,32.09071 6.05,2.19702 13.47211,4.92391 16.49358,6.05976 l 5.49357,2.06519 1.74853,-2.25281 C 298.19737,149.51377 300.79602,145.575 303.01045,142 316.01564,121.00431 330.06168,105.13674 346,93.43545 422.12535,37.5472 528.72022,22.922588 629.36563,54.558228 c 51.87564,16.305953 76.71818,34.974654 105.82134,79.522782 l 7.0557,10.80013 5.62866,-2.00646 c 3.09577,-1.10355 7.20367,-2.63272 9.12867,-3.39816 1.925,-0.76543 14.975,-5.50661 29,-10.53595 22.28687,-7.99203 46.04096,-16.56231 59.74612,-21.55591 C 863.80909,100.80325 873.38351,88.831673 876.44472,69 882.38901,30.490653 911.16287,0.65380436 941.9315,1.0939659 l 6.5685,0.093966 -6.84954,1.3613322 C 905.25076,9.7836352 883.28718,34.727984 878.06222,74.76736 875.54457,94.060363 864.82125,103.64221 833,115.0328 c -7.975,2.85469 -17.425,6.28537 -21,7.62373 -3.575,1.33837 -9.2,3.34532 -12.5,4.45991 -3.3,1.11458 -6.9,2.41453 -8,2.88877 -1.1,0.47424 -5.825,2.20066 -10.5,3.8365 -4.675,1.63584 -12.325,4.38152 -17,6.10152 -25.54806,9.39951 -23.4605,9.00779 -25.61681,4.80677 C 720.54139,109.98984 685.35583,77.678241 652.58614,65.960892 649.78876,64.960642 644.35,62.937115 640.5,61.464164 604.3699,47.641345 565.90075,41.206011 521.5,41.557179 494.99399,41.766816 489.84259,42.18549 465.29221,46.125396 428.4803,52.033062 379.41599,71.655158 355,90.234126 c -1.375,1.046284 -5.2,3.928713 -8.5,6.405396 -11.45577,8.597668 -25.22917,23.289458 -34,36.267048 -9.42041,13.93873 -12.57609,18.7497 -13.17999,20.09343 -1.32217,2.94196 -3.28637,3.52062 -6.82001,2.00919 z M 1020.6225,146 c -1.5077,-6.08935 -9.7067,-19.6779 -14.1794,-23.5 -13.64942,-11.66402 -16.11512,-31.037387 -6.1091,-48 11.5015,-19.497573 14.0008,-30.274774 10.0817,-43.471907 C 1006.1615,16.70256 995.50813,7.3437391 978,2.5513301 l -5.5,-1.5054861 6.54967,0.261715 C 1007.6222,2.449275 1023.5119,36.643534 1008.6469,65 c -11.34469,21.641039 -11.99157,23.114004 -12.40669,28.250367 -0.5116,6.330134 2.20372,14.217643 7.02359,20.402153 16.6292,21.3376 18.9997,25.38713 18.535,31.66398 l -0.3098,4.1835 -0.8665,-3.5 z"
     id="path3008"
     inkscape:connector-curvature="0" />
</svg>
