<?xml version="1.0" encoding="UTF-8" standalone="no"?>
<!-- Created with Inkscape (http://www.inkscape.org/) -->

<svg
   xmlns:dc="http://purl.org/dc/elements/1.1/"
   xmlns:cc="http://creativecommons.org/ns#"
   xmlns:rdf="http://www.w3.org/1999/02/22-rdf-syntax-ns#"
   xmlns:svg="http://www.w3.org/2000/svg"
   xmlns="http://www.w3.org/2000/svg"
   xmlns:sodipodi="http://sodipodi.sourceforge.net/DTD/sodipodi-0.dtd"
   xmlns:inkscape="http://www.inkscape.org/namespaces/inkscape"
   id="svg3872"
   version="1.1"
   inkscape:version="0.48.1 "
   width="1030"
   height="710"
   sodipodi:docname="C:\temp\ink_ext_XXXXXX.svg4LPDZW">
  <sodipodi:namedview
     pagecolor="#ffffff"
     bordercolor="#666666"
     borderopacity="1"
     objecttolerance="10"
     gridtolerance="10"
     guidetolerance="10"
     inkscape:pageopacity="0"
     inkscape:pageshadow="2"
     inkscape:window-width="1366"
     inkscape:window-height="716"
     id="namedview3874"
     showgrid="false"
     inkscape:zoom="0.74225352"
     inkscape:cx="515"
     inkscape:cy="355"
     inkscape:window-x="-8"
     inkscape:window-y="-8"
     inkscape:window-maximized="1"
     inkscape:current-layer="svg3872" />
  <metadata
     id="metadata3878">
    <rdf:RDF>
      <cc:Work
         rdf:about="">
        <dc:format>image/svg+xml</dc:format>
        <dc:type
           rdf:resource="http://purl.org/dc/dcmitype/StillImage" />
        <dc:title></dc:title>
      </cc:Work>
    </rdf:RDF>
  </metadata>
  <defs
     id="defs3876" />
  <path
     inkscape:connector-curvature="0"
     id="path3934"
     d="m 458.01138,705.38422 -11.48492,-6.74917 -10.80701,-11.1226 -20.45712,-36.48031 -15.85626,-49.77508 -1.08408,-1.86617 -18.52292,-19.34185 2.26713,-25.11735 5.53422,-10.32923 4.41888,-9.92744 -1.56664,-6.35062 -7.31151,-2.533 -12.81574,1.52541 -21.33404,2.85971 -18.96861,-0.79807 -12.41484,-2.28784 -5.89076,-2.61391 -2.83161,-1.87898 -6.05981,-3.65171 -4.78764,-3.65171 -8.93176,4.66214 -9.38085,5.67259 -2.26145,1.01044 -3.59267,1.73517 -6.49566,4.079 -7.40987,3.99063 -20.31236,21.38232 -3.06064,17.49556 1.67153,21.15846 0.30164,16.67424 -3.97086,10.74 -8.31053,10.2971 -18.92972,15.46937 -18.82967,4.96676 -17.04525,-4.34631 -15.99352,-15.46874 -1.27963,-2.87731 -2.01258,-5.10904 -2.06486,-6.55344 -4.93112,-15.44589 -8.98245,-12.15779 -15.35674,-7.8549 -18.52132,-4.12172 -17.586135,-7.12302 -12.48557,-13.76337 -3.86727,-14.82764 1.83732,-17.14444 6.99298,-17.31886 11.59972,-15.35087 14.911475,-11.5331 12.49383,-5.49312 4.08758,-1.68406 37.6556,-2.38861 39.34149,-2.18538 8.66589,-3.1764 18.46333,-9.60303 14.04346,-7.90749 5.78715,-3.86186 7.94055,-4.80616 3.03131,-2.04363 2.35768,-1.85842 9.09393,-4.8496 9.43074,-5.48065 12.44219,-9.53712 0.69349,-32.45504 -3.73227,-4.49082 -8.61165,-18.60174 -2.23179,-16.63431 4.67253,-16.7547 7.13298,-14.43809 2.59891,-8.08349 -4.71285,-16.82866 -2.20731,-21.07396 -0.70515,-14.69907 -2.37636,-4.24272 -16.08011,-6.83276 -4.39684,-1.25073 -4.39684,-1.23399 -7.7284,-3.40355 -9.20311,-4.15501 -5.85475,-1.98544 -5.61662,-1.81629 -19.06935,-8.28807 -10.77799,-4.39273 -31.88797,-12.45175 -5.389,-1.91969 -14.94483,-4.80552 -18.50875,-0.967 -20.20873,2.04038 -37.829375,4.77157 -30.20667,-5.56138 -11.45613,-6.08294 -9.43024,-8.93629 -6.3969204,-10.54935 -2.35618,-10.9221 5.7917604,-18.59133 14.77415,-20.97706 4.8391,-8.40343 1.53996,-11.44494 -1.70844,-12.346254 -6.74534,-12.925827 -3.67145,-7.446909 -2.35769,-5.078954 -2.35768,-16.803566 0.62513,-12.583836 3.97609,-7.82033 10.65928,-10.768087 14.78711,-6.9349067 18.25944,-2.9065111 21.07625,1.3170982 18.334135,4.9909586 15.79623,8.676487 12.87695,12.08586 9.57628,15.219079 8.1596,27.269552 4.95618,15.938716 11.66333,13.51575 19.87345,10.07567 25.4052,9.4175 33.29573,12.24515 5.13168,2.59827 3.26281,1.29736 6.31992,2.01257 6.81073,2.02087 3.78445,1.35555 4.12126,1.34725 3.2886,1.18337 5.05219,2.57316 12.11807,4.08684 7.0659,2.69707 2.70165,-3.79413 2.70166,-4.69894 6.06262,-8.78361 6.06262,-8.77578 3.25079,-4.48089 9.16071,-10.9762 11.90576,-11.9052 8.691,-6.753849 26.00495,-16.64235 33.27332,-16.520216 9.13964,-3.911639 7.16162,-2.216043 5.00647,-1.650763 42.68657,-10.137734 52.49938,-2.457251 52.58601,1.797869 47.82733,10.980624 10.10436,3.422828 39.07021,16.125254 9.85611,5.496023 25.17235,21.505107 4.00826,4.73197 9.67335,11.83488 6.4641,8.40812 11.0039,17.17742 3.3744,3.03131 18.8959,-6.15347 6.8036,-1.93002 3.8382,-1.16489 18.1205,-7.00793 17.2896,-6.9186 4.1092,-1.07557 4.9399,-1.25292 24.1521,-9.19032 14.9639,-6.67072 11.5084,-8.757122 7.6545,-10.444333 3.4022,-11.732365 5.2244,-23.305153 11.8958,-21.339281 7.692,-8.312157 1.6841,-1.285619 27.6186,-15.6094328 27.5621,-2.9061203 26.3278,2.8028133 18.14336,11.6838328 6.7212,11.921383 2.68,14.909851 -2.9152,15.804203 -5.3442,11.183539 -5.7532,10.04023 -4.7749,15.18769 3.4143,13.067981 8.1693,12.09633 12.7852,18.95533 3.1884,10.23699 0.054,12.04062 -6.7712,14.67797 -7.2494,8.11291 -10.896,6.18967 -31.55956,6.60672 -33.1083,-1.81191 -35.0285,-3.82006 -19.6238,2.94978 -40.3287,18.26759 -14.8197,6.75965 -33.4536,15.50112 -5.7258,1.95744 -1.9117,1.2402 -3.705,2.0846 -6.92,3.62616 -2.0903,9.12001 -5.6102,38.57867 -1.7931,11.13708 1.4131,5.2346 10.8475,21.93883 2.6712,10.10437 0.5013,15.65342 -4.9282,17.46063 -5.6629,10.85998 -1.1485,16.66425 0.532,13.59079 2.2824,4.74543 3.5068,2.53404 2.4141,1.38758 19.4782,13.52138 3.0313,2.57192 1.4041,1.3806 3.0313,1.367 21.2239,14.79998 1.2857,1.08797 14.1276,7.09061 22.2481,6.90776 23.5768,0.25786 33.7984,-0.0612 18.0707,5.71568 5.1439,2.5387 23.2649,22.76562 4.4951,8.57051 4.7255,15.10898 0.9698,16.65116 -5.9509,15.76629 -12.4863,11.92693 -22.1087,6.92548 -23.8422,8.72371 -10.6031,10.00782 -5.5537,12.92881 -8.6564,23.91926 -15.2815,13.2483 -19.7629,3.39217 -19.3497,-7.30531 -20.9715,-20.57679 -5.7497,-16.335 1.7468,-17.8986 1.8429,-13.67191 -2.7785,-15.36916 -4.0589,-8.70101 -7.7295,-8.76249 -16.5654,-12.47803 -11.4516,-7.10682 -7.5348,-6.9032 -3.7778,-3.49281 -7.0002,3.42535 -15.6497,6.33706 -16.3014,2.40545 -40.39072,-1.3317 -6.2961,0.16244 -1.53364,2.42169 5.86583,20.88235 6.7494,20.95519 -0.84641,9.46901 -10.97735,15.42456 -7.72603,8.57435 -2.85079,6.92744 -9.03048,30.92868 -1.64665,4.32714 -11.65677,24.72727 -3.23648,3.70493 -1.27373,1.40478 -5.37819,8.68496 -13.71734,13.1326 -15.47084,7.75638 -3.7593,0.20045 -1.17093,-4.06751 -6.32226,-34.92172 -1.33484,-8.34081 -1.25848,-6.02387 -7.07306,2.26192 -15.85169,3.5786 -19.87788,-1.87472 -19.68317,-0.71574 -26.36003,2.37565 -17.35445,-3.95792 -5.00233,1.07261 -5.26219,14.08249 -2.96017,22.52927 -2.13594,15.62455 -8.53735,-0.90731 0,0 0,0"
     style="fill:#e6e6e6;fill-opacity:1;stroke:none" />
</svg>
