G75*
G70*
%OFA0B0*%
%FSLAX24Y24*%
%IPPOS*%
%LPD*%
%AMOC8*
5,1,8,0,0,1.08239X$1,22.5*
%
%ADD10R,0.0077X0.0039*%
%ADD11R,0.0039X0.0039*%
%ADD12R,0.0077X0.0038*%
%ADD13R,0.0116X0.0039*%
%ADD14R,0.0115X0.0039*%
%ADD15R,0.0154X0.0039*%
%ADD16R,0.0193X0.0039*%
%ADD17R,0.0154X0.0039*%
%ADD18R,0.0270X0.0039*%
%ADD19R,0.0192X0.0039*%
%ADD20R,0.0308X0.0039*%
%ADD21R,0.0269X0.0039*%
%ADD22R,0.0308X0.0039*%
%ADD23R,0.0346X0.0039*%
%ADD24R,0.0424X0.0039*%
%ADD25R,0.0462X0.0038*%
%ADD26R,0.0385X0.0038*%
%ADD27R,0.0462X0.0039*%
%ADD28R,0.0501X0.0039*%
%ADD29R,0.0539X0.0039*%
%ADD30R,0.0616X0.0039*%
%ADD31R,0.0578X0.0039*%
%ADD32R,0.0347X0.0039*%
%ADD33R,0.0654X0.0039*%
%ADD34R,0.0500X0.0039*%
%ADD35R,0.0385X0.0039*%
%ADD36R,0.0616X0.0038*%
%ADD37R,0.0654X0.0038*%
%ADD38R,0.0539X0.0038*%
%ADD39R,0.0693X0.0039*%
%ADD40R,0.0616X0.0039*%
%ADD41R,0.0770X0.0039*%
%ADD42R,0.0731X0.0039*%
%ADD43R,0.0577X0.0039*%
%ADD44R,0.0809X0.0039*%
%ADD45R,0.0886X0.0039*%
%ADD46R,0.0655X0.0039*%
%ADD47R,0.0847X0.0039*%
%ADD48R,0.1001X0.0039*%
%ADD49R,0.0924X0.0039*%
%ADD50R,0.1039X0.0039*%
%ADD51R,0.0962X0.0039*%
%ADD52R,0.1116X0.0039*%
%ADD53R,0.1078X0.0039*%
%ADD54R,0.1155X0.0039*%
%ADD55R,0.1155X0.0038*%
%ADD56R,0.0809X0.0038*%
%ADD57R,0.0616X0.0038*%
%ADD58R,0.0731X0.0038*%
%ADD59R,0.1232X0.0039*%
%ADD60R,0.1194X0.0039*%
%ADD61R,0.1271X0.0039*%
%ADD62R,0.1309X0.0039*%
%ADD63R,0.1309X0.0039*%
%ADD64R,0.1348X0.0039*%
%ADD65R,0.1347X0.0038*%
%ADD66R,0.0693X0.0038*%
%ADD67R,0.0077X0.0038*%
%ADD68R,0.0269X0.0038*%
%ADD69R,0.1309X0.0038*%
%ADD70R,0.1347X0.0039*%
%ADD71R,0.1386X0.0039*%
%ADD72R,0.0231X0.0039*%
%ADD73R,0.0231X0.0039*%
%ADD74R,0.1386X0.0039*%
%ADD75R,0.1424X0.0039*%
%ADD76R,0.1463X0.0039*%
%ADD77R,0.1501X0.0039*%
%ADD78R,0.1540X0.0039*%
%ADD79R,0.1579X0.0039*%
%ADD80R,0.1655X0.0039*%
%ADD81R,0.1694X0.0038*%
%ADD82R,0.0308X0.0038*%
%ADD83R,0.0578X0.0038*%
%ADD84R,0.0231X0.0038*%
%ADD85R,0.1656X0.0038*%
%ADD86R,0.1809X0.0039*%
%ADD87R,0.1733X0.0039*%
%ADD88R,0.1886X0.0039*%
%ADD89R,0.1810X0.0039*%
%ADD90R,0.2040X0.0039*%
%ADD91R,0.2656X0.0039*%
%ADD92R,0.2233X0.0039*%
%ADD93R,0.2734X0.0039*%
%ADD94R,0.2079X0.0039*%
%ADD95R,0.2425X0.0039*%
%ADD96R,0.2811X0.0039*%
%ADD97R,0.0462X0.0039*%
%ADD98R,0.2271X0.0039*%
%ADD99R,0.2502X0.0039*%
%ADD100R,0.2849X0.0039*%
%ADD101R,0.0539X0.0039*%
%ADD102R,0.2426X0.0039*%
%ADD103R,0.2579X0.0039*%
%ADD104R,0.2964X0.0039*%
%ADD105R,0.2541X0.0039*%
%ADD106R,0.3080X0.0039*%
%ADD107R,0.4928X0.0039*%
%ADD108R,0.2734X0.0038*%
%ADD109R,0.4928X0.0038*%
%ADD110R,0.2695X0.0038*%
%ADD111R,0.2772X0.0039*%
%ADD112R,0.4889X0.0039*%
%ADD113R,0.4851X0.0039*%
%ADD114R,0.2849X0.0039*%
%ADD115R,0.4813X0.0039*%
%ADD116R,0.2888X0.0039*%
%ADD117R,0.4736X0.0039*%
%ADD118R,0.2926X0.0039*%
%ADD119R,0.2926X0.0039*%
%ADD120R,0.2965X0.0039*%
%ADD121R,0.4697X0.0039*%
%ADD122R,0.3003X0.0039*%
%ADD123R,0.4659X0.0039*%
%ADD124R,0.3003X0.0039*%
%ADD125R,0.3041X0.0038*%
%ADD126R,0.4620X0.0038*%
%ADD127R,0.4620X0.0039*%
%ADD128R,0.3157X0.0039*%
%ADD129R,0.3119X0.0039*%
%ADD130R,0.3196X0.0039*%
%ADD131R,0.4581X0.0039*%
%ADD132R,0.3273X0.0039*%
%ADD133R,0.3234X0.0039*%
%ADD134R,0.3272X0.0039*%
%ADD135R,0.3349X0.0039*%
%ADD136R,0.0847X0.0039*%
%ADD137R,0.1656X0.0039*%
%ADD138R,0.3311X0.0039*%
%ADD139R,0.3426X0.0039*%
%ADD140R,0.1617X0.0039*%
%ADD141R,0.3388X0.0039*%
%ADD142R,0.3504X0.0038*%
%ADD143R,0.1463X0.0038*%
%ADD144R,0.0539X0.0038*%
%ADD145R,0.1579X0.0038*%
%ADD146R,0.3465X0.0038*%
%ADD147R,0.3542X0.0039*%
%ADD148R,0.3504X0.0039*%
%ADD149R,0.3542X0.0039*%
%ADD150R,0.3619X0.0039*%
%ADD151R,0.3657X0.0039*%
%ADD152R,0.1578X0.0039*%
%ADD153R,0.3696X0.0039*%
%ADD154R,0.3581X0.0039*%
%ADD155R,0.1617X0.0039*%
%ADD156R,0.3619X0.0039*%
%ADD157R,0.1694X0.0039*%
%ADD158R,0.3465X0.0039*%
%ADD159R,0.1732X0.0039*%
%ADD160R,0.1771X0.0039*%
%ADD161R,0.3388X0.0038*%
%ADD162R,0.3311X0.0038*%
%ADD163R,0.0154X0.0038*%
%ADD164R,0.3349X0.0038*%
%ADD165R,0.3196X0.0038*%
%ADD166R,0.3195X0.0039*%
%ADD167R,0.3041X0.0039*%
%ADD168R,0.3503X0.0039*%
%ADD169R,0.1270X0.0039*%
%ADD170R,0.1078X0.0038*%
%ADD171R,0.3619X0.0038*%
%ADD172R,0.3619X0.0038*%
%ADD173R,0.0924X0.0038*%
%ADD174R,0.1040X0.0039*%
%ADD175R,0.0963X0.0039*%
%ADD176R,0.3734X0.0039*%
%ADD177R,0.0693X0.0039*%
%ADD178R,0.3773X0.0039*%
%ADD179R,0.3811X0.0039*%
%ADD180R,0.3811X0.0038*%
%ADD181R,0.3850X0.0038*%
%ADD182R,0.0346X0.0038*%
%ADD183R,0.0423X0.0039*%
%ADD184R,0.3850X0.0039*%
%ADD185R,0.3889X0.0039*%
%ADD186R,0.3888X0.0039*%
%ADD187R,0.3927X0.0039*%
%ADD188R,0.3966X0.0039*%
%ADD189R,0.0077X0.0039*%
%ADD190R,0.2002X0.0039*%
%ADD191R,0.1925X0.0039*%
%ADD192R,0.1694X0.0039*%
%ADD193R,0.1617X0.0038*%
%ADD194R,0.0231X0.0038*%
%ADD195R,0.1540X0.0038*%
%ADD196R,0.0116X0.0038*%
%ADD197R,0.1078X0.0039*%
%ADD198R,0.1039X0.0038*%
%ADD199R,0.0270X0.0038*%
%ADD200R,0.0886X0.0038*%
%ADD201R,0.1040X0.0038*%
%ADD202R,0.0924X0.0039*%
%ADD203R,0.0424X0.0038*%
%ADD204R,0.0770X0.0038*%
%ADD205R,0.0655X0.0038*%
%ADD206R,0.0732X0.0039*%
%ADD207R,0.0885X0.0039*%
%ADD208R,0.1001X0.0039*%
%ADD209R,0.0038X0.0039*%
%ADD210R,0.0577X0.0038*%
%ADD211R,0.0115X0.0038*%
%ADD212R,0.1424X0.0038*%
%ADD213R,0.1078X0.0038*%
%ADD214R,0.1771X0.0039*%
%ADD215R,0.1964X0.0039*%
%ADD216R,0.2156X0.0038*%
%ADD217R,0.0462X0.0038*%
%ADD218R,0.2117X0.0038*%
%ADD219R,0.2156X0.0039*%
%ADD220R,0.2310X0.0039*%
%ADD221R,0.2349X0.0039*%
%ADD222R,0.2464X0.0039*%
%ADD223R,0.1232X0.0039*%
%ADD224R,0.2541X0.0039*%
%ADD225R,0.4004X0.0039*%
%ADD226R,0.3965X0.0039*%
%ADD227R,0.3927X0.0039*%
%ADD228R,0.3889X0.0038*%
%ADD229R,0.4774X0.0039*%
%ADD230R,0.8547X0.0039*%
%ADD231R,0.8470X0.0039*%
%ADD232R,0.8393X0.0039*%
%ADD233R,0.8277X0.0039*%
%ADD234R,0.8201X0.0039*%
%ADD235R,0.8162X0.0039*%
%ADD236R,0.8085X0.0039*%
%ADD237R,0.8046X0.0039*%
%ADD238R,0.7969X0.0038*%
%ADD239R,0.7893X0.0039*%
%ADD240R,0.7816X0.0039*%
%ADD241R,0.7739X0.0039*%
%ADD242R,0.7661X0.0039*%
%ADD243R,0.7584X0.0039*%
%ADD244R,0.7546X0.0039*%
%ADD245R,0.7469X0.0039*%
%ADD246R,0.7392X0.0039*%
%ADD247R,0.7315X0.0038*%
%ADD248R,0.7276X0.0039*%
%ADD249R,0.7238X0.0039*%
%ADD250R,0.7200X0.0039*%
%ADD251R,0.7161X0.0039*%
%ADD252R,0.7123X0.0039*%
%ADD253R,0.7046X0.0039*%
%ADD254R,0.6969X0.0039*%
%ADD255R,0.6969X0.0038*%
%ADD256R,0.6891X0.0039*%
%ADD257R,0.6853X0.0039*%
%ADD258R,0.0039X0.0038*%
%ADD259R,0.6853X0.0038*%
%ADD260R,0.6930X0.0039*%
%ADD261R,0.7007X0.0039*%
%ADD262R,0.7816X0.0038*%
%ADD263R,0.8586X0.0039*%
%ADD264R,0.8509X0.0039*%
%ADD265R,0.1848X0.0039*%
%ADD266R,0.8431X0.0039*%
%ADD267R,0.2079X0.0038*%
%ADD268R,0.8431X0.0038*%
%ADD269R,0.8354X0.0039*%
%ADD270R,0.8316X0.0039*%
%ADD271R,0.2695X0.0039*%
%ADD272R,0.2156X0.0039*%
%ADD273R,0.4966X0.0039*%
%ADD274R,0.8239X0.0039*%
%ADD275R,0.5044X0.0039*%
%ADD276R,0.8200X0.0039*%
%ADD277R,0.5082X0.0039*%
%ADD278R,0.5159X0.0038*%
%ADD279R,0.8123X0.0038*%
%ADD280R,0.4774X0.0038*%
%ADD281R,0.5198X0.0039*%
%ADD282R,0.8123X0.0039*%
%ADD283R,0.5275X0.0039*%
%ADD284R,0.8047X0.0039*%
%ADD285R,0.4851X0.0039*%
%ADD286R,0.4890X0.0039*%
%ADD287R,0.5236X0.0039*%
%ADD288R,0.7970X0.0039*%
%ADD289R,0.4928X0.0039*%
%ADD290R,0.5121X0.0039*%
%ADD291R,0.5005X0.0039*%
%ADD292R,0.4967X0.0039*%
%ADD293R,0.7739X0.0038*%
%ADD294R,0.4736X0.0038*%
%ADD295R,0.4505X0.0039*%
%ADD296R,0.7700X0.0039*%
%ADD297R,0.4351X0.0039*%
%ADD298R,0.4543X0.0039*%
%ADD299R,0.4235X0.0039*%
%ADD300R,0.4428X0.0039*%
%ADD301R,0.4158X0.0039*%
%ADD302R,0.7507X0.0039*%
%ADD303R,0.4274X0.0039*%
%ADD304R,0.4158X0.0039*%
%ADD305R,0.7430X0.0039*%
%ADD306R,0.4043X0.0039*%
%ADD307R,0.7353X0.0039*%
%ADD308R,0.7277X0.0039*%
%ADD309R,0.7238X0.0039*%
%ADD310R,0.7200X0.0038*%
%ADD311R,0.3234X0.0039*%
%ADD312R,0.2810X0.0039*%
%ADD313R,0.6776X0.0039*%
%ADD314R,0.6699X0.0039*%
%ADD315R,0.2387X0.0039*%
%ADD316R,0.6622X0.0039*%
%ADD317R,0.6545X0.0039*%
%ADD318R,0.2233X0.0038*%
%ADD319R,0.6430X0.0038*%
%ADD320R,0.2310X0.0038*%
%ADD321R,0.2194X0.0039*%
%ADD322R,0.6353X0.0039*%
%ADD323R,0.6237X0.0039*%
%ADD324R,0.2041X0.0039*%
%ADD325R,0.6160X0.0039*%
%ADD326R,0.2118X0.0039*%
%ADD327R,0.6044X0.0039*%
%ADD328R,0.5929X0.0039*%
%ADD329R,0.5814X0.0039*%
%ADD330R,0.5698X0.0039*%
%ADD331R,0.5583X0.0039*%
%ADD332R,0.5429X0.0039*%
%ADD333R,0.1848X0.0038*%
%ADD334R,0.5313X0.0038*%
%ADD335R,0.5197X0.0039*%
%ADD336R,0.4504X0.0039*%
%ADD337R,0.4350X0.0039*%
%ADD338R,0.4120X0.0039*%
%ADD339R,0.1848X0.0039*%
%ADD340R,0.1886X0.0038*%
%ADD341R,0.3311X0.0038*%
%ADD342R,0.1848X0.0038*%
%ADD343R,0.1887X0.0039*%
%ADD344R,0.1425X0.0039*%
%ADD345R,0.1964X0.0038*%
%ADD346R,0.2002X0.0038*%
%ADD347R,0.1771X0.0038*%
%ADD348C,0.0010*%
%ADD349C,0.0050*%
D10*
X007956Y002577D03*
X009688Y002462D03*
X010766Y002462D03*
X012499Y002616D03*
X010189Y004425D03*
X010189Y004464D03*
X009996Y006889D03*
X014385Y008352D03*
X014655Y005465D03*
X016541Y001499D03*
X008649Y000768D03*
D11*
X011786Y000768D03*
X015059Y005272D03*
X014674Y005503D03*
X014404Y008314D03*
X010362Y006812D03*
X010208Y006504D03*
X009977Y006851D03*
X005742Y005388D03*
D12*
X008649Y000806D03*
X011806Y000806D03*
D13*
X011209Y002423D03*
X010246Y002539D03*
X010208Y004310D03*
X010208Y004348D03*
X010208Y004387D03*
X010015Y006928D03*
X005896Y008237D03*
X015097Y005234D03*
X008629Y000845D03*
D14*
X009207Y002385D03*
X011825Y000883D03*
X011825Y000845D03*
X005742Y005349D03*
X005318Y005272D03*
X010323Y006928D03*
X010323Y007005D03*
X010323Y007043D03*
X010323Y007082D03*
X010323Y007120D03*
X010323Y007159D03*
X014943Y009392D03*
D15*
X010959Y006042D03*
X010189Y006466D03*
X009419Y006042D03*
X005915Y008275D03*
X012499Y002693D03*
X012499Y002654D03*
X009688Y002423D03*
X008610Y000883D03*
X015117Y005195D03*
X015155Y005157D03*
D16*
X014366Y008391D03*
X010169Y006427D03*
X010054Y007005D03*
X010054Y007043D03*
X010054Y007082D03*
X010054Y007120D03*
X010054Y007159D03*
X010054Y007197D03*
X009361Y006504D03*
X010208Y004233D03*
X010208Y004194D03*
X009669Y002385D03*
X009669Y001499D03*
X008591Y000922D03*
D17*
X010766Y002423D03*
X011844Y000922D03*
X007956Y002616D03*
X005261Y005234D03*
X005761Y005311D03*
X010304Y007197D03*
X010304Y007236D03*
X005299Y009315D03*
D18*
X009399Y005965D03*
X009361Y005888D03*
X010169Y006350D03*
X010169Y006389D03*
X014327Y008468D03*
X012479Y002770D03*
X008591Y000960D03*
D19*
X009207Y002423D03*
X007936Y002654D03*
X010785Y002385D03*
X010785Y001499D03*
X011863Y000960D03*
X010631Y005580D03*
X013365Y007390D03*
X014982Y009430D03*
D20*
X013577Y007197D03*
X010882Y005272D03*
X010497Y005734D03*
X009342Y005850D03*
X008572Y001037D03*
X008572Y000999D03*
D21*
X010246Y002577D03*
X011940Y002654D03*
X010208Y004117D03*
X009553Y005311D03*
X009592Y005349D03*
X009630Y005388D03*
X009823Y005657D03*
X010747Y005388D03*
X011016Y005850D03*
X010978Y005888D03*
X010978Y005927D03*
X013480Y007313D03*
X014597Y005349D03*
X015213Y005080D03*
X011863Y000999D03*
X008514Y002654D03*
X007936Y002693D03*
X006897Y007313D03*
X005973Y008352D03*
D22*
X005992Y008391D03*
X006839Y007274D03*
X006801Y007236D03*
X009265Y005734D03*
X009303Y005773D03*
X009842Y005696D03*
X009496Y005272D03*
X009457Y005234D03*
X010805Y005349D03*
X010843Y005311D03*
X011113Y005734D03*
X011074Y005773D03*
X010189Y004079D03*
X011228Y002539D03*
X011228Y002500D03*
X010805Y002308D03*
X009650Y002308D03*
X009188Y002500D03*
X011883Y001076D03*
X011883Y001037D03*
X012499Y002808D03*
X013538Y007236D03*
X013500Y007274D03*
X015040Y009469D03*
X005184Y005157D03*
D23*
X005164Y005118D03*
X006704Y007159D03*
X006743Y007197D03*
X009207Y005657D03*
X009245Y005696D03*
X009861Y005734D03*
X010439Y005773D03*
X011132Y005696D03*
X011170Y005657D03*
X010169Y006273D03*
X010169Y006312D03*
X010208Y004040D03*
X010246Y002616D03*
X010785Y002269D03*
X011209Y002577D03*
X012479Y002847D03*
X011902Y001153D03*
X011902Y001114D03*
X008552Y001114D03*
X008552Y001076D03*
X007936Y002770D03*
X013711Y007082D03*
X013673Y007120D03*
X013634Y007159D03*
X014289Y008545D03*
X005203Y009392D03*
D24*
X006011Y008429D03*
X006550Y007005D03*
X006473Y006928D03*
X009091Y005542D03*
X009130Y005580D03*
X009168Y005619D03*
X009399Y005195D03*
X010939Y005234D03*
X011247Y005580D03*
X010208Y003963D03*
X010246Y002654D03*
X010785Y002192D03*
X011209Y002616D03*
X011902Y001230D03*
X008552Y001153D03*
X008514Y002616D03*
X007936Y002808D03*
X007936Y002847D03*
X006781Y003963D03*
X010169Y007274D03*
X013788Y007005D03*
X014250Y008622D03*
X013750Y004002D03*
D25*
X010766Y001576D03*
X009688Y001576D03*
X008533Y001191D03*
X005068Y005041D03*
X006031Y008506D03*
D26*
X011921Y001191D03*
D27*
X011921Y001268D03*
X011921Y001307D03*
X010805Y002154D03*
X011190Y002654D03*
X011921Y002577D03*
X009650Y002192D03*
X009650Y002154D03*
X009188Y002577D03*
X009188Y002616D03*
X008495Y002577D03*
X007956Y002885D03*
X008533Y001230D03*
X015309Y004964D03*
X010189Y006158D03*
X014231Y008660D03*
X006031Y008468D03*
D28*
X006050Y008545D03*
X010208Y006119D03*
X010208Y006081D03*
X011363Y005503D03*
X011401Y005465D03*
X010208Y003925D03*
X010246Y002693D03*
X010785Y002115D03*
X010785Y002077D03*
X010747Y001615D03*
X009669Y002077D03*
X009669Y002115D03*
X009207Y002654D03*
X008514Y002539D03*
X007975Y002924D03*
X008514Y001307D03*
X008514Y001268D03*
X011209Y002693D03*
X011940Y002539D03*
X011940Y001384D03*
X011940Y001345D03*
X015328Y004926D03*
X014212Y008699D03*
X014212Y008737D03*
X009053Y005503D03*
X005049Y005003D03*
D29*
X007994Y002962D03*
X008495Y001384D03*
X008495Y001345D03*
X010766Y002038D03*
X011921Y002500D03*
X015348Y004887D03*
X014193Y008776D03*
X006069Y008583D03*
D30*
X005068Y009507D03*
X010150Y007621D03*
X010227Y005965D03*
X008880Y005388D03*
X010189Y003848D03*
X008495Y002462D03*
X009688Y001923D03*
X009688Y001884D03*
X009688Y001730D03*
X008495Y001461D03*
X008495Y001422D03*
X011960Y001538D03*
X014385Y007159D03*
D31*
X014173Y008814D03*
X014173Y008853D03*
X011055Y006543D03*
X006088Y008622D03*
X006088Y008660D03*
X005010Y004964D03*
X008052Y003001D03*
X009207Y002693D03*
X010747Y001692D03*
X010747Y001653D03*
X011940Y001499D03*
X011940Y001461D03*
X011940Y001422D03*
X011940Y002462D03*
D32*
X003586Y001499D03*
D33*
X006781Y004002D03*
X008514Y002423D03*
X008514Y002385D03*
X008475Y001538D03*
X008475Y001499D03*
X009707Y001769D03*
X009707Y001807D03*
X009707Y001846D03*
X011170Y002770D03*
X011940Y002385D03*
X012364Y003039D03*
X011940Y001653D03*
X011940Y001615D03*
X015405Y004810D03*
X017523Y004425D03*
X014366Y007197D03*
X014366Y007236D03*
X011555Y005388D03*
X010208Y005927D03*
X010169Y007659D03*
X005934Y007120D03*
X005934Y007082D03*
X005934Y007043D03*
X015174Y009623D03*
D34*
X010169Y007467D03*
X010169Y007428D03*
X009014Y005465D03*
X009707Y001615D03*
X003624Y001538D03*
X001314Y013434D03*
D35*
X006647Y007120D03*
X006608Y007082D03*
X006570Y007043D03*
X009919Y005773D03*
X010189Y006235D03*
X011036Y006504D03*
X011228Y005619D03*
X010189Y004002D03*
X009188Y002539D03*
X009650Y002269D03*
X009650Y002231D03*
X009688Y001538D03*
X010766Y001538D03*
X010805Y002231D03*
X011921Y002616D03*
X012460Y002885D03*
X015271Y005003D03*
X013731Y007043D03*
X014270Y008583D03*
X015078Y009507D03*
X016541Y001538D03*
D36*
X011960Y001576D03*
X010227Y002731D03*
X009688Y001961D03*
X003605Y001576D03*
D37*
X008475Y001576D03*
X009245Y002731D03*
X011940Y002346D03*
X009322Y006581D03*
D38*
X016541Y001576D03*
D39*
X011960Y001692D03*
X011960Y001730D03*
X011960Y001769D03*
X011921Y002269D03*
X011921Y002308D03*
X008495Y001615D03*
X003605Y001615D03*
X005954Y007159D03*
X005954Y007197D03*
X006146Y008930D03*
X006146Y008968D03*
X014116Y009084D03*
X014116Y009122D03*
X014116Y009161D03*
X014116Y009199D03*
X014347Y007274D03*
X018582Y013473D03*
D40*
X014154Y008930D03*
X015386Y004849D03*
X011921Y002423D03*
X010766Y002000D03*
X010766Y001923D03*
X008071Y003039D03*
X004991Y004926D03*
X006108Y008699D03*
X006108Y008737D03*
X016541Y001615D03*
D41*
X013731Y004040D03*
X015463Y004733D03*
X014116Y006119D03*
X014116Y006158D03*
X014116Y006235D03*
X014116Y006273D03*
X014154Y006389D03*
X014154Y006427D03*
X014154Y006466D03*
X014154Y006504D03*
X014154Y006543D03*
X014270Y007390D03*
X014077Y009469D03*
X006223Y009546D03*
X006223Y009584D03*
X006185Y009469D03*
X006185Y009430D03*
X006185Y009392D03*
X006185Y009353D03*
X006185Y009315D03*
X006185Y009238D03*
X006185Y009199D03*
X005992Y007274D03*
X006185Y006543D03*
X006185Y006504D03*
X006185Y006466D03*
X006185Y006427D03*
X006185Y006389D03*
X006185Y006235D03*
X004914Y004849D03*
X008495Y002231D03*
X008495Y002192D03*
X008495Y002154D03*
X008495Y002115D03*
X008495Y002077D03*
X008495Y002038D03*
X008495Y001846D03*
X008495Y001807D03*
X011113Y002808D03*
X003605Y001653D03*
D42*
X008475Y001653D03*
X008475Y001692D03*
X008475Y001730D03*
X008475Y001769D03*
X008514Y002269D03*
X008514Y002308D03*
X009284Y002770D03*
X010208Y002770D03*
X010208Y003809D03*
X011940Y002231D03*
X011940Y002192D03*
X011940Y002154D03*
X011940Y002115D03*
X011940Y002077D03*
X011940Y002038D03*
X011940Y002000D03*
X011940Y001923D03*
X011940Y001884D03*
X011940Y001846D03*
X011940Y001807D03*
X015444Y004772D03*
X014135Y006312D03*
X014135Y006350D03*
X014327Y007313D03*
X014096Y009238D03*
X014096Y009315D03*
X014096Y009353D03*
X014096Y009392D03*
X014096Y009430D03*
X014058Y009507D03*
X014058Y009546D03*
X014058Y009584D03*
X014058Y009623D03*
X010169Y007698D03*
X010208Y005888D03*
X006204Y006273D03*
X006204Y006312D03*
X006204Y006350D03*
X005973Y007236D03*
X006165Y009007D03*
X006165Y009045D03*
X006165Y009084D03*
X006165Y009122D03*
X006165Y009161D03*
X006204Y009507D03*
X005010Y009546D03*
X016522Y001653D03*
D43*
X012402Y003001D03*
X009669Y002038D03*
X009669Y002000D03*
X009707Y001692D03*
X009707Y001653D03*
X008514Y002500D03*
X010208Y006004D03*
X010208Y006042D03*
X010169Y007582D03*
X014366Y007120D03*
X014404Y007082D03*
X014404Y007043D03*
X015136Y009584D03*
X018524Y010239D03*
X005934Y007005D03*
X005934Y006928D03*
D44*
X006165Y006620D03*
X006204Y006158D03*
X006011Y007313D03*
X004972Y009584D03*
X001314Y010200D03*
X009284Y006620D03*
X010169Y005850D03*
X011632Y005349D03*
X014096Y006042D03*
X014096Y006081D03*
X014135Y006620D03*
X014250Y007428D03*
X008475Y002000D03*
X008475Y001923D03*
X008475Y001884D03*
X003624Y001692D03*
X016522Y001692D03*
D45*
X014096Y005965D03*
X009284Y006658D03*
X006242Y006042D03*
X006242Y006004D03*
X006165Y006735D03*
X004856Y004772D03*
X006781Y004040D03*
X003624Y001730D03*
X001314Y013396D03*
D46*
X006127Y008853D03*
X006127Y008814D03*
X006127Y008776D03*
X008822Y005349D03*
X010747Y001884D03*
X010747Y001846D03*
X010747Y001807D03*
X010747Y001769D03*
X010747Y001730D03*
X014135Y008968D03*
X014135Y009007D03*
X014135Y009045D03*
D47*
X014154Y006697D03*
X014154Y006658D03*
X011113Y006658D03*
X006069Y007390D03*
X016503Y001730D03*
D48*
X015579Y004618D03*
X014039Y005850D03*
X018543Y010277D03*
X006300Y005888D03*
X003644Y001769D03*
D49*
X006108Y007428D03*
X014154Y007544D03*
X014154Y006774D03*
X015309Y009738D03*
X016503Y001769D03*
D50*
X016483Y001846D03*
X014135Y006928D03*
X014096Y007582D03*
X015328Y009777D03*
X009207Y006735D03*
X006165Y006889D03*
X006781Y004079D03*
X003663Y001846D03*
X003663Y001807D03*
D51*
X006165Y006812D03*
X006165Y006851D03*
X009245Y006697D03*
X013711Y004079D03*
X016483Y001807D03*
X014135Y006812D03*
X014135Y006851D03*
X004933Y009623D03*
D52*
X009168Y006774D03*
X011209Y006812D03*
X013942Y005734D03*
X015636Y004579D03*
X015367Y009815D03*
X006435Y005696D03*
X006396Y005734D03*
X003663Y001884D03*
D53*
X006377Y005773D03*
X006223Y007505D03*
X011190Y006774D03*
X013692Y004117D03*
X016464Y001884D03*
X001334Y013357D03*
D54*
X004837Y009700D03*
X004722Y004618D03*
X006762Y004117D03*
X003682Y001923D03*
X013923Y005696D03*
X016464Y001923D03*
X018543Y013396D03*
D55*
X016464Y001961D03*
X003682Y001961D03*
D56*
X008475Y001961D03*
X006204Y006196D03*
X006050Y007351D03*
X010169Y007736D03*
X014135Y006581D03*
D57*
X014154Y008891D03*
X010766Y001961D03*
D58*
X011940Y001961D03*
X014289Y007351D03*
X014096Y009276D03*
X014058Y009661D03*
D59*
X015425Y009854D03*
X013846Y005619D03*
X009149Y006812D03*
X006762Y004156D03*
X003682Y002038D03*
X003682Y002000D03*
X004799Y009738D03*
X016426Y002077D03*
D60*
X016445Y002038D03*
X016445Y002000D03*
X013711Y004156D03*
X015675Y004541D03*
X013865Y005657D03*
X011247Y006851D03*
X006512Y005619D03*
X006473Y005657D03*
X001353Y010239D03*
D61*
X001353Y013319D03*
X009130Y006851D03*
X006550Y005580D03*
X003701Y002115D03*
X003701Y002077D03*
X013788Y005580D03*
X016445Y002192D03*
X016445Y002154D03*
X016445Y002115D03*
D62*
X016464Y002231D03*
X016464Y002269D03*
X013692Y004194D03*
X003682Y002231D03*
X003682Y002192D03*
X003682Y002154D03*
D63*
X003644Y002269D03*
X003644Y002308D03*
X011267Y006889D03*
X015463Y009892D03*
X018543Y013357D03*
D64*
X018485Y010316D03*
X013750Y005542D03*
X015713Y004502D03*
X016522Y002423D03*
X016522Y002385D03*
X016483Y002308D03*
X009091Y006889D03*
D65*
X003624Y002346D03*
D66*
X008495Y002346D03*
X006146Y008891D03*
D67*
X009188Y002346D03*
D68*
X009669Y002346D03*
X010785Y002346D03*
D69*
X016503Y002346D03*
D70*
X011286Y006928D03*
X006589Y005542D03*
X006743Y004194D03*
X003624Y002385D03*
X003586Y002423D03*
X004741Y009777D03*
X001353Y013280D03*
D71*
X006647Y005503D03*
X004645Y004541D03*
X003567Y002462D03*
X013692Y005503D03*
X016580Y002500D03*
X015502Y009931D03*
X018543Y013319D03*
D72*
X010612Y005619D03*
X010651Y005542D03*
X010689Y005503D03*
X010689Y005465D03*
X014616Y005388D03*
X017542Y004464D03*
X009188Y002462D03*
X005222Y005195D03*
X005261Y009353D03*
D73*
X005954Y008314D03*
X009419Y006004D03*
X009380Y005927D03*
X009765Y005580D03*
X009765Y005542D03*
X009727Y005503D03*
X009688Y005465D03*
X009804Y005619D03*
X010535Y005696D03*
X010574Y005657D03*
X010959Y005965D03*
X010959Y006004D03*
X010073Y007236D03*
X010189Y004156D03*
X011228Y002462D03*
X015194Y005118D03*
X014347Y008429D03*
D74*
X016541Y002462D03*
D75*
X016599Y002539D03*
X013673Y004233D03*
X009053Y006928D03*
X008629Y003963D03*
X003547Y002500D03*
X004702Y009815D03*
D76*
X001411Y010277D03*
X001372Y013242D03*
X013654Y005465D03*
X016618Y002577D03*
X008649Y003925D03*
X008610Y004002D03*
X008610Y004040D03*
X003528Y002539D03*
D77*
X003509Y002577D03*
X004587Y004502D03*
X006704Y005465D03*
X008591Y004117D03*
X008591Y004079D03*
X008668Y003848D03*
X011363Y007005D03*
X015521Y009969D03*
X018524Y013280D03*
X015790Y004464D03*
X016637Y002616D03*
D78*
X016657Y002654D03*
X011806Y003963D03*
X008687Y003809D03*
X008572Y004156D03*
X008995Y007005D03*
X011382Y007043D03*
X003490Y002616D03*
X018505Y013242D03*
D79*
X015559Y010008D03*
X008514Y004194D03*
X008706Y003771D03*
X011786Y003925D03*
X011825Y004002D03*
X016676Y002693D03*
X004664Y009854D03*
X001391Y013203D03*
X003470Y002654D03*
D80*
X003432Y002693D03*
X008745Y003732D03*
D81*
X003413Y002731D03*
X001411Y013126D03*
D82*
X011036Y005811D03*
X014308Y008506D03*
X007917Y002731D03*
D83*
X011170Y002731D03*
X011478Y005426D03*
D84*
X012499Y002731D03*
X018620Y013511D03*
D85*
X015598Y010046D03*
X016714Y002731D03*
D86*
X016791Y002808D03*
X011517Y007197D03*
X008860Y007159D03*
X003355Y002770D03*
X015636Y010085D03*
X018100Y012048D03*
X018100Y012087D03*
X018139Y012125D03*
X018139Y012164D03*
X018139Y012202D03*
X018447Y013049D03*
X001776Y012087D03*
X001738Y012202D03*
D87*
X008937Y007082D03*
X016753Y002770D03*
D88*
X016830Y002847D03*
X011555Y007236D03*
X015675Y010123D03*
X018062Y011894D03*
X018062Y011933D03*
X018408Y012934D03*
X018408Y012972D03*
X003316Y002808D03*
X001853Y011856D03*
X001699Y012318D03*
X001468Y012934D03*
D89*
X009784Y002808D03*
D90*
X011632Y007313D03*
X003239Y002847D03*
D91*
X002970Y003039D03*
X002970Y003078D03*
X010208Y002847D03*
X017176Y003078D03*
X002084Y011394D03*
D92*
X008649Y007390D03*
X011729Y007428D03*
X017966Y011625D03*
X003143Y002885D03*
D93*
X010208Y002885D03*
X017176Y003155D03*
X016021Y010354D03*
D94*
X018004Y011740D03*
X008726Y007313D03*
X001911Y011663D03*
X016926Y002885D03*
D95*
X011825Y007544D03*
X003047Y002924D03*
D96*
X002970Y003193D03*
X010208Y002924D03*
X011093Y003732D03*
X017176Y003270D03*
X017176Y003232D03*
D97*
X012460Y002924D03*
X011305Y005542D03*
X009342Y006543D03*
X010150Y007313D03*
X010150Y007390D03*
X005145Y009430D03*
X015117Y009546D03*
D98*
X015829Y010277D03*
X017022Y002924D03*
X001969Y011548D03*
D99*
X003008Y002962D03*
D100*
X010189Y002962D03*
D101*
X012422Y002962D03*
X014385Y007005D03*
X010150Y007505D03*
X010150Y007544D03*
X005107Y009469D03*
D102*
X004317Y010162D03*
X015906Y010316D03*
X017099Y002962D03*
D103*
X017138Y003039D03*
X010208Y012433D03*
X003008Y003001D03*
D104*
X003894Y004425D03*
X010208Y003001D03*
X017138Y003424D03*
X010208Y012395D03*
D105*
X017889Y011471D03*
X017119Y003001D03*
X002027Y011432D03*
D106*
X003066Y003540D03*
X010189Y003039D03*
X017042Y003578D03*
X017080Y003540D03*
X017735Y011317D03*
D107*
X010227Y003078D03*
D108*
X002970Y003116D03*
D109*
X010227Y003116D03*
D110*
X017157Y003116D03*
D111*
X017196Y003193D03*
X002951Y003155D03*
X002104Y011355D03*
D112*
X010246Y003155D03*
X017138Y010778D03*
D113*
X010227Y003193D03*
D114*
X002951Y003232D03*
X004144Y010277D03*
D115*
X010208Y003270D03*
X010208Y003232D03*
X017022Y010470D03*
D116*
X017176Y003309D03*
X002970Y003309D03*
X002970Y003270D03*
D117*
X010208Y003309D03*
X010208Y003347D03*
X010169Y012125D03*
D118*
X016503Y004387D03*
X002989Y003347D03*
D119*
X002142Y011317D03*
X017157Y003386D03*
X017157Y003347D03*
X017773Y011355D03*
D120*
X003008Y003386D03*
D121*
X010189Y003386D03*
X010189Y003424D03*
X017003Y010393D03*
X002720Y010778D03*
D122*
X003028Y003463D03*
X003028Y003424D03*
D123*
X010208Y003463D03*
D124*
X017119Y003463D03*
D125*
X017099Y003501D03*
X003047Y003501D03*
D126*
X010189Y003501D03*
X002681Y010816D03*
D127*
X010189Y003617D03*
X010189Y003578D03*
X010189Y003540D03*
X017234Y010855D03*
D128*
X016541Y004310D03*
X017003Y003655D03*
X003143Y003617D03*
X003105Y003578D03*
D129*
X003817Y004387D03*
X017022Y003617D03*
D130*
X003162Y003655D03*
D131*
X010208Y003655D03*
X010208Y003694D03*
D132*
X003239Y003732D03*
X003201Y003694D03*
D133*
X007532Y005311D03*
X016965Y003694D03*
D134*
X016945Y003732D03*
X016560Y004233D03*
X007667Y004233D03*
D135*
X007628Y004310D03*
X003278Y003771D03*
D136*
X004876Y004810D03*
X006223Y006081D03*
X006223Y006119D03*
X006185Y006658D03*
X006185Y006697D03*
X010227Y003771D03*
X014077Y006004D03*
X014231Y007467D03*
X015271Y009700D03*
X015502Y004695D03*
D137*
X015867Y004425D03*
X011671Y003771D03*
X008976Y007043D03*
X004625Y009892D03*
X018485Y013203D03*
D138*
X016888Y003771D03*
X003759Y004310D03*
D139*
X003355Y003848D03*
X003316Y003809D03*
X007397Y005195D03*
X007397Y005234D03*
X007397Y005272D03*
X007590Y004425D03*
X012787Y004387D03*
X012787Y004348D03*
X016791Y003848D03*
D140*
X011729Y003848D03*
X011690Y003809D03*
X011421Y007082D03*
X001411Y013165D03*
D141*
X007609Y004387D03*
X007609Y004348D03*
X012768Y004310D03*
X016580Y004194D03*
X016849Y003809D03*
X017658Y011240D03*
D142*
X003393Y003886D03*
D143*
X008649Y003886D03*
X009034Y006966D03*
D144*
X008957Y005426D03*
X010189Y003886D03*
D145*
X011748Y003886D03*
D146*
X016772Y003886D03*
X017619Y011201D03*
D147*
X016580Y004117D03*
X016618Y004040D03*
X007532Y004541D03*
X007532Y004579D03*
X003682Y004194D03*
X003490Y003963D03*
X003451Y003925D03*
D148*
X003701Y004233D03*
X007551Y004502D03*
X016714Y003925D03*
D149*
X016695Y003963D03*
X016657Y004002D03*
X012845Y004502D03*
X012845Y004541D03*
X012845Y004579D03*
D150*
X012845Y004618D03*
X003528Y004002D03*
X010189Y012318D03*
D151*
X012864Y004772D03*
X012864Y004733D03*
X012864Y004695D03*
X007513Y004733D03*
X007513Y004772D03*
X003663Y004117D03*
X003586Y004040D03*
D152*
X011863Y004040D03*
X011863Y004079D03*
D153*
X012845Y004810D03*
X007532Y004810D03*
X007532Y004849D03*
X003644Y004079D03*
D154*
X007513Y004618D03*
X016599Y004079D03*
D155*
X011883Y004117D03*
D156*
X007532Y004695D03*
X003682Y004156D03*
X002335Y011124D03*
X017581Y011163D03*
D157*
X018428Y010354D03*
X018466Y013165D03*
X011459Y007120D03*
X011921Y004156D03*
X004491Y004464D03*
D158*
X007571Y004464D03*
X012807Y004425D03*
X012999Y005234D03*
X012999Y005272D03*
X012999Y005311D03*
X016580Y004156D03*
X002296Y011163D03*
D159*
X001430Y013088D03*
X011940Y004194D03*
D160*
X011960Y004233D03*
X011498Y007159D03*
X006839Y005388D03*
X004568Y009931D03*
X001449Y013049D03*
X018466Y013088D03*
D161*
X003721Y004271D03*
D162*
X007648Y004271D03*
X002258Y011201D03*
D163*
X010035Y006966D03*
X010189Y004271D03*
D164*
X012749Y004271D03*
D165*
X016560Y004271D03*
D166*
X003778Y004348D03*
X002238Y011240D03*
D167*
X002200Y011278D03*
X016522Y004348D03*
D168*
X012826Y004464D03*
D169*
X004702Y004579D03*
D170*
X004760Y004656D03*
D171*
X007532Y004656D03*
D172*
X012845Y004656D03*
D173*
X015540Y004656D03*
D174*
X006319Y005850D03*
X004779Y004695D03*
D175*
X004818Y004733D03*
X006281Y005927D03*
X014058Y005888D03*
X018562Y013434D03*
D176*
X012864Y004887D03*
X012864Y004849D03*
X007551Y004887D03*
X007551Y004926D03*
X002354Y011086D03*
D177*
X004953Y004887D03*
D178*
X007571Y004964D03*
X012845Y004964D03*
X012845Y004926D03*
X017542Y011124D03*
D179*
X012826Y005003D03*
X007782Y007775D03*
X007590Y005003D03*
D180*
X007590Y005041D03*
X007744Y007736D03*
D181*
X012807Y005041D03*
D182*
X015251Y005041D03*
D183*
X005126Y005080D03*
D184*
X007609Y005080D03*
X007609Y005118D03*
X007725Y007698D03*
X002412Y011047D03*
D185*
X010169Y012279D03*
X012595Y007698D03*
X012787Y005118D03*
X012787Y005080D03*
D186*
X007628Y005157D03*
D187*
X007725Y007621D03*
X007725Y007659D03*
X012768Y005157D03*
X017504Y011086D03*
D188*
X012749Y005195D03*
D189*
X010343Y006851D03*
X010343Y006889D03*
X005338Y005311D03*
D190*
X006916Y005349D03*
X008764Y007274D03*
X015733Y010200D03*
X018004Y011779D03*
X018312Y012664D03*
X001873Y011740D03*
X001565Y012664D03*
D191*
X001642Y012472D03*
X001642Y012433D03*
X001488Y012857D03*
X001488Y012895D03*
X001873Y011817D03*
X001873Y011779D03*
X008803Y007236D03*
X008841Y007197D03*
X013384Y005349D03*
X015694Y010162D03*
X018043Y011856D03*
X018235Y012472D03*
X018274Y012549D03*
X018389Y012857D03*
X018389Y012895D03*
D192*
X013500Y005388D03*
D193*
X006762Y005426D03*
D194*
X006955Y007351D03*
X009650Y005426D03*
X010728Y005426D03*
X013423Y007351D03*
D195*
X013577Y005426D03*
D196*
X014635Y005426D03*
D197*
X014000Y005773D03*
D198*
X006358Y005811D03*
X004895Y009661D03*
D199*
X009322Y005811D03*
D200*
X010169Y005811D03*
D201*
X014019Y005811D03*
D202*
X014077Y005927D03*
X006262Y005965D03*
X006185Y006774D03*
D203*
X006512Y006966D03*
X010169Y006196D03*
D204*
X014116Y006196D03*
X015232Y009661D03*
X006185Y009276D03*
X006185Y006581D03*
D205*
X011055Y006581D03*
D206*
X011093Y006620D03*
D207*
X011132Y006697D03*
X014135Y006735D03*
X014173Y007505D03*
D208*
X014154Y006889D03*
X011151Y006735D03*
X006146Y007467D03*
D209*
X009938Y006812D03*
D210*
X005934Y006966D03*
D211*
X010323Y006966D03*
D212*
X011324Y006966D03*
D213*
X014116Y006966D03*
D214*
X008918Y007120D03*
D215*
X011594Y007274D03*
X018023Y011817D03*
X018254Y012510D03*
X018293Y012587D03*
X018293Y012626D03*
X018331Y012703D03*
X018370Y012780D03*
X018370Y012818D03*
X004510Y010008D03*
X001622Y012510D03*
X001622Y012549D03*
X001584Y012587D03*
X001584Y012626D03*
X001545Y012703D03*
X001507Y012780D03*
X001507Y012818D03*
D216*
X008687Y007351D03*
D217*
X010150Y007351D03*
D218*
X011671Y007351D03*
D219*
X011690Y007390D03*
X010227Y012472D03*
X004414Y010085D03*
D220*
X004375Y010123D03*
X008610Y007428D03*
X011767Y007467D03*
D221*
X011786Y007505D03*
X008552Y007467D03*
D222*
X008495Y007505D03*
X002027Y011471D03*
X017889Y011509D03*
D223*
X006300Y007544D03*
D224*
X008456Y007544D03*
X011883Y007582D03*
X004260Y010200D03*
D225*
X002450Y011009D03*
X007725Y007582D03*
D226*
X012595Y007621D03*
D227*
X012614Y007659D03*
D228*
X012595Y007736D03*
D229*
X012114Y007775D03*
D230*
X010227Y007813D03*
D231*
X010227Y007852D03*
X010150Y009931D03*
D232*
X010150Y010085D03*
X010227Y007890D03*
D233*
X010208Y007929D03*
X010131Y010239D03*
X010131Y010277D03*
D234*
X010208Y007967D03*
D235*
X010227Y008006D03*
D236*
X010227Y008044D03*
D237*
X010208Y008083D03*
D238*
X010208Y008121D03*
D239*
X010208Y008160D03*
X010131Y010662D03*
X010131Y010701D03*
D240*
X010131Y010739D03*
X010131Y010778D03*
X009746Y009623D03*
X010208Y008198D03*
D241*
X010208Y008237D03*
D242*
X010208Y008275D03*
X010131Y010893D03*
D243*
X010131Y010932D03*
X010208Y008314D03*
D244*
X010189Y008352D03*
D245*
X010189Y008391D03*
X010189Y008429D03*
D246*
X010189Y008468D03*
D247*
X010189Y008506D03*
D248*
X010169Y008545D03*
D249*
X010189Y008583D03*
D250*
X010169Y008622D03*
D251*
X010189Y008660D03*
D252*
X010169Y008699D03*
X010131Y011240D03*
D253*
X010131Y011278D03*
X010169Y008814D03*
X010169Y008776D03*
X010169Y008737D03*
D254*
X010169Y008853D03*
X010169Y008930D03*
X010131Y009546D03*
D255*
X010169Y008891D03*
D256*
X010169Y008968D03*
X010169Y009007D03*
X010169Y009045D03*
X010169Y009084D03*
X010131Y009430D03*
D257*
X010150Y009392D03*
X010150Y009353D03*
X010150Y009315D03*
X010150Y009238D03*
X010150Y009199D03*
X010150Y009161D03*
X010150Y009122D03*
X010150Y011394D03*
D258*
X005357Y009276D03*
D259*
X010150Y009276D03*
D260*
X010150Y009469D03*
X010150Y009507D03*
X010150Y011355D03*
D261*
X010150Y011317D03*
X010150Y009584D03*
D262*
X009746Y009661D03*
D263*
X010131Y009700D03*
X010131Y009738D03*
D264*
X010131Y009777D03*
X010131Y009815D03*
X010131Y009854D03*
X010131Y009892D03*
D265*
X004529Y009969D03*
X001834Y011894D03*
X001834Y011933D03*
X001796Y012010D03*
X001796Y012048D03*
X001757Y012125D03*
X001757Y012164D03*
X001719Y012241D03*
X001719Y012279D03*
X001449Y012972D03*
X001449Y013011D03*
X018081Y012010D03*
X018158Y012241D03*
X018158Y012279D03*
X018428Y013011D03*
D266*
X010131Y010008D03*
X010131Y009969D03*
D267*
X004452Y010046D03*
D268*
X010131Y010046D03*
D269*
X010131Y010123D03*
X010131Y010162D03*
D270*
X010150Y010200D03*
D271*
X004221Y010239D03*
X017850Y011432D03*
D272*
X017966Y011663D03*
X015771Y010239D03*
D273*
X003085Y010316D03*
D274*
X010150Y010316D03*
D275*
X010169Y012048D03*
X017022Y010701D03*
X003085Y010354D03*
X002893Y010662D03*
D276*
X010131Y010393D03*
X010131Y010354D03*
D277*
X003066Y010393D03*
D278*
X003066Y010431D03*
D279*
X010131Y010431D03*
D280*
X017003Y010431D03*
D281*
X003047Y010470D03*
D282*
X010131Y010470D03*
D283*
X003047Y010508D03*
X003047Y010547D03*
D284*
X010131Y010547D03*
X010131Y010508D03*
D285*
X017042Y010508D03*
X002758Y010739D03*
D286*
X010169Y012087D03*
X017022Y010547D03*
D287*
X002989Y010585D03*
D288*
X010131Y010585D03*
X010131Y010624D03*
D289*
X017042Y010585D03*
D290*
X002931Y010624D03*
D291*
X017042Y010624D03*
X017042Y010662D03*
D292*
X017061Y010739D03*
X002816Y010701D03*
D293*
X010131Y010816D03*
D294*
X017176Y010816D03*
D295*
X002623Y010855D03*
D296*
X010150Y010855D03*
D297*
X002585Y010893D03*
D298*
X017273Y010893D03*
D299*
X002527Y010932D03*
D300*
X017330Y010932D03*
D301*
X002489Y010970D03*
D302*
X010131Y010970D03*
X010131Y011009D03*
D303*
X017369Y010970D03*
D304*
X017427Y011009D03*
D305*
X010131Y011047D03*
D306*
X017446Y011047D03*
D307*
X010131Y011086D03*
D308*
X010131Y011124D03*
D309*
X010150Y011163D03*
D310*
X010131Y011201D03*
D311*
X017696Y011278D03*
D312*
X017792Y011394D03*
D313*
X010150Y011432D03*
D314*
X010150Y011471D03*
D315*
X017927Y011548D03*
X001988Y011509D03*
D316*
X010150Y011509D03*
D317*
X010150Y011548D03*
D318*
X001950Y011586D03*
D319*
X010169Y011586D03*
D320*
X017927Y011586D03*
D321*
X001930Y011625D03*
D322*
X010169Y011625D03*
D323*
X010150Y011663D03*
D324*
X001892Y011702D03*
D325*
X010150Y011702D03*
D326*
X017985Y011702D03*
D327*
X010169Y011740D03*
D328*
X010150Y011779D03*
D329*
X010169Y011817D03*
D330*
X010150Y011856D03*
D331*
X010169Y011894D03*
D332*
X010169Y011933D03*
D333*
X018081Y011971D03*
X001796Y011971D03*
D334*
X010189Y011971D03*
D335*
X010169Y012010D03*
D336*
X010169Y012164D03*
D337*
X010169Y012202D03*
D338*
X010169Y012241D03*
D339*
X018197Y012318D03*
D340*
X001699Y012356D03*
D341*
X010189Y012356D03*
D342*
X018197Y012356D03*
D343*
X018216Y012395D03*
X018216Y012433D03*
X001661Y012395D03*
D344*
X010285Y012510D03*
D345*
X001545Y012741D03*
D346*
X018351Y012741D03*
D347*
X018466Y013126D03*
D348*
X002773Y001794D02*
X002813Y001666D01*
X002852Y001566D01*
X002877Y001510D01*
X003189Y001208D01*
X003521Y001124D01*
X003889Y001220D01*
X004258Y001522D01*
X004420Y001723D01*
X004497Y001932D01*
X004491Y002257D01*
X004459Y002670D01*
X004518Y003011D01*
X004914Y003428D01*
X005059Y003506D01*
X005186Y003586D01*
X005256Y003619D01*
X005300Y003639D01*
X005483Y003750D01*
X005657Y003841D01*
X005750Y003769D01*
X005868Y003698D01*
X005924Y003662D01*
X006038Y003611D01*
X006280Y003566D01*
X006650Y003550D01*
X007066Y003606D01*
X007316Y003636D01*
X007459Y003587D01*
X007489Y003463D01*
X007403Y003269D01*
X007295Y003068D01*
X007251Y002578D01*
X007612Y002201D01*
X007633Y002164D01*
X007943Y001194D01*
X008342Y000482D01*
X008552Y000266D01*
X008776Y000134D01*
X008775Y000133D01*
X008940Y000111D01*
X008983Y000420D01*
X009041Y000859D01*
X009144Y001133D01*
X009241Y001154D01*
X009579Y001077D01*
X010094Y001124D01*
X010477Y001109D01*
X010865Y001073D01*
X011174Y001143D01*
X011312Y001187D01*
X011336Y001069D01*
X011362Y000907D01*
X011486Y000226D01*
X011499Y000111D01*
X011582Y000150D01*
X011883Y000302D01*
X012151Y000558D01*
X012256Y000727D01*
X012281Y000754D01*
X012344Y000827D01*
X012571Y001309D01*
X012603Y001393D01*
X012779Y001996D01*
X012835Y002131D01*
X012986Y002299D01*
X013200Y002599D01*
X013216Y002784D01*
X013085Y003193D01*
X012970Y003600D01*
X013000Y003647D01*
X013123Y003650D01*
X013911Y003624D01*
X014228Y003671D01*
X014534Y003795D01*
X014670Y003862D01*
X014744Y003794D01*
X014891Y003659D01*
X015114Y003520D01*
X015437Y003277D01*
X015588Y003106D01*
X015667Y002937D01*
X015721Y002637D01*
X015685Y002370D01*
X015651Y002021D01*
X015763Y001703D01*
X016172Y001301D01*
X016550Y001159D01*
X016935Y001225D01*
X017233Y001483D01*
X017402Y001950D01*
X017510Y002202D01*
X017717Y002397D01*
X018181Y002567D01*
X018613Y002702D01*
X018856Y002935D01*
X018972Y003242D01*
X018953Y003567D01*
X018861Y003862D01*
X018773Y004029D01*
X018320Y004473D01*
X018220Y004522D01*
X017867Y004634D01*
X017208Y004633D01*
X016748Y004638D01*
X016314Y004773D01*
X016039Y004911D01*
X016014Y004932D01*
X015600Y005221D01*
X015541Y005247D01*
X015514Y005274D01*
X015454Y005324D01*
X015075Y005588D01*
X015028Y005615D01*
X014959Y005664D01*
X014915Y005757D01*
X014904Y006022D01*
X014927Y006347D01*
X015037Y006559D01*
X015133Y006899D01*
X015124Y007204D01*
X015071Y007401D01*
X014860Y007829D01*
X014832Y007931D01*
X014867Y008148D01*
X014977Y008901D01*
X015017Y009079D01*
X015152Y009149D01*
X015225Y009190D01*
X015262Y009214D01*
X015374Y009252D01*
X016026Y009555D01*
X016315Y009686D01*
X017101Y010043D01*
X017484Y010100D01*
X018167Y010026D01*
X018813Y009990D01*
X019349Y010119D01*
X019562Y010240D01*
X019703Y010437D01*
X019796Y010645D01*
X019795Y010880D01*
X019733Y011158D01*
X019483Y011489D01*
X019363Y011724D01*
X019336Y011979D01*
X019390Y012276D01*
X019502Y012471D01*
X019606Y012689D01*
X019663Y013037D01*
X019611Y013288D01*
X019480Y013521D01*
X019126Y013748D01*
X018691Y013803D01*
X018154Y013746D01*
X017615Y013442D01*
X017583Y013417D01*
X017433Y013255D01*
X017201Y012839D01*
X017099Y012384D01*
X017033Y012155D01*
X016883Y011952D01*
X016659Y011781D01*
X016367Y011651D01*
X015896Y011472D01*
X015800Y011447D01*
X015720Y011426D01*
X015383Y011291D01*
X015029Y011154D01*
X014954Y011132D01*
X014822Y011094D01*
X014453Y010974D01*
X014388Y011033D01*
X014173Y011368D01*
X014047Y011532D01*
X013859Y011763D01*
X013780Y011855D01*
X013290Y012275D01*
X013097Y012382D01*
X012335Y012697D01*
X012138Y012763D01*
X011206Y012977D01*
X010180Y013012D01*
X009156Y012964D01*
X008324Y012767D01*
X008226Y012735D01*
X008087Y012691D01*
X007909Y012615D01*
X007260Y012293D01*
X006753Y011968D01*
X006583Y011837D01*
X006351Y011605D01*
X006172Y011390D01*
X006109Y011303D01*
X005991Y011132D01*
X005873Y010961D01*
X005820Y010869D01*
X005767Y010795D01*
X005630Y010848D01*
X005393Y010928D01*
X005295Y010978D01*
X005231Y011001D01*
X005150Y011027D01*
X005077Y011054D01*
X004944Y011093D01*
X004821Y011132D01*
X004757Y011157D01*
X004657Y011208D01*
X004008Y011447D01*
X003512Y011631D01*
X003125Y011827D01*
X002897Y012091D01*
X002800Y012402D01*
X002641Y012933D01*
X002455Y013230D01*
X002203Y013466D01*
X001895Y013635D01*
X001538Y013733D01*
X001127Y013758D01*
X000771Y013702D01*
X000482Y013566D01*
X000274Y013356D01*
X000197Y013204D01*
X000185Y012959D01*
X000231Y012631D01*
X000277Y012532D01*
X000348Y012387D01*
X000480Y012135D01*
X000513Y011894D01*
X000483Y011671D01*
X000389Y011507D01*
X000258Y011216D01*
X000160Y010859D01*
X000160Y010544D01*
X000318Y010268D01*
X000436Y010150D01*
X000645Y010024D01*
X001223Y009993D01*
X001893Y010008D01*
X002287Y010048D01*
X002648Y010029D01*
X002939Y009935D01*
X003044Y009898D01*
X003666Y009655D01*
X003876Y009570D01*
X004248Y009408D01*
X004358Y009372D01*
X004472Y009334D01*
X004651Y009252D01*
X004802Y009186D01*
X004888Y009162D01*
X004974Y009138D01*
X005287Y009005D01*
X005334Y008922D01*
X005347Y008635D01*
X005390Y008224D01*
X005482Y007896D01*
X005432Y007739D01*
X005293Y007457D01*
X005202Y007130D01*
X005245Y006806D01*
X005413Y006444D01*
X005486Y006356D01*
X005472Y005723D01*
X005230Y005537D01*
X005046Y005430D01*
X004868Y005336D01*
X004822Y005299D01*
X004763Y005259D01*
X004609Y005166D01*
X004496Y005090D01*
X004222Y004936D01*
X003862Y004749D01*
X003693Y004687D01*
X002926Y004644D01*
X002191Y004598D01*
X002112Y004565D01*
X001868Y004458D01*
X001577Y004233D01*
X001351Y003934D01*
X001215Y003596D01*
X001179Y003262D01*
X001254Y002972D01*
X001498Y002704D01*
X001841Y002565D01*
X002202Y002485D01*
X002502Y002332D01*
X002677Y002095D01*
X002773Y001794D01*
D349*
X006768Y006555D02*
X008370Y005554D01*
X008660Y006019D01*
X008787Y006222D01*
X007185Y007223D01*
X007111Y007105D01*
X006768Y006555D01*
X007111Y007105D02*
X007120Y007119D01*
X007754Y006682D02*
X007629Y006482D01*
X007954Y006557D01*
X007704Y006156D01*
X007629Y006482D01*
X007503Y006281D01*
X008660Y006019D02*
X008695Y006075D01*
X011482Y006252D02*
X011772Y005787D01*
X011899Y005584D01*
X013501Y006585D01*
X013427Y006703D01*
X013084Y007252D01*
X011482Y006252D01*
X011772Y005787D02*
X011808Y005731D01*
X012565Y006186D02*
X012640Y006511D01*
X012315Y006586D01*
X012565Y006186D01*
X012766Y006311D02*
X012640Y006511D01*
X012515Y006712D01*
X013427Y006703D02*
X013436Y006689D01*
M02*
