<?xml version="1.0" encoding="UTF-8" standalone="no"?>
<!-- Created with Inkscape (http://www.inkscape.org/) -->

<svg
   xmlns:dc="http://purl.org/dc/elements/1.1/"
   xmlns:cc="http://creativecommons.org/ns#"
   xmlns:rdf="http://www.w3.org/1999/02/22-rdf-syntax-ns#"
   xmlns:svg="http://www.w3.org/2000/svg"
   xmlns="http://www.w3.org/2000/svg"
   xmlns:sodipodi="http://sodipodi.sourceforge.net/DTD/sodipodi-0.dtd"
   xmlns:inkscape="http://www.inkscape.org/namespaces/inkscape"
   width="1000"
   height="1000"
   id="svg2"
   version="1.1"
   inkscape:version="0.48.1 "
   sodipodi:docname="Tindog.svg"
   inkscape:export-filename="C:\Users\Mats\Documents\eagle\Current\SmdPractice\Tindog\Tindog.png"
   inkscape:export-xdpi="79.976883"
   inkscape:export-ydpi="79.976883">
  <defs
     id="defs4">
    <clipPath
       id="clipPath2999"
       clipPathUnits="userSpaceOnUse">
      <path
         id="path3001"
         d="M 0,243 220,243 220,0 0,0 0,243 z"
         inkscape:connector-curvature="0" />
    </clipPath>
  </defs>
  <sodipodi:namedview
     id="base"
     pagecolor="#ffffff"
     bordercolor="#666666"
     borderopacity="1.0"
     inkscape:pageopacity="0.0"
     inkscape:pageshadow="2"
     inkscape:zoom="0.35"
     inkscape:cx="375"
     inkscape:cy="634.28571"
     inkscape:document-units="px"
     inkscape:current-layer="layer1"
     showgrid="false"
     inkscape:showpageshadow="false"
     inkscape:window-width="1366"
     inkscape:window-height="716"
     inkscape:window-x="-8"
     inkscape:window-y="-8"
     inkscape:window-maximized="1" />
  <metadata
     id="metadata7">
    <rdf:RDF>
      <cc:Work
         rdf:about="">
        <dc:format>image/svg+xml</dc:format>
        <dc:type
           rdf:resource="http://purl.org/dc/dcmitype/StillImage" />
        <dc:title></dc:title>
      </cc:Work>
    </rdf:RDF>
  </metadata>
  <g
     inkscape:label="Layer 1"
     inkscape:groupmode="layer"
     id="layer1"
     transform="translate(0,-52.362183)">
    <g
       transform="matrix(4.4737847,0,0,-4.0255211,4.0247838,1031.0792)"
       inkscape:label="Tindie_logo_large"
       id="g2993">
      <g
         id="g2995">
        <g
           clip-path="url(#clipPath2999)"
           id="g2997">
          <g
             transform="translate(207.459,219.2939)"
             id="g3003">
            <path
               id="path3005"
               style="fill:#595d65;fill-opacity:1;fill-rule:nonzero;stroke:none"
               d="m 0,0 c -4.768,-2.665 -28.767,-12.014 -46.606,-18.527 3.784,10.868 13.162,29.004 33.863,30.607 l 0.196,0.021 c 0.109,0.013 0.228,0.019 0.352,0.019 3.446,0 9.07,-4.398 11.355,-8.878 C -0.092,1.775 0.111,0.636 0,0 m -38.413,-65.465 -0.862,-20.179 c -7.59,1.009 -14.186,1.017 -20.211,0.125 -3.218,-0.477 -6.274,-1.207 -9.226,-2.187 -0.613,-0.201 -1.225,-0.413 -1.831,-0.639 l -5.561,13.573 -3.773,9.207 -18.927,46.188 c 7.031,2.48 13.393,3.46 16.443,3.927 1.278,0.198 2.599,0.296 3.926,0.296 8.557,0 16.378,-4.073 21.104,-7.183 1.749,-1.152 3.076,-2.172 3.855,-2.805 l 0.151,-0.402 0.095,-0.252 1.611,-4.313 13.206,-35.356 z m -2.124,-49.72 c -0.817,-0.646 -1.946,-1.515 -3.34,-2.519 -2.32,-1.671 -5.372,-3.718 -8.919,-5.747 -5.674,-3.248 -12.62,-6.441 -19.879,-7.975 -2.807,-0.595 -5.659,-0.946 -8.503,-0.946 -0.423,0 -0.844,0.007 -1.263,0.022 -0.096,0.099 -0.2,0.202 -0.297,0.3 -1.985,2.001 -4.236,4.262 -6.623,6.654 -3.608,3.614 -7.52,7.519 -11.29,11.276 -0.163,0.163 -0.326,0.326 -0.488,0.487 12.847,11.016 22.78,18.669 34.281,22.315 2.973,0.942 6.053,1.615 9.315,2.01 5.412,0.658 11.323,0.551 18.095,-0.38 l -1.089,-25.497 z m -2.724,-67.971 c 3.255,-0.099 7.243,-0.732 11.892,-1.943 8.131,-2.117 12.887,-10.075 14.487,-16.294 1.193,-4.638 0.47,-7.901 0.027,-7.901 l -0.016,0 -0.022,0 c -3.138,0 -9.969,0.044 -20.306,0.044 -1.817,0 -3.681,-0.044 -5.56,-0.044 l -0.349,0 c 0.142,5 -0.161,10.166 -2.268,15.846 l 2.115,10.292 z m -7.693,8.345 -1.669,-8.154 c -4.828,3.983 -11.258,5.804 -19.158,5.396 -8.574,-0.449 -15.352,-3.168 -20.194,-8.091 l 6.097,31.172 c 3.67,3.385 6.705,8.265 9.082,13.127 8.868,0.836 17.398,4.055 24.537,7.708 l 1.987,-37.821 -0.682,-3.337 z m -1.366,-34.533 c -0.834,-0.002 -1.661,-0.004 -2.48,-0.005 -2.011,-0.005 -3.961,-0.008 -5.828,-0.014 -0.597,-0.001 -1.195,0.057 -1.773,0.053 l -0.051,0.016 -13.902,0 -2.863,0 -11.551,0 c -0.153,5 0.306,10.964 4.194,15.92 1.03,1.312 2.267,2.403 3.701,3.335 3,1.947 6.869,3.045 11.57,3.289 0.565,0.031 1.123,0.039 1.662,0.039 4.633,0 8.245,-1.058 10.963,-3.2 0.682,-0.537 1.311,-1.14 1.883,-1.817 2.191,-2.594 3.361,-5.923 3.959,-9.183 0.568,-3.105 0.617,-6.149 0.516,-8.433 m -44.281,21.016 c -0.139,0.191 -0.275,0.387 -0.423,0.575 -4.901,6.25 -12.314,9.675 -22.037,10.184 -8.078,0.42 -14.618,-1.5 -19.481,-5.674 l -2.302,3.113 1.32,8.547 9.003,35.914 13.686,24.67 c 2.57,-2.555 5.53,-5.502 8.618,-8.578 -1.353,-1.045 -2.821,-2.216 -4.298,-3.466 -8.084,-6.84 -11.689,-11.853 -11.689,-16.262 0.002,-8.982 14.416,-20.031 26.141,-20.031 2.68,0 5.18,0.541 7.442,1.592 l -5.98,-30.584 z m -3.466,-20.966 -19.134,0 -3.451,0 -14.807,0 0,-0.067 c 0,2.562 -0.556,6.082 0.225,9.569 0.648,2.89 1.512,5.759 3.433,8.04 0.32,0.383 0.53,0.737 0.884,1.073 0.109,0.104 0.164,0.19 0.274,0.289 2.777,2.455 6.521,3.671 11.475,3.671 0.538,0 1.082,-0.016 1.646,-0.045 4.828,-0.253 8.771,-1.416 11.804,-3.465 1.318,-0.89 2.46,-1.887 3.426,-3.11 3.933,-4.985 4.388,-10.955 4.225,-15.955 m -47.683,3.067 c -0.028,-1.115 -0.018,-2.16 0.015,-3.115 -1.166,0.002 -2.342,0.024 -3.519,0.024 -1.606,0.003 -3.208,0.024 -4.805,0.024 l -5.161,0 -20.306,0 -0.021,0 -0.016,0 c -0.443,0 -1.167,3.263 0.026,7.898 1.433,5.573 5.4,12.551 12.054,15.475 0.775,0.341 1.586,0.616 2.435,0.837 2.448,0.638 4.711,1.113 6.783,1.442 2.206,0.355 4.198,0.53 5.95,0.53 0.898,0 1.644,-0.051 2.268,-0.121 0.557,-0.065 1.016,-0.151 1.384,-0.239 0.569,-0.135 0.928,-0.281 1.118,-0.372 l 4.797,-6.492 0.396,-0.537 c -2.499,-5.129 -3.278,-10.809 -3.398,-15.354 m -22.048,95.422 c 1.033,0.674 2.227,1.031 3.45,1.031 2.152,0 4.138,-1.075 5.311,-2.872 0.924,-1.417 1.242,-3.106 0.894,-4.761 -0.348,-1.654 -1.318,-3.074 -2.735,-3.998 -1.032,-0.674 -2.225,-1.031 -3.45,-1.031 -2.151,0 -4.136,1.074 -5.309,2.872 -1.908,2.921 -1.082,6.851 1.839,8.759 m 14.472,-63.127 c -2.775,-0.077 -5.911,-0.469 -9.371,-1.172 -2.011,4.048 -3.865,8.074 -5.262,11.664 -2.412,6.208 -1.427,13.467 0.312,19.457 0.105,0.007 0.21,0.015 0.314,0.022 l 5.177,-18.039 8.83,-11.932 z m 40.333,34.58 c 0.477,2.208 6.318,7.909 13.333,13.234 5.15,-5.144 10.167,-10.169 13.91,-13.952 l 0.49,-0.496 -0.25,-1.276 c -2.128,-3.527 -4.478,-6.341 -6.875,-7.5 -1.064,-0.516 -2.303,-0.778 -3.678,-0.778 -7.933,0.001 -16.643,7.942 -16.93,10.768 m -16.782,78.842 -1.412,3.778 c 0.394,1.071 1.012,2.674 1.843,4.602 2.632,6.105 7.424,15.516 14.171,21.988 4.352,4.176 9.533,7.163 14.611,9.311 l 18.332,-44.734 3.772,-9.207 6.188,-15.1 c -9.755,-4.398 -18.822,-11.554 -29.731,-20.911 -3.013,3.002 -5.828,5.802 -8.191,8.151 -2.855,2.838 -5.052,5.019 -6.121,6.079 l -0.416,1.116 -13.046,34.927 z m -61.166,-0.887 c -0.504,0.592 -0.94,2 -0.955,4.003 -0.038,5.714 2.999,11.679 5.54,12.808 l 0.179,0.085 c 4.825,2.396 9.866,3.612 14.98,3.612 12.481,0 23.365,-7.156 29.773,-12.528 -17.499,-3.326 -43.281,-7.758 -49.517,-7.98 M 7.361,7.422 c -3.483,6.835 -11.751,13.905 -19.556,13.905 -0.455,0 -0.908,-0.025 -1.348,-0.074 -15.25,-1.211 -27.789,-9.693 -36.259,-24.534 -1.979,-3.467 -3.51,-6.89 -4.684,-9.96 -5.839,3.499 -14.374,7.294 -23.949,7.294 -1.794,0 -3.586,-0.136 -5.324,-0.403 -6.454,-0.991 -26.094,-4.01 -39.788,-17.148 -6.82,-6.544 -11.795,-15.336 -14.929,-22.031 -7.623,6.194 -20.011,13.846 -34.721,13.846 -6.52,0 -12.909,-1.525 -18.998,-4.533 -6.898,-3.145 -10.96,-13.244 -10.906,-21.24 0.041,-6.201 2.55,-10.663 6.88,-12.517 0.988,-0.423 1.987,-0.321 2.835,-0.321 l 0.002,0 c 6.513,0 35.24,4.865 52.454,8.144 l 14.701,-39.437 0.716,-0.751 c 0.041,-0.041 0.726,-0.739 1.892,-1.897 l -15.244,-27.484 -0.293,-0.534 -8.997,-35.89 -7.61,10.286 -4.279,14.904 c 0.675,0.1 1.329,0.203 1.936,0.31 3.525,0.62 8.355,1.473 8.049,5.804 -0.176,2.49 -2.052,3.968 -5.572,4.391 -1.449,0.174 -3.39,0.261 -5.771,0.261 -0.558,0 -1.137,-0.005 -1.728,-0.017 l -0.563,1.966 c 1.848,0.343 3.62,1.044 5.219,2.088 3.218,2.099 5.424,5.328 6.214,9.087 0.79,3.76 0.068,7.603 -2.032,10.822 -2.665,4.083 -7.173,6.521 -12.056,6.521 -2.791,0 -5.506,-0.807 -7.852,-2.34 -6.642,-4.335 -8.518,-13.267 -4.183,-19.909 1.293,-1.979 3.021,-3.568 5.011,-4.684 -0.514,-0.981 -1.245,-2.449 -2.045,-4.284 -2.813,-0.279 -5.4,-0.62 -7.525,-0.994 -3.527,-0.621 -8.358,-1.472 -8.051,-5.803 0.176,-2.491 2.052,-4.421 5.575,-4.843 1.447,-0.174 3.389,-0.717 5.772,-0.717 l 0.392,0 c -1.615,-7 -2.162,-14.537 0.715,-21.937 1.332,-3.428 3.026,-6.951 4.869,-10.73 -12.704,-5.872 -18.826,-20.934 -17.57,-30.74 0.931,-7.277 5.617,-9.593 9.693,-9.593 l 0.188,0 c 3.083,0 9.859,-0.077 20.139,-0.077 4.732,0 9.779,0.074 14.635,0.065 l 0.013,0.012 21.574,0 3.456,0 9.144,0 13.649,0 6.657,0 6.071,0 9.143,0 4.01,0 28.598,0 0.014,-0.08 c 2.388,0.002 4.761,0.084 7.057,0.084 10.28,0 17.056,-0.004 20.138,-0.004 l 0.602,0 0,-0.231 c 3,0 8.555,2.545 9.487,9.822 1.391,10.855 -6.36,28.472 -21.975,32.536 -4.61,1.202 -8.796,1.912 -12.396,2.162 l 0.352,1.845 -2.307,43.678 c 6.046,3.899 9.92,7.238 10.304,7.574 l 1.486,1.299 2.375,55.617 -13.825,37.005 c 7.265,2.664 16.353,6.081 24.766,9.364 C 5.41,-8.409 6.329,-7.141 7.303,-5.799 9.879,-2.252 9.9,2.445 7.361,7.422"
               inkscape:connector-curvature="0" />
          </g>
          <g
             transform="translate(106.5581,142.8921)"
             id="g3007">
            <path
               id="path3009"
               style="fill:#595d65;fill-opacity:1;fill-rule:nonzero;stroke:none"
               d="m 0,0 c -0.348,-1.655 -1.318,-3.074 -2.734,-3.998 -1.033,-0.674 -2.226,-1.03 -3.45,-1.03 -2.152,0 -4.136,1.072 -5.31,2.869 -0.923,1.416 -1.241,3.107 -0.895,4.762 0.348,1.654 1.32,3.074 2.736,3.999 1.033,0.674 2.225,1.03 3.45,1.03 2.152,0 4.136,-1.072 5.309,-2.871 C 0.03,3.346 0.348,1.655 0,0 m 5.852,9.165 c -2.666,4.083 -7.173,6.523 -12.055,6.523 -2.793,0 -5.508,-0.81 -7.854,-2.342 -3.216,-2.098 -5.424,-5.326 -6.214,-9.087 -0.79,-3.759 -0.069,-7.601 2.031,-10.82 2.667,-4.085 7.173,-6.524 12.056,-6.524 2.792,0 5.508,0.811 7.853,2.341 3.218,2.1 5.425,5.327 6.214,9.088 0.79,3.76 0.07,7.602 -2.031,10.821"
               inkscape:connector-curvature="0" />
          </g>
          <g
             transform="translate(150.1045,155.3628)"
             id="g3011">
            <path
               id="path3013"
               style="fill:#595d65;fill-opacity:1;fill-rule:nonzero;stroke:none"
               d="m 0,0 c -1.032,-0.675 -2.224,-1.032 -3.447,-1.032 -2.153,0 -4.137,1.074 -5.311,2.872 -0.925,1.415 -1.242,3.105 -0.895,4.761 0.348,1.653 1.32,3.075 2.734,3.998 1.034,0.674 2.228,1.03 3.452,1.03 2.151,0 4.136,-1.072 5.31,-2.871 C 3.75,5.836 2.925,1.907 0,0 m 8.588,13.161 c -2.667,4.087 -7.172,6.524 -12.055,6.524 -2.792,0 -5.508,-0.809 -7.853,-2.339 -3.218,-2.102 -5.425,-5.329 -6.216,-9.089 -0.79,-3.761 -0.068,-7.602 2.033,-10.82 2.667,-4.085 7.172,-6.524 12.056,-6.524 2.792,0 5.507,0.81 7.852,2.34 6.642,4.336 8.52,13.267 4.183,19.908"
               inkscape:connector-curvature="0" />
          </g>
          <g
             transform="translate(113.8594,197.0698)"
             id="g3015">
            <path
               id="path3017"
               style="fill:#595d65;fill-opacity:1;fill-rule:nonzero;stroke:none"
               d="m 0,0 c -1.137,0 -2.059,-0.924 -2.059,-2.058 0,-1.136 0.922,-2.06 2.059,-2.06 1.135,0 2.059,0.924 2.059,2.06 C 2.059,-0.924 1.135,0 0,0"
               inkscape:connector-curvature="0" />
          </g>
          <g
             transform="translate(117.3105,189.5894)"
             id="g3019">
            <path
               id="path3021"
               style="fill:#595d65;fill-opacity:1;fill-rule:nonzero;stroke:none"
               d="m 0,0 c -1.134,0 -2.058,-0.924 -2.058,-2.058 0,-1.135 0.924,-2.06 2.058,-2.06 1.136,0 2.06,0.925 2.06,2.06 C 2.06,-0.924 1.136,0 0,0"
               inkscape:connector-curvature="0" />
          </g>
          <g
             transform="translate(120.1875,182.6841)"
             id="g3023">
            <path
               id="path3025"
               style="fill:#595d65;fill-opacity:1;fill-rule:nonzero;stroke:none"
               d="m 0,0 c -1.134,0 -2.058,-0.923 -2.058,-2.058 0,-1.136 0.924,-2.06 2.058,-2.06 1.136,0 2.06,0.924 2.06,2.06 C 2.06,-0.923 1.136,0 0,0"
               inkscape:connector-curvature="0" />
          </g>
          <g
             transform="translate(121.4121,0.9648)"
             id="g3027">
            <path
               id="path3029"
               style="fill:#292929;fill-opacity:1;fill-rule:nonzero;stroke:none"
               d="m 0,0 9.169,0.035 -9.144,0 L 0,0 z"
               inkscape:connector-curvature="0" />
          </g>
          <g
             transform="translate(108.6807,42.8633)"
             id="g3031">
            <path
               id="path3033"
               style="fill:#595d65;fill-opacity:1;fill-rule:nonzero;stroke:none"
               d="m 0,0 c -1.135,0 -2.059,-0.924 -2.059,-2.058 0,-1.136 0.924,-2.059 2.059,-2.059 1.136,0 2.06,0.923 2.06,2.059 C 2.06,-0.924 1.136,0 0,0"
               inkscape:connector-curvature="0" />
          </g>
          <g
             transform="translate(110.9824,50.9189)"
             id="g3035">
            <path
               id="path3037"
               style="fill:#595d65;fill-opacity:1;fill-rule:nonzero;stroke:none"
               d="m 0,0 c -1.135,0 -2.059,-0.924 -2.059,-2.059 0,-1.135 0.924,-2.058 2.059,-2.058 1.135,0 2.059,0.923 2.059,2.058 C 2.059,-0.924 1.135,0 0,0"
               inkscape:connector-curvature="0" />
          </g>
          <g
             transform="translate(112.707,58.3984)"
             id="g3039">
            <path
               id="path3041"
               style="fill:#595d65;fill-opacity:1;fill-rule:nonzero;stroke:none"
               d="m 0,0 c -1.133,0 -2.057,-0.923 -2.057,-2.058 0,-1.135 0.924,-2.059 2.057,-2.059 1.137,0 2.06,0.924 2.06,2.059 C 2.06,-0.923 1.137,0 0,0"
               inkscape:connector-curvature="0" />
          </g>
          <g
             transform="translate(161.6162,128.5977)"
             id="g3043">
            <path
               id="path3045"
               style="fill:#595d65;fill-opacity:1;fill-rule:nonzero;stroke:none"
               d="m 0,0 c -1.135,0 -2.058,-0.924 -2.058,-2.059 0,-1.136 0.923,-2.059 2.058,-2.059 1.136,0 2.061,0.923 2.061,2.059 C 2.061,-0.924 1.136,0 0,0"
               inkscape:connector-curvature="0" />
          </g>
          <g
             transform="translate(154.1357,128.5977)"
             id="g3047">
            <path
               id="path3049"
               style="fill:#595d65;fill-opacity:1;fill-rule:nonzero;stroke:none"
               d="m 0,0 c -1.134,0 -2.057,-0.924 -2.057,-2.059 0,-1.136 0.923,-2.059 2.057,-2.059 1.137,0 2.061,0.923 2.061,2.059 C 2.061,-0.924 1.137,0 0,0"
               inkscape:connector-curvature="0" />
          </g>
          <g
             transform="translate(124.2578,103.5215)"
             id="g3051">
            <path
               id="path3053"
               style="fill:#595d65;fill-opacity:1;fill-rule:nonzero;stroke:none"
               d="M 0,0 C 0,0 24.179,12.467 31.968,13.691 33.62,6.765 15.878,-12.99 0,0"
               inkscape:connector-curvature="0" />
          </g>
        </g>
      </g>
    </g>
  </g>
</svg>
