<?xml version="1.0" encoding="UTF-8" standalone="no"?>
<!-- Created with Inkscape (http://www.inkscape.org/) -->

<svg
   xmlns:dc="http://purl.org/dc/elements/1.1/"
   xmlns:cc="http://creativecommons.org/ns#"
   xmlns:rdf="http://www.w3.org/1999/02/22-rdf-syntax-ns#"
   xmlns:svg="http://www.w3.org/2000/svg"
   xmlns="http://www.w3.org/2000/svg"
   version="1.1"
   width="744.09448"
   height="1052.3622"
   id="svg4487">
  <defs
     id="defs4489" />
  <metadata
     id="metadata4492">
    <rdf:RDF>
      <cc:Work
         rdf:about="">
        <dc:format>image/svg+xml</dc:format>
        <dc:type
           rdf:resource="http://purl.org/dc/dcmitype/StillImage" />
        <dc:title></dc:title>
      </cc:Work>
    </rdf:RDF>
  </metadata>
  <g
     id="layer1">
    <path
       d="m 816.90635,105.57277 c -3.29745,-4.73869 -6.60479,-9.491602 -9.90224,-14.230287 -4.05789,-4.238684 -8.12798,-8.490097 -12.18588,-12.728778 -4.6716,-3.692864 -9.35723,-7.396818 -14.02883,-11.089683 -5.22793,-3.026129 -10.47155,-6.061343 -15.69947,-9.087473 -5.74519,-2.122971 -11.50763,-4.252319 -17.25283,-6.37529 -6.13389,-0.820301 -12.2862,-1.643061 -18.42009,-2.463361 -2.00821,0.09919 -4.02245,0.198699 -6.03066,0.297888 -6.74501,0.786744 -13.51028,1.575847 -20.2553,2.362591 -6.61902,1.408316 -13.25792,2.820867 -19.87694,4.229184 -6.41133,2.039864 -12.84191,4.085852 -19.25323,6.125712 -6.12606,2.658772 -12.27052,5.325527 -18.39657,7.984299 -5.76891,3.240034 -11.55514,6.489792 -17.32405,9.729822 -5.36039,3.766434 -10.73688,7.54418 -16.09727,11.310619 -4.91997,4.226632 -9.85472,8.465957 -14.77469,12.692587 -4.46603,4.61607 -8.94548,9.246 -13.41152,13.86207 -4.01758,4.94065 -8.04722,9.89614 -12.0648,14.8368 -3.58328,5.20427 -7.17731,10.42418 -10.76059,15.62845 -2.58004,4.34051 -5.16784,8.69405 -7.74789,13.03456 -2.32286,4.45667 -4.6527,8.92673 -6.97557,13.3834 -2.07516,4.55419 -4.15656,9.12205 -6.23175,13.67623 -5.50468,-2.73755 -11.02589,-5.48332 -16.53056,-8.22087 -5.71359,-2.36818 -11.44434,-4.74348 -17.15793,-7.11166 -5.90556,-1.94959 -11.82886,-3.90503 -17.73442,-5.85461 -6.07374,-1.47175 -12.16573,-2.94791 -18.23947,-4.41966 -6.20242,-0.92847 -12.42348,-1.85972 -18.62591,-2.78819 -6.27851,-0.32206 -12.57587,-0.64509 -18.85438,-0.96716 -3.97763,0.13458 -7.96722,0.26955 -11.94487,0.40413 -3.95389,0.40564 -7.91966,0.81251 -11.87356,1.21816 -7.18434,1.08704 -14.39026,2.17734 -21.5746,3.26439 -7.12416,1.37389 -14.26971,2.75191 -21.39387,4.1258 -7.03474,1.70607 -14.0906,3.41726 -21.12534,5.12333 -6.91473,2.06618 -13.85021,4.13856 -20.76493,6.20473 -6.75529,2.45534 -13.53079,4.91805 -20.28607,7.37338 -6.54711,2.87573 -13.11387,5.76009 -19.66098,8.63581 -6.27668,3.32605 -12.57223,6.66208 -18.84895,9.98813 -5.93367,3.8028 -11.88519,7.61702 -17.81891,11.41982 -5.50423,4.29379 -11.02502,8.60046 -16.52929,12.89424 -4.57834,4.328 -9.17046,8.669 -13.74879,12.997 -4.17905,4.64558 -8.37063,9.30512 -12.54968,13.9507 -3.82147,4.88821 -7.65443,9.7911 -11.47593,14.67932 -3.50244,5.07932 -7.01539,10.1739 -10.51783,15.25322 -3.2128,5.23153 -6.43527,10.47877 -9.64807,15.7103 -2.94666,5.35988 -5.90218,10.73585 -8.84883,16.09572 -5.64462,-3.8703 -11.3062,-7.75223 -16.95082,-11.62253 -5.91058,-3.53351 -11.83888,-7.07764 -17.74947,-10.61115 -6.16908,-3.15393 -12.35673,-6.31732 -18.52585,-9.47125 -6.41935,-2.72158 -12.857965,-5.45133 -19.277315,-8.17291 -6.64876,-2.22601 -13.31751,-4.45871 -19.96627,-6.68472 -6.84964,-1.6643 -13.71985,-3.3336 -20.56948,-4.99791 -7.0017,-1.03669 -14.02442,-2.07649 -21.02607,-3.11318 -7.08259,-0.35421 -14.18642,-0.7095 -21.269,-1.06372 -7.3218,0.39068 -14.66556,0.78252 -21.98736,1.17319 -7.22028,1.16786 -14.462222,2.33922 -21.682507,3.50708 -7.019816,1.91418 -14.060703,3.8341 -21.080474,5.74828 -6.740786,2.60377 -13.501837,5.21537 -20.242623,7.81914 -5.132057,3.11563 -10.279549,6.24062 -15.411607,9.35625 -4.038754,4.23586 -8.089631,8.48443 -12.128344,12.72029 -3.05461,4.86325 -6.11835,9.74111 -9.17296,14.60436 -2.19041,5.23196 -4.38744,10.47963 -6.57785,15.71159 -1.3641,5.4545 -2.73227,10.92539 -4.09637,16.37989 -0.46751,5.57098 -0.93645,11.1587 -1.40397,16.72969 0.54482,5.04983 1.09125,10.11483 1.63607,15.16467 1.76934,4.80928 3.54404,9.633 5.31342,14.44228 3.26622,4.11572 6.54233,8.24381 9.8086,12.35954 4.66915,2.80418 9.352354,5.61678 14.021554,8.42096 4.223521,0.4303 8.459703,0.86189 12.683179,1.29219 0.003,0 0.0045,0 0.0089,0 7.169866,-0.48285 14.361207,-0.96715 21.531073,-1.45 7.138192,-0.79743 14.297769,-1.59726 21.43596,-2.39469 7.121326,-0.90853 14.264039,-1.81978 21.385359,-2.72831 7.1109,-0.97314 14.24315,-1.94921 21.354,-2.92235 7.10316,-1.01827 14.22767,-2.03961 21.33083,-3.05788 7.09793,-1.05355 14.21719,-2.11027 21.31512,-3.16382 7.09252,-1.08316 14.20637,-2.16957 21.29889,-3.25273 7.0854,-1.10952 14.19205,-2.22238 21.27745,-3.33191 7.08035,-1.13528 14.181935,-2.27397 21.262235,-3.40925 7.07543,-1.1622 14.1721,-2.32788 21.24753,-3.49007 7.06943,-1.19308 14.16006,-2.38975 21.22945,-3.58284 2.43342,5.87381 4.87414,11.76525 7.30752,17.63905 2.43356,5.87414 4.87442,11.76591 7.30798,17.64004 2.43351,5.87403 4.87432,11.76569 7.30779,17.63972 2.43302,5.87287 4.87338,11.76338 7.3064,17.63625 2.43379,5.87472 4.87486,11.76709 7.30869,17.64182 2.43383,5.87482 4.87495,11.76728 7.30878,17.6421 2.43343,5.87382 4.87414,11.76528 7.30757,17.6391 2.43302,5.87284 4.87334,11.7633 7.30632,17.63614 2.4336,5.87421 4.8745,11.76606 7.30806,17.64026 1.06668,1.0067 2.13654,2.01646 3.20323,3.02317 2.81866,2.54292 5.64573,5.09349 8.4644,7.63641 -3.24475,5.26393 -6.49925,10.54365 -9.74399,15.80754 -3.24381,5.2624 -6.49733,10.54058 -9.74113,15.80299 -3.24417,5.26292 -6.49804,10.54167 -9.74221,15.80459 -3.24394,5.26261 -6.49763,10.54107 -9.74157,15.80372 -3.24457,5.26357 -6.49889,10.543 -9.74341,15.80661 -3.24489,5.26409 -6.49947,10.54396 -9.74431,15.80806 -3.24399,5.26268 -6.49777,10.54119 -9.74176,15.80391 -0.43664,0.71582 -0.87431,1.43381 -1.31081,2.14963 -1.67553,6.01413 -3.3561,12.04633 -5.03163,18.0605 -1.67574,6.01497 -3.35654,12.04798 -5.03229,18.06296 -1.67521,6.01296 -3.35543,12.04399 -5.03063,18.057 -1.67566,6.01461 -3.35633,12.04729 -5.03198,18.0619 -1.67557,6.01421 -3.35615,12.0465 -5.03167,18.06071 -1.67494,6.01195 -3.35485,12.04194 -5.02979,18.05385 -1.67547,6.01393 -3.35596,12.04593 -5.03144,18.05986 -1.67539,6.01373 -3.35583,12.04549 -5.03122,18.05917 -3.77905,-4.5961 -7.56942,-9.20604 -11.34847,-13.80214 -3.77905,-4.5961 -7.56942,-9.206 -11.348465,-13.8021 -3.77905,-4.59614 -7.56946,-9.20613 -11.34856,-13.80227 -1.59369,-4.99478 -3.19222,-10.00454 -4.78592,-14.99933 -1.59392,-4.99551 -3.19263,-10.006 -4.78659,-15.00147 -1.59352,-4.99426 -3.19187,-10.0035 -4.78538,-14.99772 -1.59357,-4.9943 -3.19187,-10.00358 -4.78543,-14.99784 2.8842,-0.41556 5.77704,-0.83236 8.66125,-1.24792 5.35762,-1.04534 10.73131,-2.09379 16.08893,-3.1391 4.82055,-2.25763 9.655545,-4.52203 14.476095,-6.77966 1.813,-4.4773 3.63146,-8.96805 5.44446,-13.44536 -2.82032,-4.32808 -5.64914,-8.66916 -8.46946,-12.99724 -5.480645,-1.55804 -10.977815,-3.12079 -16.458465,-4.67882 -4.29443,-0.28179 -8.6017,-0.56454 -12.89613,-0.84641 -4.30307,-0.068 -8.61902,-0.13606 -12.92208,-0.20409 -2.57431,0.0241 -5.1564,0.0455 -7.7307,0.0684 -0.83875,-2.63543 -1.68,-5.27875 -2.51874,-7.91417 4.04193,-1.0526 8.09598,-2.10833 12.13787,-3.16088 3.73319,-1.74639 7.47762,-3.49802 11.21081,-5.24441 4.25197,-3.27154 8.5167,-6.55287 12.76867,-9.82441 3.15782,-4.15534 6.32513,-8.3232 9.483,-12.47855 1.84762,-4.75422 3.700795,-9.52273 5.548425,-14.27695 0.43485,-5.02087 0.87082,-10.0568 1.30554,-15.07767 -1.03336,-4.9497 -2.0698,-9.91426 -3.10315,-14.86396 -2.428595,-4.53632 -4.864525,-9.08624 -7.293115,-13.62256 -4.77868,-4.6808 -9.57171,-9.37568 -14.35043,-14.05648 -6.21297,-3.0224 -12.44463,-6.0539 -18.65765,-9.0763 -6.96899,-1.03818 -13.95888,-2.07946 -20.92787,-3.11764 -6.10323,0.7993 -12.22475,1.60103 -18.32793,2.40033 -5.59447,2.33746 -11.20576,4.68193 -16.80023,7.01939 -4.97315,4.04568 -9.96124,8.10349 -14.93439,12.14918 -3.33051,5.23624 -6.67104,10.48825 -10.00154,15.72453 -1.37793,5.90286 -2.76002,11.82352 -4.13794,17.72638 0.70681,5.9975 1.41577,12.01296 2.12263,18.01042 2.74306,5.50571 5.49434,11.02792 8.2374,16.53358 3.31015,3.54552 6.63028,7.10167 9.94044,10.64719 4.15507,2.73341 8.32262,5.47499 12.4777,8.20836 -3.04656,5.74268 -6.10229,11.50264 -9.14889,17.24533 -5.61836,0.57476 -11.25359,1.15126 -16.87194,1.72602 -5.59219,0.75768 -11.201151,1.51766 -16.793292,2.27535 -5.357984,1.04506 -10.732028,2.09323 -16.089967,3.13829 -4.823053,2.25663 -9.660601,4.52006 -14.483654,6.77673 -1.813091,4.47722 -3.631684,8.96785 -5.44482,13.44507 2.73827,4.63032 5.484726,9.27452 8.222995,13.90484 5.567178,1.86172 11.151132,3.72904 16.718355,5.59076 4.280114,0.63962 8.573069,1.28117 12.853139,1.92082 4.318857,0.32164 8.650684,0.64396 12.969544,0.96548 0.58401,0 1.16972,0 1.75372,0 -1.25127,5.86845 -2.5063,11.75448 -3.75757,17.62293 -0.66221,5.94388 -1.32644,11.90564 -1.98864,17.84956 0.0846,5.9723 0.16955,11.96256 0.25411,17.93487 0.96812,5.90837 1.93916,11.8345 2.90729,17.74292 1.926,5.71346 3.85774,11.44412 5.78375,17.15758 2.25693,4.85828 4.52067,9.73113 6.77765,14.58941 2.45114,4.7826 4.90971,9.57958 7.36085,14.36214 2.54558,4.7427 5.09877,9.49962 7.64436,14.24229 -6.06185,3.12686 -12.1419,6.26315 -18.20374,9.39005 -5.39463,3.99602 -10.80545,8.00407 -16.200113,12.00012 -4.643968,4.70044 -9.301893,9.41505 -13.945906,14.11549 -3.85072,5.24783 -7.713028,10.51144 -11.563749,15.75927 -3.028931,5.66934 -6.066944,11.35571 -9.09583,17.0251 -2.15122,5.98474 -4.308881,11.98744 -6.460056,17.97218 -1.152089,6.19934 -2.307668,12.41728 -3.459757,18.61662 0.108266,6.28227 0.216531,12.58342 0.324797,18.86569 1.362044,4.88726 2.728203,9.78922 4.090247,14.67648 2.972025,4.25063 5.952952,8.51406 8.924977,12.76472 4.618109,2.8043 9.250042,5.617 13.868151,8.4213 5.488171,0.9172 10.992849,1.8371 16.48102,2.7543 0.280059,0 0.561013,0 0.841072,0 6.000237,0.024 12.018507,0.049 18.018747,0.073 5.99903,0.032 12.01609,0.065 18.01513,0.097 6.00153,0.024 12.0211,0.051 18.02264,0.077 6.00104,0.016 12.02012,0.032 18.02116,0.047 6.0006,0 12.01927,0.012 18.01987,0.016 7.26695,-0.024 14.55573,-0.051 21.82272,-0.077 7.26869,-0.044 14.55917,-0.089 21.827855,-0.1328 7.26717,-0.016 14.55613,-0.032 21.82326,-0.051 0.0179,-0.016 0.0403,-0.032 0.0582,-0.048 6.42681,0 12.87296,0 19.29977,0 6.42861,0 12.87649,0 19.30505,0 6.42897,0 12.87721,0 19.30613,0 6.42659,0 12.87247,0 19.29906,0 6.42936,0 12.87805,0 19.30742,0 5.14866,0 10.31274,0 15.4614,0 6.81125,0 13.6429,0 20.45414,0 6.81125,0 13.6429,0 20.45415,0 6.77796,0 13.57623,0 20.3542,0 6.77791,0 13.57619,0 20.35411,0 6.778,0 13.57637,0 20.35437,0 4.95871,0 9.93229,0 14.891,0 4.9587,0 9.93229,0 14.89099,0 4.5222,0 9.05797,0 13.58017,0 4.5222,0 9.05798,0 13.58018,0 6.81048,0 13.64143,0 20.45191,0 6.81048,0 13.64142,0 20.45191,0 5.97397,0 11.9659,0 17.93988,0 7.10105,0 14.22342,0 21.32447,0 7.10178,0 14.22489,0 21.32667,0 7.10051,0 14.22234,0 21.32285,0 7.10046,0 14.22224,0 21.3227,0 7.10078,0 14.22288,0 21.32365,0 7.09988,0 14.22107,0 21.32095,0 0.021,0.107 0.0416,0.2149 0.0626,0.322 5.2566,-0.056 10.52899,-0.1131 15.78559,-0.1695 5.25671,-0.056 10.5292,-0.1123 15.78591,-0.1686 6.00074,2e-4 12.0195,5e-4 18.02023,8e-4 5.9986,8e-4 12.01522,0 18.01382,0 6.00073,10e-4 12.01949,0 18.02022,0 6.00122,0 12.02049,0 18.02172,0 5.99968,10e-4 12.0174,0 18.01709,0 0.89684,0 1.79638,0 2.69322,0 0,0.3095 0,0.6202 0,0.9299 6.91763,-2.0605 13.85603,-4.127 20.77367,-6.1874 4.97928,-4.8194 9.97351,-9.65317 14.95279,-14.47253 2.23654,-6.28661 4.47979,-12.59215 6.71633,-18.87876 0.10099,-6.30417 0.20227,-12.62726 0.30325,-18.93139 -1.1623,-6.22208 -2.3281,-12.46289 -3.4904,-18.68498 -2.15322,-6.00881 -4.3129,-12.0357 -6.46612,-18.04451 -3.02,-5.69692 -6.04906,-11.41095 -9.06906,-17.10787 -3.83595,-5.28575 -7.68341,-10.5874 -11.51935,-15.87319 -4.62474,-4.74351 -9.26337,-9.50123 -13.8881,-14.24475 -5.38402,-4.04532 -10.7842,-8.10285 -16.16821,-12.14818 -6.06311,-3.1684 -12.14443,-6.34627 -18.20754,-9.51468 -6.59536,-2.13944 -13.21052,-4.28532 -19.80589,-6.42481 -6.09015,-1.28945 -12.19861,-2.58277 -18.28877,-3.87223 -6.15931,-0.99217 -12.33712,-1.98732 -18.49644,-2.97949 -6.21773,-0.61651 -12.45412,-1.23491 -18.67182,-1.85146 0.5244,-2.47324 1.05036,-4.95388 1.57477,-7.42708 -0.38189,-6.50545 -0.7649,-13.03045 -1.14676,-19.53594 -0.38188,-6.5058 -0.76494,-13.03117 -1.14683,-19.53702 -0.38188,-6.50572 -0.76492,-13.03093 -1.14679,-19.53666 -0.3818,-6.50443 -0.76477,-13.02839 -1.14659,-19.53283 -0.38192,-6.50649 -0.76499,-13.0325 -1.14693,-19.539 -0.38192,-6.50657 -0.76502,-13.0327 -1.14696,-19.53931 -0.38188,-6.50548 -0.76488,-13.03049 -1.14675,-19.53598 -0.3818,-6.50439 -0.76477,-13.02831 -1.14657,-19.53271 -0.38189,-6.50589 -0.76494,-13.03134 -1.14684,-19.53726 5.27299,-3.19135 10.56181,-6.39229 15.8348,-9.58364 5.12932,-3.37532 10.27407,-6.76078 15.4034,-10.13614 4.94827,-3.58626 9.9114,-7.18326 14.85968,-10.76952 2.2138,-1.74132 4.43424,-3.48783 6.64804,-5.22915 0.29482,-6.21231 0.59053,-12.44325 0.88535,-18.65551 0.29487,-6.21303 0.5906,-12.4447 0.88546,-18.65773 0.29482,-6.21198 0.5905,-12.4426 0.88531,-18.65459 0.29482,-6.21226 0.59053,-12.44316 0.88535,-18.65543 0.29486,-6.21276 0.59057,-12.44417 0.88542,-18.65692 0.29486,-6.2129 0.59059,-12.44446 0.88544,-18.65736 0.29487,-6.21303 0.5906,-12.44471 0.88546,-18.65774 0.2949,-6.21446 0.59073,-12.44758 0.88566,-18.66204 0.29482,-6.2123 0.59053,-12.44325 0.88535,-18.65554 0.29487,-6.21346 0.59064,-12.44559 0.88552,-18.65906 0.29487,-6.21293 0.59059,-12.44451 0.88545,-18.65744 0.29486,-6.21313 0.59061,-12.44492 0.88547,-18.65805 -2.57465,-6.20098 -5.15703,-12.42059 -7.73168,-18.62158 -2.57501,-6.20183 -5.15775,-12.42228 -7.73274,-18.62412 -2.57416,-6.19978 -5.15605,-12.41819 -7.7302,-18.61798 -2.57485,-6.20147 -5.15744,-12.42156 -7.73229,-18.62303 -2.57468,-6.20107 -5.1571,-12.42075 -7.73178,-18.62181 -2.5744,-6.20037 -5.15652,-12.41937 -7.73092,-18.61974 -2.57424,-6.19999 -5.15621,-12.41859 -7.73044,-18.61858 -2.5741,-6.19965 -5.15593,-12.41792 -7.73002,-18.61757 6.16784,-2.0466 12.35421,-4.09935 18.52205,-6.14595 6.16004,-2.06512 12.33858,-4.13646 18.49862,-6.20158 6.15304,-2.08255 12.32457,-4.17137 18.47761,-6.25392 6.14712,-2.10044 12.3127,-4.20718 18.45982,-6.30762 6.13834,-2.1186 12.29512,-4.24356 18.43347,-6.36215 6.12925,-2.13911 12.27692,-4.28465 18.40618,-6.42376 6.53101,-2.30978 13.08163,-4.62649 19.61264,-6.93627 6.51401,-2.3432 13.04758,-4.69345 19.56158,-7.03666 6.49177,-2.39457 13.00303,-4.79634 19.49479,-7.19091 6.45254,-2.48215 12.92446,-4.97174 19.377,-7.45389 6.35518,-2.67431 12.72944,-5.35664 19.08462,-8.03095 5.6372,-3.64604 11.29132,-7.30304 16.92851,-10.94908 2.66675,-5.69238 5.34151,-11.40186 8.00827,-17.09425 -0.21367,-6.19137 -0.42775,-12.40177 -0.6412,-18.59359 -2.3669,-5.83853 -4.74091,-11.6946 -7.10781,-17.53313"
       id="path3005"
       style="fill:#595d65;fill-opacity:1;fill-rule:nonzero;stroke:none" />
  </g>
</svg>
