<?xml version="1.0" encoding="UTF-8" standalone="no"?>
<!-- Created with Inkscape (http://www.inkscape.org/) -->

<svg
   xmlns:dc="http://purl.org/dc/elements/1.1/"
   xmlns:cc="http://creativecommons.org/ns#"
   xmlns:rdf="http://www.w3.org/1999/02/22-rdf-syntax-ns#"
   xmlns:svg="http://www.w3.org/2000/svg"
   xmlns="http://www.w3.org/2000/svg"
   xmlns:sodipodi="http://sodipodi.sourceforge.net/DTD/sodipodi-0.dtd"
   xmlns:inkscape="http://www.inkscape.org/namespaces/inkscape"
   sodipodi:docname="Tindog-outline.svg"
   inkscape:version="0.48.1 "
   version="1.1"
   id="svg2"
   height="1000"
   width="1000">
  <sodipodi:namedview
     id="base"
     pagecolor="#ffffff"
     bordercolor="#666666"
     borderopacity="1.0"
     inkscape:pageopacity="0.0"
     inkscape:pageshadow="2"
     inkscape:zoom="0.5"
     inkscape:cx="493.64215"
     inkscape:cy="553.396"
     inkscape:document-units="px"
     inkscape:current-layer="layer1"
     showgrid="false"
     inkscape:showpageshadow="false"
     inkscape:window-width="1366"
     inkscape:window-height="716"
     inkscape:window-x="-8"
     inkscape:window-y="-8"
     inkscape:window-maximized="1" />
  <defs
     id="defs4">
    <clipPath
       id="clipPath2999"
       clipPathUnits="userSpaceOnUse">
      <path
         id="path3001"
         d="M 0,243 220,243 220,0 0,0 0,243 z"
         inkscape:connector-curvature="0" />
    </clipPath>
  </defs>
  <metadata
     id="metadata7">
    <rdf:RDF>
      <cc:Work
         rdf:about="">
        <dc:format>image/svg+xml</dc:format>
        <dc:type
           rdf:resource="http://purl.org/dc/dcmitype/StillImage" />
      </cc:Work>
    </rdf:RDF>
  </metadata>
  <g
     inkscape:label="Layer 1"
     inkscape:groupmode="layer"
     id="layer1"
     transform="translate(0,-52.362183)">
    <g
       transform="matrix(4.4737847,0,0,-4.0255211,4.0247838,1031.0792)"
       inkscape:label="Tindie_logo_large"
       id="g2993">
      <g
         id="g2995">
        <g
           clip-path="url(#clipPath2999)"
           id="g2997">
          <g
             transform="translate(207.459,219.2939)"
             id="g3003">
            <path
               id="path3005"
               style="fill:#595d65;fill-opacity:1;fill-rule:nonzero;stroke:none"
               d="M7.361 7.422C6.62394105317 8.5991607627 5.88466871611 9.7798565427 5.14760976928 10.9570173054C4.24057041907 12.0099699962 3.33080722697 13.0660847072 2.42376787676 14.119037398C1.37955090815 15.0364001941 0.332198152852 15.9565178334 -0.712018815755 16.8738806295C-1.88058709019 17.6256165031 -3.05266457866 18.3796098417 -4.22123285309 19.1313457153C-5.50542309134 19.6587239387 -6.79346975674 20.1876858806 -8.07765999499 20.715064104C-9.44873421666 20.9188387574 -10.8239257783 21.1232253466 -12.195 21.327C-12.643884 21.302358 -13.094116 21.277642 -13.543 21.253C-15.0506752473 21.0575613477 -16.5628780479 20.8615357924 -18.0705532952 20.6660971401C-19.5500662329 20.3162495945 -21.0340221524 19.9653514557 -22.5135350901 19.6155039101C-23.9466226622 19.1087714898 -25.3840138006 18.6005173506 -26.8171013727 18.0937849303C-28.1864249395 17.4333059352 -29.559860589 16.7708435198 -30.9291841558 16.1103645247C-32.2186752257 15.3054924029 -33.5120386411 14.4982032478 -34.801529711 13.693331126C-35.9997085272 12.7576917266 -37.201485478 11.8192425994 -38.3996642942 10.8836032C-39.4993972877 9.83364399141 -40.6024327828 8.78053175216 -41.7021657763 7.73057254357C-42.7004338485 6.58387153114 -43.7016997227 5.43372697213 -44.6999677949 4.2870259597C-45.5979949934 3.05969361574 -46.4987189702 1.82867558906 -47.3967461687 0.601343245092C-48.1976956945 -0.691477055524 -49.0010504742 -1.98817969938 -49.802 -3.281C-50.3787033772 -4.35924727189 -50.9571385965 -5.44073252358 -51.5338419737 -6.51897979547C-52.053058955 -7.62608461962 -52.5738351465 -8.73651408288 -53.0930521278 -9.84361890703C-53.5569037692 -10.974946811 -54.0221483586 -12.109672096 -54.486 -13.241C-55.7164298956 -12.5609511957 -56.9505547759 -11.8788602027 -58.1809846715 -11.1988113984C-59.4581114138 -10.6105191537 -60.7390733714 -10.0204602657 -62.0162001137 -9.43216802102C-63.336237235 -8.94786161298 -64.6602384316 -8.46210083135 -65.9802755529 -7.97779442331C-67.3379051275 -7.61219065497 -68.6996116677 -7.24548897741 -70.0572412423 -6.87988520907C-71.4436354364 -6.64923967787 -72.8341929763 -6.41790151746 -74.2205871704 -6.18725598626C-75.6239866427 -6.10725074284 -77.0316005277 -6.02700524342 -78.435 -5.947C-79.3240999151 -5.98043001944 -80.2158697998 -6.01396042932 -81.1049697149 -6.04739044876C-81.9887617998 -6.14815942932 -82.8752079151 -6.24923101944 -83.759 -6.35C-85.3648759177 -6.62003740623 -86.9755742857 -6.8908857356 -88.5814502034 -7.16092314183C-90.1738730677 -7.50221865801 -91.7710779826 -7.84453908564 -93.3635008469 -8.18583460182C-94.9359367325 -8.6096483052 -96.5130946478 -9.0347347224 -98.0855305334 -9.45854842578C-99.6311414102 -9.97181710955 -101.181393761 -10.4866271407 -102.727004638 -10.9998958245C-104.236967125 -11.6098382566 -105.751464033 -12.2216123478 -107.26142652 -12.8315547799C-108.724865035 -13.5459276918 -110.192698261 -14.2624458678 -111.656136776 -14.9768187797C-113.059132448 -15.803059082 -114.466341319 -16.6317805864 -115.869336991 -17.4580208887C-117.195662841 -18.4026937614 -118.525971653 -19.3502034895 -119.852297503 -20.2948763622C-121.082633435 -21.3615165336 -122.316664068 -22.4313598286 -123.547 -23.498C-124.570371809 -24.5731403939 -125.596816807 -25.6515094377 -126.620188616 -26.7266498316C-127.554306374 -27.8806824483 -128.49122929 -29.0381806283 -129.425347048 -30.192213245C-130.279542326 -31.4065189663 -131.136302754 -32.6244712514 -131.990498032 -33.8387769727C-132.773378571 -35.1005573568 -133.558610103 -36.3661268711 -134.341490642 -37.6279072552C-135.059630977 -38.9274976441 -135.779927889 -40.2309907069 -136.498068224 -41.5305810958C-137.156719505 -42.8620545909 -137.817348719 -44.1975265049 -138.476 -45.529C-139.737710592 -44.5675585949 -141.003210106 -43.6032299784 -142.264920698 -42.6417885733C-143.586076703 -41.7640106284 -144.911200144 -40.8835967136 -146.232356149 -40.0058187687C-147.611303525 -39.2223368861 -148.994391884 -38.4365022052 -150.37333926 -37.6530203226C-151.808218706 -36.976938391 -153.247407098 -36.2988261833 -154.682286544 -35.6227442517C-156.168450653 -35.0697699568 -157.659077718 -34.5151350785 -159.145241827 -33.9621607836C-160.676302254 -33.5487228177 -162.211960459 -33.1340432964 -163.743020886 -32.7206053305C-165.308068706 -32.4630754829 -166.877816369 -32.2047722724 -168.442864189 -31.9472424248C-170.025991414 -31.8592496973 -171.613872775 -31.7709927275 -173.197 -31.683C-174.833598301 -31.7800482071 -176.475111311 -31.8773878503 -178.111709612 -31.9744360574C-179.725617147 -32.2645499892 -181.34437125 -32.5555351341 -182.958278785 -32.8456490659C-184.527375983 -33.3211590072 -186.101185186 -33.7980969063 -187.670282384 -34.2736068476C-189.17701335 -34.9204237673 -190.688269034 -35.5691830803 -192.195 -36.216C-193.342142678 -36.9899695196 -194.492730228 -37.766263272 -195.639872906 -38.5402327916C-196.542629255 -39.5924836256 -197.448096583 -40.6478943719 -198.350852932 -41.7001452059C-199.033628162 -42.9082500211 -199.718453768 -44.1199827787 -200.401228998 -45.3280875939C-200.890843213 -46.6277850179 -201.38192774 -47.9313854372 -201.871541955 -49.2310828612C-202.176449937 -50.5860633 -202.482273559 -51.9451127492 -202.787181541 -53.300093188C-202.891683088 -54.6840101564 -202.996498453 -56.0720830316 -203.101 -57.456C-202.979222889 -58.7104549651 -202.857080081 -59.9686770621 -202.73530297 -61.2231320272C-202.339806034 -62.4178290356 -201.94312142 -63.6161137226 -201.547624484 -64.810810731C-200.81753513 -65.8332192901 -200.085253315 -66.8586981451 -199.355163961 -67.8811067042C-198.311487362 -68.5777071717 -197.264676599 -69.2763995325 -196.221 -69.973C-195.276945 -70.079893 -194.330055 -70.187107 -193.386 -70.294C-193.385334 -70.294 -193.384666 -70.294 -193.384 -70.294C-191.78136401 -70.1740528371 -190.1739153 -70.0537454725 -188.57127931 -69.9337983096C-186.975724559 -69.7357042578 -185.375378353 -69.5370153291 -183.779823602 -69.3389212773C-182.188032945 -69.1132299008 -180.591462135 -68.8868607725 -178.999671478 -68.661169396C-177.410214576 -68.4194256116 -175.81598453 -68.1769558699 -174.226527628 -67.9352120855C-172.638798964 -67.6822575865 -171.046302345 -67.4285434644 -169.458573681 -67.1755889654C-167.872010893 -66.9138705962 -166.280683653 -66.651366286 -164.694120865 -66.3896479168C-163.108767635 -66.1205754484 -161.518653585 -65.8506949547 -159.933300355 -65.5816224863C-158.349542739 -65.3059991123 -156.761029095 -65.0295480406 -155.177271479 -64.7539246666C-153.594643561 -64.4719039421 -152.007263006 -64.1890363085 -150.424635088 -63.907015584C-148.843105583 -63.6183093524 -147.256826741 -63.328736135 -145.675297236 -63.0400299034C-144.095113256 -62.7436499456 -142.51018398 -62.4463799578 -140.93 -62.15C-140.386073485 -63.6091408724 -139.840513558 -65.0726635491 -139.296587043 -66.5318044215C-138.752629826 -67.9910276564 -138.207039103 -69.454632943 -137.663081886 -70.9138561779C-137.119134761 -72.3730523398 -136.57355416 -73.8366304722 -136.029607035 -75.2958266341C-135.485766719 -76.7547362703 -134.940293248 -78.2180270164 -134.396452932 -79.6769366526C-133.852440932 -81.1363068483 -133.306795262 -82.6000595371 -132.762783262 -84.0594297328C-132.218762411 -85.518823671 -131.673107865 -86.9826001735 -131.129087014 -88.4419941117C-130.585158891 -89.9011392983 -130.03959735 -91.3646663023 -129.495669227 -92.8238114889C-128.951832365 -94.2827118579 -128.406362359 -95.7459933091 -127.862525497 -97.2048936781C-127.318561506 -98.6641350833 -126.772963991 -100.127758595 -126.229 -101.587C-125.990572 -101.837083 -125.751428 -102.087917 -125.513 -102.338C-124.882964 -102.969701 -124.251036 -103.603299 -123.621 -104.235C-124.34627975 -105.542635046 -125.073737517 -106.854196925 -125.799017267 -108.161831971C-126.524087235 -109.469088794 -127.251334591 -110.780271312 -127.976404559 -112.087528135C-128.701548855 -113.394918966 -129.428870761 -114.706235897 -130.154015057 -116.013626728C-130.879118791 -117.320944428 -131.606400014 -118.632188008 -132.331503748 -119.939505708C-133.056741093 -121.247064301 -133.784156327 -122.558549495 -134.509393672 -123.866108088C-135.234696785 -125.173785256 -135.962177985 -126.485389383 -136.687481098 -127.793066551C-137.412594892 -129.10040239 -138.139886206 -130.411664161 -138.865 -131.719C-138.962569 -131.896822 -139.060431 -132.075178 -139.158 -132.253C-139.532520818 -133.747003797 -139.908166323 -135.245494091 -140.282687141 -136.739497888C-140.657258997 -138.233705281 -141.032955694 -139.732399782 -141.40752755 -141.226607175C-141.781975936 -142.720322035 -142.157548793 -144.218522526 -142.531997179 -145.712237386C-142.906547354 -147.206358288 -143.282222303 -148.704966041 -143.656772478 -150.199086943C-144.031297825 -151.693108809 -144.406947874 -153.191617226 -144.781473221 -154.685639092C-145.155856724 -156.179095126 -145.531364503 -157.677036012 -145.905748006 -159.170492046C-146.280255612 -160.664443138 -146.655887865 -162.162880569 -147.030395471 -163.656831661C-147.404888779 -165.150725718 -147.780506692 -166.649105943 -148.155 -168.143C-148.999709089 -167.001255231 -149.846954843 -165.856081799 -150.691663932 -164.71433703C-151.536369196 -163.572597431 -152.383611113 -162.427429185 -153.228316377 -161.285689586C-154.073032023 -160.143935954 -154.920284354 -158.998753632 -155.765 -157.857C-156.121232686 -156.616221325 -156.47853514 -155.371716587 -156.834767826 -154.130937912C-157.191050809 -152.889984047 -157.548403712 -151.645303595 -157.904686695 -150.40434973C-158.260881023 -149.163704656 -158.618145005 -147.919333921 -158.974339333 -146.678688847C-159.330536335 -145.438034461 -159.687802998 -144.193654386 -160.044 -142.953C-159.399312 -142.84977 -158.752688 -142.74623 -158.108 -142.643C-156.910441971 -142.383324998 -155.709287672 -142.122870192 -154.511729643 -141.86319519C-153.434222179 -141.302368098 -152.353478956 -140.739856842 -151.275971492 -140.17902975C-150.870719985 -139.066799843 -150.464251507 -137.951229907 -150.059 -136.839C-150.689411994 -135.763840102 -151.321717116 -134.685451497 -151.95212911 -133.610291599C-153.177193116 -133.223248497 -154.405935994 -132.835043102 -155.631 -132.448C-156.590905708 -132.377983639 -157.553694016 -132.30775702 -158.513599724 -132.237740659C-159.475437016 -132.22084402 -160.440162708 -132.203896639 -161.402 -132.187C-161.977424 -132.192661 -162.554576 -132.198339 -163.13 -132.204C-163.317479 -131.549322 -163.505521 -130.892678 -163.693 -130.238C-162.789532939 -129.976523585 -161.883352764 -129.714261955 -160.979885703 -129.45278554C-160.145425764 -129.018957955 -159.308459939 -128.583827585 -158.474 -128.15C-157.523582696 -127.337303735 -156.570311287 -126.522166942 -155.619893983 -125.709470677C-154.914040839 -124.677216211 -154.206068015 -123.641861882 -153.500214871 -122.609607416C-153.087223319 -121.428587146 -152.672991552 -120.24402027 -152.26 -119.063C-152.162823334 -117.815743399 -152.065354847 -116.564741283 -151.968178181 -115.317484682C-152.199156183 -114.087904436 -152.430827814 -112.854631758 -152.661805816 -111.625051512C-153.204660479 -110.498162359 -153.749145337 -109.367889153 -154.292 -108.241C-155.360153395 -107.078217712 -156.431514459 -105.911943585 -157.499667854 -104.749161297C-158.888424604 -103.998349785 -160.281351795 -103.245283583 -161.670108545 -102.494472071C-163.2278464 -102.236572871 -164.790262145 -101.9778992 -166.348 -101.72C-167.712215949 -101.918560579 -169.080528643 -102.117717435 -170.444744592 -102.316278014C-171.695244643 -102.896937435 -172.949499949 -103.479340579 -174.2 -104.06C-175.311620757 -105.065005828 -176.426579714 -106.073029693 -177.538200471 -107.078035521C-178.282651519 -108.378803502 -179.029338156 -109.683477694 -179.773789204 -110.984245675C-180.081791221 -112.450614081 -180.390718168 -113.921385996 -180.698720185 -115.387754402C-180.540725696 -116.877616313 -180.382256749 -118.371952283 -180.22426226 -119.861814194C-179.611121927 -121.229507067 -178.996140333 -122.601307127 -178.383 -123.969C-177.643095929 -124.849759971 -176.900969925 -125.733164866 -176.161065854 -126.613924837C-175.232306925 -127.292936866 -174.300758929 -127.973987971 -173.372 -128.653C-174.052985 -130.079572 -174.736015 -131.510428 -175.417 -132.937C-176.672841028 -133.079781339 -177.932453351 -133.222991451 -179.188294379 -133.36577279C-180.438278351 -133.553993451 -181.692016028 -133.742779339 -182.942 -133.931C-184.139635639 -134.190606644 -185.340867781 -134.450992889 -186.53850342 -134.710599533C-187.616571536 -135.271184491 -188.697877095 -135.833452888 -189.775945211 -136.394037846C-190.181224456 -137.506245243 -190.587720755 -138.621792603 -190.993 -139.734C-190.380934044 -140.88423713 -189.767030052 -142.037928427 -189.154964096 -143.188165557C-187.910555052 -143.650647427 -186.662409044 -144.11451813 -185.418 -144.577C-184.461292723 -144.735893397 -183.501712452 -144.895263951 -182.545005175 -145.054157348C-181.579636452 -145.134024951 -180.611368723 -145.214132397 -179.646 -145.294C-179.515464 -145.294 -179.384536 -145.294 -179.254 -145.294C-179.533691033 -146.751807279 -179.814221979 -148.213992359 -180.093913012 -149.671799638C-180.241934293 -151.148354294 -180.390400081 -152.629343048 -180.538421362 -154.105897704C-180.519518208 -155.589509421 -180.500558289 -157.077576427 -180.481655135 -158.561188144C-180.265256899 -160.028921252 -180.048208818 -161.501061967 -179.831810582 -162.968795075C-179.401304658 -164.388109315 -178.969505924 -165.81168576 -178.539 -167.231C-178.034515923 -168.437868209 -177.52851688 -169.648360648 -177.024032803 -170.855228857C-176.476135828 -172.043298206 -175.926593517 -173.234935332 -175.378696542 -174.423004681C-174.809700594 -175.601157122 -174.238995948 -176.782847559 -173.67 -177.961C-175.024969537 -178.737764645 -176.384008052 -179.516861917 -177.738977589 -180.293626562C-178.944809957 -181.286303263 -180.154263442 -182.281960976 -181.36009581 -183.274637677C-182.398141405 -184.442304225 -183.439304253 -185.613477279 -184.477349848 -186.781143827C-185.338080873 -188.084784818 -186.201396676 -189.392340647 -187.062127701 -190.695981638C-187.739165391 -192.104333379 -188.418236226 -193.516914404 -189.095273916 -194.925266145C-189.576119459 -196.411965191 -190.058408983 -197.903128799 -190.539254526 -199.389827845C-190.796774514 -200.929836752 -191.055067836 -202.47447031 -191.312587824 -204.014479217C-191.288416079 -205.575090638 -191.264171745 -207.140388579 -191.24 -208.701C-190.935547517 -209.915072154 -190.630180762 -211.132790169 -190.325728279 -212.346862323C-189.661410693 -213.402784935 -188.995098159 -214.461878487 -188.330780573 -215.517801099C-187.298524032 -216.214434353 -186.263167622 -216.913159598 -185.230911081 -217.609792852C-184.004168691 -217.837633832 -182.77374239 -218.06615902 -181.547 -218.294C-181.484396 -218.294 -181.421604 -218.294 -181.359 -218.294C-180.017799943 -218.300072497 -178.672572259 -218.306163231 -177.331372202 -218.312235728C-175.990439364 -218.320261986 -174.645479701 -218.328312346 -173.304546863 -218.336338604C-171.963058322 -218.342660903 -170.617541287 -218.349002187 -169.276052746 -218.355324486C-167.934671303 -218.359232147 -166.589261687 -218.363151543 -165.247880244 -218.367059204C-163.906596123 -218.368371489 -162.561284121 -218.369687715 -161.22 -218.371C-159.595656857 -218.364592352 -157.966435807 -218.358165462 -156.342092664 -218.351757814C-154.717363726 -218.340755492 -153.087755723 -218.329720131 -151.463026785 -218.318717809C-149.838643866 -218.314482779 -148.209382919 -218.31023503 -146.585 -218.306C-146.580671 -218.302004 -146.576329 -218.297996 -146.572 -218.294C-145.135448201 -218.294 -143.694582433 -218.294 -142.258030634 -218.294C-140.821084705 -218.294 -139.379823624 -218.294 -137.942877695 -218.294C-136.505853626 -218.294 -135.064514168 -218.294 -133.627490099 -218.294C-132.19099111 -218.294 -130.750178311 -218.294 -129.313679322 -218.294C-127.876558108 -218.294 -126.435121214 -218.294 -124.998 -218.294C-123.847152 -218.294 -122.692848 -218.294 -121.542 -218.294C-120.019524 -218.294 -118.492476 -218.294 -116.97 -218.294C-115.447524 -218.294 -113.920476 -218.294 -112.398 -218.294C-110.882962633 -218.294 -109.363375605 -218.294 -107.848338238 -218.294C-106.333307732 -218.294 -104.813727585 -218.294 -103.298697079 -218.294C-101.783647952 -218.294 -100.264049127 -218.294 -98.749 -218.294C-97.6406095 -218.294 -96.5288905 -218.294 -95.4205 -218.294C-94.3121095 -218.294 -93.2003905 -218.294 -92.092 -218.294C-91.0811785 -218.294 -90.0673215 -218.294 -89.0565 -218.294C-88.0456785 -218.294 -87.0318215 -218.294 -86.021 -218.294C-84.4986905 -218.294 -82.9718095 -218.294 -81.4495 -218.294C-79.9271905 -218.294 -78.4003095 -218.294 -76.878 -218.294C-75.54267 -218.294 -74.20333 -218.294 -72.868 -218.294C-71.2807423408 -218.294 -69.6887181421 -218.294 -68.1014604829 -218.294C-66.514039077 -218.294 -64.9218506398 -218.294 -63.3344292339 -218.294C-61.747292566 -218.294 -60.1553897218 -218.294 -58.5682530539 -218.294C-56.9811267036 -218.294 -55.389234208 -218.294 -53.8021078577 -218.294C-52.2149117894 -218.294 -50.6229493665 -218.294 -49.0357532982 -218.294C-47.4487574499 -218.294 -45.8569958483 -218.294 -44.27 -218.294C-44.265338 -218.32064 -44.260662 -218.34736 -44.256 -218.374C-43.0810218125 -218.359966702 -41.9025151619 -218.345891261 -40.7275369744 -218.331857963C-39.5525341619 -218.317919261 -38.3740028125 -218.303938702 -37.199 -218.29C-35.8576891832 -218.290068173 -34.5123504059 -218.290136552 -33.1710395891 -218.290204725C-31.8302056858 -218.290407615 -30.4853452542 -218.290611114 -29.1445113509 -218.290814004C-27.8032012598 -218.291142348 -26.4578632106 -218.291471677 -25.1165531195 -218.291800021C-23.7751309552 -218.292217126 -22.4296804962 -218.292635485 -21.0882583319 -218.29305259C-19.7471813074 -218.293368078 -18.4020770245 -218.293684512 -17.061 -218.294C-16.860534 -218.294 -16.659466 -218.294 -16.459 -218.294C-16.459 -218.370923 -16.459 -218.448077 -16.459 -218.525C-14.9127406365 -218.013164037 -13.3618378516 -217.49979103 -11.8155784881 -216.987955067C-10.7025881688 -215.790758459 -9.5862555362 -214.589966667 -8.47326521689 -213.392770059C-7.97334389967 -211.831076629 -7.47192131722 -210.26469343 -6.972 -208.703C-6.94942785398 -207.136953512 -6.92678792374 -205.566204182 -6.90421577772 -204.000157694C-7.16401936467 -202.454495085 -7.42460314256 -200.904190846 -7.68440672951 -199.358528237C-8.16570295953 -197.865847727 -8.64844452358 -196.368684693 -9.1297407536 -194.876004183C-9.80478448249 -193.460803273 -10.4818553697 -192.04135251 -11.1568990986 -190.6261516C-12.0143258478 -189.313085975 -12.8743274522 -187.996077209 -13.7317542014 -186.683011584C-14.7654957343 -185.504654206 -15.8023415962 -184.322758217 -16.8360831291 -183.144400839C-18.0395415924 -182.139476098 -19.2466140452 -181.131533565 -20.4500725085 -180.126608824C-21.8053247314 -179.339534843 -23.1646467808 -178.550097277 -24.5198990037 -177.763023296C-25.9941236355 -177.231547538 -27.4727753682 -176.698475758 -28.947 -176.167C-30.3082987151 -175.846680129 -31.6736854142 -175.525398335 -33.0349841293 -175.205078464C-34.4117420571 -174.958610306 -35.7926343932 -174.711402002 -37.169392321 -174.464933844C-38.5592036781 -174.311775874 -39.9531886429 -174.15815797 -41.343 -174.005C-41.225784 -173.390615 -41.108216 -172.774385 -40.991 -172.16C-41.0763573546 -170.543945153 -41.1619710375 -168.923037287 -41.2473283921 -167.30698244C-41.3326905647 -165.690836373 -41.4183090803 -164.069837014 -41.5036712529 -162.453690947C-41.5890318418 -160.837574864 -41.6746487689 -159.21660558 -41.7600093578 -157.600489497C-41.8453531854 -155.984690752 -41.9309533009 -154.364039759 -42.0162971285 -152.748241014C-42.1016678981 -151.131932182 -42.1872950365 -149.51076957 -42.2726658061 -147.894460738C-42.3580379646 -146.27812561 -42.443666496 -144.656936624 -42.5290386545 -143.040601496C-42.6143962614 -141.42454187 -42.7000101976 -139.803629213 -42.7853678045 -138.187569587C-42.87071109 -136.571781106 -42.9563106617 -134.951140408 -43.0416539472 -133.335351927C-43.1270171828 -131.719185735 -43.2126367644 -130.098166192 -43.298 -128.482C-42.1193583664 -127.689221732 -40.9371772684 -126.894062748 -39.7585356348 -126.10128448C-38.6120050105 -125.262800579 -37.4620313512 -124.421798708 -36.3155007269 -123.583314807C-35.2094409848 -122.692434976 -34.1000597421 -121.798879831 -32.994 -120.908C-32.499162 -120.475433 -32.002838 -120.041567 -31.508 -119.609C-31.4420999633 -118.065773751 -31.3760020286 -116.517913188 -31.3101019919 -114.974686939C-31.2441942731 -113.431280792 -31.1780886331 -111.883239793 -31.1121809143 -110.339833646C-31.0462841711 -108.796684523 -30.9801895398 -107.24890132 -30.9142927966 -105.705752197C-30.8483930547 -104.162532852 -30.7822954157 -102.614679214 -30.7163956738 -101.071459869C-30.6504907162 -99.5281183829 -30.5843878457 -97.9801422376 -30.5184828881 -96.4368007515C-30.4525763554 -94.8934223829 -30.3864719053 -93.3454092444 -30.3205653726 -91.8020308758C-30.2546575266 -90.2586217506 -30.1885517591 -88.7105777631 -30.1226439131 -87.1671686379C-30.0567208463 -85.6234030782 -29.9905998124 -84.0750015858 -29.9246767456 -82.5312360261C-29.8587766683 -80.9880088272 -29.792678693 -79.4401473124 -29.7267786157 -77.8969201135C-29.6608660944 -76.3534015043 -29.5947556376 -74.8052477041 -29.5288431163 -73.2617290949C-29.4629362904 -71.7183438593 -29.3968315462 -70.1703238331 -29.3309247203 -68.6269385975C-29.2650157884 -67.0835040445 -29.1989089319 -65.535434553 -29.133 -63.992C-29.7084974224 -62.4515817638 -30.2857230652 -60.9065376471 -30.8612204876 -59.3661194109C-31.4367963362 -57.8254912535 -32.0141006407 -56.2802365852 -32.5896764893 -54.7396084278C-33.1650626119 -53.1994881046 -33.7421766208 -51.6547427955 -34.3175627434 -50.1146224723C-34.8931052754 -48.5740834924 -35.4703761635 -47.0289182692 -36.0459186955 -45.4883792893C-36.6214230782 -43.9479424225 -37.1986557023 -42.4028796193 -37.774160085 -40.8624427525C-38.3496006353 -39.3221767442 -38.9267692353 -37.7772853126 -39.5022097856 -36.2370193043C-40.0776145483 -34.6968490879 -40.6547472532 -33.1520537356 -41.2301520159 -31.6118835192C-41.8055253946 -30.0717973073 -42.3826266213 -28.5270862119 -42.958 -26.987C-41.5793366555 -26.4785933806 -40.1965331807 -25.9686600147 -38.8178698362 -25.4602533953C-37.4409501514 -24.947244656 -36.0598955726 -24.4326953498 -34.6829758878 -23.9196866105C-33.3076206752 -23.402348828 -31.9281352669 -22.8834574786 -30.5527800543 -22.3661196961C-29.1787492401 -21.8443391478 -27.8005922073 -21.3209916909 -26.4265613931 -20.7992111426C-25.0544911633 -20.2729199689 -23.6783006025 -19.7450483411 -22.3062303727 -19.2187571674C-20.9361916586 -18.6873700307 -19.5620387141 -18.1543871367 -18.192 -17.623C-16.7321602626 -17.0492164851 -15.2679366221 -16.4737098967 -13.8080968847 -15.8999263818C-12.3520571831 -15.317838373 -10.8916449899 -14.7340023522 -9.43560528828 -14.1519143434C-7.98453743339 -13.5570657352 -6.52911201737 -12.9604307949 -5.07804416248 -12.3655821867C-3.63574434266 -11.748980316 -2.18911329216 -11.1305267881 -0.746813472338 -10.5139249174C0.673724464441 -9.84958660679 2.09852828091 -9.18325328624 3.51906621769 -8.51891497563C4.7791161672 -7.61318328875 6.04295005049 -6.70473168688 7.303 -5.799C7.89908434495 -4.38492597011 8.49695873299 -2.96660547166 9.09304307794 -1.55253144177C9.04533325064 -0.0143922418155 8.99748015059 1.52836599478 8.94977032329 3.06650519473C8.42070980563 4.51688496488 7.89006051766 5.97162022985 7.361 7.422"
               inkscape:connector-curvature="0"
               sodipodi:nodetypes="cscccscccscccssccccccccccccscccccscccccccsccccsssccccccccccccsscccccccccccccc" />
          </g>
          <g
             transform="translate(106.5581,142.8921)"
             id="g3007" />
          <g
             transform="translate(150.1045,155.3628)"
             id="g3011" />
          <g
             transform="translate(113.8594,197.0698)"
             id="g3015">
            <path
               id="path3017"
               style="fill:#595d65;fill-opacity:1;fill-rule:nonzero;stroke:none"
               d="m 0,0 c -1.137,0 -2.059,-0.924 -2.059,-2.058 0,-1.136 0.922,-2.06 2.059,-2.06 1.135,0 2.059,0.924 2.059,2.06 C 2.059,-0.924 1.135,0 0,0"
               inkscape:connector-curvature="0" />
          </g>
          <g
             transform="translate(117.3105,189.5894)"
             id="g3019">
            <path
               id="path3021"
               style="fill:#595d65;fill-opacity:1;fill-rule:nonzero;stroke:none"
               d="m 0,0 c -1.134,0 -2.058,-0.924 -2.058,-2.058 0,-1.135 0.924,-2.06 2.058,-2.06 1.136,0 2.06,0.925 2.06,2.06 C 2.06,-0.924 1.136,0 0,0"
               inkscape:connector-curvature="0" />
          </g>
          <g
             transform="translate(120.1875,182.6841)"
             id="g3023">
            <path
               id="path3025"
               style="fill:#595d65;fill-opacity:1;fill-rule:nonzero;stroke:none"
               d="m 0,0 c -1.134,0 -2.058,-0.923 -2.058,-2.058 0,-1.136 0.924,-2.06 2.058,-2.06 1.136,0 2.06,0.924 2.06,2.06 C 2.06,-0.923 1.136,0 0,0"
               inkscape:connector-curvature="0" />
          </g>
          <g
             transform="translate(121.4121,0.9648)"
             id="g3027">
            <path
               id="path3029"
               style="fill:#292929;fill-opacity:1;fill-rule:nonzero;stroke:none"
               d="m 0,0 9.169,0.035 -9.144,0 L 0,0 z"
               inkscape:connector-curvature="0" />
          </g>
          <g
             transform="translate(108.6807,42.8633)"
             id="g3031">
            <path
               id="path3033"
               style="fill:#595d65;fill-opacity:1;fill-rule:nonzero;stroke:none"
               d="m 0,0 c -1.135,0 -2.059,-0.924 -2.059,-2.058 0,-1.136 0.924,-2.059 2.059,-2.059 1.136,0 2.06,0.923 2.06,2.059 C 2.06,-0.924 1.136,0 0,0"
               inkscape:connector-curvature="0" />
          </g>
          <g
             transform="translate(110.9824,50.9189)"
             id="g3035">
            <path
               id="path3037"
               style="fill:#595d65;fill-opacity:1;fill-rule:nonzero;stroke:none"
               d="M 0,0 C -5.0427121,-1.0144256 1.6697407,-6.4042024 2.059,-2.059"
               inkscape:connector-curvature="0"
               sodipodi:nodetypes="cc" />
          </g>
          <g
             transform="translate(112.707,58.3984)"
             id="g3039" />
          <g
             transform="translate(161.6162,128.5977)"
             id="g3043">
            <path
               id="path3045"
               style="fill:#595d65;fill-opacity:1;fill-rule:nonzero;stroke:none"
               d="M 0,0 C -1.135,0 -2.058,-0.924 -2.058,-2.059 -0.51642946,-9.8211548 2.5585582,-0.53345533 0,0"
               inkscape:connector-curvature="0"
               sodipodi:nodetypes="ccc" />
          </g>
          <g
             transform="translate(154.1357,128.5977)"
             id="g3047" />
          <g
             transform="translate(124.2578,103.5215)"
             id="g3051" />
        </g>
      </g>
    </g>
  </g>
</svg>
